<svg width="288" height="432" viewBox="0 0 288 432" fill="none" xmlns="http://www.w3.org/2000/svg">
<path d="M256.96 42.22V48.22H31.05V42.22H256.96Z" fill="#333333"/>
<path d="M25.17 57.09C24.3744 57.09 23.6113 56.7739 23.0487 56.2113C22.4861 55.6487 22.17 54.8856 22.17 54.09V36.34C22.17 35.5443 22.4861 34.7813 23.0487 34.2186C23.6113 33.656 24.3744 33.34 25.17 33.34C25.9657 33.34 26.7288 33.656 27.2914 34.2186C27.854 34.7813 28.17 35.5443 28.17 36.34V54.09C28.17 54.8856 27.854 55.6487 27.2914 56.2113C26.7288 56.7739 25.9657 57.09 25.17 57.09Z" fill="#333333"/>
<path d="M262.83 57.09C262.034 57.09 261.271 56.7739 260.709 56.2113C260.146 55.6487 259.83 54.8856 259.83 54.09V36.34C259.83 35.5443 260.146 34.7813 260.709 34.2186C261.271 33.656 262.034 33.34 262.83 33.34C263.626 33.34 264.389 33.656 264.951 34.2186C265.514 34.7813 265.83 35.5443 265.83 36.34V54.09C265.83 54.8856 265.514 55.6487 264.951 56.2113C264.389 56.7739 263.626 57.09 262.83 57.09Z" fill="#333333"/>
<path opacity="0.2" d="M50.3401 66.6699V397C50.3411 397.262 50.4041 397.52 50.5241 397.753C50.644 397.986 50.8173 398.187 51.03 398.34C51.2426 398.494 51.4885 398.594 51.7475 398.634C52.0065 398.674 52.2712 398.652 52.5201 398.57L153.52 364.82C153.846 364.718 154.194 364.718 154.52 364.82L255.52 398.57C255.769 398.652 256.034 398.674 256.293 398.634C256.552 398.594 256.798 398.494 257.01 398.34C257.223 398.187 257.396 397.986 257.516 397.753C257.636 397.52 257.699 397.262 257.7 397V66.6699C257.703 66.4473 257.661 66.2264 257.576 66.0205C257.491 65.8147 257.365 65.6281 257.207 65.4721C257.048 65.3161 256.859 65.1938 256.652 65.1126C256.444 65.0315 256.223 64.9931 256 64.9999H52.0001C51.7809 64.9986 51.5636 65.0409 51.3609 65.1245C51.1583 65.2081 50.9743 65.3312 50.8197 65.4867C50.6652 65.6421 50.5432 65.8268 50.4608 66.03C50.3785 66.2332 50.3374 66.4507 50.3401 66.6699Z" fill="#231F20"/>
<path d="M41.7001 58.6V384.6C41.6993 384.859 41.7602 385.115 41.8779 385.346C41.9956 385.576 42.1667 385.776 42.3768 385.927C42.587 386.079 42.8303 386.178 43.0865 386.217C43.3428 386.256 43.6045 386.233 43.8501 386.15L143.48 352.84C143.806 352.738 144.154 352.738 144.48 352.84L244.11 386.15C244.356 386.233 244.617 386.256 244.874 386.217C245.13 386.178 245.373 386.079 245.583 385.927C245.794 385.776 245.965 385.576 246.082 385.346C246.2 385.115 246.261 384.859 246.26 384.6V58.6C246.25 58.1805 246.08 57.7809 245.784 57.4832C245.488 57.1856 245.089 57.0127 244.67 57H43.3301C42.9037 57.0025 42.495 57.1709 42.1908 57.4696C41.8865 57.7683 41.7105 58.1737 41.7001 58.6Z" fill="#4D1919"/>
<path d="M244.66 389.21C244.164 389.213 243.671 389.136 243.2 388.98L144 355.81L44.8001 389C44.1032 389.231 43.3614 389.293 42.6357 389.182C41.91 389.07 41.2211 388.788 40.6256 388.359C40.0302 387.929 39.5452 387.365 39.2104 386.711C38.8757 386.058 38.7008 385.334 38.7001 384.6V58.6C38.7106 57.3781 39.2027 56.2096 40.0696 55.3484C40.9365 54.4871 42.1081 54.0026 43.3301 54H244.67C245.899 54.0026 247.077 54.4927 247.945 55.3626C248.813 56.2324 249.3 57.4111 249.3 58.64V384.64C249.3 385.375 249.125 386.099 248.789 386.753C248.454 387.407 247.967 387.971 247.37 388.4C246.575 388.949 245.626 389.233 244.66 389.21ZM144 349.74C144.5 349.74 144.996 349.821 145.47 349.98L243.3 382.68V60H44.7001V382.68L142.53 350C143.003 349.833 143.499 349.746 144 349.74Z" fill="#4D1919"/>
<path d="M238.05 376.68L147.13 346.28C145.097 345.61 142.903 345.61 140.87 346.28L50 376.68V66.5H238.1L238.05 376.68ZM53.45 70V371.82L139.76 343C142.513 342.09 145.487 342.09 148.24 343L234.55 371.86V70H53.45Z" fill="#E3E4E5"/>
<path d="M222.815 153.45C222.708 153.46 222.601 153.46 222.495 153.45C202.355 149.78 173.585 147.68 143.565 147.68C114.005 147.68 85.5646 149.68 65.4646 153.3C65.0072 153.381 64.5363 153.276 64.1557 153.01C63.7751 152.744 63.5158 152.337 63.435 151.88C63.3541 151.422 63.4582 150.952 63.7244 150.571C63.9907 150.19 64.3972 149.931 64.8546 149.85C85.1246 146.25 113.855 144.18 143.565 144.18C173.785 144.18 202.785 146.3 223.125 150.01C223.552 150.09 223.935 150.327 224.197 150.673C224.46 151.02 224.584 151.452 224.545 151.886C224.507 152.319 224.308 152.722 223.988 153.017C223.668 153.312 223.25 153.477 222.815 153.48V153.45Z" fill="#E3E4E5"/>
<path d="M85.2313 136.943C83.8418 137.616 82.0276 137.952 79.7885 137.952C76.868 137.952 74.5714 137.094 72.8988 135.377C71.2261 133.66 70.3898 131.372 70.3898 128.514C70.3898 125.469 71.3279 123 73.2041 121.106C75.0891 119.212 77.5317 118.265 80.5319 118.265C82.3904 118.265 83.9569 118.5 85.2313 118.969V123.097C83.9569 122.336 82.5055 121.956 80.8771 121.956C79.0893 121.956 77.6468 122.518 76.5494 123.642C75.452 124.766 74.9033 126.288 74.9033 128.208C74.9033 130.049 75.421 131.518 76.4565 132.616C77.4919 133.704 78.8858 134.248 80.6381 134.248C82.3108 134.248 83.8418 133.841 85.2313 133.027V136.943Z" fill="#E3E4E5"/>
<path d="M105.024 137.62H100.723V129.868H92.8379V137.62H88.55V118.584H92.8379V126.177H100.723V118.584H105.024V137.62Z" fill="#E3E4E5"/>
<path d="M126.118 137.62H121.446L120.092 133.386H113.321L111.98 137.62H107.334L114.264 118.584H119.348L126.118 137.62ZM119.109 130.093L117.065 123.695C116.914 123.217 116.808 122.646 116.746 121.982H116.64C116.596 122.54 116.485 123.093 116.308 123.642L114.237 130.093H119.109Z" fill="#E3E4E5"/>
<path d="M150.186 137.62H145.951V126.23C145.951 125 146.004 123.642 146.111 122.155H146.004C145.783 123.323 145.584 124.164 145.407 124.677L140.947 137.62H137.442L132.902 124.81C132.778 124.465 132.579 123.58 132.305 122.155H132.185C132.3 124.031 132.358 125.677 132.358 127.093V137.62H128.495V118.584H134.774L138.663 129.868C138.973 130.77 139.199 131.677 139.34 132.589H139.42C139.659 131.536 139.911 130.62 140.177 129.841L144.066 118.584H150.186L150.186 137.62Z" fill="#E3E4E5"/>
<path d="M158.802 131.062V137.62H154.514V118.584H161.231C166.028 118.584 168.426 120.606 168.426 124.651C168.426 126.562 167.736 128.111 166.355 129.297C164.983 130.474 163.147 131.062 160.846 131.062H158.802ZM158.802 121.876V127.81H160.488C162.771 127.81 163.913 126.81 163.913 124.81C163.913 122.854 162.771 121.876 160.488 121.876H158.802Z" fill="#E3E4E5"/>
<path d="M175.502 137.62H171.214V118.584H175.502V137.62Z" fill="#E3E4E5"/>
<path d="M187.874 137.952C185.148 137.952 182.927 137.067 181.21 135.297C179.493 133.518 178.635 131.204 178.635 128.354C178.635 125.345 179.506 122.912 181.25 121.053C182.993 119.195 185.303 118.265 188.179 118.265C190.896 118.265 193.091 119.155 194.764 120.934C196.445 122.712 197.286 125.058 197.286 127.969C197.286 130.961 196.414 133.372 194.671 135.204C192.936 137.036 190.671 137.952 187.874 137.952ZM188.06 121.956C186.555 121.956 185.361 122.522 184.476 123.655C183.591 124.779 183.148 126.27 183.148 128.129C183.148 130.014 183.591 131.505 184.476 132.602C185.361 133.7 186.52 134.248 187.954 134.248C189.432 134.248 190.604 133.717 191.471 132.655C192.339 131.585 192.772 130.102 192.772 128.208C192.772 126.235 192.352 124.699 191.511 123.602C190.671 122.504 189.52 121.956 188.06 121.956Z" fill="#E3E4E5"/>
<path d="M217.57 137.62H213.243L205.397 125.659C204.937 124.96 204.618 124.434 204.441 124.08H204.388C204.459 124.752 204.494 125.779 204.494 127.16V137.62H200.445V118.584H205.065L212.619 130.173C212.964 130.695 213.282 131.213 213.574 131.726H213.628C213.557 131.284 213.521 130.412 213.521 129.111V118.584H217.57V137.62Z" fill="#E3E4E5"/>
<path d="M141.263 259.442H139.904L139.232 257.541H136.294L135.649 259.442H134.294L137.091 251.973H138.487L141.263 259.442ZM138.904 256.53L137.867 253.551C137.836 253.454 137.803 253.298 137.768 253.082H137.748C137.716 253.28 137.682 253.437 137.643 253.551L136.617 256.53H138.904Z" fill="#E3E4E5"/>
<path d="M143.383 258.671H143.362V259.442H142.154V251.546H143.362V255.046H143.383C143.796 254.338 144.4 253.983 145.195 253.983C145.869 253.983 146.395 254.223 146.774 254.702C147.156 255.178 147.346 255.817 147.346 256.619C147.346 257.511 147.133 258.226 146.706 258.765C146.279 259.299 145.695 259.567 144.956 259.567C144.261 259.567 143.737 259.268 143.383 258.671ZM143.352 256.551V257.213C143.352 257.601 143.475 257.931 143.722 258.202C143.972 258.473 144.288 258.608 144.669 258.608C145.117 258.608 145.468 258.435 145.722 258.088C145.978 257.737 146.107 257.249 146.107 256.624C146.107 256.1 145.987 255.69 145.748 255.395C145.511 255.096 145.19 254.947 144.784 254.947C144.353 254.947 144.006 255.1 143.742 255.405C143.482 255.711 143.352 256.093 143.352 256.551Z" fill="#E3E4E5"/>
<path d="M153.097 257.103H149.461C149.475 257.596 149.626 257.976 149.914 258.244C150.206 258.511 150.605 258.645 151.112 258.645C151.682 258.645 152.204 258.475 152.68 258.134V259.108C152.194 259.414 151.551 259.567 150.753 259.567C149.968 259.567 149.352 259.325 148.904 258.843C148.459 258.357 148.237 257.674 148.237 256.796C148.237 255.966 148.482 255.291 148.972 254.77C149.465 254.246 150.076 253.983 150.805 253.983C151.534 253.983 152.098 254.218 152.498 254.687C152.897 255.155 153.097 255.806 153.097 256.64V257.103ZM151.93 256.249C151.927 255.815 151.824 255.478 151.623 255.239C151.421 254.996 151.143 254.874 150.789 254.874C150.442 254.874 150.147 255.001 149.904 255.254C149.664 255.508 149.517 255.839 149.461 256.249H151.93Z" fill="#E3E4E5"/>
<path d="M125.818 268.635V267.359C125.932 267.463 126.068 267.557 126.224 267.64C126.384 267.724 126.552 267.795 126.729 267.854C126.906 267.909 127.083 267.953 127.261 267.984C127.438 268.015 127.601 268.031 127.75 268.031C128.271 268.031 128.658 267.944 128.912 267.771C129.169 267.597 129.297 267.345 129.297 267.015C129.297 266.838 129.254 266.686 129.167 266.557C129.083 266.425 128.965 266.305 128.813 266.198C128.66 266.09 128.479 265.988 128.271 265.89C128.066 265.79 127.846 265.685 127.609 265.578C127.356 265.442 127.12 265.305 126.901 265.166C126.682 265.028 126.491 264.875 126.328 264.708C126.169 264.538 126.042 264.347 125.948 264.135C125.858 263.923 125.813 263.675 125.813 263.39C125.813 263.04 125.891 262.736 126.047 262.479C126.207 262.218 126.415 262.005 126.672 261.838C126.932 261.668 127.228 261.543 127.557 261.463C127.887 261.38 128.224 261.338 128.568 261.338C129.349 261.338 129.919 261.427 130.276 261.604V262.828C129.853 262.522 129.307 262.37 128.641 262.37C128.457 262.37 128.273 262.387 128.089 262.422C127.908 262.456 127.745 262.514 127.599 262.593C127.457 262.673 127.34 262.776 127.25 262.901C127.16 263.026 127.115 263.177 127.115 263.354C127.115 263.521 127.149 263.665 127.219 263.786C127.288 263.908 127.389 264.019 127.521 264.12C127.656 264.22 127.82 264.319 128.011 264.416C128.205 264.51 128.429 264.613 128.682 264.724C128.943 264.859 129.188 265.001 129.417 265.151C129.649 265.3 129.853 265.465 130.026 265.646C130.203 265.826 130.342 266.028 130.443 266.25C130.547 266.469 130.599 266.719 130.599 267C130.599 267.378 130.523 267.698 130.37 267.958C130.217 268.219 130.011 268.43 129.75 268.594C129.493 268.757 129.196 268.875 128.86 268.948C128.523 269.021 128.167 269.057 127.792 269.057C127.667 269.057 127.512 269.047 127.328 269.026C127.148 269.009 126.962 268.981 126.771 268.943C126.58 268.908 126.399 268.864 126.229 268.812C126.059 268.76 125.922 268.701 125.818 268.635Z" fill="#E3E4E5"/>
<path d="M134.339 268.875C134.103 268.993 133.792 269.052 133.406 269.052C132.372 269.052 131.854 268.555 131.854 267.562V264.547H130.964V263.599H131.854V262.364L133.063 262.021V263.599H134.339V264.547H133.063V267.213C133.063 267.529 133.12 267.755 133.234 267.89C133.349 268.026 133.54 268.093 133.807 268.093C134.012 268.093 134.189 268.034 134.339 267.916V268.875Z" fill="#E3E4E5"/>
<path d="M139.474 268.932H138.302V268.099H138.281C137.913 268.738 137.374 269.057 136.662 269.057C136.137 269.057 135.726 268.915 135.427 268.63C135.132 268.345 134.985 267.968 134.985 267.5C134.985 266.493 135.564 265.906 136.724 265.739L138.308 265.515C138.308 264.755 137.946 264.375 137.224 264.375C136.589 264.375 136.016 264.593 135.505 265.031V263.974C136.068 263.64 136.717 263.474 137.453 263.474C138.801 263.474 139.474 264.137 139.474 265.463L139.474 268.932ZM138.308 266.312L137.188 266.468C136.84 266.514 136.578 266.599 136.401 266.724C136.228 266.845 136.141 267.06 136.141 267.369C136.141 267.595 136.221 267.781 136.38 267.927C136.544 268.069 136.761 268.14 137.031 268.14C137.4 268.14 137.703 268.012 137.943 267.755C138.186 267.494 138.308 267.168 138.308 266.776V266.312Z" fill="#E3E4E5"/>
<path d="M145.599 268.932H144.391V268.088H144.37C144.019 268.734 143.474 269.057 142.735 269.057C141.474 269.057 140.844 268.3 140.844 266.786V263.599H142.052V266.661C142.052 267.619 142.422 268.099 143.162 268.099C143.519 268.099 143.813 267.967 144.042 267.703C144.275 267.439 144.391 267.093 144.391 266.666V263.599H145.599L145.599 268.932Z" fill="#E3E4E5"/>
<path d="M148.401 268.161H148.38V268.932H147.172V261.036H148.38V264.536H148.401C148.814 263.828 149.419 263.474 150.214 263.474C150.887 263.474 151.413 263.713 151.792 264.192C152.174 264.668 152.365 265.307 152.365 266.109C152.365 267.001 152.151 267.717 151.724 268.255C151.297 268.79 150.714 269.057 149.974 269.057C149.28 269.057 148.755 268.758 148.401 268.161ZM148.37 266.041V266.703C148.37 267.092 148.493 267.422 148.74 267.692C148.99 267.963 149.306 268.099 149.688 268.099C150.136 268.099 150.486 267.925 150.74 267.578C150.997 267.227 151.125 266.739 151.125 266.114C151.125 265.59 151.005 265.18 150.766 264.885C150.53 264.586 150.209 264.437 149.802 264.437C149.372 264.437 149.025 264.59 148.761 264.896C148.5 265.201 148.37 265.583 148.37 266.041Z" fill="#E3E4E5"/>
<path d="M158.115 266.593H154.479C154.493 267.086 154.644 267.467 154.932 267.734C155.224 268.001 155.623 268.135 156.13 268.135C156.7 268.135 157.222 267.965 157.698 267.625V268.599C157.212 268.904 156.57 269.057 155.771 269.057C154.986 269.057 154.37 268.816 153.922 268.333C153.478 267.847 153.255 267.165 153.255 266.286C153.255 265.456 153.5 264.781 153.99 264.26C154.483 263.736 155.094 263.474 155.823 263.474C156.552 263.474 157.117 263.708 157.516 264.177C157.915 264.646 158.115 265.297 158.115 266.13V266.593ZM156.948 265.739C156.945 265.305 156.842 264.968 156.641 264.729C156.439 264.486 156.162 264.364 155.807 264.364C155.46 264.364 155.165 264.491 154.922 264.744C154.682 264.998 154.535 265.33 154.479 265.739H156.948Z" fill="#E3E4E5"/>
<path d="M162.36 264.75C162.214 264.635 162.004 264.578 161.729 264.578C161.372 264.578 161.073 264.739 160.834 265.062C160.594 265.385 160.474 265.824 160.474 266.38V268.932H159.266V263.599H160.474V264.698H160.495C160.613 264.323 160.794 264.031 161.037 263.823C161.283 263.611 161.558 263.505 161.86 263.505C162.078 263.505 162.245 263.538 162.36 263.604L162.36 264.75Z" fill="#E3E4E5"/>
<path d="M134.793 103.235H127.176V102.296C127.176 101.912 127.229 101.554 127.336 101.221C127.444 100.882 127.588 100.566 127.768 100.273C127.949 99.9739 128.16 99.6946 128.403 99.4351C128.645 99.1699 128.905 98.916 129.182 98.6734C129.458 98.4251 129.74 98.1881 130.028 97.9624C130.316 97.7311 130.598 97.4998 130.874 97.2684C131.134 97.0484 131.371 96.834 131.585 96.6252C131.8 96.4108 131.983 96.1907 132.135 95.965C132.288 95.7393 132.406 95.5024 132.491 95.2541C132.575 95.0002 132.618 94.7265 132.618 94.4331C132.618 94.1115 132.567 93.8322 132.465 93.5953C132.369 93.3526 132.231 93.1523 132.051 92.9943C131.876 92.8307 131.667 92.7094 131.424 92.6304C131.182 92.5458 130.917 92.5035 130.629 92.5035C130.132 92.5035 129.627 92.6191 129.114 92.8505C128.6 93.0818 128.107 93.4288 127.633 93.8915V92.0041C127.881 91.8179 128.132 91.6571 128.386 91.5217C128.64 91.3806 128.902 91.265 129.173 91.1747C129.444 91.0788 129.729 91.0082 130.028 90.9631C130.327 90.918 130.646 90.8954 130.984 90.8954C131.532 90.8954 132.028 90.9687 132.474 91.1154C132.92 91.2565 133.3 91.4681 133.616 91.7502C133.932 92.0267 134.175 92.3737 134.344 92.7912C134.519 93.2087 134.607 93.6883 134.607 94.23C134.607 94.7209 134.545 95.1638 134.42 95.5588C134.302 95.9481 134.13 96.312 133.904 96.6506C133.684 96.9891 133.416 97.3107 133.1 97.6154C132.784 97.9201 132.432 98.2333 132.042 98.5549C131.715 98.8201 131.388 99.0796 131.06 99.3335C130.739 99.5818 130.448 99.8272 130.189 100.07C129.929 100.307 129.718 100.547 129.554 100.789C129.396 101.026 129.317 101.266 129.317 101.509V101.551H134.793V103.235Z" fill="#E3E4E5"/>
<path d="M140.65 103.438C139.386 103.438 138.398 102.922 137.687 101.89C136.982 100.857 136.629 99.3646 136.629 97.4123C136.629 95.2682 136.999 93.646 137.738 92.5458C138.477 91.4455 139.544 90.8954 140.937 90.8954C143.606 90.8954 144.941 92.9689 144.941 97.1161C144.941 99.1699 144.563 100.738 143.806 101.822C143.056 102.899 142.004 103.438 140.65 103.438ZM140.844 92.4611C139.372 92.4611 138.635 94.0833 138.635 97.3277C138.635 100.363 139.357 101.881 140.802 101.881C142.224 101.881 142.935 100.338 142.935 97.2515C142.935 94.0579 142.238 92.4611 140.844 92.4611Z" fill="#E3E4E5"/>
<path d="M150.797 90.8276V103.235H148.834V93.2313C148.478 93.4852 148.095 93.7024 147.683 93.883C147.276 94.0579 146.811 94.213 146.286 94.3485V92.6727C146.614 92.5655 146.929 92.4526 147.234 92.3341C147.539 92.2157 147.838 92.0831 148.131 91.9364C148.43 91.7897 148.729 91.626 149.028 91.4455C149.333 91.2649 149.646 91.059 149.968 90.8276H150.797Z" fill="#E3E4E5"/>
<path d="M160.403 91.0985V98.9357H162.206V100.569H160.403V103.235H158.499V100.569H153.006V98.9188C153.503 98.3602 154.011 97.7565 154.53 97.1076C155.055 96.4531 155.557 95.7873 156.036 95.1102C156.522 94.4275 156.97 93.7448 157.382 93.062C157.794 92.3793 158.141 91.7248 158.423 91.0985H160.403ZM158.499 98.9357V93.8407C157.884 94.9466 157.275 95.9114 156.671 96.7352C156.073 97.559 155.512 98.2925 154.987 98.9357H158.499Z" fill="#E3E4E5"/>
<path d="M130.828 313.998C132.04 315.595 134.416 314.838 134.414 318.669C134.412 321.95 133.307 325.106 133.879 328.051C134.762 332.602 139.331 332.214 142.644 332.248L144.29 322.907L144.331 312.29L135.1 310.903L131.549 313.476L130.828 313.998Z" fill="black"/>
<path d="M166.14 326.383C166.038 328.014 166.023 329.279 165.558 330.311L165.034 331.475C164.778 331.906 164.67 332.274 164.743 332.61C164.984 333.709 163.745 334.127 162.488 334.152C160.391 334.195 158.575 333.438 157.032 332.406L166.14 326.383Z" fill="white" stroke="black" stroke-width="0.230447"/>
<path d="M158.138 332.73C159.297 333.346 161.89 334.436 163.78 333.645C164.209 333.465 163.993 333.353 163.908 333.384C162.536 333.219 162.323 333.106 161.63 331.795C160.578 331.96 158.579 331.929 158.106 332.549C158 332.652 158.115 332.651 158.138 332.73Z" fill="black"/>
<path d="M162.108 331.981C163.007 333.929 163.966 332.562 164.413 331.22" stroke="black" stroke-width="0.230447" stroke-linecap="round" stroke-linejoin="round"/>
<path d="M136.605 313.101L136.473 310.709L146.935 316.228L141.451 329.565C141.626 328.556 141.266 326.843 141.691 325.804C142.783 323.131 143.462 320.875 143.135 319.171C142.257 314.591 139.039 313.805 136.605 313.101Z" fill="#4D4D4D" stroke="black" stroke-width="0.230447"/>
<path d="M131.164 314.307C129.237 313.846 129.028 310.752 131.746 306.683C139.283 295.402 150.042 296.735 155.025 298.07C164.13 300.51 170.727 309.9 168.119 321.174C167.351 324.494 165.878 328.18 163.463 331.737C163.241 332.064 162.998 332.446 161.834 332.086C160.254 331.598 159.008 331.52 158.051 332.173C152.403 336.029 148.381 336.102 144.869 334.647C141.006 333.045 141.098 329.854 141.698 327.023C142.204 324.632 143.802 322.313 143.531 319.632C142.981 314.209 138.856 313.479 136.14 312.852C133.709 312.291 130.952 312.887 131.164 314.307Z" fill="#E3E4E5"/>
<path d="M151.848 324.752L153.275 326.886C154.452 326.943 155.323 326.541 155.808 325.878C156.382 325.092 156.437 323.981 156.133 323.425C155.496 322.261 153.838 321.771 152.703 322.917C152.314 323.31 152.088 323.961 151.848 324.752Z" fill="black" stroke="black" stroke-width="0.230447"/>
<path d="M155.853 331.781C156.367 331.781 156.783 331.387 156.783 330.901C156.783 330.415 156.367 330.021 155.853 330.021C155.34 330.021 154.924 330.415 154.924 330.901C154.924 331.387 155.34 331.781 155.853 331.781Z" fill="url(#paint0_linear_510_404)" stroke="url(#paint1_linear_510_404)" stroke-width="0.0911904" stroke-linecap="round" stroke-linejoin="round"/>
<path d="M150.421 329.059C151.32 331.007 156.682 329.723 157.129 328.38" stroke="black" stroke-width="0.230447" stroke-linecap="round" stroke-linejoin="round"/>
<path d="M146.747 330.234C147.174 330.478 147.707 330.349 147.939 329.945C148.17 329.541 148.012 329.015 147.585 328.77C147.158 328.526 146.625 328.655 146.393 329.059C146.162 329.463 146.32 329.989 146.747 330.234Z" fill="url(#paint2_linear_510_404)" stroke="url(#paint3_linear_510_404)" stroke-width="0.087355" stroke-linecap="round" stroke-linejoin="round"/>
<path d="M143.426 324.78C138.807 334.676 150.915 336.71 158.899 330.932C155.779 332.399 153.459 333.425 151.131 333.633C147.636 333.945 144.997 333.168 143.731 331.559C142.456 329.942 142.567 327.483 143.426 324.78Z" fill="url(#paint4_linear_510_404)"/>
<path d="M137.066 319.752C137.557 319.721 138.314 319.842 138.703 320.688C138.857 321.021 138.873 321.496 138.776 322.084C138.285 325.059 140.144 326.793 142.273 328.586L142.15 331.878C139.332 332.124 136.709 331.827 135.322 330.392C133.725 328.739 133.83 325.473 134.519 322.276C134.886 320.998 135.636 319.863 137.066 319.752Z" fill="#4D4D4D"/>
<path d="M133.858 315.047C135.221 316.276 135.322 318.194 135.031 319.862C134.946 320.347 134.591 320.07 134.619 319.903C134.92 318.139 134.691 316.713 133.529 315.253C133.199 314.839 133.601 314.815 133.858 315.047Z" fill="white"/>
<path d="M133.982 307.259C134.16 306.808 130.678 308.496 130.945 308.004C131.177 307.577 131.443 307.136 131.746 306.683C139.283 295.402 150.042 296.735 155.025 298.07C147.336 298.261 139.628 298.367 133.982 307.259Z" fill="#4D4D4D"/>
<path d="M131.164 314.307C129.237 313.846 129.028 310.752 131.746 306.683C139.283 295.402 150.042 296.735 155.025 298.07C164.13 300.51 170.727 309.9 168.119 321.174C167.351 324.494 165.878 328.18 163.463 331.737C163.241 332.064 162.998 332.446 161.834 332.086C160.254 331.598 159.008 331.52 158.051 332.173C152.403 336.029 148.381 336.102 144.869 334.647C141.006 333.045 141.098 329.854 141.698 327.023C142.204 324.632 143.802 322.313 143.531 319.632C142.981 314.209 138.856 313.479 136.14 312.852C133.709 312.291 130.952 312.887 131.164 314.307Z" stroke="black" stroke-width="0.230447"/>
<path d="M135.456 306.945C135.834 307.101 136.58 306.749 136.212 307.935L134.947 311.295C134.36 312.852 135.772 313.207 136.984 313.594L134.685 313.609L133.754 311.848L134.728 308.007L135.456 306.945Z" fill="#F2F2F2" stroke="black" stroke-width="0.230447"/>
<path d="M130.742 306.494L132.153 307.178L130.96 311.921C129.426 312.371 127.558 311.895 128.458 310.306C129.177 309.036 129.908 307.765 130.742 306.494Z" fill="#D0D0D1" stroke="black" stroke-width="0.230447"/>
<path d="M131.564 307.071L135.36 306.982C135.834 306.97 135.949 307.039 135.813 307.434L134.537 311.138C134.059 312.525 134.532 313.373 135.73 313.689L131.592 313.526C131.211 313.596 131.117 314.049 131.164 314.278C128.718 313.301 129.847 309.311 131.564 307.071Z" fill="white" stroke="black" stroke-width="0.230447"/>
<path d="M133.667 306.747L134.581 307.314C134.894 307.509 135.343 307.729 135.102 308.333L133.894 311.65L132.736 309.569L133.667 306.747Z" fill="#CCCCCE" stroke="black" stroke-width="0.230447" stroke-linecap="round" stroke-linejoin="round"/>
<path d="M133.671 306.558C133.931 306.962 135.097 307.019 134.64 308.231L133.756 310.442L133.961 311.344C133.894 311.784 133.745 312.108 133.468 312.247L132.921 312.32L131.971 311.403L132.08 309.133L133.671 306.558Z" fill="#CCCCCE" stroke="black" stroke-width="0.230447" stroke-linecap="round" stroke-linejoin="round"/>
<path d="M151.79 327.864C152.364 328.209 152.986 327.744 152.88 327.246L146.317 316.938C144.957 314.511 143.239 313.125 141.276 312.452C138.86 311.588 136.378 311.184 133.91 310.683C132.898 310.635 132.839 311.706 133.704 311.938C135.632 312.334 137.529 312.543 139.506 313.234C141.675 313.873 143.631 314.832 144.712 317.103L151.79 327.864Z" fill="#CDCDCF" stroke="black" stroke-width="0.230447"/>
<path d="M134.458 318.545C130.669 322.451 126.241 321.722 122.976 321.187C122.275 321.064 121.838 321.2 121.577 321.763C120.071 325 119.596 328.772 119.27 332.721C119.246 333.016 119.361 333.375 119.708 333.452C121.533 333.485 120.649 333.303 120.834 332.186C120.777 330.092 121.02 326.074 122.729 322.627C122.883 322.316 123.227 322.145 124.087 322.38C127.423 323.36 129.851 323.031 131.598 322.145C133.028 321.42 133.61 321.078 134.346 320.552L134.458 318.545Z" fill="url(#paint5_linear_510_404)" stroke="black" stroke-width="0.230447" stroke-linecap="round" stroke-linejoin="round"/>
<path d="M123.926 327.812C123.015 327.635 122.152 327.469 121.176 327.186C120.571 327.01 120.256 325.308 121.822 325.539C126.408 326.214 129.25 325.952 133.793 325.082L133.763 326.329C128.459 327.344 126.69 327.219 123.072 326.305L121.95 326.108C122.97 326.318 123.458 326.49 124.479 326.619L123.926 327.812Z" fill="url(#paint6_linear_510_404)" stroke="black" stroke-width="0.230447" stroke-linecap="round" stroke-linejoin="round"/>
<path d="M125.551 323.038L122.801 322.442C122.228 322.18 122.016 321.278 122.991 321.176L126.177 321.729L125.551 323.038Z" fill="url(#paint7_linear_510_404)" stroke="black" stroke-width="0.230447" stroke-linecap="round" stroke-linejoin="round"/>
<path d="M132.44 315.095L127.79 326.33C126.173 330.238 124.488 331.117 121.042 331.968C119.421 332.136 119.383 332.94 119.624 333.304C119.942 333.783 121.631 334.361 123.284 334.499L123.408 333.223C122.753 333.031 121.979 333.074 121.564 332.963C121.295 332.891 121.289 332.8 121.673 332.813C121.903 332.821 122.151 332.891 122.477 332.879C123.556 332.838 124.317 332.369 125.239 331.721C127.04 330.456 127.852 329.461 129.478 325.59L133.592 315.795C133.332 315.14 132.89 315.103 132.44 315.095Z" fill="url(#paint8_linear_510_404)" stroke="black" stroke-width="0.230447" stroke-linecap="round" stroke-linejoin="round"/>
<path d="M143.738 313.833C144.104 314.1 144.459 314.426 144.798 314.831L138.035 329.495L136.43 329.598L143.738 313.833Z" fill="url(#paint9_linear_510_404)" stroke="black" stroke-width="0.230447" stroke-linecap="round" stroke-linejoin="round"/>
<path d="M147.417 318.923C147.756 318.996 148.263 319.584 148.23 320.014C146.911 321.236 146.168 321.879 144.727 322.994C143.633 323.842 142.36 324.332 141.061 324.435C137.57 324.712 134.165 324.262 130.818 323.838L126.817 323.14C126.827 323.077 126.791 322.925 126.744 322.994C125.944 324.244 125.684 325.513 125.435 326.835L134.484 328.203C135.115 328.298 138.82 328.495 141.439 328.028L150.781 326.365L151.536 327.519C147.495 328.216 143.544 328.996 139.082 329.483C137.109 329.699 134.738 329.582 133.67 329.396L125.289 327.941C125.154 327.918 125.062 327.918 125.027 328.028C124.415 330.017 124.36 331.866 124.358 333.703C124.472 333.72 124.406 333.518 124.518 333.541C129.398 334.567 135.26 332.825 136.379 329.642L137.948 329.575C135.315 334.976 129.02 335.399 124.184 334.663C123.698 334.799 123.342 334.678 123.02 334.488C122.899 329.723 123.966 325.521 125.93 321.743C126.042 321.527 126.954 321.294 126.992 322.049C133.631 323.154 136.344 323.07 140.1 323.285C141.936 323.391 143.611 322.439 145.309 320.87L147.417 318.923Z" fill="url(#paint10_linear_510_404)" stroke="black" stroke-width="0.230447" stroke-linecap="round" stroke-linejoin="round"/>
<path d="M131.628 310.381L129.302 310.262C128.439 310.505 128.428 311.479 129.389 311.485L131.606 311.414L131.628 310.381Z" fill="#D0D0D1" stroke="black" stroke-width="0.230447"/>
<path d="M132.676 306.767C133.279 306.303 133.805 306.208 134.151 306.973L132.741 310.173C132.442 310.85 131.986 311.486 133.339 312.281C132.683 312.432 132.176 312.517 131.622 312.37C131.52 312.343 131.413 312.306 131.356 312.199C130.952 311.447 130.845 310.683 131.31 309.689L132.676 306.767Z" fill="url(#paint11_linear_510_404)" stroke="black" stroke-width="0.230447" stroke-linecap="round" stroke-linejoin="round"/>
<path d="M132.769 307.809C132.881 308.038 133.145 308.047 133.36 307.83C133.576 307.613 133.659 307.251 133.547 307.023C133.436 306.794 133.171 306.784 132.956 307.001C132.741 307.218 132.657 307.58 132.769 307.809Z" fill="url(#paint12_linear_510_404)" stroke="url(#paint13_linear_510_404)" stroke-width="0.0509192" stroke-linecap="round" stroke-linejoin="round"/>
<path d="M132.219 309.133C132.33 309.362 132.595 309.371 132.81 309.154C133.025 308.937 133.109 308.575 132.997 308.347C132.886 308.118 132.621 308.108 132.406 308.325C132.191 308.542 132.107 308.904 132.219 309.133Z" fill="url(#paint14_linear_510_404)" stroke="url(#paint15_linear_510_404)" stroke-width="0.0509192" stroke-linecap="round" stroke-linejoin="round"/>
<path d="M149.784 322.167L150.998 323.926C151.352 324.439 150.894 324.615 150.627 324.79L147.479 326.858C147.031 327.152 146.73 327.086 146.492 326.837L145.545 325.85L145.627 324.471L148.158 322.928L149.784 322.167Z" fill="url(#paint16_linear_510_404)" stroke="black" stroke-width="0.230447" stroke-linecap="round" stroke-linejoin="round"/>
<path d="M145.525 325.685C144.98 325.023 144.898 324.38 145.545 323.936L147.973 322.269L148.487 322.907C147.116 323.76 145.647 324.593 145.525 325.685Z" fill="#CBCBCE" stroke="black" stroke-width="0.230447" stroke-linecap="round" stroke-linejoin="round"/>
<path d="M148.261 322.681C149.087 322.685 149.367 322.238 149.434 321.796C149.663 322.052 150.182 322.248 149.496 322.743C147.137 324.035 145.268 325.371 145.813 326.158C145.436 325.731 145.105 325.291 145.751 324.594L148.261 322.681Z" fill="#CECED0" stroke="black" stroke-width="0.230447" stroke-linecap="round" stroke-linejoin="round"/>
<path d="M146.848 326.228C147.179 326.418 147.594 326.318 147.774 326.004C147.954 325.69 147.831 325.281 147.499 325.091C147.168 324.901 146.753 325.002 146.573 325.316C146.393 325.63 146.516 326.038 146.848 326.228Z" fill="url(#paint17_linear_510_404)" stroke="url(#paint18_linear_510_404)" stroke-width="0.0678814" stroke-linecap="round" stroke-linejoin="round"/>
<path d="M147.916 324.351C147.737 324.657 147.828 325.043 148.119 325.212C148.409 325.381 148.789 325.269 148.967 324.962C149.146 324.655 149.055 324.27 148.765 324.101C148.474 323.932 148.094 324.044 147.916 324.351Z" fill="url(#paint19_linear_510_404)" stroke="url(#paint20_linear_510_404)" stroke-width="0.063006" stroke-linecap="round" stroke-linejoin="round"/>
<path d="M150.38 306.097L151.174 307.02L151.341 307.091L151.759 307.778L151.868 307.692L152.276 308.297L152.234 308.444L152.437 308.326L152.788 309.073L152.991 308.956L153.294 309.688L153.471 309.603L153.529 309.64L153.743 310.205L153.697 310.43L153.942 310.346L154.157 310.971L154.11 311.136L154.308 311.037L154.47 311.486L154.393 311.762L154.575 311.658L154.701 312.176L154.665 312.364L154.847 312.261L154.937 312.967L155.099 312.997L155.153 313.472L155.096 313.614L155.226 313.694L155.264 314.284L155.431 314.296L155.252 313.663L155.273 313.589L155.434 313.619L155.255 312.926L155.286 312.815L155.401 312.891L155.338 312.632L155.4 312.411L155.326 312.07L155.414 311.758L155.482 311.699L155.465 311.215L155.49 310.943L155.511 310.87L155.652 310.913L155.661 310.637L155.67 310.301L155.763 310.03L155.878 310.105L155.935 310.083L155.944 309.867L155.954 309.591L155.989 309.342L156.187 309.363L156.181 309.202L156.377 308.444L156.393 308.389L156.612 308.577L156.808 307.939L157.038 308.09L157.26 307.42L157.354 307.329L157.438 307.574L157.479 307.607L157.583 307.18L157.681 307.131L157.821 306.755L157.899 306.719L157.983 306.905L158.03 306.859L158.211 306.337L158.403 306.077L158.471 306.137L158.486 306.141L158.6 305.857L158.87 305.502L158.99 305.379L159.052 305.219L159.125 305.141L159.207 304.967L159.29 304.853L159.399 304.707L159.529 304.608L159.566 304.659L159.551 304.894L159.484 305.252L159.344 305.568L159.163 305.911L159.049 306.195L158.945 306.502L158.785 307.071L158.9 307.027L158.916 307.151L158.745 307.817L158.673 308.074L158.928 307.953L158.897 308.302L158.825 308.619L158.748 308.895L158.675 308.972L158.691 309.037L158.863 308.97L158.946 309.036L158.925 309.229L158.765 309.798L158.692 309.936L158.677 309.991L158.854 310.025L158.906 309.961L158.943 310.072L158.86 310.366L158.699 310.636L158.497 310.932L158.643 311.017L158.742 310.968L158.664 311.303L158.503 311.513L158.373 311.612L158.452 311.696L158.343 311.962L158.198 312.176L158.089 312.322L158.141 312.378L158.078 312.479L158.001 312.574L158.068 312.635L157.933 312.813L157.809 312.954L157.731 313.11L157.487 313.314L157.429 313.336L157.737 313.451L157.866 313.052L158.032 312.824L158.157 312.982L158.349 312.662L158.588 312.357L158.745 312.585L158.88 312.347L159.062 312.124L159.337 311.81L159.504 312.001L159.743 311.695L159.987 311.491L160.165 311.646L160.487 311.286L160.799 311.083L160.851 311.259L161.21 310.891L161.537 310.692L161.611 310.855L161.658 310.869L161.688 310.699L162.25 310.393L162.355 310.565L162.407 310.442L162.932 310.145L162.995 310.224L163.567 309.941L164.083 309.74L164.369 309.689L164.567 309.71L163.99 310.071L163.423 310.515L163.278 310.669L163.262 310.844L163.168 310.815L162.815 311.225L162.815 311.285L162.873 311.382L162.769 311.51L162.275 311.936L162.447 312.049L161.938 312.471L162.032 312.559L161.98 312.683L161.278 313.185L161.409 313.265L161.425 313.33L160.676 313.817L160.79 313.832L159.937 314.327L159.948 314.41L160.12 314.463L159.428 314.749L159.428 314.809L159.574 314.834L158.882 315.059L158.814 315.059L158.783 315.109L158.872 315.156L158.866 315.294L159.215 315.142L159.486 315.146L159.445 315.293L159.83 315.133L160.059 315.163L160.018 315.37L160.46 315.307L160.814 315.257L160.752 315.477L161.153 315.441L161.325 315.494L161.283 315.641L161.804 315.602L161.752 315.785L161.872 315.783L162.013 315.766L162.351 315.89L162.326 315.982L163.55 316.34L163.498 316.463L162.608 316.428L162.582 316.52L162.264 316.442L162.233 316.552L162.019 316.466L161.968 316.53L161.816 316.464L161.785 316.574L161.52 316.492L161.473 316.597L161.296 316.563L161.26 316.631L161.108 316.565L161.015 316.775L160.713 316.642L160.447 316.62L160.37 316.836L159.744 316.703L159.708 316.891L159.13 316.773L159.099 316.883L159.177 316.907L159.078 316.897L158.588 316.766L158.536 316.889L158.854 316.967L158.813 317.114L159.235 317.304L159.24 317.406L159.428 317.523L159.475 317.598L159.47 317.736L159.924 318.175L159.929 318.276L159.293 318L159.252 318.087L158.955 317.876L158.835 317.939L158.741 317.91L158.491 317.773L158.413 317.809L158.225 317.751L158.09 317.689L158.017 317.707L157.897 317.59L157.694 317.468L157.647 317.573L157.391 317.394L157.245 317.31L157.163 317.543L156.844 317.166L156.75 317.077L156.588 316.987L156.578 317.024L156.797 317.211L157.126 317.672L157.09 317.8L156.746 317.634L156.35 317.353L155.974 316.997L155.66 316.661L155.598 316.463L155.53 316.342L155.509 316.355L155.353 316.547L154.973 316.749L154.484 316.977L154.437 316.963L154.411 316.875L153.818 317.111L153.792 317.023L153.437 317.014L153.39 316.94L153.479 316.807L153.51 316.697L153.447 316.678L153.478 316.568L153.358 316.511L153.4 316.364L153.066 316.341L153.092 316.189L152.633 316.068L152.539 315.979L152.206 315.956L152.123 315.95L152.169 315.785L151.883 315.716L151.711 315.724L151.711 315.604L150.824 315.311L151.262 315.147L151.662 315.111L151.709 315.006L152.095 315.144L152.136 314.938L152.647 315.115L152.673 315.023L152.454 314.956L152.485 314.846L151.927 314.654L151.942 314.479L151.953 314.442L151.63 314.323L151.635 314.244L151.421 314.159L151.437 314.044L151.389 313.969L151.4 313.933L150.951 313.655L150.811 313.611L150.8 313.468L150.847 313.363L150.461 313.164L150.377 313.099L150.205 313.046L150.241 312.857L149.934 312.623L149.751 312.427L149.61 312.324L149.657 312.218L148.77 311.566L148.738 311.496L149.489 311.668L149.812 311.787L149.869 311.885L149.906 311.756L150.317 311.923L150.401 312.049L150.468 311.93L150.76 312.04L150.985 312.328L151.073 312.136L151.198 312.175L151.496 312.446L151.6 312.558L151.704 312.37L152.085 312.707L152.179 312.796L152.205 312.704L152.413 312.868L152.56 313.073L152.674 313.148L152.757 313.034L152.914 313.082L152.971 313.18L153.013 313.153L152.506 312.658L152.662 312.526L152.151 311.93L152.223 311.852L152.056 311.362L151.795 311.082L151.742 310.966L151.825 310.852L151.694 310.532L151.71 310.417L151.438 310.114L151.578 309.978L151.165 309.152L151.279 309.048L150.949 308.168L151.053 308.101L150.87 307.486L150.874 307.348L150.375 306.098L150.38 306.097Z" fill="#4D4D4D"/>
<path d="M157.942 319.113C162.114 318.205 164.769 314.131 163.873 310.014C162.977 305.896 158.869 303.293 154.698 304.201C150.526 305.108 147.871 309.182 148.767 313.3C149.663 317.418 153.771 320.021 157.942 319.113Z" stroke="#333333" stroke-width="1.92003"/>
<path d="M149.984 306.168L162.055 317.904L149.984 306.168Z" fill="#800000"/>
<path d="M149.984 306.168L162.055 317.904" stroke="#333333" stroke-width="1.92003"/>
<path d="M132.985 173.258L128.652 184.779C127.61 187.549 126.041 188.935 123.944 188.935C123.145 188.935 122.489 188.845 121.975 188.664V186.039C122.412 186.296 122.888 186.424 123.402 186.424C124.249 186.424 124.839 186.025 125.173 185.227L125.735 183.904L121.402 173.258H125.048L127.037 179.747C127.162 180.15 127.26 180.626 127.329 181.174H127.371C127.433 180.772 127.548 180.303 127.715 179.768L129.725 173.258H132.985Z" fill="#E3E4E5"/>
<path d="M139.183 184.185C137.405 184.185 136.006 183.688 134.985 182.695C133.971 181.695 133.464 180.341 133.464 178.633C133.464 176.869 133.992 175.49 135.048 174.497C136.103 173.497 137.53 172.997 139.329 172.997C141.1 172.997 142.489 173.497 143.496 174.497C144.503 175.49 145.006 176.806 145.006 178.445C145.006 180.216 144.485 181.615 143.444 182.643C142.409 183.671 140.989 184.185 139.183 184.185ZM139.267 175.518C138.489 175.518 137.885 175.786 137.454 176.32C137.023 176.855 136.808 177.612 136.808 178.591C136.808 180.64 137.635 181.664 139.287 181.664C140.864 181.664 141.652 180.612 141.652 178.508C141.652 176.515 140.857 175.518 139.267 175.518Z" fill="#E3E4E5"/>
<path d="M157.277 183.924H153.996V182.299H153.944C153.131 183.556 152.044 184.185 150.683 184.185C148.211 184.185 146.975 182.688 146.975 179.695V173.258H150.256V179.404C150.256 180.911 150.853 181.664 152.048 181.664C152.638 181.664 153.11 181.459 153.464 181.049C153.819 180.633 153.996 180.07 153.996 179.362V173.258H157.277L157.277 183.924Z" fill="#E3E4E5"/>
<path d="M167.006 176.227C166.61 176.011 166.148 175.904 165.621 175.904C164.905 175.904 164.346 176.168 163.944 176.695C163.541 177.216 163.339 177.928 163.339 178.831V183.924H160.048V173.258H163.339V175.237H163.381C163.902 173.793 164.839 173.07 166.194 173.07C166.541 173.07 166.812 173.112 167.006 173.195L167.006 176.227Z" fill="#E3E4E5"/>
<path d="M113.214 210.519C112.471 210.95 111.398 211.165 109.996 211.165C108.357 211.165 107.03 210.669 106.017 209.676C105.003 208.683 104.496 207.401 104.496 205.832C104.496 204.019 105.037 202.592 106.121 201.551C107.211 200.502 108.666 199.978 110.485 199.978C111.742 199.978 112.652 200.144 113.214 200.478V203.269C112.527 202.756 111.76 202.499 110.912 202.499C109.968 202.499 109.218 202.776 108.662 203.332C108.114 203.881 107.839 204.641 107.839 205.613C107.839 206.558 108.103 207.301 108.631 207.842C109.159 208.377 109.885 208.644 110.808 208.644C111.628 208.644 112.43 208.387 113.214 207.874V210.519Z" fill="#E3E4E5"/>
<path d="M122.329 203.207C121.933 202.992 121.471 202.884 120.944 202.884C120.228 202.884 119.669 203.148 119.267 203.676C118.864 204.196 118.662 204.908 118.662 205.811V210.905H115.371V200.238H118.662V202.217H118.704C119.225 200.773 120.162 200.051 121.517 200.051C121.864 200.051 122.135 200.092 122.329 200.176L122.329 203.207Z" fill="#E3E4E5"/>
<path d="M128.86 211.165C127.083 211.165 125.683 210.669 124.662 209.676C123.649 208.676 123.142 207.322 123.142 205.613C123.142 203.849 123.669 202.471 124.725 201.478C125.78 200.478 127.208 199.978 129.006 199.978C130.777 199.978 132.166 200.478 133.173 201.478C134.18 202.471 134.683 203.787 134.683 205.426C134.683 207.197 134.162 208.596 133.121 209.624C132.086 210.651 130.666 211.165 128.86 211.165ZM128.944 202.499C128.166 202.499 127.562 202.766 127.131 203.301C126.701 203.835 126.485 204.592 126.485 205.572C126.485 207.62 127.312 208.644 128.964 208.644C130.541 208.644 131.329 207.592 131.329 205.488C131.329 203.495 130.534 202.499 128.944 202.499Z" fill="#E3E4E5"/>
<path d="M141.902 211.165C140.124 211.165 138.725 210.669 137.704 209.676C136.69 208.676 136.183 207.322 136.183 205.613C136.183 203.849 136.711 202.471 137.767 201.478C138.822 200.478 140.249 199.978 142.048 199.978C143.819 199.978 145.208 200.478 146.214 201.478C147.221 202.471 147.725 203.787 147.725 205.426C147.725 207.197 147.204 208.596 146.162 209.624C145.128 210.651 143.708 211.165 141.902 211.165ZM141.985 202.499C141.207 202.499 140.603 202.766 140.173 203.301C139.742 203.835 139.527 204.592 139.527 205.572C139.527 207.62 140.353 208.644 142.006 208.644C143.582 208.644 144.371 207.592 144.371 205.488C144.371 203.495 143.576 202.499 141.985 202.499Z" fill="#E3E4E5"/>
<path d="M160.548 210.905H156.6L153.194 205.613H153.152V210.905H149.86V195.113H153.152V205.165H153.194L156.371 200.238H160.277L156.454 205.249L160.548 210.905Z" fill="#E3E4E5"/>
<path d="M171.069 206.509H164.11C164.221 208.058 165.197 208.832 167.037 208.832C168.211 208.832 169.242 208.554 170.131 207.999V210.374C169.145 210.901 167.864 211.165 166.287 211.165C164.565 211.165 163.228 210.69 162.277 209.738C161.326 208.78 160.85 207.447 160.85 205.738C160.85 203.967 161.364 202.565 162.392 201.53C163.419 200.495 164.683 199.978 166.183 199.978C167.739 199.978 168.94 200.44 169.787 201.363C170.642 202.287 171.069 203.54 171.069 205.124V206.509ZM168.017 204.488C168.017 202.96 167.398 202.197 166.162 202.197C165.635 202.197 165.176 202.415 164.787 202.853C164.405 203.29 164.173 203.835 164.089 204.488H168.017Z" fill="#E3E4E5"/>
<path d="M183.464 210.905H180.173V209.436H180.131C179.381 210.589 178.28 211.165 176.829 211.165C175.496 211.165 174.423 210.696 173.61 209.759C172.798 208.815 172.391 207.499 172.391 205.811C172.391 204.047 172.839 202.634 173.735 201.571C174.631 200.509 175.805 199.978 177.256 199.978C178.631 199.978 179.589 200.471 180.131 201.457H180.173V195.113H183.464V210.905ZM180.235 205.717V204.915C180.235 204.221 180.034 203.644 179.631 203.186C179.228 202.728 178.704 202.499 178.058 202.499C177.329 202.499 176.76 202.787 176.35 203.363C175.94 203.933 175.735 204.717 175.735 205.717C175.735 206.655 175.933 207.377 176.329 207.884C176.725 208.391 177.273 208.644 177.975 208.644C178.642 208.644 179.183 208.377 179.6 207.842C180.023 207.308 180.235 206.599 180.235 205.717Z" fill="#E3E4E5"/>
<path d="M108.438 237.5C107.695 237.93 106.622 238.146 105.22 238.146C103.581 238.146 102.254 237.649 101.241 236.656C100.227 235.663 99.7197 234.382 99.7197 232.812C99.7197 231 100.261 229.573 101.345 228.531C102.435 227.482 103.89 226.958 105.709 226.958C106.966 226.958 107.876 227.125 108.438 227.458V230.25C107.751 229.736 106.984 229.479 106.136 229.479C105.192 229.479 104.442 229.757 103.886 230.312C103.338 230.861 103.063 231.621 103.063 232.594C103.063 233.538 103.327 234.281 103.855 234.823C104.383 235.357 105.109 235.625 106.032 235.625C106.852 235.625 107.654 235.368 108.438 234.854V237.5Z" fill="#E3E4E5"/>
<path d="M115.678 238.146C113.9 238.146 112.501 237.649 111.48 236.656C110.466 235.656 109.959 234.302 109.959 232.594C109.959 230.83 110.487 229.451 111.543 228.458C112.598 227.458 114.025 226.958 115.824 226.958C117.595 226.958 118.984 227.458 119.991 228.458C120.998 229.451 121.501 230.767 121.501 232.406C121.501 234.177 120.98 235.576 119.938 236.604C118.904 237.632 117.484 238.146 115.678 238.146ZM115.761 229.479C114.984 229.479 114.379 229.746 113.949 230.281C113.518 230.816 113.303 231.573 113.303 232.552C113.303 234.6 114.129 235.625 115.782 235.625C117.359 235.625 118.147 234.573 118.147 232.469C118.147 230.475 117.352 229.479 115.761 229.479Z" fill="#E3E4E5"/>
<path d="M140.574 237.885H137.293V231.802C137.293 230.253 136.723 229.479 135.584 229.479C135.043 229.479 134.602 229.712 134.261 230.177C133.921 230.642 133.751 231.222 133.751 231.916V237.885H130.459V231.739C130.459 230.232 129.9 229.479 128.782 229.479C128.22 229.479 127.768 229.701 127.428 230.146C127.095 230.59 126.928 231.194 126.928 231.958V237.885H123.636V227.219H126.928V228.885H126.97C127.31 228.316 127.786 227.854 128.397 227.5C129.015 227.139 129.688 226.958 130.418 226.958C131.925 226.958 132.956 227.621 133.511 228.948C134.324 227.621 135.518 226.958 137.095 226.958C139.414 226.958 140.574 228.389 140.574 231.25L140.574 237.885Z" fill="#E3E4E5"/>
<path d="M160.115 237.885H156.834V231.802C156.834 230.253 156.265 229.479 155.126 229.479C154.584 229.479 154.143 229.712 153.803 230.177C153.463 230.642 153.293 231.222 153.293 231.916V237.885H150.001V231.739C150.001 230.232 149.442 229.479 148.324 229.479C147.761 229.479 147.31 229.701 146.97 230.146C146.636 230.59 146.47 231.194 146.47 231.958V237.885H143.178V227.219H146.47V228.885H146.511C146.852 228.316 147.327 227.854 147.938 227.5C148.556 227.139 149.23 226.958 149.959 226.958C151.466 226.958 152.497 227.621 153.053 228.948C153.865 227.621 155.06 226.958 156.636 226.958C158.956 226.958 160.115 228.389 160.115 231.25L160.115 237.885Z" fill="#E3E4E5"/>
<path d="M164.386 225.531C163.831 225.531 163.376 225.368 163.022 225.041C162.668 224.708 162.49 224.302 162.49 223.823C162.49 223.33 162.668 222.927 163.022 222.614C163.376 222.302 163.831 222.146 164.386 222.146C164.949 222.146 165.404 222.302 165.751 222.614C166.105 222.927 166.282 223.33 166.282 223.823C166.282 224.323 166.105 224.732 165.751 225.052C165.404 225.371 164.949 225.531 164.386 225.531ZM166.011 237.885H162.72V227.219H166.011V237.885Z" fill="#E3E4E5"/>
<path d="M168.084 237.604V234.937C168.626 235.264 169.164 235.507 169.699 235.666C170.24 235.826 170.751 235.906 171.23 235.906C171.813 235.906 172.272 235.826 172.605 235.666C172.945 235.507 173.115 235.264 173.115 234.937C173.115 234.729 173.039 234.555 172.886 234.416C172.734 234.278 172.536 234.156 172.293 234.052C172.056 233.948 171.796 233.854 171.511 233.771C171.227 233.687 170.952 233.594 170.688 233.489C170.265 233.33 169.89 233.159 169.563 232.979C169.244 232.791 168.973 232.576 168.751 232.333C168.536 232.09 168.369 231.809 168.251 231.489C168.14 231.17 168.084 230.791 168.084 230.354C168.084 229.757 168.213 229.243 168.47 228.812C168.734 228.382 169.081 228.031 169.511 227.76C169.949 227.482 170.445 227.281 171.001 227.156C171.563 227.024 172.147 226.958 172.751 226.958C173.223 226.958 173.702 226.996 174.188 227.073C174.674 227.142 175.154 227.246 175.626 227.385V229.927C175.209 229.684 174.761 229.503 174.282 229.385C173.81 229.26 173.345 229.198 172.886 229.198C172.671 229.198 172.466 229.219 172.272 229.26C172.084 229.295 171.918 229.35 171.772 229.427C171.626 229.496 171.511 229.59 171.428 229.708C171.345 229.819 171.303 229.948 171.303 230.094C171.303 230.288 171.365 230.455 171.49 230.594C171.615 230.732 171.779 230.854 171.98 230.958C172.181 231.055 172.404 231.146 172.647 231.229C172.897 231.305 173.143 231.385 173.386 231.469C173.824 231.621 174.22 231.788 174.574 231.969C174.928 232.149 175.23 232.361 175.48 232.604C175.737 232.847 175.931 233.132 176.063 233.458C176.202 233.785 176.272 234.173 176.272 234.625C176.272 235.257 176.133 235.798 175.855 236.25C175.584 236.694 175.22 237.059 174.761 237.344C174.31 237.621 173.786 237.823 173.188 237.948C172.598 238.08 171.984 238.146 171.345 238.146C170.171 238.146 169.084 237.965 168.084 237.604Z" fill="#E3E4E5"/>
<path d="M188.407 237.885H185.126V231.823C185.126 230.26 184.556 229.479 183.417 229.479C182.834 229.479 182.362 229.698 182.001 230.135C181.64 230.573 181.459 231.128 181.459 231.802V237.885H178.167V222.094H181.459V228.802H181.501C182.306 227.573 183.4 226.958 184.782 226.958C187.199 226.958 188.407 228.416 188.407 231.333L188.407 237.885Z" fill="#E3E4E5"/>
<path d="M192.35 206.471L226.316 206.497L192.35 206.471Z" fill="#E3E4E5"/>
<path d="M192.35 206.471L226.316 206.497" stroke="#E3E4E5" stroke-width="2.55959" stroke-miterlimit="10" stroke-linecap="round"/>
<path d="M61.5525 206.689L97.5215 206.714L61.5525 206.689Z" fill="#E3E4E5"/>
<path d="M61.5525 206.689L97.5215 206.714" stroke="#E3E4E5" stroke-width="2.56102" stroke-miterlimit="10" stroke-linecap="round"/>
<defs>
<linearGradient id="paint0_linear_510_404" x1="155.367" y1="330.375" x2="156.228" y2="331.574" gradientUnits="userSpaceOnUse">
<stop stop-color="#B9BABC"/>
<stop offset="0.332298" stop-color="#6F7072"/>
<stop offset="0.505068" stop-color="#1F2022"/>
<stop offset="0.691743" stop-color="#6F7072"/>
<stop offset="1" stop-color="#B9BABC"/>
</linearGradient>
<linearGradient id="paint1_linear_510_404" x1="155.543" y1="329.925" x2="156.642" y2="331.732" gradientUnits="userSpaceOnUse">
<stop stop-color="#1D1E20"/>
<stop offset="1" stop-color="#CBCCCE"/>
</linearGradient>
<linearGradient id="paint2_linear_510_404" x1="147.012" y1="328.833" x2="147.157" y2="330.24" gradientUnits="userSpaceOnUse">
<stop stop-color="#B9BABC"/>
<stop offset="0.332298" stop-color="#6F7072"/>
<stop offset="0.505068" stop-color="#1F2022"/>
<stop offset="0.691743" stop-color="#6F7072"/>
<stop offset="1" stop-color="#B9BABC"/>
</linearGradient>
<linearGradient id="paint3_linear_510_404" x1="147.373" y1="328.543" x2="147.425" y2="330.568" gradientUnits="userSpaceOnUse">
<stop stop-color="#1D1E20"/>
<stop offset="1" stop-color="#CBCCCE"/>
</linearGradient>
<linearGradient id="paint4_linear_510_404" x1="143.261" y1="324.512" x2="159.187" y2="330.602" gradientUnits="userSpaceOnUse">
<stop stop-opacity="0"/>
<stop offset="0.094718"/>
<stop offset="0.397666"/>
<stop offset="0.724935"/>
<stop offset="1" stop-opacity="0"/>
</linearGradient>
<linearGradient id="paint5_linear_510_404" x1="122.564" y1="332.339" x2="144.539" y2="317.771" gradientUnits="userSpaceOnUse">
<stop stop-color="#CACACD"/>
<stop offset="1" stop-color="#D4D4D4"/>
</linearGradient>
<linearGradient id="paint6_linear_510_404" x1="122.564" y1="332.338" x2="144.539" y2="317.771" gradientUnits="userSpaceOnUse">
<stop stop-color="#CACACD"/>
<stop offset="1" stop-color="#D4D4D4"/>
</linearGradient>
<linearGradient id="paint7_linear_510_404" x1="122.564" y1="332.338" x2="144.539" y2="317.771" gradientUnits="userSpaceOnUse">
<stop stop-color="#CACACD"/>
<stop offset="1" stop-color="#D4D4D4"/>
</linearGradient>
<linearGradient id="paint8_linear_510_404" x1="122.564" y1="332.339" x2="144.539" y2="317.771" gradientUnits="userSpaceOnUse">
<stop stop-color="#CACACD"/>
<stop offset="1" stop-color="#D4D4D4"/>
</linearGradient>
<linearGradient id="paint9_linear_510_404" x1="122.564" y1="332.339" x2="144.539" y2="317.771" gradientUnits="userSpaceOnUse">
<stop stop-color="#CACACD"/>
<stop offset="1" stop-color="#D4D4D4"/>
</linearGradient>
<linearGradient id="paint10_linear_510_404" x1="122.564" y1="332.339" x2="144.539" y2="317.771" gradientUnits="userSpaceOnUse">
<stop stop-color="#CACACD"/>
<stop offset="1" stop-color="#D4D4D4"/>
</linearGradient>
<linearGradient id="paint11_linear_510_404" x1="132.115" y1="307.165" x2="131.693" y2="312.105" gradientUnits="userSpaceOnUse">
<stop stop-color="#CDCDCF"/>
<stop offset="0.583118" stop-color="#CCCCCE"/>
<stop offset="0.751085" stop-color="#929295"/>
<stop offset="0.891675" stop-color="#CCCCCE"/>
<stop offset="1" stop-color="#CDCDCF"/>
</linearGradient>
<linearGradient id="paint12_linear_510_404" x1="133.285" y1="306.964" x2="133.064" y2="307.912" gradientUnits="userSpaceOnUse">
<stop stop-color="#B9BABC"/>
<stop offset="0.332298" stop-color="#6F7072"/>
<stop offset="0.505068" stop-color="#1F2022"/>
<stop offset="0.691743" stop-color="#6F7072"/>
<stop offset="1" stop-color="#B9BABC"/>
</linearGradient>
<linearGradient id="paint13_linear_510_404" x1="133.522" y1="306.842" x2="133.047" y2="308.169" gradientUnits="userSpaceOnUse">
<stop stop-color="#1D1E20"/>
<stop offset="1" stop-color="#CBCCCE"/>
</linearGradient>
<linearGradient id="paint14_linear_510_404" x1="132.734" y1="308.288" x2="132.513" y2="309.236" gradientUnits="userSpaceOnUse">
<stop stop-color="#B9BABC"/>
<stop offset="0.332298" stop-color="#6F7072"/>
<stop offset="0.505068" stop-color="#1F2022"/>
<stop offset="0.691743" stop-color="#6F7072"/>
<stop offset="1" stop-color="#B9BABC"/>
</linearGradient>
<linearGradient id="paint15_linear_510_404" x1="132.972" y1="308.166" x2="132.497" y2="309.493" gradientUnits="userSpaceOnUse">
<stop stop-color="#1D1E20"/>
<stop offset="1" stop-color="#CBCCCE"/>
</linearGradient>
<linearGradient id="paint16_linear_510_404" x1="145.389" y1="327.819" x2="151.036" y2="323.622" gradientUnits="userSpaceOnUse">
<stop stop-color="#CDCDCF"/>
<stop offset="0.583118" stop-color="#CCCCCE"/>
<stop offset="0.751085" stop-color="#929295"/>
<stop offset="0.891675" stop-color="#CCCCCE"/>
<stop offset="1" stop-color="#CDCDCF"/>
</linearGradient>
<linearGradient id="paint17_linear_510_404" x1="147.126" y1="325.387" x2="147.401" y2="326.293" gradientUnits="userSpaceOnUse">
<stop stop-color="#B9BABC"/>
<stop offset="0.332298" stop-color="#6F7072"/>
<stop offset="0.505068" stop-color="#1F2022"/>
<stop offset="0.691743" stop-color="#6F7072"/>
<stop offset="1" stop-color="#B9BABC"/>
</linearGradient>
<linearGradient id="paint18_linear_510_404" x1="147.334" y1="324.915" x2="147.864" y2="326.462" gradientUnits="userSpaceOnUse">
<stop stop-color="#1D1E20"/>
<stop offset="1" stop-color="#CBCCCE"/>
</linearGradient>
<linearGradient id="paint19_linear_510_404" x1="148.925" y1="324.548" x2="147.909" y2="324.646" gradientUnits="userSpaceOnUse">
<stop stop-color="#B9BABC"/>
<stop offset="0.332298" stop-color="#6F7072"/>
<stop offset="0.505068" stop-color="#1F2022"/>
<stop offset="0.691743" stop-color="#6F7072"/>
<stop offset="1" stop-color="#B9BABC"/>
</linearGradient>
<linearGradient id="paint20_linear_510_404" x1="149.132" y1="324.81" x2="147.671" y2="324.838" gradientUnits="userSpaceOnUse">
<stop stop-color="#1D1E20"/>
<stop offset="1" stop-color="#CBCCCE"/>
</linearGradient>
</defs>
</svg>
