<svg width="288" height="432" viewBox="0 0 288 432" fill="none" xmlns="http://www.w3.org/2000/svg">
<path d="M256.96 42.22V48.22H31.05V42.22H256.96Z" fill="#333333"/>
<path d="M25.17 57.09C24.3743 57.09 23.6113 56.7739 23.0487 56.2113C22.4861 55.6487 22.17 54.8856 22.17 54.09V36.34C22.17 35.5443 22.4861 34.7813 23.0487 34.2186C23.6113 33.656 24.3743 33.34 25.17 33.34C25.9656 33.34 26.7287 33.656 27.2913 34.2186C27.8539 34.7813 28.17 35.5443 28.17 36.34V54.09C28.17 54.8856 27.8539 55.6487 27.2913 56.2113C26.7287 56.7739 25.9656 57.09 25.17 57.09Z" fill="#333333"/>
<path d="M262.83 57.09C262.034 57.09 261.271 56.7739 260.709 56.2113C260.146 55.6487 259.83 54.8856 259.83 54.09V36.34C259.83 35.5443 260.146 34.7813 260.709 34.2186C261.271 33.656 262.034 33.34 262.83 33.34C263.626 33.34 264.389 33.656 264.951 34.2186C265.514 34.7813 265.83 35.5443 265.83 36.34V54.09C265.83 54.8856 265.514 55.6487 264.951 56.2113C264.389 56.7739 263.626 57.09 262.83 57.09Z" fill="#333333"/>
<path opacity="0.2" d="M50.34 66.6699V397C50.341 397.262 50.404 397.52 50.5239 397.753C50.6438 397.986 50.8172 398.187 51.0298 398.34C51.2425 398.494 51.4884 398.594 51.7474 398.634C52.0064 398.674 52.2711 398.652 52.52 398.57L153.52 364.82C153.846 364.718 154.194 364.718 154.52 364.82L255.52 398.57C255.769 398.652 256.034 398.674 256.293 398.634C256.552 398.594 256.797 398.494 257.01 398.34C257.223 398.187 257.396 397.986 257.516 397.753C257.636 397.52 257.699 397.262 257.7 397V66.6699C257.703 66.4473 257.66 66.2264 257.576 66.0205C257.491 65.8147 257.365 65.6281 257.206 65.4721C257.048 65.3161 256.859 65.1938 256.651 65.1126C256.444 65.0315 256.223 64.9931 256 64.9999H52C51.7808 64.9986 51.5635 65.0409 51.3608 65.1245C51.1581 65.2081 50.9742 65.3312 50.8196 65.4867C50.6651 65.6421 50.5431 65.8268 50.4607 66.03C50.3783 66.2332 50.3373 66.4507 50.34 66.6699Z" fill="#231F20"/>
<path d="M41.7 58.6V384.6C41.6991 384.859 41.7601 385.115 41.8778 385.346C41.9955 385.576 42.1665 385.776 42.3767 385.927C42.5869 386.079 42.8302 386.178 43.0864 386.217C43.3426 386.256 43.6044 386.233 43.85 386.15L143.48 352.84C143.806 352.738 144.154 352.738 144.48 352.84L244.11 386.15C244.356 386.233 244.617 386.256 244.873 386.217C245.13 386.178 245.373 386.079 245.583 385.927C245.793 385.776 245.964 385.576 246.082 385.346C246.2 385.115 246.261 384.859 246.26 384.6V58.6C246.25 58.1805 246.079 57.7809 245.784 57.4832C245.488 57.1856 245.089 57.0127 244.67 57H43.33C42.9036 57.0025 42.4949 57.1709 42.1906 57.4696C41.8863 57.7683 41.7104 58.1737 41.7 58.6Z" fill="#4D1919"/>
<path d="M244.66 389.21C244.164 389.213 243.671 389.136 243.2 388.98L144 355.81L44.8 389C44.1031 389.231 43.3613 389.293 42.6356 389.182C41.9099 389.07 41.221 388.788 40.6256 388.359C40.0301 387.929 39.5451 387.365 39.2103 386.711C38.8756 386.058 38.7007 385.334 38.7 384.6V58.6C38.7105 57.3781 39.2027 56.2096 40.0695 55.3484C40.9364 54.4871 42.108 54.0026 43.33 54H244.67C245.899 54.0026 247.077 54.4927 247.945 55.3626C248.813 56.2324 249.3 57.4111 249.3 58.64V384.64C249.3 385.375 249.125 386.099 248.789 386.753C248.453 387.407 247.967 387.971 247.37 388.4C246.575 388.949 245.626 389.233 244.66 389.21ZM144 349.74C144.5 349.74 144.996 349.821 145.47 349.98L243.3 382.68V60H44.7V382.68L142.53 350C143.002 349.833 143.499 349.746 144 349.74Z" fill="#4D1919"/>
<path d="M238.05 376.68L147.13 346.28C145.097 345.61 142.903 345.61 140.87 346.28L50 376.68V66.5H238.1L238.05 376.68ZM53.45 70V371.82L139.76 343C142.513 342.09 145.487 342.09 148.24 343L234.55 371.86V70H53.45Z" fill="#E3E4E5"/>
<path d="M222.815 153.45C222.708 153.46 222.601 153.46 222.495 153.45C202.355 149.78 173.585 147.68 143.565 147.68C114.005 147.68 85.5645 149.68 65.4645 153.3C65.0071 153.381 64.5363 153.276 64.1557 153.01C63.775 152.744 63.5158 152.337 63.4349 151.88C63.354 151.422 63.4581 150.952 63.7244 150.571C63.9906 150.19 64.3971 149.931 64.8545 149.85C85.1245 146.25 113.855 144.18 143.565 144.18C173.785 144.18 202.785 146.3 223.125 150.01C223.552 150.09 223.935 150.327 224.197 150.673C224.46 151.02 224.584 151.452 224.545 151.886C224.506 152.319 224.308 152.722 223.988 153.017C223.668 153.312 223.25 153.477 222.815 153.48V153.45Z" fill="#E3E4E5"/>
<path d="M85.2313 136.943C83.8418 137.616 82.0276 137.952 79.7885 137.952C76.868 137.952 74.5714 137.094 72.8988 135.377C71.2261 133.66 70.3898 131.372 70.3898 128.514C70.3898 125.469 71.3279 123 73.2041 121.106C75.0891 119.212 77.5317 118.265 80.5319 118.265C82.3904 118.265 83.9569 118.5 85.2313 118.969V123.097C83.9569 122.336 82.5055 121.956 80.8771 121.956C79.0893 121.956 77.6468 122.518 76.5494 123.642C75.452 124.766 74.9033 126.288 74.9033 128.208C74.9033 130.049 75.421 131.518 76.4565 132.616C77.4919 133.704 78.8858 134.248 80.6381 134.248C82.3108 134.248 83.8418 133.841 85.2313 133.027V136.943Z" fill="#E3E4E5"/>
<path d="M105.024 137.62H100.723V129.868H92.8379V137.62H88.55V118.584H92.8379V126.177H100.723V118.584H105.024V137.62Z" fill="#E3E4E5"/>
<path d="M126.118 137.62H121.446L120.092 133.386H113.321L111.98 137.62H107.334L114.264 118.584H119.348L126.118 137.62ZM119.109 130.093L117.065 123.695C116.914 123.217 116.808 122.646 116.746 121.982H116.64C116.596 122.54 116.485 123.093 116.308 123.642L114.237 130.093H119.109Z" fill="#E3E4E5"/>
<path d="M150.186 137.62H145.951V126.23C145.951 125 146.004 123.642 146.111 122.155H146.004C145.783 123.323 145.584 124.164 145.407 124.677L140.947 137.62H137.442L132.902 124.81C132.778 124.465 132.579 123.58 132.305 122.155H132.185C132.3 124.031 132.358 125.677 132.358 127.093V137.62H128.495V118.584H134.774L138.663 129.868C138.973 130.77 139.199 131.677 139.34 132.589H139.42C139.659 131.536 139.911 130.62 140.177 129.841L144.066 118.584H150.186L150.186 137.62Z" fill="#E3E4E5"/>
<path d="M158.802 131.062V137.62H154.514V118.584H161.231C166.028 118.584 168.426 120.606 168.426 124.651C168.426 126.562 167.736 128.111 166.355 129.297C164.983 130.474 163.147 131.062 160.846 131.062H158.802ZM158.802 121.876V127.81H160.488C162.771 127.81 163.912 126.81 163.912 124.81C163.912 122.854 162.771 121.876 160.488 121.876H158.802Z" fill="#E3E4E5"/>
<path d="M175.502 137.62H171.214V118.584H175.502V137.62Z" fill="#E3E4E5"/>
<path d="M187.874 137.952C185.148 137.952 182.927 137.067 181.21 135.297C179.493 133.518 178.635 131.204 178.635 128.354C178.635 125.345 179.506 122.912 181.25 121.053C182.993 119.195 185.303 118.265 188.179 118.265C190.896 118.265 193.091 119.155 194.764 120.934C196.445 122.712 197.286 125.058 197.286 127.969C197.286 130.961 196.414 133.372 194.671 135.204C192.936 137.036 190.671 137.952 187.874 137.952ZM188.06 121.956C186.555 121.956 185.361 122.522 184.476 123.655C183.591 124.779 183.148 126.27 183.148 128.129C183.148 130.014 183.591 131.505 184.476 132.602C185.361 133.7 186.52 134.248 187.954 134.248C189.432 134.248 190.604 133.717 191.471 132.655C192.339 131.585 192.772 130.102 192.772 128.208C192.772 126.235 192.352 124.699 191.511 123.602C190.671 122.504 189.52 121.956 188.06 121.956Z" fill="#E3E4E5"/>
<path d="M217.57 137.62H213.243L205.397 125.659C204.937 124.96 204.618 124.434 204.441 124.08H204.388C204.459 124.752 204.494 125.779 204.494 127.16V137.62H200.445V118.584H205.065L212.619 130.173C212.964 130.695 213.282 131.213 213.574 131.726H213.628C213.557 131.284 213.521 130.412 213.521 129.111V118.584H217.57V137.62Z" fill="#E3E4E5"/>
<path d="M132.44 259.442H131.195V256.202H127.68V259.442H126.44V251.973H127.68V255.114H131.195V251.973H132.44V259.442Z" fill="#E3E4E5"/>
<path d="M138.8 259.442H137.591V258.598H137.57C137.22 259.244 136.675 259.567 135.935 259.567C134.675 259.567 134.044 258.81 134.044 257.296V254.108H135.253V257.171C135.253 258.129 135.623 258.608 136.362 258.608C136.72 258.608 137.013 258.476 137.242 258.213C137.475 257.949 137.591 257.603 137.591 257.176V254.108H138.8L138.8 259.442Z" fill="#E3E4E5"/>
<path d="M145.123 259.442H143.914V256.437C143.914 255.44 143.562 254.942 142.857 254.942C142.489 254.942 142.185 255.081 141.945 255.358C141.706 255.633 141.586 255.98 141.586 256.4V259.442H140.373V254.108H141.586V254.994H141.607C142.006 254.32 142.583 253.983 143.336 253.983C143.916 253.983 144.359 254.173 144.664 254.551C144.97 254.926 145.123 255.47 145.123 256.181L145.123 259.442Z" fill="#E3E4E5"/>
<path d="M149.409 259.384C149.173 259.503 148.862 259.562 148.477 259.562C147.442 259.562 146.925 259.065 146.925 258.072V255.056H146.034V254.108H146.925V252.874L148.133 252.53V254.108H149.409V255.056H148.133V257.723C148.133 258.039 148.19 258.265 148.305 258.4C148.419 258.535 148.61 258.603 148.878 258.603C149.083 258.603 149.26 258.544 149.409 258.426V259.384Z" fill="#E3E4E5"/>
<path d="M154.904 257.103H151.268C151.282 257.596 151.433 257.976 151.722 258.244C152.013 258.511 152.413 258.645 152.919 258.645C153.489 258.645 154.011 258.475 154.487 258.134V259.108C154.001 259.414 153.359 259.567 152.56 259.567C151.775 259.567 151.159 259.325 150.711 258.843C150.267 258.357 150.044 257.674 150.044 256.796C150.044 255.966 150.289 255.291 150.779 254.77C151.272 254.246 151.883 253.983 152.612 253.983C153.341 253.983 153.906 254.218 154.305 254.687C154.704 255.155 154.904 255.806 154.904 256.64V257.103ZM153.737 256.249C153.734 255.815 153.631 255.478 153.43 255.239C153.228 254.996 152.951 254.874 152.597 254.874C152.249 254.874 151.954 255.001 151.711 255.254C151.472 255.508 151.324 255.839 151.268 256.249H153.737Z" fill="#E3E4E5"/>
<path d="M159.149 255.259C159.003 255.145 158.793 255.088 158.518 255.088C158.161 255.088 157.862 255.249 157.623 255.572C157.383 255.895 157.263 256.334 157.263 256.89V259.442H156.055V254.108H157.263V255.207H157.284C157.402 254.832 157.583 254.541 157.826 254.332C158.072 254.121 158.347 254.015 158.649 254.015C158.867 254.015 159.034 254.048 159.149 254.114L159.149 255.259Z" fill="#E3E4E5"/>
<path d="M123.568 266.224V268.932H122.333V261.463H124.599C125.457 261.463 126.122 261.663 126.594 262.062C127.066 262.462 127.302 263.024 127.302 263.75C127.302 264.475 127.056 265.069 126.563 265.531C126.07 265.993 125.403 266.224 124.563 266.224H123.568ZM123.568 262.484V265.213H124.37C124.901 265.213 125.306 265.09 125.583 264.843C125.861 264.597 126 264.25 126 263.802C126 262.923 125.49 262.484 124.469 262.484H123.568Z" fill="#E3E4E5"/>
<path d="M132.589 266.593H128.953C128.967 267.086 129.118 267.467 129.406 267.734C129.698 268.001 130.097 268.135 130.604 268.135C131.174 268.135 131.696 267.965 132.172 267.625V268.599C131.686 268.904 131.044 269.057 130.245 269.057C129.46 269.057 128.844 268.816 128.396 268.333C127.951 267.847 127.729 267.165 127.729 266.286C127.729 265.456 127.974 264.781 128.464 264.26C128.957 263.736 129.568 263.474 130.297 263.474C131.026 263.474 131.59 263.708 131.99 264.177C132.389 264.646 132.589 265.297 132.589 266.13V266.593ZM131.422 265.739C131.419 265.305 131.316 264.968 131.115 264.729C130.913 264.486 130.636 264.364 130.281 264.364C129.934 264.364 129.639 264.491 129.396 264.744C129.156 264.998 129.009 265.33 128.953 265.739H131.422Z" fill="#E3E4E5"/>
<path d="M138.589 268.932H137.38V268.026H137.36C136.971 268.713 136.372 269.057 135.563 269.057C134.906 269.057 134.38 268.819 133.985 268.343C133.592 267.864 133.396 267.213 133.396 266.39C133.396 265.508 133.613 264.802 134.047 264.271C134.485 263.739 135.066 263.474 135.792 263.474C136.511 263.474 137.033 263.762 137.36 264.338H137.38V261.036H138.589V268.932ZM137.396 266.494V265.797C137.396 265.418 137.273 265.097 137.026 264.833C136.78 264.569 136.465 264.437 136.083 264.437C135.632 264.437 135.276 264.606 135.016 264.942C134.759 265.279 134.63 265.746 134.63 266.343C134.63 266.885 134.754 267.314 135 267.63C135.25 267.942 135.585 268.099 136.005 268.099C136.419 268.099 136.754 267.948 137.011 267.646C137.267 267.34 137.396 266.956 137.396 266.494Z" fill="#E3E4E5"/>
<path d="M144.682 266.593H141.047C141.061 267.086 141.212 267.467 141.5 267.734C141.792 268.001 142.191 268.135 142.698 268.135C143.268 268.135 143.79 267.965 144.266 267.625V268.599C143.78 268.904 143.137 269.057 142.339 269.057C141.554 269.057 140.938 268.816 140.49 268.333C140.045 267.847 139.823 267.165 139.823 266.286C139.823 265.456 140.068 264.781 140.557 264.26C141.051 263.736 141.662 263.474 142.391 263.474C143.12 263.474 143.684 263.708 144.083 264.177C144.483 264.646 144.682 265.297 144.682 266.13V266.593ZM143.516 265.739C143.512 265.305 143.41 264.968 143.208 264.729C143.007 264.486 142.729 264.364 142.375 264.364C142.028 264.364 141.733 264.491 141.49 264.744C141.25 264.998 141.103 265.33 141.047 265.739H143.516Z" fill="#E3E4E5"/>
<path d="M148.927 264.75C148.781 264.635 148.571 264.578 148.297 264.578C147.939 264.578 147.641 264.739 147.401 265.062C147.162 265.385 147.042 265.824 147.042 266.38V268.932H145.833V263.599H147.042V264.698H147.063C147.181 264.323 147.361 264.031 147.604 263.823C147.851 263.611 148.125 263.505 148.427 263.505C148.646 263.505 148.813 263.538 148.927 263.604L148.927 264.75Z" fill="#E3E4E5"/>
<path d="M149.516 268.765V267.646C149.967 267.989 150.465 268.161 151.011 268.161C151.74 268.161 152.104 267.946 152.104 267.515C152.104 267.394 152.073 267.291 152.011 267.208C151.948 267.121 151.863 267.045 151.755 266.979C151.651 266.913 151.526 266.854 151.38 266.802C151.238 266.75 151.078 266.691 150.901 266.625C150.683 266.538 150.485 266.446 150.308 266.349C150.134 266.251 149.988 266.142 149.87 266.021C149.755 265.896 149.669 265.755 149.61 265.599C149.551 265.442 149.521 265.26 149.521 265.052C149.521 264.795 149.582 264.569 149.703 264.375C149.825 264.177 149.988 264.012 150.193 263.88C150.398 263.744 150.63 263.644 150.891 263.578C151.151 263.508 151.42 263.474 151.698 263.474C152.191 263.474 152.632 263.548 153.021 263.698V264.755C152.646 264.498 152.216 264.369 151.729 264.369C151.577 264.369 151.438 264.385 151.313 264.416C151.191 264.448 151.087 264.491 151 264.547C150.913 264.602 150.846 264.67 150.797 264.75C150.749 264.826 150.724 264.911 150.724 265.005C150.724 265.12 150.749 265.217 150.797 265.297C150.846 265.376 150.917 265.448 151.011 265.51C151.108 265.569 151.222 265.625 151.354 265.677C151.49 265.725 151.644 265.779 151.818 265.838C152.047 265.932 152.252 266.027 152.433 266.125C152.617 266.222 152.773 266.333 152.901 266.458C153.03 266.58 153.129 266.722 153.198 266.885C153.268 267.045 153.302 267.236 153.302 267.458C153.302 267.729 153.24 267.965 153.115 268.166C152.99 268.368 152.823 268.534 152.615 268.666C152.407 268.798 152.165 268.896 151.891 268.958C151.62 269.024 151.334 269.057 151.032 269.057C150.448 269.057 149.943 268.96 149.516 268.765Z" fill="#E3E4E5"/>
<path d="M156.813 269.057C155.99 269.057 155.332 268.809 154.839 268.312C154.349 267.812 154.104 267.151 154.104 266.328C154.104 265.432 154.36 264.732 154.87 264.229C155.384 263.725 156.075 263.474 156.943 263.474C157.776 263.474 158.426 263.718 158.891 264.208C159.356 264.698 159.589 265.376 159.589 266.244C159.589 267.095 159.337 267.777 158.834 268.291C158.334 268.802 157.66 269.057 156.813 269.057ZM156.87 264.437C156.398 264.437 156.025 264.602 155.75 264.932C155.476 265.262 155.339 265.717 155.339 266.297C155.339 266.856 155.478 267.297 155.755 267.619C156.033 267.939 156.405 268.099 156.87 268.099C157.346 268.099 157.71 267.941 157.964 267.625C158.221 267.309 158.349 266.859 158.349 266.276C158.349 265.689 158.221 265.236 157.964 264.916C157.71 264.597 157.346 264.437 156.87 264.437Z" fill="#E3E4E5"/>
<path d="M165.568 268.932H164.36V265.927C164.36 264.93 164.007 264.432 163.302 264.432C162.934 264.432 162.63 264.571 162.391 264.849C162.151 265.123 162.031 265.47 162.031 265.89V268.932H160.818V263.599H162.031V264.484H162.052C162.452 263.81 163.028 263.474 163.781 263.474C164.361 263.474 164.804 263.663 165.11 264.041C165.415 264.416 165.568 264.96 165.568 265.672L165.568 268.932Z" fill="#E3E4E5"/>
<path d="M134.949 103.235H127.332V102.296C127.332 101.912 127.386 101.554 127.493 101.221C127.6 100.882 127.744 100.566 127.925 100.273C128.105 99.9739 128.317 99.6946 128.559 99.4351C128.802 99.1699 129.062 98.916 129.338 98.6734C129.615 98.4251 129.897 98.1881 130.184 97.9624C130.472 97.7311 130.754 97.4998 131.031 97.2684C131.29 97.0484 131.527 96.834 131.742 96.6252C131.956 96.4108 132.14 96.1907 132.292 95.965C132.444 95.7393 132.563 95.5024 132.647 95.2541C132.732 95.0002 132.774 94.7265 132.774 94.4331C132.774 94.1115 132.723 93.8322 132.622 93.5953C132.526 93.3526 132.388 93.1523 132.207 92.9943C132.032 92.8307 131.824 92.7094 131.581 92.6304C131.338 92.5458 131.073 92.5035 130.785 92.5035C130.289 92.5035 129.784 92.6191 129.27 92.8505C128.757 93.0818 128.263 93.4288 127.789 93.8915V92.0041C128.038 91.8179 128.289 91.6571 128.543 91.5217C128.796 91.3806 129.059 91.265 129.33 91.1747C129.6 91.0788 129.885 91.0082 130.184 90.9631C130.483 90.918 130.802 90.8954 131.141 90.8954C131.688 90.8954 132.185 90.9687 132.63 91.1154C133.076 91.2565 133.457 91.4681 133.773 91.7502C134.089 92.0267 134.332 92.3737 134.501 92.7912C134.676 93.2087 134.763 93.6883 134.763 94.23C134.763 94.7209 134.701 95.1638 134.577 95.5588C134.459 95.9481 134.286 96.312 134.061 96.6506C133.841 96.9891 133.573 97.3107 133.257 97.6154C132.941 97.9201 132.588 98.2333 132.199 98.5549C131.872 98.8201 131.544 99.0796 131.217 99.3335C130.895 99.5818 130.605 99.8272 130.345 100.07C130.086 100.307 129.874 100.547 129.71 100.789C129.552 101.026 129.473 101.266 129.473 101.509V101.551H134.949V103.235Z" fill="#E3E4E5"/>
<path d="M140.806 103.438C139.542 103.438 138.555 102.922 137.844 101.89C137.139 100.857 136.786 99.3646 136.786 97.4123C136.786 95.2682 137.156 93.646 137.895 92.5458C138.634 91.4455 139.7 90.8954 141.094 90.8954C143.763 90.8954 145.097 92.9689 145.097 97.1161C145.097 99.1699 144.719 100.738 143.963 101.822C143.213 102.899 142.16 103.438 140.806 103.438ZM141.001 92.4611C139.528 92.4611 138.792 94.0833 138.792 97.3277C138.792 100.363 139.514 101.881 140.958 101.881C142.38 101.881 143.091 100.338 143.091 97.2515C143.091 94.0579 142.394 92.4611 141.001 92.4611Z" fill="#E3E4E5"/>
<path d="M150.954 90.8276V103.235H148.99V93.2313C148.635 93.4852 148.251 93.7024 147.839 93.883C147.433 94.0579 146.968 94.213 146.443 94.3485V92.6727C146.77 92.5655 147.086 92.4526 147.391 92.3341C147.695 92.2157 147.995 92.0831 148.288 91.9364C148.587 91.7897 148.886 91.626 149.185 91.4455C149.49 91.2649 149.803 91.059 150.125 90.8276H150.954Z" fill="#E3E4E5"/>
<path d="M161.736 99.3335C161.736 99.9429 161.635 100.499 161.432 101.001C161.234 101.503 160.958 101.937 160.602 102.304C160.247 102.665 159.824 102.947 159.333 103.151C158.848 103.348 158.32 103.447 157.75 103.447C157.141 103.447 156.579 103.328 156.066 103.091C155.558 102.854 155.118 102.502 154.746 102.033C154.379 101.565 154.094 100.984 153.891 100.29C153.688 99.5902 153.586 98.7806 153.586 97.8609C153.586 96.738 153.719 95.7422 153.984 94.8732C154.255 94.0043 154.624 93.2765 155.093 92.6897C155.561 92.1028 156.111 91.6571 156.743 91.3524C157.375 91.0477 158.058 90.8954 158.791 90.8954C159.248 90.8954 159.663 90.9264 160.035 90.9885C160.413 91.0506 160.715 91.1352 160.941 91.2424V93.0113C160.653 92.8646 160.346 92.7404 160.018 92.6389C159.691 92.5373 159.316 92.4865 158.893 92.4865C158.419 92.4865 157.981 92.5825 157.581 92.7743C157.18 92.9661 156.833 93.2482 156.54 93.6206C156.252 93.9874 156.024 94.4444 155.854 94.9917C155.691 95.5334 155.606 96.1597 155.6 96.8706H155.651C155.911 96.47 156.261 96.1541 156.701 95.9227C157.146 95.6914 157.668 95.5757 158.266 95.5757C158.797 95.5757 159.274 95.6632 159.697 95.8381C160.126 96.0074 160.489 96.2556 160.789 96.5829C161.093 96.9045 161.327 97.2995 161.491 97.7678C161.655 98.2304 161.736 98.7524 161.736 99.3335ZM159.756 99.4943C159.756 99.1445 159.714 98.8257 159.629 98.5379C159.55 98.2502 159.426 98.0047 159.257 97.8016C159.093 97.5929 158.884 97.432 158.63 97.3192C158.382 97.2064 158.089 97.1499 157.75 97.1499C157.412 97.1499 157.113 97.212 156.853 97.3361C156.599 97.4546 156.385 97.6126 156.21 97.8101C156.035 98.0076 155.902 98.2333 155.812 98.4872C155.727 98.7411 155.685 99.0006 155.685 99.2658C155.685 99.5536 155.725 99.8498 155.803 100.154C155.888 100.454 156.015 100.727 156.184 100.975C156.354 101.224 156.568 101.43 156.828 101.593C157.093 101.751 157.406 101.83 157.767 101.83C158.089 101.83 158.374 101.771 158.622 101.653C158.87 101.534 159.076 101.37 159.24 101.162C159.409 100.953 159.536 100.707 159.621 100.425C159.711 100.138 159.756 99.8272 159.756 99.4943Z" fill="#E3E4E5"/>
<path d="M130.828 313.998C132.04 315.595 134.416 314.838 134.414 318.669C134.411 321.95 133.307 325.106 133.879 328.051C134.762 332.602 139.331 332.214 142.644 332.248L144.29 322.907L144.331 312.29L135.1 310.903L131.549 313.476L130.828 313.998Z" fill="black"/>
<path d="M166.14 326.383C166.038 328.014 166.023 329.279 165.558 330.311L165.034 331.475C164.778 331.906 164.67 332.274 164.743 332.61C164.984 333.709 163.745 334.127 162.488 334.152C160.391 334.195 158.575 333.438 157.032 332.406L166.14 326.383Z" fill="white" stroke="black" stroke-width="0.230447"/>
<path d="M158.138 332.73C159.297 333.346 161.89 334.436 163.78 333.645C164.209 333.465 163.993 333.353 163.908 333.384C162.536 333.219 162.323 333.106 161.63 331.795C160.578 331.96 158.579 331.929 158.106 332.549C158 332.652 158.115 332.651 158.138 332.73Z" fill="black"/>
<path d="M162.108 331.981C163.007 333.929 163.966 332.562 164.413 331.22" stroke="black" stroke-width="0.230447" stroke-linecap="round" stroke-linejoin="round"/>
<path d="M136.605 313.101L136.473 310.709L146.935 316.228L141.451 329.565C141.626 328.556 141.266 326.843 141.691 325.804C142.783 323.131 143.462 320.875 143.135 319.171C142.257 314.591 139.039 313.805 136.605 313.101Z" fill="#4D4D4D" stroke="black" stroke-width="0.230447"/>
<path d="M131.164 314.307C129.237 313.846 129.028 310.752 131.746 306.683C139.283 295.402 150.042 296.735 155.024 298.07C164.13 300.51 170.727 309.9 168.119 321.174C167.351 324.494 165.878 328.18 163.463 331.737C163.241 332.064 162.998 332.446 161.834 332.086C160.254 331.598 159.008 331.52 158.051 332.173C152.403 336.029 148.381 336.102 144.869 334.647C141.006 333.045 141.098 329.854 141.697 327.023C142.204 324.632 143.802 322.313 143.531 319.632C142.981 314.209 138.856 313.479 136.14 312.852C133.709 312.291 130.952 312.887 131.164 314.307Z" fill="#E3E4E5"/>
<path d="M151.848 324.752L153.275 326.886C154.452 326.943 155.323 326.541 155.808 325.878C156.382 325.092 156.437 323.981 156.133 323.425C155.496 322.261 153.838 321.771 152.703 322.917C152.314 323.31 152.088 323.961 151.848 324.752Z" fill="black" stroke="black" stroke-width="0.230447"/>
<path d="M155.853 331.781C156.367 331.781 156.783 331.387 156.783 330.901C156.783 330.415 156.367 330.021 155.853 330.021C155.34 330.021 154.923 330.415 154.923 330.901C154.923 331.387 155.34 331.781 155.853 331.781Z" fill="url(#paint0_linear_510_599)" stroke="url(#paint1_linear_510_599)" stroke-width="0.0911904" stroke-linecap="round" stroke-linejoin="round"/>
<path d="M150.421 329.059C151.32 331.007 156.682 329.723 157.129 328.38" stroke="black" stroke-width="0.230447" stroke-linecap="round" stroke-linejoin="round"/>
<path d="M146.747 330.234C147.173 330.478 147.707 330.349 147.939 329.945C148.17 329.541 148.012 329.015 147.585 328.77C147.158 328.526 146.625 328.655 146.393 329.059C146.162 329.463 146.32 329.989 146.747 330.234Z" fill="url(#paint2_linear_510_599)" stroke="url(#paint3_linear_510_599)" stroke-width="0.087355" stroke-linecap="round" stroke-linejoin="round"/>
<path d="M143.426 324.78C138.807 334.676 150.915 336.71 158.899 330.932C155.779 332.399 153.459 333.425 151.131 333.633C147.636 333.945 144.997 333.168 143.731 331.559C142.456 329.942 142.567 327.483 143.426 324.78Z" fill="url(#paint4_linear_510_599)"/>
<path d="M137.066 319.752C137.557 319.721 138.314 319.842 138.703 320.688C138.857 321.021 138.873 321.496 138.776 322.084C138.285 325.059 140.144 326.793 142.273 328.586L142.15 331.878C139.332 332.124 136.709 331.827 135.322 330.392C133.725 328.739 133.83 325.473 134.519 322.276C134.886 320.998 135.636 319.863 137.066 319.752Z" fill="#4D4D4D"/>
<path d="M133.858 315.047C135.221 316.276 135.322 318.194 135.031 319.862C134.946 320.347 134.591 320.07 134.619 319.903C134.92 318.139 134.691 316.713 133.529 315.253C133.199 314.839 133.601 314.815 133.858 315.047Z" fill="white"/>
<path d="M133.982 307.259C134.16 306.808 130.678 308.496 130.945 308.004C131.177 307.577 131.443 307.136 131.746 306.683C139.283 295.402 150.042 296.735 155.024 298.07C147.336 298.261 139.628 298.367 133.982 307.259Z" fill="#4D4D4D"/>
<path d="M131.164 314.307C129.237 313.846 129.028 310.752 131.746 306.683C139.283 295.402 150.042 296.735 155.024 298.07C164.13 300.51 170.727 309.9 168.119 321.174C167.351 324.494 165.878 328.18 163.463 331.737C163.241 332.064 162.998 332.446 161.834 332.086C160.254 331.598 159.008 331.52 158.051 332.173C152.403 336.029 148.381 336.102 144.869 334.647C141.006 333.045 141.098 329.854 141.697 327.023C142.204 324.632 143.802 322.313 143.531 319.632C142.981 314.209 138.856 313.479 136.14 312.852C133.709 312.291 130.952 312.887 131.164 314.307Z" stroke="black" stroke-width="0.230447"/>
<path d="M135.456 306.945C135.834 307.101 136.58 306.749 136.212 307.935L134.947 311.295C134.36 312.852 135.772 313.207 136.984 313.594L134.685 313.609L133.754 311.848L134.728 308.007L135.456 306.945Z" fill="#F2F2F2" stroke="black" stroke-width="0.230447"/>
<path d="M130.742 306.494L132.153 307.178L130.96 311.921C129.426 312.371 127.558 311.895 128.458 310.306C129.177 309.036 129.908 307.765 130.742 306.494Z" fill="#D0D0D1" stroke="black" stroke-width="0.230447"/>
<path d="M131.564 307.071L135.36 306.982C135.833 306.97 135.949 307.039 135.813 307.434L134.537 311.138C134.059 312.525 134.531 313.373 135.73 313.689L131.592 313.526C131.211 313.596 131.117 314.049 131.164 314.278C128.718 313.301 129.846 309.311 131.564 307.071Z" fill="white" stroke="black" stroke-width="0.230447"/>
<path d="M133.667 306.747L134.581 307.314C134.894 307.509 135.343 307.729 135.102 308.333L133.894 311.65L132.736 309.569L133.667 306.747Z" fill="#CCCCCE" stroke="black" stroke-width="0.230447" stroke-linecap="round" stroke-linejoin="round"/>
<path d="M133.671 306.558C133.931 306.962 135.097 307.019 134.64 308.231L133.756 310.442L133.961 311.344C133.894 311.784 133.745 312.108 133.468 312.247L132.921 312.32L131.971 311.403L132.08 309.133L133.671 306.558Z" fill="#CCCCCE" stroke="black" stroke-width="0.230447" stroke-linecap="round" stroke-linejoin="round"/>
<path d="M151.79 327.864C152.364 328.209 152.985 327.744 152.88 327.246L146.317 316.938C144.957 314.511 143.239 313.125 141.276 312.452C138.859 311.588 136.377 311.184 133.909 310.683C132.897 310.635 132.839 311.706 133.704 311.938C135.632 312.334 137.529 312.543 139.506 313.234C141.675 313.873 143.63 314.832 144.712 317.103L151.79 327.864Z" fill="#CDCDCF" stroke="black" stroke-width="0.230447"/>
<path d="M134.458 318.545C130.669 322.451 126.241 321.722 122.976 321.187C122.275 321.064 121.838 321.2 121.576 321.763C120.071 325 119.596 328.772 119.27 332.721C119.246 333.016 119.361 333.375 119.708 333.452C121.533 333.485 120.649 333.303 120.834 332.186C120.777 330.092 121.02 326.074 122.729 322.627C122.883 322.316 123.227 322.145 124.087 322.38C127.423 323.36 129.851 323.031 131.598 322.145C133.028 321.42 133.61 321.078 134.346 320.552L134.458 318.545Z" fill="url(#paint5_linear_510_599)" stroke="black" stroke-width="0.230447" stroke-linecap="round" stroke-linejoin="round"/>
<path d="M123.926 327.812C123.015 327.635 122.152 327.469 121.176 327.186C120.571 327.01 120.256 325.308 121.822 325.539C126.408 326.214 129.25 325.952 133.793 325.082L133.763 326.329C128.459 327.344 126.69 327.219 123.072 326.305L121.95 326.108C122.97 326.318 123.458 326.49 124.479 326.619L123.926 327.812Z" fill="url(#paint6_linear_510_599)" stroke="black" stroke-width="0.230447" stroke-linecap="round" stroke-linejoin="round"/>
<path d="M125.551 323.038L122.801 322.442C122.228 322.18 122.016 321.278 122.991 321.176L126.177 321.729L125.551 323.038Z" fill="url(#paint7_linear_510_599)" stroke="black" stroke-width="0.230447" stroke-linecap="round" stroke-linejoin="round"/>
<path d="M132.44 315.095L127.79 326.33C126.173 330.238 124.488 331.117 121.042 331.968C119.421 332.136 119.383 332.94 119.624 333.304C119.942 333.783 121.631 334.361 123.284 334.499L123.408 333.223C122.753 333.031 121.979 333.074 121.564 332.963C121.295 332.891 121.289 332.8 121.673 332.813C121.903 332.821 122.151 332.891 122.477 332.879C123.556 332.838 124.317 332.369 125.239 331.721C127.04 330.456 127.852 329.461 129.478 325.59L133.592 315.795C133.332 315.14 132.89 315.103 132.44 315.095Z" fill="url(#paint8_linear_510_599)" stroke="black" stroke-width="0.230447" stroke-linecap="round" stroke-linejoin="round"/>
<path d="M143.738 313.833C144.104 314.1 144.459 314.426 144.798 314.831L138.035 329.495L136.43 329.598L143.738 313.833Z" fill="url(#paint9_linear_510_599)" stroke="black" stroke-width="0.230447" stroke-linecap="round" stroke-linejoin="round"/>
<path d="M147.417 318.923C147.756 318.996 148.263 319.584 148.23 320.014C146.911 321.236 146.168 321.879 144.727 322.994C143.633 323.842 142.36 324.332 141.061 324.435C137.569 324.712 134.165 324.262 130.818 323.838L126.817 323.14C126.827 323.077 126.791 322.925 126.744 322.994C125.944 324.244 125.684 325.513 125.435 326.835L134.484 328.203C135.115 328.298 138.82 328.495 141.439 328.028L150.781 326.365L151.536 327.519C147.495 328.216 143.544 328.996 139.082 329.483C137.109 329.699 134.738 329.582 133.67 329.396L125.289 327.941C125.154 327.918 125.061 327.918 125.027 328.028C124.415 330.017 124.36 331.866 124.358 333.703C124.472 333.72 124.406 333.518 124.518 333.541C129.398 334.567 135.26 332.825 136.379 329.642L137.948 329.575C135.315 334.976 129.02 335.399 124.184 334.663C123.698 334.799 123.342 334.678 123.02 334.488C122.899 329.723 123.966 325.521 125.929 321.743C126.042 321.527 126.954 321.294 126.992 322.049C133.631 323.154 136.344 323.07 140.1 323.285C141.936 323.391 143.611 322.439 145.309 320.87L147.417 318.923Z" fill="url(#paint10_linear_510_599)" stroke="black" stroke-width="0.230447" stroke-linecap="round" stroke-linejoin="round"/>
<path d="M131.628 310.381L129.302 310.262C128.439 310.505 128.428 311.479 129.389 311.485L131.606 311.414L131.628 310.381Z" fill="#D0D0D1" stroke="black" stroke-width="0.230447"/>
<path d="M132.676 306.767C133.279 306.303 133.805 306.208 134.151 306.973L132.741 310.173C132.442 310.85 131.986 311.486 133.339 312.281C132.683 312.432 132.175 312.517 131.621 312.37C131.52 312.343 131.413 312.306 131.356 312.199C130.952 311.447 130.845 310.683 131.31 309.689L132.676 306.767Z" fill="url(#paint11_linear_510_599)" stroke="black" stroke-width="0.230447" stroke-linecap="round" stroke-linejoin="round"/>
<path d="M132.769 307.809C132.881 308.038 133.145 308.047 133.36 307.83C133.576 307.613 133.659 307.251 133.547 307.023C133.436 306.794 133.171 306.784 132.956 307.001C132.741 307.218 132.657 307.58 132.769 307.809Z" fill="url(#paint12_linear_510_599)" stroke="url(#paint13_linear_510_599)" stroke-width="0.0509192" stroke-linecap="round" stroke-linejoin="round"/>
<path d="M132.219 309.133C132.33 309.362 132.595 309.371 132.81 309.154C133.025 308.937 133.109 308.575 132.997 308.347C132.885 308.118 132.621 308.108 132.406 308.325C132.191 308.542 132.107 308.904 132.219 309.133Z" fill="url(#paint14_linear_510_599)" stroke="url(#paint15_linear_510_599)" stroke-width="0.0509192" stroke-linecap="round" stroke-linejoin="round"/>
<path d="M149.784 322.167L150.998 323.926C151.352 324.439 150.894 324.615 150.627 324.79L147.479 326.858C147.031 327.152 146.73 327.086 146.491 326.837L145.545 325.85L145.627 324.471L148.158 322.928L149.784 322.167Z" fill="url(#paint16_linear_510_599)" stroke="black" stroke-width="0.230447" stroke-linecap="round" stroke-linejoin="round"/>
<path d="M145.524 325.685C144.98 325.023 144.898 324.38 145.545 323.936L147.973 322.269L148.487 322.907C147.116 323.76 145.647 324.593 145.524 325.685Z" fill="#CBCBCE" stroke="black" stroke-width="0.230447" stroke-linecap="round" stroke-linejoin="round"/>
<path d="M148.261 322.681C149.087 322.685 149.367 322.238 149.434 321.796C149.663 322.052 150.182 322.248 149.495 322.743C147.136 324.035 145.268 325.371 145.812 326.158C145.436 325.731 145.105 325.291 145.751 324.594L148.261 322.681Z" fill="#CECED0" stroke="black" stroke-width="0.230447" stroke-linecap="round" stroke-linejoin="round"/>
<path d="M146.848 326.228C147.179 326.418 147.594 326.318 147.774 326.004C147.954 325.69 147.831 325.281 147.499 325.091C147.167 324.901 146.753 325.002 146.573 325.316C146.393 325.63 146.516 326.038 146.848 326.228Z" fill="url(#paint17_linear_510_599)" stroke="url(#paint18_linear_510_599)" stroke-width="0.0678814" stroke-linecap="round" stroke-linejoin="round"/>
<path d="M147.916 324.351C147.737 324.657 147.828 325.043 148.119 325.212C148.409 325.381 148.789 325.269 148.967 324.962C149.146 324.655 149.055 324.27 148.765 324.101C148.474 323.932 148.094 324.044 147.916 324.351Z" fill="url(#paint19_linear_510_599)" stroke="url(#paint20_linear_510_599)" stroke-width="0.063006" stroke-linecap="round" stroke-linejoin="round"/>
<path d="M150.38 306.097L151.174 307.02L151.341 307.091L151.759 307.778L151.868 307.692L152.275 308.297L152.234 308.444L152.437 308.326L152.788 309.073L152.991 308.956L153.294 309.688L153.471 309.603L153.529 309.64L153.743 310.205L153.697 310.43L153.942 310.346L154.157 310.971L154.11 311.136L154.308 311.037L154.47 311.486L154.393 311.762L154.575 311.658L154.701 312.176L154.665 312.364L154.847 312.261L154.937 312.967L155.099 312.997L155.152 313.472L155.096 313.614L155.226 313.694L155.264 314.284L155.431 314.296L155.252 313.663L155.273 313.589L155.434 313.619L155.255 312.926L155.286 312.815L155.401 312.891L155.338 312.632L155.4 312.411L155.326 312.07L155.414 311.758L155.482 311.699L155.465 311.215L155.49 310.943L155.511 310.87L155.652 310.913L155.661 310.637L155.67 310.301L155.763 310.03L155.878 310.105L155.935 310.083L155.944 309.867L155.954 309.591L155.989 309.342L156.187 309.363L156.181 309.202L156.377 308.444L156.393 308.389L156.612 308.577L156.808 307.939L157.038 308.09L157.26 307.42L157.354 307.329L157.438 307.574L157.479 307.607L157.583 307.18L157.681 307.131L157.821 306.755L157.899 306.719L157.983 306.905L158.03 306.859L158.211 306.337L158.403 306.077L158.471 306.137L158.486 306.141L158.6 305.857L158.87 305.502L158.99 305.379L159.052 305.219L159.124 305.141L159.207 304.967L159.29 304.853L159.399 304.707L159.529 304.608L159.566 304.659L159.551 304.894L159.484 305.252L159.344 305.568L159.163 305.911L159.049 306.195L158.945 306.502L158.785 307.071L158.9 307.027L158.916 307.151L158.745 307.817L158.673 308.074L158.928 307.953L158.897 308.302L158.825 308.619L158.748 308.895L158.675 308.972L158.691 309.037L158.863 308.97L158.946 309.036L158.925 309.229L158.765 309.798L158.692 309.936L158.677 309.991L158.854 310.025L158.906 309.961L158.943 310.072L158.86 310.366L158.699 310.636L158.497 310.932L158.643 311.017L158.741 310.968L158.664 311.303L158.503 311.513L158.373 311.612L158.452 311.696L158.343 311.962L158.197 312.176L158.088 312.322L158.141 312.378L158.078 312.479L158 312.574L158.068 312.635L157.933 312.813L157.809 312.954L157.731 313.11L157.486 313.314L157.429 313.336L157.737 313.451L157.866 313.052L158.032 312.824L158.157 312.982L158.349 312.662L158.588 312.357L158.745 312.585L158.88 312.347L159.062 312.124L159.337 311.81L159.504 312.001L159.743 311.695L159.987 311.491L160.164 311.646L160.486 311.286L160.799 311.083L160.851 311.259L161.21 310.891L161.537 310.692L161.61 310.855L161.657 310.869L161.688 310.699L162.25 310.393L162.355 310.565L162.407 310.442L162.932 310.145L162.994 310.224L163.567 309.941L164.082 309.74L164.369 309.689L164.567 309.71L163.99 310.071L163.423 310.515L163.277 310.669L163.262 310.844L163.168 310.815L162.815 311.225L162.815 311.285L162.873 311.382L162.769 311.51L162.275 311.936L162.447 312.049L161.938 312.471L162.032 312.559L161.98 312.683L161.278 313.185L161.409 313.265L161.424 313.33L160.676 313.817L160.79 313.832L159.937 314.327L159.948 314.41L160.12 314.463L159.428 314.749L159.428 314.809L159.574 314.834L158.882 315.059L158.814 315.059L158.783 315.109L158.872 315.156L158.866 315.294L159.215 315.142L159.486 315.146L159.445 315.293L159.83 315.133L160.059 315.163L160.018 315.37L160.46 315.307L160.814 315.257L160.752 315.477L161.153 315.441L161.324 315.494L161.283 315.641L161.804 315.602L161.752 315.785L161.872 315.783L162.013 315.766L162.351 315.89L162.326 315.982L163.55 316.34L163.498 316.463L162.608 316.428L162.582 316.52L162.264 316.442L162.233 316.552L162.019 316.466L161.967 316.53L161.816 316.464L161.785 316.574L161.52 316.492L161.473 316.597L161.296 316.563L161.26 316.631L161.108 316.565L161.015 316.775L160.713 316.642L160.447 316.62L160.369 316.836L159.744 316.703L159.708 316.891L159.13 316.773L159.099 316.883L159.177 316.907L159.078 316.897L158.588 316.766L158.536 316.889L158.854 316.967L158.813 317.114L159.235 317.304L159.24 317.406L159.428 317.523L159.475 317.598L159.47 317.736L159.924 318.175L159.929 318.276L159.293 318L159.252 318.087L158.955 317.876L158.835 317.939L158.741 317.91L158.491 317.773L158.413 317.809L158.225 317.751L158.09 317.689L158.017 317.707L157.897 317.59L157.693 317.468L157.647 317.573L157.391 317.394L157.245 317.31L157.162 317.543L156.844 317.166L156.75 317.077L156.588 316.987L156.578 317.024L156.797 317.211L157.126 317.672L157.09 317.8L156.746 317.634L156.349 317.353L155.974 316.997L155.66 316.661L155.597 316.463L155.529 316.342L155.509 316.355L155.353 316.547L154.973 316.749L154.484 316.977L154.437 316.963L154.411 316.875L153.818 317.111L153.792 317.023L153.437 317.014L153.39 316.94L153.479 316.807L153.51 316.697L153.447 316.678L153.478 316.568L153.358 316.511L153.4 316.364L153.066 316.341L153.092 316.189L152.633 316.068L152.539 315.979L152.206 315.956L152.123 315.95L152.169 315.785L151.883 315.716L151.711 315.724L151.71 315.604L150.824 315.311L151.261 315.147L151.662 315.111L151.709 315.006L152.095 315.144L152.136 314.938L152.647 315.115L152.673 315.023L152.454 314.956L152.485 314.846L151.927 314.654L151.942 314.479L151.953 314.442L151.63 314.323L151.635 314.244L151.421 314.159L151.437 314.044L151.389 313.969L151.4 313.933L150.951 313.655L150.811 313.611L150.8 313.468L150.847 313.363L150.461 313.164L150.377 313.099L150.205 313.046L150.241 312.857L149.934 312.623L149.751 312.427L149.61 312.324L149.657 312.218L148.77 311.566L148.738 311.496L149.489 311.668L149.812 311.787L149.869 311.885L149.905 311.756L150.317 311.923L150.401 312.049L150.468 311.93L150.76 312.04L150.985 312.328L151.073 312.136L151.198 312.175L151.496 312.446L151.6 312.558L151.704 312.37L152.085 312.707L152.179 312.796L152.204 312.704L152.413 312.868L152.559 313.073L152.674 313.148L152.757 313.034L152.914 313.082L152.971 313.18L153.013 313.153L152.506 312.658L152.662 312.526L152.151 311.93L152.223 311.852L152.055 311.362L151.794 311.082L151.742 310.966L151.825 310.852L151.694 310.532L151.71 310.417L151.438 310.114L151.578 309.978L151.165 309.152L151.279 309.048L150.949 308.168L151.053 308.101L150.87 307.486L150.874 307.348L150.375 306.098L150.38 306.097Z" fill="#4D4D4D"/>
<path d="M157.942 319.113C162.114 318.205 164.769 314.131 163.873 310.014C162.977 305.896 158.869 303.293 154.698 304.201C150.526 305.108 147.871 309.182 148.767 313.3C149.663 317.418 153.771 320.021 157.942 319.113Z" stroke="#333333" stroke-width="1.92003"/>
<path d="M149.984 306.168L162.055 317.904L149.984 306.168Z" fill="#800000"/>
<path d="M149.984 306.168L162.055 317.904" stroke="#333333" stroke-width="1.92003"/>
<path d="M106.709 202.859L106.303 204.734H104.376L103.803 207.317H105.959L105.49 209.192H103.418L102.605 212.796H100.522L101.282 209.192H98.8967L98.1259 212.796H96.0426L96.7822 209.192H94.8447L95.2301 207.317H97.1884L97.7405 204.734H95.6363L95.9905 202.859H98.1259L98.8967 199.15H101.032L100.261 202.859H102.647L103.438 199.15H105.553L104.782 202.859H106.709ZM102.272 204.734H99.8551L99.2822 207.317H101.688L102.272 204.734Z" fill="#E3E4E5"/>
<path d="M125.824 213.994H122.501V205.057C122.501 204.091 122.543 203.025 122.626 201.859H122.543C122.369 202.775 122.213 203.435 122.074 203.838L118.574 213.994H115.824L112.261 203.942C112.164 203.671 112.008 202.977 111.793 201.859H111.699C111.789 203.331 111.834 204.623 111.834 205.734V213.994H108.803V199.057H113.73L116.782 207.911C117.025 208.619 117.202 209.331 117.313 210.046H117.376C117.563 209.22 117.761 208.501 117.97 207.89L121.022 199.057H125.824L125.824 213.994Z" fill="#E3E4E5"/>
<path d="M132.584 208.848V213.994H129.22V199.057H134.49C138.254 199.057 140.136 200.643 140.136 203.817C140.136 205.317 139.595 206.532 138.511 207.463C137.435 208.386 135.994 208.848 134.188 208.848H132.584ZM132.584 201.64V206.296H133.907C135.699 206.296 136.595 205.511 136.595 203.942C136.595 202.407 135.699 201.64 133.907 201.64H132.584Z" fill="#E3E4E5"/>
<path d="M145.688 213.994H142.324V199.057H145.688V213.994Z" fill="#E3E4E5"/>
<path d="M149.084 213.994V199.057H154.376C159.681 199.057 162.334 201.484 162.334 206.338C162.334 208.664 161.608 210.522 160.157 211.911C158.713 213.3 156.786 213.994 154.376 213.994H149.084ZM152.449 201.796V211.265H154.115C155.574 211.265 156.716 210.827 157.542 209.952C158.376 209.077 158.792 207.886 158.792 206.38C158.792 204.956 158.379 203.838 157.553 203.025C156.733 202.206 155.581 201.796 154.095 201.796H152.449Z" fill="#E3E4E5"/>
<path d="M177.074 212.994C175.615 213.834 173.803 214.255 171.636 214.255C169.233 214.255 167.338 213.591 165.949 212.265C164.567 210.932 163.876 209.098 163.876 206.765C163.876 204.418 164.633 202.505 166.147 201.025C167.661 199.546 169.674 198.807 172.188 198.807C173.772 198.807 175.167 199.025 176.376 199.463V202.619C175.223 201.952 173.813 201.619 172.147 201.619C170.751 201.619 169.612 202.074 168.73 202.984C167.855 203.886 167.417 205.095 167.417 206.609C167.417 208.143 167.81 209.331 168.595 210.171C169.386 211.011 170.452 211.432 171.792 211.432C172.598 211.432 173.237 211.317 173.709 211.088V208.171H170.72V205.484H177.074V212.994Z" fill="#E3E4E5"/>
<path d="M193.115 213.994H189.449L188.386 210.671H183.074L182.022 213.994H178.376L183.813 199.057H187.803L193.115 213.994ZM187.615 208.088L186.011 203.067C185.893 202.692 185.81 202.244 185.761 201.723H185.678C185.643 202.161 185.556 202.595 185.417 203.025L183.792 208.088H187.615Z" fill="#E3E4E5"/>
<defs>
<linearGradient id="paint0_linear_510_599" x1="155.366" y1="330.375" x2="156.228" y2="331.574" gradientUnits="userSpaceOnUse">
<stop stop-color="#B9BABC"/>
<stop offset="0.332298" stop-color="#6F7072"/>
<stop offset="0.505068" stop-color="#1F2022"/>
<stop offset="0.691743" stop-color="#6F7072"/>
<stop offset="1" stop-color="#B9BABC"/>
</linearGradient>
<linearGradient id="paint1_linear_510_599" x1="155.543" y1="329.925" x2="156.641" y2="331.732" gradientUnits="userSpaceOnUse">
<stop stop-color="#1D1E20"/>
<stop offset="1" stop-color="#CBCCCE"/>
</linearGradient>
<linearGradient id="paint2_linear_510_599" x1="147.012" y1="328.833" x2="147.157" y2="330.24" gradientUnits="userSpaceOnUse">
<stop stop-color="#B9BABC"/>
<stop offset="0.332298" stop-color="#6F7072"/>
<stop offset="0.505068" stop-color="#1F2022"/>
<stop offset="0.691743" stop-color="#6F7072"/>
<stop offset="1" stop-color="#B9BABC"/>
</linearGradient>
<linearGradient id="paint3_linear_510_599" x1="147.373" y1="328.543" x2="147.425" y2="330.568" gradientUnits="userSpaceOnUse">
<stop stop-color="#1D1E20"/>
<stop offset="1" stop-color="#CBCCCE"/>
</linearGradient>
<linearGradient id="paint4_linear_510_599" x1="143.261" y1="324.512" x2="159.187" y2="330.602" gradientUnits="userSpaceOnUse">
<stop stop-opacity="0"/>
<stop offset="0.094718"/>
<stop offset="0.397666"/>
<stop offset="0.724935"/>
<stop offset="1" stop-opacity="0"/>
</linearGradient>
<linearGradient id="paint5_linear_510_599" x1="122.564" y1="332.339" x2="144.539" y2="317.771" gradientUnits="userSpaceOnUse">
<stop stop-color="#CACACD"/>
<stop offset="1" stop-color="#D4D4D4"/>
</linearGradient>
<linearGradient id="paint6_linear_510_599" x1="122.564" y1="332.338" x2="144.539" y2="317.771" gradientUnits="userSpaceOnUse">
<stop stop-color="#CACACD"/>
<stop offset="1" stop-color="#D4D4D4"/>
</linearGradient>
<linearGradient id="paint7_linear_510_599" x1="122.564" y1="332.338" x2="144.539" y2="317.771" gradientUnits="userSpaceOnUse">
<stop stop-color="#CACACD"/>
<stop offset="1" stop-color="#D4D4D4"/>
</linearGradient>
<linearGradient id="paint8_linear_510_599" x1="122.564" y1="332.339" x2="144.539" y2="317.771" gradientUnits="userSpaceOnUse">
<stop stop-color="#CACACD"/>
<stop offset="1" stop-color="#D4D4D4"/>
</linearGradient>
<linearGradient id="paint9_linear_510_599" x1="122.564" y1="332.339" x2="144.539" y2="317.771" gradientUnits="userSpaceOnUse">
<stop stop-color="#CACACD"/>
<stop offset="1" stop-color="#D4D4D4"/>
</linearGradient>
<linearGradient id="paint10_linear_510_599" x1="122.564" y1="332.339" x2="144.539" y2="317.771" gradientUnits="userSpaceOnUse">
<stop stop-color="#CACACD"/>
<stop offset="1" stop-color="#D4D4D4"/>
</linearGradient>
<linearGradient id="paint11_linear_510_599" x1="132.115" y1="307.165" x2="131.693" y2="312.105" gradientUnits="userSpaceOnUse">
<stop stop-color="#CDCDCF"/>
<stop offset="0.583118" stop-color="#CCCCCE"/>
<stop offset="0.751085" stop-color="#929295"/>
<stop offset="0.891675" stop-color="#CCCCCE"/>
<stop offset="1" stop-color="#CDCDCF"/>
</linearGradient>
<linearGradient id="paint12_linear_510_599" x1="133.285" y1="306.964" x2="133.064" y2="307.912" gradientUnits="userSpaceOnUse">
<stop stop-color="#B9BABC"/>
<stop offset="0.332298" stop-color="#6F7072"/>
<stop offset="0.505068" stop-color="#1F2022"/>
<stop offset="0.691743" stop-color="#6F7072"/>
<stop offset="1" stop-color="#B9BABC"/>
</linearGradient>
<linearGradient id="paint13_linear_510_599" x1="133.522" y1="306.842" x2="133.047" y2="308.169" gradientUnits="userSpaceOnUse">
<stop stop-color="#1D1E20"/>
<stop offset="1" stop-color="#CBCCCE"/>
</linearGradient>
<linearGradient id="paint14_linear_510_599" x1="132.734" y1="308.288" x2="132.513" y2="309.236" gradientUnits="userSpaceOnUse">
<stop stop-color="#B9BABC"/>
<stop offset="0.332298" stop-color="#6F7072"/>
<stop offset="0.505068" stop-color="#1F2022"/>
<stop offset="0.691743" stop-color="#6F7072"/>
<stop offset="1" stop-color="#B9BABC"/>
</linearGradient>
<linearGradient id="paint15_linear_510_599" x1="132.972" y1="308.166" x2="132.497" y2="309.493" gradientUnits="userSpaceOnUse">
<stop stop-color="#1D1E20"/>
<stop offset="1" stop-color="#CBCCCE"/>
</linearGradient>
<linearGradient id="paint16_linear_510_599" x1="145.389" y1="327.819" x2="151.036" y2="323.622" gradientUnits="userSpaceOnUse">
<stop stop-color="#CDCDCF"/>
<stop offset="0.583118" stop-color="#CCCCCE"/>
<stop offset="0.751085" stop-color="#929295"/>
<stop offset="0.891675" stop-color="#CCCCCE"/>
<stop offset="1" stop-color="#CDCDCF"/>
</linearGradient>
<linearGradient id="paint17_linear_510_599" x1="147.126" y1="325.387" x2="147.401" y2="326.293" gradientUnits="userSpaceOnUse">
<stop stop-color="#B9BABC"/>
<stop offset="0.332298" stop-color="#6F7072"/>
<stop offset="0.505068" stop-color="#1F2022"/>
<stop offset="0.691743" stop-color="#6F7072"/>
<stop offset="1" stop-color="#B9BABC"/>
</linearGradient>
<linearGradient id="paint18_linear_510_599" x1="147.334" y1="324.915" x2="147.864" y2="326.462" gradientUnits="userSpaceOnUse">
<stop stop-color="#1D1E20"/>
<stop offset="1" stop-color="#CBCCCE"/>
</linearGradient>
<linearGradient id="paint19_linear_510_599" x1="148.925" y1="324.548" x2="147.909" y2="324.646" gradientUnits="userSpaceOnUse">
<stop stop-color="#B9BABC"/>
<stop offset="0.332298" stop-color="#6F7072"/>
<stop offset="0.505068" stop-color="#1F2022"/>
<stop offset="0.691743" stop-color="#6F7072"/>
<stop offset="1" stop-color="#B9BABC"/>
</linearGradient>
<linearGradient id="paint20_linear_510_599" x1="149.132" y1="324.81" x2="147.671" y2="324.838" gradientUnits="userSpaceOnUse">
<stop stop-color="#1D1E20"/>
<stop offset="1" stop-color="#CBCCCE"/>
</linearGradient>
</defs>
</svg>
