<svg width="288" height="432" viewBox="0 0 288 432" fill="none" xmlns="http://www.w3.org/2000/svg">
<path d="M256.96 42.22V48.22H31.05V42.22H256.96Z" fill="#333333"/>
<path d="M25.17 57.09C24.3744 57.09 23.6113 56.7739 23.0487 56.2113C22.4861 55.6487 22.17 54.8856 22.17 54.09V36.34C22.17 35.5443 22.4861 34.7813 23.0487 34.2186C23.6113 33.656 24.3744 33.34 25.17 33.34C25.9657 33.34 26.7288 33.656 27.2914 34.2186C27.854 34.7813 28.17 35.5443 28.17 36.34V54.09C28.17 54.8856 27.854 55.6487 27.2914 56.2113C26.7288 56.7739 25.9657 57.09 25.17 57.09Z" fill="#333333"/>
<path d="M262.83 57.09C262.034 57.09 261.271 56.7739 260.709 56.2113C260.146 55.6487 259.83 54.8856 259.83 54.09V36.34C259.83 35.5443 260.146 34.7813 260.709 34.2186C261.271 33.656 262.034 33.34 262.83 33.34C263.626 33.34 264.389 33.656 264.951 34.2186C265.514 34.7813 265.83 35.5443 265.83 36.34V54.09C265.83 54.8856 265.514 55.6487 264.951 56.2113C264.389 56.7739 263.626 57.09 262.83 57.09Z" fill="#333333"/>
<path opacity="0.2" d="M50.3401 66.6699V397C50.3411 397.262 50.4041 397.52 50.5241 397.753C50.644 397.986 50.8173 398.187 51.03 398.34C51.2426 398.494 51.4885 398.594 51.7475 398.634C52.0065 398.674 52.2712 398.652 52.5201 398.57L153.52 364.82C153.846 364.718 154.194 364.718 154.52 364.82L255.52 398.57C255.769 398.652 256.034 398.674 256.293 398.634C256.552 398.594 256.798 398.494 257.01 398.34C257.223 398.187 257.396 397.986 257.516 397.753C257.636 397.52 257.699 397.262 257.7 397V66.6699C257.703 66.4473 257.661 66.2264 257.576 66.0205C257.491 65.8147 257.365 65.6281 257.207 65.4721C257.048 65.3161 256.859 65.1938 256.652 65.1126C256.444 65.0315 256.223 64.9931 256 64.9999H52.0001C51.7809 64.9986 51.5636 65.0409 51.3609 65.1245C51.1583 65.2081 50.9743 65.3312 50.8197 65.4867C50.6652 65.6421 50.5432 65.8268 50.4608 66.03C50.3785 66.2332 50.3374 66.4507 50.3401 66.6699Z" fill="#231F20"/>
<path d="M41.7001 58.6V384.6C41.6993 384.859 41.7602 385.115 41.8779 385.346C41.9956 385.576 42.1667 385.776 42.3768 385.927C42.587 386.079 42.8303 386.178 43.0865 386.217C43.3428 386.256 43.6045 386.233 43.8501 386.15L143.48 352.84C143.806 352.738 144.154 352.738 144.48 352.84L244.11 386.15C244.356 386.233 244.617 386.256 244.874 386.217C245.13 386.178 245.373 386.079 245.583 385.927C245.794 385.776 245.965 385.576 246.082 385.346C246.2 385.115 246.261 384.859 246.26 384.6V58.6C246.25 58.1805 246.08 57.7809 245.784 57.4832C245.488 57.1856 245.089 57.0127 244.67 57H43.3301C42.9037 57.0025 42.495 57.1709 42.1908 57.4696C41.8865 57.7683 41.7105 58.1737 41.7001 58.6Z" fill="#4D1919"/>
<path d="M244.66 389.21C244.164 389.213 243.671 389.136 243.2 388.98L144 355.81L44.8001 389C44.1032 389.231 43.3614 389.293 42.6357 389.182C41.91 389.07 41.2211 388.788 40.6256 388.359C40.0302 387.929 39.5452 387.365 39.2104 386.711C38.8757 386.058 38.7008 385.334 38.7001 384.6V58.6C38.7106 57.3781 39.2027 56.2096 40.0696 55.3484C40.9365 54.4871 42.1081 54.0026 43.3301 54H244.67C245.899 54.0026 247.077 54.4927 247.945 55.3626C248.813 56.2324 249.3 57.4111 249.3 58.64V384.64C249.3 385.375 249.125 386.099 248.789 386.753C248.454 387.407 247.967 387.971 247.37 388.4C246.575 388.949 245.626 389.233 244.66 389.21ZM144 349.74C144.5 349.74 144.996 349.821 145.47 349.98L243.3 382.68V60H44.7001V382.68L142.53 350C143.003 349.833 143.499 349.746 144 349.74Z" fill="#4D1919"/>
<path d="M238.05 376.68L147.13 346.28C145.097 345.61 142.903 345.61 140.87 346.28L50 376.68V66.5H238.1L238.05 376.68ZM53.45 70V371.82L139.76 343C142.513 342.09 145.487 342.09 148.24 343L234.55 371.86V70H53.45Z" fill="#E3E4E5"/>
<path d="M222.815 153.45C222.708 153.46 222.601 153.46 222.495 153.45C202.355 149.78 173.585 147.68 143.565 147.68C114.005 147.68 85.5646 149.68 65.4646 153.3C65.0072 153.381 64.5363 153.276 64.1557 153.01C63.7751 152.744 63.5158 152.337 63.435 151.88C63.3541 151.422 63.4582 150.952 63.7244 150.571C63.9907 150.19 64.3972 149.931 64.8546 149.85C85.1246 146.25 113.855 144.18 143.565 144.18C173.785 144.18 202.785 146.3 223.125 150.01C223.552 150.09 223.935 150.327 224.197 150.673C224.46 151.02 224.584 151.452 224.545 151.886C224.507 152.319 224.308 152.722 223.988 153.017C223.668 153.312 223.25 153.477 222.815 153.48V153.45Z" fill="#E3E4E5"/>
<path d="M85.2313 136.943C83.8418 137.616 82.0276 137.952 79.7885 137.952C76.868 137.952 74.5714 137.094 72.8988 135.377C71.2261 133.66 70.3898 131.372 70.3898 128.514C70.3898 125.469 71.3279 123 73.2041 121.106C75.0891 119.212 77.5317 118.265 80.5319 118.265C82.3904 118.265 83.9569 118.5 85.2313 118.969V123.097C83.9569 122.336 82.5055 121.956 80.8771 121.956C79.0893 121.956 77.6468 122.518 76.5494 123.642C75.452 124.766 74.9033 126.288 74.9033 128.208C74.9033 130.049 75.421 131.518 76.4565 132.616C77.4919 133.704 78.8858 134.248 80.6381 134.248C82.3108 134.248 83.8418 133.841 85.2313 133.027V136.943Z" fill="#E3E4E5"/>
<path d="M105.024 137.62H100.723V129.868H92.8379V137.62H88.55V118.584H92.8379V126.177H100.723V118.584H105.024V137.62Z" fill="#E3E4E5"/>
<path d="M126.118 137.62H121.446L120.092 133.386H113.321L111.98 137.62H107.334L114.264 118.584H119.348L126.118 137.62ZM119.109 130.093L117.065 123.695C116.914 123.217 116.808 122.646 116.746 121.982H116.64C116.596 122.54 116.485 123.093 116.308 123.642L114.237 130.093H119.109Z" fill="#E3E4E5"/>
<path d="M150.186 137.62H145.951V126.23C145.951 125 146.004 123.642 146.111 122.155H146.004C145.783 123.323 145.584 124.164 145.407 124.677L140.947 137.62H137.442L132.902 124.81C132.778 124.465 132.579 123.58 132.305 122.155H132.185C132.3 124.031 132.358 125.677 132.358 127.093V137.62H128.495V118.584H134.774L138.663 129.868C138.973 130.77 139.199 131.677 139.34 132.589H139.42C139.659 131.536 139.911 130.62 140.177 129.841L144.066 118.584H150.186L150.186 137.62Z" fill="#E3E4E5"/>
<path d="M158.802 131.062V137.62H154.514V118.584H161.231C166.028 118.584 168.426 120.606 168.426 124.651C168.426 126.562 167.736 128.111 166.355 129.297C164.983 130.474 163.147 131.062 160.846 131.062H158.802ZM158.802 121.876V127.81H160.488C162.771 127.81 163.913 126.81 163.913 124.81C163.913 122.854 162.771 121.876 160.488 121.876H158.802Z" fill="#E3E4E5"/>
<path d="M175.502 137.62H171.214V118.584H175.502V137.62Z" fill="#E3E4E5"/>
<path d="M187.874 137.952C185.148 137.952 182.927 137.067 181.21 135.297C179.493 133.518 178.635 131.204 178.635 128.354C178.635 125.345 179.506 122.912 181.25 121.053C182.993 119.195 185.303 118.265 188.179 118.265C190.896 118.265 193.091 119.155 194.764 120.934C196.445 122.712 197.286 125.058 197.286 127.969C197.286 130.961 196.414 133.372 194.671 135.204C192.936 137.036 190.671 137.952 187.874 137.952ZM188.06 121.956C186.555 121.956 185.361 122.522 184.476 123.655C183.591 124.779 183.148 126.27 183.148 128.129C183.148 130.014 183.591 131.505 184.476 132.602C185.361 133.7 186.52 134.248 187.954 134.248C189.432 134.248 190.604 133.717 191.471 132.655C192.339 131.585 192.772 130.102 192.772 128.208C192.772 126.235 192.352 124.699 191.511 123.602C190.671 122.504 189.52 121.956 188.06 121.956Z" fill="#E3E4E5"/>
<path d="M217.57 137.62H213.243L205.397 125.659C204.937 124.96 204.618 124.434 204.441 124.08H204.388C204.459 124.752 204.494 125.779 204.494 127.16V137.62H200.445V118.584H205.065L212.619 130.173C212.964 130.695 213.282 131.213 213.574 131.726H213.628C213.557 131.284 213.521 130.412 213.521 129.111V118.584H217.57V137.62Z" fill="#E3E4E5"/>
<path d="M137.748 253.025H135.602V259.442H134.362V253.025H132.222V251.973H137.748V253.025Z" fill="#E3E4E5"/>
<path d="M140.034 259.567C139.211 259.567 138.553 259.319 138.06 258.822C137.571 258.322 137.326 257.66 137.326 256.838C137.326 255.942 137.581 255.242 138.091 254.739C138.605 254.235 139.296 253.983 140.164 253.983C140.998 253.983 141.647 254.228 142.112 254.718C142.578 255.207 142.81 255.886 142.81 256.754C142.81 257.605 142.558 258.287 142.055 258.801C141.555 259.312 140.881 259.567 140.034 259.567ZM140.091 254.947C139.619 254.947 139.246 255.112 138.972 255.442C138.697 255.772 138.56 256.226 138.56 256.806C138.56 257.365 138.699 257.806 138.977 258.129C139.255 258.449 139.626 258.608 140.091 258.608C140.567 258.608 140.932 258.45 141.185 258.134C141.442 257.819 141.571 257.369 141.571 256.786C141.571 256.199 141.442 255.746 141.185 255.426C140.932 255.107 140.567 254.947 140.091 254.947Z" fill="#E3E4E5"/>
<path d="M152.013 259.442H150.805V256.536C150.805 255.976 150.725 255.572 150.565 255.322C150.409 255.072 150.143 254.947 149.768 254.947C149.453 254.947 149.183 255.105 148.961 255.421C148.742 255.737 148.633 256.115 148.633 256.556V259.442H147.42V256.437C147.42 255.443 147.069 254.947 146.367 254.947C146.041 254.947 145.772 255.096 145.56 255.395C145.352 255.693 145.248 256.081 145.248 256.556V259.442H144.039V254.108H145.248V254.952H145.268C145.654 254.306 146.215 253.983 146.951 253.983C147.319 253.983 147.64 254.086 147.914 254.291C148.192 254.492 148.381 254.758 148.482 255.088C148.878 254.351 149.468 253.983 150.253 253.983C151.426 253.983 152.013 254.707 152.013 256.155L152.013 259.442Z" fill="#E3E4E5"/>
<path d="M130.511 268.932V261.463H132.88C133.603 261.463 134.174 261.621 134.594 261.937C135.018 262.253 135.229 262.665 135.229 263.172C135.229 263.595 135.11 263.963 134.87 264.276C134.63 264.588 134.299 264.81 133.875 264.942V264.963C134.389 265.022 134.799 265.213 135.104 265.536C135.413 265.856 135.568 266.272 135.568 266.786C135.568 267.425 135.316 267.942 134.813 268.338C134.309 268.734 133.674 268.932 132.906 268.932L130.511 268.932ZM131.745 262.458V264.583H132.547C132.978 264.583 133.314 264.482 133.558 264.281C133.804 264.076 133.927 263.788 133.927 263.416C133.927 262.777 133.5 262.458 132.646 262.458H131.745ZM131.745 265.578V267.942H132.802C133.264 267.942 133.62 267.837 133.87 267.625C134.123 267.409 134.25 267.114 134.25 266.739C134.25 265.965 133.714 265.578 132.641 265.578H131.745Z" fill="#E3E4E5"/>
<path d="M141.469 268.932H140.261V268.088H140.24C139.889 268.734 139.344 269.057 138.604 269.057C137.344 269.057 136.714 268.3 136.714 266.786V263.599H137.922V266.661C137.922 267.619 138.292 268.099 139.032 268.099C139.389 268.099 139.683 267.967 139.912 267.703C140.144 267.439 140.261 267.093 140.261 266.666V263.599H141.469L141.469 268.932Z" fill="#E3E4E5"/>
<path d="M142.709 268.765V267.646C143.16 267.989 143.658 268.161 144.203 268.161C144.933 268.161 145.297 267.946 145.297 267.515C145.297 267.394 145.266 267.291 145.203 267.208C145.141 267.121 145.056 267.045 144.948 266.979C144.844 266.913 144.719 266.854 144.573 266.802C144.431 266.75 144.271 266.691 144.094 266.625C143.875 266.538 143.677 266.446 143.5 266.349C143.327 266.251 143.181 266.142 143.063 266.021C142.948 265.896 142.861 265.755 142.802 265.599C142.743 265.442 142.714 265.26 142.714 265.052C142.714 264.795 142.775 264.569 142.896 264.375C143.018 264.177 143.181 264.012 143.386 263.88C143.591 263.744 143.823 263.644 144.084 263.578C144.344 263.508 144.613 263.474 144.891 263.474C145.384 263.474 145.825 263.548 146.214 263.698V264.755C145.839 264.498 145.408 264.369 144.922 264.369C144.769 264.369 144.631 264.385 144.506 264.416C144.384 264.448 144.28 264.491 144.193 264.547C144.106 264.602 144.039 264.67 143.99 264.75C143.941 264.826 143.917 264.911 143.917 265.005C143.917 265.12 143.941 265.217 143.99 265.297C144.039 265.376 144.11 265.448 144.203 265.51C144.301 265.569 144.415 265.625 144.547 265.677C144.683 265.725 144.837 265.779 145.011 265.838C145.24 265.932 145.445 266.027 145.625 266.125C145.809 266.222 145.966 266.333 146.094 266.458C146.223 266.58 146.322 266.722 146.391 266.885C146.46 267.045 146.495 267.236 146.495 267.458C146.495 267.729 146.433 267.965 146.308 268.166C146.183 268.368 146.016 268.534 145.808 268.666C145.599 268.798 145.358 268.896 145.084 268.958C144.813 269.024 144.526 269.057 144.224 269.057C143.641 269.057 143.136 268.96 142.709 268.765Z" fill="#E3E4E5"/>
<path d="M151.459 268.687C151.032 268.934 150.526 269.057 149.943 269.057C149.151 269.057 148.512 268.81 148.026 268.317C147.54 267.821 147.297 267.178 147.297 266.39C147.297 265.512 147.558 264.807 148.078 264.276C148.603 263.741 149.302 263.474 150.177 263.474C150.663 263.474 151.092 263.559 151.464 263.729V264.854C151.092 264.576 150.696 264.437 150.276 264.437C149.766 264.437 149.347 264.611 149.021 264.958C148.695 265.302 148.531 265.753 148.531 266.312C148.531 266.864 148.684 267.3 148.99 267.619C149.299 267.939 149.712 268.099 150.229 268.099C150.663 268.099 151.073 267.944 151.459 267.635V268.687Z" fill="#E3E4E5"/>
<path d="M157.396 268.932H156.188V266.015C156.188 264.96 155.835 264.432 155.13 264.432C154.776 264.432 154.478 264.585 154.235 264.89C153.992 265.196 153.87 265.586 153.87 266.062V268.932H152.656V261.036H153.87V264.484H153.891C154.294 263.81 154.87 263.474 155.62 263.474C156.804 263.474 157.396 264.198 157.396 265.646L157.396 268.932Z" fill="#E3E4E5"/>
<path d="M135.14 103.235H127.523V102.296C127.523 101.912 127.576 101.554 127.684 101.221C127.791 100.882 127.935 100.566 128.115 100.273C128.296 99.9739 128.507 99.6946 128.75 99.4351C128.993 99.1699 129.252 98.916 129.529 98.6734C129.805 98.4251 130.087 98.1881 130.375 97.9624C130.663 97.7311 130.945 97.4998 131.221 97.2684C131.481 97.0484 131.718 96.834 131.932 96.6252C132.147 96.4108 132.33 96.1907 132.482 95.965C132.635 95.7393 132.753 95.5024 132.838 95.2541C132.922 95.0002 132.965 94.7265 132.965 94.4331C132.965 94.1115 132.914 93.8322 132.812 93.5953C132.716 93.3526 132.578 93.1523 132.398 92.9943C132.223 92.8307 132.014 92.7094 131.771 92.6304C131.529 92.5458 131.264 92.5035 130.976 92.5035C130.479 92.5035 129.974 92.6191 129.461 92.8505C128.947 93.0818 128.454 93.4288 127.98 93.8915V92.0041C128.228 91.8179 128.479 91.6571 128.733 91.5217C128.987 91.3806 129.249 91.265 129.52 91.1747C129.791 91.0788 130.076 91.0082 130.375 90.9631C130.674 90.918 130.993 90.8954 131.331 90.8954C131.879 90.8954 132.375 90.9687 132.821 91.1154C133.267 91.2565 133.647 91.4681 133.963 91.7502C134.279 92.0267 134.522 92.3737 134.691 92.7912C134.866 93.2087 134.954 93.6883 134.954 94.23C134.954 94.7209 134.892 95.1638 134.767 95.5588C134.649 95.9481 134.477 96.312 134.251 96.6506C134.031 96.9891 133.763 97.3107 133.447 97.6154C133.131 97.9201 132.779 98.2333 132.389 98.5549C132.062 98.8201 131.735 99.0796 131.407 99.3335C131.086 99.5818 130.795 99.8272 130.536 100.07C130.276 100.307 130.065 100.547 129.901 100.789C129.743 101.026 129.664 101.266 129.664 101.509V101.551H135.14V103.235Z" fill="#E3E4E5"/>
<path d="M140.997 103.438C139.733 103.438 138.745 102.922 138.034 101.89C137.329 100.857 136.976 99.3646 136.976 97.4123C136.976 95.2682 137.346 93.646 138.085 92.5458C138.824 91.4455 139.891 90.8954 141.284 90.8954C143.953 90.8954 145.288 92.9689 145.288 97.1161C145.288 99.1699 144.91 100.738 144.154 101.822C143.403 102.899 142.351 103.438 140.997 103.438ZM141.191 92.4611C139.719 92.4611 138.982 94.0833 138.982 97.3277C138.982 100.363 139.705 101.881 141.149 101.881C142.571 101.881 143.282 100.338 143.282 97.2515C143.282 94.0579 142.585 92.4611 141.191 92.4611Z" fill="#E3E4E5"/>
<path d="M151.144 90.8276V103.235H149.181V93.2313C148.825 93.4852 148.442 93.7024 148.03 93.883C147.624 94.0579 147.158 94.213 146.633 94.3485V92.6727C146.961 92.5655 147.277 92.4526 147.581 92.3341C147.886 92.2157 148.185 92.0831 148.478 91.9364C148.777 91.7897 149.076 91.626 149.375 91.4455C149.68 91.2649 149.993 91.059 150.315 90.8276H151.144Z" fill="#E3E4E5"/>
<path d="M161.614 92.0803C161.106 93.0113 160.626 93.9338 160.175 94.8479C159.724 95.7563 159.315 96.6703 158.948 97.59C158.581 98.5097 158.262 99.4379 157.991 100.375C157.721 101.306 157.512 102.259 157.365 103.235H155.308C155.444 102.366 155.636 101.5 155.884 100.637C156.138 99.768 156.434 98.9019 156.773 98.0386C157.111 97.1697 157.489 96.2979 157.907 95.4234C158.33 94.5488 158.779 93.6658 159.252 92.7743H153.506V91.0985H161.614V92.0803Z" fill="#E3E4E5"/>
<path d="M130.828 313.998C132.04 315.595 134.416 314.838 134.414 318.669C134.412 321.95 133.307 325.106 133.879 328.051C134.762 332.602 139.331 332.214 142.644 332.248L144.29 322.907L144.331 312.29L135.1 310.903L131.549 313.476L130.828 313.998Z" fill="black"/>
<path d="M166.14 326.383C166.038 328.014 166.023 329.279 165.558 330.311L165.034 331.475C164.778 331.906 164.67 332.274 164.743 332.61C164.984 333.709 163.745 334.127 162.488 334.152C160.391 334.195 158.575 333.438 157.032 332.406L166.14 326.383Z" fill="white" stroke="black" stroke-width="0.230447"/>
<path d="M158.138 332.73C159.297 333.346 161.89 334.436 163.78 333.645C164.209 333.465 163.993 333.353 163.908 333.384C162.536 333.219 162.323 333.106 161.63 331.795C160.578 331.96 158.579 331.929 158.106 332.549C158 332.652 158.115 332.651 158.138 332.73Z" fill="black"/>
<path d="M162.108 331.981C163.007 333.929 163.966 332.562 164.413 331.22" stroke="black" stroke-width="0.230447" stroke-linecap="round" stroke-linejoin="round"/>
<path d="M136.605 313.101L136.473 310.709L146.935 316.228L141.451 329.565C141.626 328.556 141.266 326.843 141.691 325.804C142.783 323.131 143.462 320.875 143.135 319.171C142.257 314.591 139.039 313.805 136.605 313.101Z" fill="#4D4D4D" stroke="black" stroke-width="0.230447"/>
<path d="M131.164 314.307C129.237 313.846 129.028 310.752 131.746 306.683C139.283 295.402 150.042 296.735 155.025 298.07C164.13 300.51 170.727 309.9 168.119 321.174C167.351 324.494 165.878 328.18 163.463 331.737C163.241 332.064 162.998 332.446 161.834 332.086C160.254 331.598 159.008 331.52 158.051 332.173C152.403 336.029 148.381 336.102 144.869 334.647C141.006 333.045 141.098 329.854 141.698 327.023C142.204 324.632 143.802 322.313 143.531 319.632C142.981 314.209 138.856 313.479 136.14 312.852C133.709 312.291 130.952 312.887 131.164 314.307Z" fill="#E3E4E5"/>
<path d="M151.848 324.752L153.275 326.886C154.452 326.943 155.323 326.541 155.808 325.878C156.382 325.092 156.437 323.981 156.133 323.425C155.496 322.261 153.838 321.771 152.703 322.917C152.314 323.31 152.088 323.961 151.848 324.752Z" fill="black" stroke="black" stroke-width="0.230447"/>
<path d="M155.853 331.781C156.367 331.781 156.783 331.387 156.783 330.901C156.783 330.415 156.367 330.021 155.853 330.021C155.34 330.021 154.924 330.415 154.924 330.901C154.924 331.387 155.34 331.781 155.853 331.781Z" fill="url(#paint0_linear_510_688)" stroke="url(#paint1_linear_510_688)" stroke-width="0.0911904" stroke-linecap="round" stroke-linejoin="round"/>
<path d="M150.421 329.059C151.32 331.007 156.682 329.723 157.129 328.38" stroke="black" stroke-width="0.230447" stroke-linecap="round" stroke-linejoin="round"/>
<path d="M146.747 330.234C147.174 330.478 147.707 330.349 147.939 329.945C148.17 329.541 148.012 329.015 147.585 328.77C147.158 328.526 146.625 328.655 146.393 329.059C146.162 329.463 146.32 329.989 146.747 330.234Z" fill="url(#paint2_linear_510_688)" stroke="url(#paint3_linear_510_688)" stroke-width="0.087355" stroke-linecap="round" stroke-linejoin="round"/>
<path d="M143.426 324.78C138.807 334.676 150.915 336.71 158.899 330.932C155.779 332.399 153.459 333.425 151.131 333.633C147.636 333.945 144.997 333.168 143.731 331.559C142.456 329.942 142.567 327.483 143.426 324.78Z" fill="url(#paint4_linear_510_688)"/>
<path d="M137.066 319.752C137.557 319.721 138.314 319.842 138.703 320.688C138.857 321.021 138.873 321.496 138.776 322.084C138.285 325.059 140.144 326.793 142.273 328.586L142.15 331.878C139.332 332.124 136.709 331.827 135.322 330.392C133.725 328.739 133.83 325.473 134.519 322.276C134.886 320.998 135.636 319.863 137.066 319.752Z" fill="#4D4D4D"/>
<path d="M133.858 315.047C135.221 316.276 135.322 318.194 135.031 319.862C134.946 320.347 134.591 320.07 134.619 319.903C134.92 318.139 134.691 316.713 133.529 315.253C133.199 314.839 133.601 314.815 133.858 315.047Z" fill="white"/>
<path d="M133.982 307.259C134.16 306.808 130.678 308.496 130.945 308.004C131.177 307.577 131.443 307.136 131.746 306.683C139.283 295.402 150.042 296.735 155.025 298.07C147.336 298.261 139.628 298.367 133.982 307.259Z" fill="#4D4D4D"/>
<path d="M131.164 314.307C129.237 313.846 129.028 310.752 131.746 306.683C139.283 295.402 150.042 296.735 155.025 298.07C164.13 300.51 170.727 309.9 168.119 321.174C167.351 324.494 165.878 328.18 163.463 331.737C163.241 332.064 162.998 332.446 161.834 332.086C160.254 331.598 159.008 331.52 158.051 332.173C152.403 336.029 148.381 336.102 144.869 334.647C141.006 333.045 141.098 329.854 141.698 327.023C142.204 324.632 143.802 322.313 143.531 319.632C142.981 314.209 138.856 313.479 136.14 312.852C133.709 312.291 130.952 312.887 131.164 314.307Z" stroke="black" stroke-width="0.230447"/>
<path d="M135.456 306.945C135.834 307.101 136.58 306.749 136.212 307.935L134.947 311.295C134.36 312.852 135.772 313.207 136.984 313.594L134.685 313.609L133.754 311.848L134.728 308.007L135.456 306.945Z" fill="#F2F2F2" stroke="black" stroke-width="0.230447"/>
<path d="M130.742 306.494L132.153 307.178L130.96 311.921C129.426 312.371 127.558 311.895 128.458 310.306C129.177 309.036 129.908 307.765 130.742 306.494Z" fill="#D0D0D1" stroke="black" stroke-width="0.230447"/>
<path d="M131.564 307.071L135.36 306.982C135.834 306.97 135.949 307.039 135.813 307.434L134.537 311.138C134.059 312.525 134.532 313.373 135.73 313.689L131.592 313.526C131.211 313.596 131.117 314.049 131.164 314.278C128.718 313.301 129.847 309.311 131.564 307.071Z" fill="white" stroke="black" stroke-width="0.230447"/>
<path d="M133.667 306.747L134.581 307.314C134.894 307.509 135.343 307.729 135.102 308.333L133.894 311.65L132.736 309.569L133.667 306.747Z" fill="#CCCCCE" stroke="black" stroke-width="0.230447" stroke-linecap="round" stroke-linejoin="round"/>
<path d="M133.671 306.558C133.931 306.962 135.097 307.019 134.64 308.231L133.756 310.442L133.961 311.344C133.894 311.784 133.745 312.108 133.468 312.247L132.921 312.32L131.971 311.403L132.08 309.133L133.671 306.558Z" fill="#CCCCCE" stroke="black" stroke-width="0.230447" stroke-linecap="round" stroke-linejoin="round"/>
<path d="M151.79 327.864C152.364 328.209 152.986 327.744 152.88 327.246L146.317 316.938C144.957 314.511 143.239 313.125 141.276 312.452C138.86 311.588 136.378 311.184 133.91 310.683C132.898 310.635 132.839 311.706 133.704 311.938C135.632 312.334 137.529 312.543 139.506 313.234C141.675 313.873 143.631 314.832 144.712 317.103L151.79 327.864Z" fill="#CDCDCF" stroke="black" stroke-width="0.230447"/>
<path d="M134.458 318.545C130.669 322.451 126.241 321.722 122.976 321.187C122.275 321.064 121.838 321.2 121.577 321.763C120.071 325 119.596 328.772 119.27 332.721C119.246 333.016 119.361 333.375 119.708 333.452C121.533 333.485 120.649 333.303 120.834 332.186C120.777 330.092 121.02 326.074 122.729 322.627C122.883 322.316 123.227 322.145 124.087 322.38C127.423 323.36 129.851 323.031 131.598 322.145C133.028 321.42 133.61 321.078 134.346 320.552L134.458 318.545Z" fill="url(#paint5_linear_510_688)" stroke="black" stroke-width="0.230447" stroke-linecap="round" stroke-linejoin="round"/>
<path d="M123.926 327.812C123.015 327.635 122.152 327.469 121.176 327.186C120.571 327.01 120.256 325.308 121.822 325.539C126.408 326.214 129.25 325.952 133.793 325.082L133.763 326.329C128.459 327.344 126.69 327.219 123.072 326.305L121.95 326.108C122.97 326.318 123.458 326.49 124.479 326.619L123.926 327.812Z" fill="url(#paint6_linear_510_688)" stroke="black" stroke-width="0.230447" stroke-linecap="round" stroke-linejoin="round"/>
<path d="M125.551 323.038L122.801 322.442C122.228 322.18 122.016 321.278 122.991 321.176L126.177 321.729L125.551 323.038Z" fill="url(#paint7_linear_510_688)" stroke="black" stroke-width="0.230447" stroke-linecap="round" stroke-linejoin="round"/>
<path d="M132.44 315.095L127.79 326.33C126.173 330.238 124.488 331.117 121.042 331.968C119.421 332.136 119.383 332.94 119.624 333.304C119.942 333.783 121.631 334.361 123.284 334.499L123.408 333.223C122.753 333.031 121.979 333.074 121.564 332.963C121.295 332.891 121.289 332.8 121.673 332.813C121.903 332.821 122.151 332.891 122.477 332.879C123.556 332.838 124.317 332.369 125.239 331.721C127.04 330.456 127.852 329.461 129.478 325.59L133.592 315.795C133.332 315.14 132.89 315.103 132.44 315.095Z" fill="url(#paint8_linear_510_688)" stroke="black" stroke-width="0.230447" stroke-linecap="round" stroke-linejoin="round"/>
<path d="M143.738 313.833C144.104 314.1 144.459 314.426 144.798 314.831L138.035 329.495L136.43 329.598L143.738 313.833Z" fill="url(#paint9_linear_510_688)" stroke="black" stroke-width="0.230447" stroke-linecap="round" stroke-linejoin="round"/>
<path d="M147.417 318.923C147.756 318.996 148.263 319.584 148.23 320.014C146.911 321.236 146.168 321.879 144.727 322.994C143.633 323.842 142.36 324.332 141.061 324.435C137.57 324.712 134.165 324.262 130.818 323.838L126.817 323.14C126.827 323.077 126.791 322.925 126.744 322.994C125.944 324.244 125.684 325.513 125.435 326.835L134.484 328.203C135.115 328.298 138.82 328.495 141.439 328.028L150.781 326.365L151.536 327.519C147.495 328.216 143.544 328.996 139.082 329.483C137.109 329.699 134.738 329.582 133.67 329.396L125.289 327.941C125.154 327.918 125.062 327.918 125.027 328.028C124.415 330.017 124.36 331.866 124.358 333.703C124.472 333.72 124.406 333.518 124.518 333.541C129.398 334.567 135.26 332.825 136.379 329.642L137.948 329.575C135.315 334.976 129.02 335.399 124.184 334.663C123.698 334.799 123.342 334.678 123.02 334.488C122.899 329.723 123.966 325.521 125.93 321.743C126.042 321.527 126.954 321.294 126.992 322.049C133.631 323.154 136.344 323.07 140.1 323.285C141.936 323.391 143.611 322.439 145.309 320.87L147.417 318.923Z" fill="url(#paint10_linear_510_688)" stroke="black" stroke-width="0.230447" stroke-linecap="round" stroke-linejoin="round"/>
<path d="M131.628 310.381L129.302 310.262C128.439 310.505 128.428 311.479 129.389 311.485L131.606 311.414L131.628 310.381Z" fill="#D0D0D1" stroke="black" stroke-width="0.230447"/>
<path d="M132.676 306.767C133.279 306.303 133.805 306.208 134.151 306.973L132.741 310.173C132.442 310.85 131.986 311.486 133.339 312.281C132.683 312.432 132.176 312.517 131.622 312.37C131.52 312.343 131.413 312.306 131.356 312.199C130.952 311.447 130.845 310.683 131.31 309.689L132.676 306.767Z" fill="url(#paint11_linear_510_688)" stroke="black" stroke-width="0.230447" stroke-linecap="round" stroke-linejoin="round"/>
<path d="M132.769 307.809C132.881 308.038 133.145 308.047 133.36 307.83C133.576 307.613 133.659 307.251 133.547 307.023C133.436 306.794 133.171 306.784 132.956 307.001C132.741 307.218 132.657 307.58 132.769 307.809Z" fill="url(#paint12_linear_510_688)" stroke="url(#paint13_linear_510_688)" stroke-width="0.0509192" stroke-linecap="round" stroke-linejoin="round"/>
<path d="M132.219 309.133C132.33 309.362 132.595 309.371 132.81 309.154C133.025 308.937 133.109 308.575 132.997 308.347C132.886 308.118 132.621 308.108 132.406 308.325C132.191 308.542 132.107 308.904 132.219 309.133Z" fill="url(#paint14_linear_510_688)" stroke="url(#paint15_linear_510_688)" stroke-width="0.0509192" stroke-linecap="round" stroke-linejoin="round"/>
<path d="M149.784 322.167L150.998 323.926C151.352 324.439 150.894 324.615 150.627 324.79L147.479 326.858C147.031 327.152 146.73 327.086 146.492 326.837L145.545 325.85L145.627 324.471L148.158 322.928L149.784 322.167Z" fill="url(#paint16_linear_510_688)" stroke="black" stroke-width="0.230447" stroke-linecap="round" stroke-linejoin="round"/>
<path d="M145.525 325.685C144.98 325.023 144.898 324.38 145.545 323.936L147.973 322.269L148.487 322.907C147.116 323.76 145.647 324.593 145.525 325.685Z" fill="#CBCBCE" stroke="black" stroke-width="0.230447" stroke-linecap="round" stroke-linejoin="round"/>
<path d="M148.261 322.681C149.087 322.685 149.367 322.238 149.434 321.796C149.663 322.052 150.182 322.248 149.496 322.743C147.137 324.035 145.268 325.371 145.813 326.158C145.436 325.731 145.105 325.291 145.751 324.594L148.261 322.681Z" fill="#CECED0" stroke="black" stroke-width="0.230447" stroke-linecap="round" stroke-linejoin="round"/>
<path d="M146.848 326.228C147.179 326.418 147.594 326.318 147.774 326.004C147.954 325.69 147.831 325.281 147.499 325.091C147.168 324.901 146.753 325.002 146.573 325.316C146.393 325.63 146.516 326.038 146.848 326.228Z" fill="url(#paint17_linear_510_688)" stroke="url(#paint18_linear_510_688)" stroke-width="0.0678814" stroke-linecap="round" stroke-linejoin="round"/>
<path d="M147.916 324.351C147.737 324.657 147.828 325.043 148.119 325.212C148.409 325.381 148.789 325.269 148.967 324.962C149.146 324.655 149.055 324.27 148.765 324.101C148.474 323.932 148.094 324.044 147.916 324.351Z" fill="url(#paint19_linear_510_688)" stroke="url(#paint20_linear_510_688)" stroke-width="0.063006" stroke-linecap="round" stroke-linejoin="round"/>
<path d="M150.38 306.097L151.174 307.02L151.341 307.091L151.759 307.778L151.868 307.692L152.276 308.297L152.234 308.444L152.437 308.326L152.788 309.073L152.991 308.956L153.294 309.688L153.471 309.603L153.529 309.64L153.743 310.205L153.697 310.43L153.942 310.346L154.157 310.971L154.11 311.136L154.308 311.037L154.47 311.486L154.393 311.762L154.575 311.658L154.701 312.176L154.665 312.364L154.847 312.261L154.937 312.967L155.099 312.997L155.153 313.472L155.096 313.614L155.226 313.694L155.264 314.284L155.431 314.296L155.252 313.663L155.273 313.589L155.434 313.619L155.255 312.926L155.286 312.815L155.401 312.891L155.338 312.632L155.4 312.411L155.326 312.07L155.414 311.758L155.482 311.699L155.465 311.215L155.49 310.943L155.511 310.87L155.652 310.913L155.661 310.637L155.67 310.301L155.763 310.03L155.878 310.105L155.935 310.083L155.944 309.867L155.954 309.591L155.989 309.342L156.187 309.363L156.181 309.202L156.377 308.444L156.393 308.389L156.612 308.577L156.808 307.939L157.038 308.09L157.26 307.42L157.354 307.329L157.438 307.574L157.479 307.607L157.583 307.18L157.681 307.131L157.821 306.755L157.899 306.719L157.983 306.905L158.03 306.859L158.211 306.337L158.403 306.077L158.471 306.137L158.486 306.141L158.6 305.857L158.87 305.502L158.99 305.379L159.052 305.219L159.125 305.141L159.207 304.967L159.29 304.853L159.399 304.707L159.529 304.608L159.566 304.659L159.551 304.894L159.484 305.252L159.344 305.568L159.163 305.911L159.049 306.195L158.945 306.502L158.785 307.071L158.9 307.027L158.916 307.151L158.745 307.817L158.673 308.074L158.928 307.953L158.897 308.302L158.825 308.619L158.748 308.895L158.675 308.972L158.691 309.037L158.863 308.97L158.946 309.036L158.925 309.229L158.765 309.798L158.692 309.936L158.677 309.991L158.854 310.025L158.906 309.961L158.943 310.072L158.86 310.366L158.699 310.636L158.497 310.932L158.643 311.017L158.742 310.968L158.664 311.303L158.503 311.513L158.373 311.612L158.452 311.696L158.343 311.962L158.198 312.176L158.089 312.322L158.141 312.378L158.078 312.479L158.001 312.574L158.068 312.635L157.933 312.813L157.809 312.954L157.731 313.11L157.487 313.314L157.429 313.336L157.737 313.451L157.866 313.052L158.032 312.824L158.157 312.982L158.349 312.662L158.588 312.357L158.745 312.585L158.88 312.347L159.062 312.124L159.337 311.81L159.504 312.001L159.743 311.695L159.987 311.491L160.165 311.646L160.487 311.286L160.799 311.083L160.851 311.259L161.21 310.891L161.537 310.692L161.611 310.855L161.658 310.869L161.688 310.699L162.25 310.393L162.355 310.565L162.407 310.442L162.932 310.145L162.995 310.224L163.567 309.941L164.083 309.74L164.369 309.689L164.567 309.71L163.99 310.071L163.423 310.515L163.278 310.669L163.262 310.844L163.168 310.815L162.815 311.225L162.815 311.285L162.873 311.382L162.769 311.51L162.275 311.936L162.447 312.049L161.938 312.471L162.032 312.559L161.98 312.683L161.278 313.185L161.409 313.265L161.425 313.33L160.676 313.817L160.79 313.832L159.937 314.327L159.948 314.41L160.12 314.463L159.428 314.749L159.428 314.809L159.574 314.834L158.882 315.059L158.814 315.059L158.783 315.109L158.872 315.156L158.866 315.294L159.215 315.142L159.486 315.146L159.445 315.293L159.83 315.133L160.059 315.163L160.018 315.37L160.46 315.307L160.814 315.257L160.752 315.477L161.153 315.441L161.325 315.494L161.283 315.641L161.804 315.602L161.752 315.785L161.872 315.783L162.013 315.766L162.351 315.89L162.326 315.982L163.55 316.34L163.498 316.463L162.608 316.428L162.582 316.52L162.264 316.442L162.233 316.552L162.019 316.466L161.968 316.53L161.816 316.464L161.785 316.574L161.52 316.492L161.473 316.597L161.296 316.563L161.26 316.631L161.108 316.565L161.015 316.775L160.713 316.642L160.447 316.62L160.37 316.836L159.744 316.703L159.708 316.891L159.13 316.773L159.099 316.883L159.177 316.907L159.078 316.897L158.588 316.766L158.536 316.889L158.854 316.967L158.813 317.114L159.235 317.304L159.24 317.406L159.428 317.523L159.475 317.598L159.47 317.736L159.924 318.175L159.929 318.276L159.293 318L159.252 318.087L158.955 317.876L158.835 317.939L158.741 317.91L158.491 317.773L158.413 317.809L158.225 317.751L158.09 317.689L158.017 317.707L157.897 317.59L157.694 317.468L157.647 317.573L157.391 317.394L157.245 317.31L157.163 317.543L156.844 317.166L156.75 317.077L156.588 316.987L156.578 317.024L156.797 317.211L157.126 317.672L157.09 317.8L156.746 317.634L156.35 317.353L155.974 316.997L155.66 316.661L155.598 316.463L155.53 316.342L155.509 316.355L155.353 316.547L154.973 316.749L154.484 316.977L154.437 316.963L154.411 316.875L153.818 317.111L153.792 317.023L153.437 317.014L153.39 316.94L153.479 316.807L153.51 316.697L153.447 316.678L153.478 316.568L153.358 316.511L153.4 316.364L153.066 316.341L153.092 316.189L152.633 316.068L152.539 315.979L152.206 315.956L152.123 315.95L152.169 315.785L151.883 315.716L151.711 315.724L151.711 315.604L150.824 315.311L151.262 315.147L151.662 315.111L151.709 315.006L152.095 315.144L152.136 314.938L152.647 315.115L152.673 315.023L152.454 314.956L152.485 314.846L151.927 314.654L151.942 314.479L151.953 314.442L151.63 314.323L151.635 314.244L151.421 314.159L151.437 314.044L151.389 313.969L151.4 313.933L150.951 313.655L150.811 313.611L150.8 313.468L150.847 313.363L150.461 313.164L150.377 313.099L150.205 313.046L150.241 312.857L149.934 312.623L149.751 312.427L149.61 312.324L149.657 312.218L148.77 311.566L148.738 311.496L149.489 311.668L149.812 311.787L149.869 311.885L149.906 311.756L150.317 311.923L150.401 312.049L150.468 311.93L150.76 312.04L150.985 312.328L151.073 312.136L151.198 312.175L151.496 312.446L151.6 312.558L151.704 312.37L152.085 312.707L152.179 312.796L152.205 312.704L152.413 312.868L152.56 313.073L152.674 313.148L152.757 313.034L152.914 313.082L152.971 313.18L153.013 313.153L152.506 312.658L152.662 312.526L152.151 311.93L152.223 311.852L152.056 311.362L151.795 311.082L151.742 310.966L151.825 310.852L151.694 310.532L151.71 310.417L151.438 310.114L151.578 309.978L151.165 309.152L151.279 309.048L150.949 308.168L151.053 308.101L150.87 307.486L150.874 307.348L150.375 306.098L150.38 306.097Z" fill="#4D4D4D"/>
<path d="M157.942 319.113C162.114 318.205 164.769 314.131 163.873 310.014C162.977 305.896 158.869 303.293 154.698 304.201C150.526 305.108 147.871 309.182 148.767 313.3C149.663 317.418 153.771 320.021 157.942 319.113Z" stroke="#333333" stroke-width="1.92003"/>
<path d="M149.984 306.168L162.055 317.904L149.984 306.168Z" fill="#800000"/>
<path d="M149.984 306.168L162.055 317.904" stroke="#333333" stroke-width="1.92003"/>
<path d="M119.777 203.925H116.402V197.841H110.214V203.925H106.85V188.987H110.214V194.945H116.402V188.987H119.777V203.925Z" fill="#E3E4E5"/>
<path d="M131.746 203.924H128.631V202.393H128.589C127.874 203.588 126.815 204.185 125.412 204.185C124.378 204.185 123.562 203.893 122.964 203.31C122.374 202.72 122.079 201.935 122.079 200.956C122.079 198.886 123.305 197.692 125.756 197.372L128.652 196.987C128.652 195.82 128.02 195.237 126.756 195.237C125.485 195.237 124.277 195.615 123.131 196.372V193.893C123.589 193.657 124.214 193.449 125.006 193.268C125.805 193.088 126.53 192.997 127.183 192.997C130.225 192.997 131.746 194.515 131.746 197.55L131.746 203.924ZM128.652 199.591V198.872L126.714 199.122C125.645 199.261 125.11 199.744 125.11 200.57C125.11 200.945 125.239 201.254 125.496 201.497C125.76 201.734 126.114 201.852 126.558 201.852C127.176 201.852 127.68 201.64 128.069 201.216C128.457 200.786 128.652 200.244 128.652 199.591Z" fill="#E3E4E5"/>
<path d="M151.287 203.924H148.006V197.841C148.006 196.293 147.437 195.518 146.298 195.518C145.756 195.518 145.315 195.751 144.975 196.216C144.635 196.681 144.464 197.261 144.464 197.956V203.924H141.173V197.779C141.173 196.272 140.614 195.518 139.496 195.518C138.933 195.518 138.482 195.74 138.142 196.185C137.808 196.629 137.642 197.234 137.642 197.997V203.924H134.35V193.258H137.642V194.925H137.683C138.023 194.355 138.499 193.893 139.11 193.539C139.728 193.178 140.402 192.997 141.131 192.997C142.638 192.997 143.669 193.661 144.225 194.987C145.037 193.661 146.232 192.997 147.808 192.997C150.128 192.997 151.287 194.428 151.287 197.289L151.287 203.924Z" fill="#E3E4E5"/>
<path d="M170.829 203.924H167.548V197.841C167.548 196.293 166.978 195.518 165.839 195.518C165.298 195.518 164.857 195.751 164.516 196.216C164.176 196.681 164.006 197.261 164.006 197.956V203.924H160.714V197.779C160.714 196.272 160.155 195.518 159.037 195.518C158.475 195.518 158.023 195.74 157.683 196.185C157.35 196.629 157.183 197.234 157.183 197.997V203.924H153.891V193.258H157.183V194.925H157.225C157.565 194.355 158.041 193.893 158.652 193.539C159.27 193.178 159.944 192.997 160.673 192.997C162.18 192.997 163.211 193.661 163.767 194.987C164.579 193.661 165.773 192.997 167.35 192.997C169.669 192.997 170.829 194.428 170.829 197.289L170.829 203.924Z" fill="#E3E4E5"/>
<path d="M172.735 203.643V200.977C173.277 201.303 173.815 201.546 174.35 201.706C174.891 201.865 175.402 201.945 175.881 201.945C176.464 201.945 176.923 201.865 177.256 201.706C177.596 201.546 177.766 201.303 177.766 200.977C177.766 200.768 177.69 200.595 177.537 200.456C177.384 200.317 177.187 200.195 176.943 200.091C176.707 199.987 176.447 199.893 176.162 199.81C175.877 199.727 175.603 199.633 175.339 199.529C174.916 199.369 174.541 199.199 174.214 199.018C173.895 198.831 173.624 198.615 173.402 198.372C173.186 198.129 173.02 197.848 172.902 197.529C172.791 197.209 172.735 196.831 172.735 196.393C172.735 195.796 172.864 195.282 173.121 194.852C173.384 194.421 173.732 194.07 174.162 193.8C174.6 193.522 175.096 193.32 175.652 193.195C176.214 193.063 176.798 192.997 177.402 192.997C177.874 192.997 178.353 193.036 178.839 193.112C179.325 193.181 179.805 193.286 180.277 193.425V195.966C179.86 195.723 179.412 195.543 178.933 195.425C178.461 195.3 177.996 195.237 177.537 195.237C177.322 195.237 177.117 195.258 176.923 195.3C176.735 195.334 176.568 195.39 176.423 195.466C176.277 195.536 176.162 195.629 176.079 195.747C175.996 195.859 175.954 195.987 175.954 196.133C175.954 196.327 176.016 196.494 176.141 196.633C176.266 196.772 176.43 196.893 176.631 196.997C176.832 197.095 177.055 197.185 177.298 197.268C177.548 197.345 177.794 197.425 178.037 197.508C178.475 197.661 178.871 197.827 179.225 198.008C179.579 198.188 179.881 198.4 180.131 198.643C180.388 198.886 180.582 199.171 180.714 199.497C180.853 199.824 180.923 200.213 180.923 200.664C180.923 201.296 180.784 201.838 180.506 202.289C180.235 202.734 179.871 203.098 179.412 203.383C178.961 203.661 178.436 203.862 177.839 203.987C177.249 204.119 176.634 204.185 175.996 204.185C174.822 204.185 173.735 204.004 172.735 203.643Z" fill="#E3E4E5"/>
<path d="M122.793 222.905H119.418V216.822H113.23V222.905H109.865V207.967H113.23V213.926H119.418V207.967H122.793V222.905Z" fill="#E3E4E5"/>
<path d="M135.47 218.509H128.511C128.622 220.058 129.598 220.832 131.438 220.832C132.612 220.832 133.643 220.554 134.532 219.999V222.374C133.546 222.901 132.265 223.165 130.688 223.165C128.966 223.165 127.629 222.69 126.678 221.738C125.727 220.78 125.251 219.447 125.251 217.738C125.251 215.967 125.765 214.565 126.793 213.53C127.82 212.495 129.084 211.978 130.584 211.978C132.14 211.978 133.341 212.44 134.188 213.363C135.043 214.287 135.47 215.54 135.47 217.124V218.509ZM132.418 216.488C132.418 214.96 131.799 214.197 130.563 214.197C130.036 214.197 129.577 214.415 129.188 214.853C128.806 215.29 128.574 215.835 128.49 216.488H132.418Z" fill="#E3E4E5"/>
<path d="M144.386 215.207C143.99 214.992 143.529 214.884 143.001 214.884C142.286 214.884 141.727 215.148 141.324 215.676C140.921 216.197 140.72 216.908 140.72 217.811V222.905H137.428V212.238H140.72V214.217H140.761C141.282 212.773 142.22 212.051 143.574 212.051C143.921 212.051 144.192 212.092 144.386 212.176L144.386 215.207Z" fill="#E3E4E5"/>
<path d="M150.917 223.165C149.14 223.165 147.74 222.669 146.72 221.676C145.706 220.676 145.199 219.322 145.199 217.613C145.199 215.849 145.727 214.471 146.782 213.478C147.838 212.478 149.265 211.978 151.063 211.978C152.834 211.978 154.223 212.478 155.23 213.478C156.237 214.471 156.74 215.787 156.74 217.426C156.74 219.197 156.22 220.596 155.178 221.624C154.143 222.651 152.723 223.165 150.917 223.165ZM151.001 214.499C150.223 214.499 149.619 214.766 149.188 215.301C148.758 215.835 148.542 216.592 148.542 217.572C148.542 219.62 149.369 220.644 151.022 220.644C152.598 220.644 153.386 219.592 153.386 217.488C153.386 215.495 152.591 214.499 151.001 214.499Z" fill="#E3E4E5"/>
<path d="M168.459 218.509H161.501C161.612 220.058 162.588 220.832 164.428 220.832C165.601 220.832 166.633 220.554 167.522 219.999V222.374C166.535 222.901 165.254 223.165 163.678 223.165C161.956 223.165 160.619 222.69 159.667 221.738C158.716 220.78 158.24 219.447 158.24 217.738C158.24 215.967 158.754 214.565 159.782 213.53C160.81 212.495 162.074 211.978 163.574 211.978C165.129 211.978 166.331 212.44 167.178 213.363C168.032 214.287 168.459 215.54 168.459 217.124V218.509ZM165.407 216.488C165.407 214.96 164.789 214.197 163.553 214.197C163.025 214.197 162.567 214.415 162.178 214.853C161.796 215.29 161.563 215.835 161.48 216.488H165.407Z" fill="#E3E4E5"/>
<path d="M169.719 222.624V219.957C170.261 220.283 170.799 220.526 171.334 220.686C171.876 220.846 172.386 220.926 172.865 220.926C173.449 220.926 173.907 220.846 174.24 220.686C174.581 220.526 174.751 220.283 174.751 219.957C174.751 219.749 174.674 219.575 174.522 219.436C174.369 219.297 174.171 219.176 173.928 219.072C173.692 218.967 173.431 218.874 173.147 218.79C172.862 218.707 172.588 218.613 172.324 218.509C171.9 218.349 171.525 218.179 171.199 217.999C170.879 217.811 170.608 217.596 170.386 217.353C170.171 217.11 170.004 216.828 169.886 216.509C169.775 216.19 169.719 215.811 169.719 215.374C169.719 214.776 169.848 214.263 170.105 213.832C170.369 213.401 170.716 213.051 171.147 212.78C171.584 212.502 172.081 212.301 172.636 212.176C173.199 212.044 173.782 211.978 174.386 211.978C174.858 211.978 175.338 212.016 175.824 212.092C176.31 212.162 176.789 212.266 177.261 212.405V214.947C176.844 214.703 176.397 214.523 175.917 214.405C175.445 214.28 174.98 214.217 174.522 214.217C174.306 214.217 174.101 214.238 173.907 214.28C173.719 214.315 173.553 214.37 173.407 214.447C173.261 214.516 173.147 214.61 173.063 214.728C172.98 214.839 172.938 214.967 172.938 215.113C172.938 215.308 173.001 215.474 173.126 215.613C173.251 215.752 173.414 215.874 173.615 215.978C173.817 216.075 174.039 216.165 174.282 216.249C174.532 216.325 174.779 216.405 175.022 216.488C175.459 216.641 175.855 216.808 176.209 216.988C176.563 217.169 176.865 217.381 177.115 217.624C177.372 217.867 177.567 218.151 177.699 218.478C177.838 218.804 177.907 219.193 177.907 219.644C177.907 220.276 177.768 220.818 177.49 221.269C177.219 221.714 176.855 222.078 176.397 222.363C175.945 222.641 175.421 222.842 174.824 222.967C174.233 223.099 173.619 223.165 172.98 223.165C171.806 223.165 170.719 222.985 169.719 222.624Z" fill="#E3E4E5"/>
<path d="M186.081 206.683L220.558 206.72L186.081 206.683Z" fill="#E3E4E5"/>
<path d="M186.081 206.683L220.558 206.72" stroke="#E3E4E5" stroke-width="3.05031" stroke-miterlimit="10" stroke-linecap="round"/>
<path d="M61.5521 206.689L96.5196 206.714L61.5521 206.689Z" fill="#E3E4E5"/>
<path d="M61.5521 206.689L96.5196 206.714" stroke="#E3E4E5" stroke-width="2.56033" stroke-miterlimit="10" stroke-linecap="round"/>
<defs>
<linearGradient id="paint0_linear_510_688" x1="155.367" y1="330.375" x2="156.228" y2="331.574" gradientUnits="userSpaceOnUse">
<stop stop-color="#B9BABC"/>
<stop offset="0.332298" stop-color="#6F7072"/>
<stop offset="0.505068" stop-color="#1F2022"/>
<stop offset="0.691743" stop-color="#6F7072"/>
<stop offset="1" stop-color="#B9BABC"/>
</linearGradient>
<linearGradient id="paint1_linear_510_688" x1="155.543" y1="329.925" x2="156.642" y2="331.732" gradientUnits="userSpaceOnUse">
<stop stop-color="#1D1E20"/>
<stop offset="1" stop-color="#CBCCCE"/>
</linearGradient>
<linearGradient id="paint2_linear_510_688" x1="147.012" y1="328.833" x2="147.157" y2="330.24" gradientUnits="userSpaceOnUse">
<stop stop-color="#B9BABC"/>
<stop offset="0.332298" stop-color="#6F7072"/>
<stop offset="0.505068" stop-color="#1F2022"/>
<stop offset="0.691743" stop-color="#6F7072"/>
<stop offset="1" stop-color="#B9BABC"/>
</linearGradient>
<linearGradient id="paint3_linear_510_688" x1="147.373" y1="328.543" x2="147.425" y2="330.568" gradientUnits="userSpaceOnUse">
<stop stop-color="#1D1E20"/>
<stop offset="1" stop-color="#CBCCCE"/>
</linearGradient>
<linearGradient id="paint4_linear_510_688" x1="143.261" y1="324.512" x2="159.187" y2="330.602" gradientUnits="userSpaceOnUse">
<stop stop-opacity="0"/>
<stop offset="0.094718"/>
<stop offset="0.397666"/>
<stop offset="0.724935"/>
<stop offset="1" stop-opacity="0"/>
</linearGradient>
<linearGradient id="paint5_linear_510_688" x1="122.564" y1="332.339" x2="144.539" y2="317.771" gradientUnits="userSpaceOnUse">
<stop stop-color="#CACACD"/>
<stop offset="1" stop-color="#D4D4D4"/>
</linearGradient>
<linearGradient id="paint6_linear_510_688" x1="122.564" y1="332.338" x2="144.539" y2="317.771" gradientUnits="userSpaceOnUse">
<stop stop-color="#CACACD"/>
<stop offset="1" stop-color="#D4D4D4"/>
</linearGradient>
<linearGradient id="paint7_linear_510_688" x1="122.564" y1="332.338" x2="144.539" y2="317.771" gradientUnits="userSpaceOnUse">
<stop stop-color="#CACACD"/>
<stop offset="1" stop-color="#D4D4D4"/>
</linearGradient>
<linearGradient id="paint8_linear_510_688" x1="122.564" y1="332.339" x2="144.539" y2="317.771" gradientUnits="userSpaceOnUse">
<stop stop-color="#CACACD"/>
<stop offset="1" stop-color="#D4D4D4"/>
</linearGradient>
<linearGradient id="paint9_linear_510_688" x1="122.564" y1="332.339" x2="144.539" y2="317.771" gradientUnits="userSpaceOnUse">
<stop stop-color="#CACACD"/>
<stop offset="1" stop-color="#D4D4D4"/>
</linearGradient>
<linearGradient id="paint10_linear_510_688" x1="122.564" y1="332.339" x2="144.539" y2="317.771" gradientUnits="userSpaceOnUse">
<stop stop-color="#CACACD"/>
<stop offset="1" stop-color="#D4D4D4"/>
</linearGradient>
<linearGradient id="paint11_linear_510_688" x1="132.115" y1="307.165" x2="131.693" y2="312.105" gradientUnits="userSpaceOnUse">
<stop stop-color="#CDCDCF"/>
<stop offset="0.583118" stop-color="#CCCCCE"/>
<stop offset="0.751085" stop-color="#929295"/>
<stop offset="0.891675" stop-color="#CCCCCE"/>
<stop offset="1" stop-color="#CDCDCF"/>
</linearGradient>
<linearGradient id="paint12_linear_510_688" x1="133.285" y1="306.964" x2="133.064" y2="307.912" gradientUnits="userSpaceOnUse">
<stop stop-color="#B9BABC"/>
<stop offset="0.332298" stop-color="#6F7072"/>
<stop offset="0.505068" stop-color="#1F2022"/>
<stop offset="0.691743" stop-color="#6F7072"/>
<stop offset="1" stop-color="#B9BABC"/>
</linearGradient>
<linearGradient id="paint13_linear_510_688" x1="133.522" y1="306.842" x2="133.047" y2="308.169" gradientUnits="userSpaceOnUse">
<stop stop-color="#1D1E20"/>
<stop offset="1" stop-color="#CBCCCE"/>
</linearGradient>
<linearGradient id="paint14_linear_510_688" x1="132.734" y1="308.288" x2="132.513" y2="309.236" gradientUnits="userSpaceOnUse">
<stop stop-color="#B9BABC"/>
<stop offset="0.332298" stop-color="#6F7072"/>
<stop offset="0.505068" stop-color="#1F2022"/>
<stop offset="0.691743" stop-color="#6F7072"/>
<stop offset="1" stop-color="#B9BABC"/>
</linearGradient>
<linearGradient id="paint15_linear_510_688" x1="132.972" y1="308.166" x2="132.497" y2="309.493" gradientUnits="userSpaceOnUse">
<stop stop-color="#1D1E20"/>
<stop offset="1" stop-color="#CBCCCE"/>
</linearGradient>
<linearGradient id="paint16_linear_510_688" x1="145.389" y1="327.819" x2="151.036" y2="323.622" gradientUnits="userSpaceOnUse">
<stop stop-color="#CDCDCF"/>
<stop offset="0.583118" stop-color="#CCCCCE"/>
<stop offset="0.751085" stop-color="#929295"/>
<stop offset="0.891675" stop-color="#CCCCCE"/>
<stop offset="1" stop-color="#CDCDCF"/>
</linearGradient>
<linearGradient id="paint17_linear_510_688" x1="147.126" y1="325.387" x2="147.401" y2="326.293" gradientUnits="userSpaceOnUse">
<stop stop-color="#B9BABC"/>
<stop offset="0.332298" stop-color="#6F7072"/>
<stop offset="0.505068" stop-color="#1F2022"/>
<stop offset="0.691743" stop-color="#6F7072"/>
<stop offset="1" stop-color="#B9BABC"/>
</linearGradient>
<linearGradient id="paint18_linear_510_688" x1="147.334" y1="324.915" x2="147.864" y2="326.462" gradientUnits="userSpaceOnUse">
<stop stop-color="#1D1E20"/>
<stop offset="1" stop-color="#CBCCCE"/>
</linearGradient>
<linearGradient id="paint19_linear_510_688" x1="148.925" y1="324.548" x2="147.909" y2="324.646" gradientUnits="userSpaceOnUse">
<stop stop-color="#B9BABC"/>
<stop offset="0.332298" stop-color="#6F7072"/>
<stop offset="0.505068" stop-color="#1F2022"/>
<stop offset="0.691743" stop-color="#6F7072"/>
<stop offset="1" stop-color="#B9BABC"/>
</linearGradient>
<linearGradient id="paint20_linear_510_688" x1="149.132" y1="324.81" x2="147.671" y2="324.838" gradientUnits="userSpaceOnUse">
<stop stop-color="#1D1E20"/>
<stop offset="1" stop-color="#CBCCCE"/>
</linearGradient>
</defs>
</svg>
