<svg width="288" height="432" viewBox="0 0 288 432" fill="none" xmlns="http://www.w3.org/2000/svg">
<path d="M256.96 42.22V48.22H31.05V42.22H256.96Z" fill="#333333"/>
<path d="M25.17 57.09C24.3744 57.09 23.6113 56.7739 23.0487 56.2113C22.4861 55.6487 22.17 54.8856 22.17 54.09V36.34C22.17 35.5443 22.4861 34.7813 23.0487 34.2186C23.6113 33.656 24.3744 33.34 25.17 33.34C25.9657 33.34 26.7288 33.656 27.2914 34.2186C27.854 34.7813 28.17 35.5443 28.17 36.34V54.09C28.17 54.8856 27.854 55.6487 27.2914 56.2113C26.7288 56.7739 25.9657 57.09 25.17 57.09Z" fill="#333333"/>
<path d="M262.83 57.09C262.034 57.09 261.271 56.7739 260.709 56.2113C260.146 55.6487 259.83 54.8856 259.83 54.09V36.34C259.83 35.5443 260.146 34.7813 260.709 34.2186C261.271 33.656 262.034 33.34 262.83 33.34C263.626 33.34 264.389 33.656 264.951 34.2186C265.514 34.7813 265.83 35.5443 265.83 36.34V54.09C265.83 54.8856 265.514 55.6487 264.951 56.2113C264.389 56.7739 263.626 57.09 262.83 57.09Z" fill="#333333"/>
<path opacity="0.2" d="M50.3401 66.6699V397C50.3411 397.262 50.4041 397.52 50.5241 397.753C50.644 397.986 50.8173 398.187 51.03 398.34C51.2426 398.494 51.4885 398.594 51.7475 398.634C52.0065 398.674 52.2712 398.652 52.5201 398.57L153.52 364.82C153.846 364.718 154.194 364.718 154.52 364.82L255.52 398.57C255.769 398.652 256.034 398.674 256.293 398.634C256.552 398.594 256.798 398.494 257.01 398.34C257.223 398.187 257.396 397.986 257.516 397.753C257.636 397.52 257.699 397.262 257.7 397V66.6699C257.703 66.4473 257.661 66.2264 257.576 66.0205C257.491 65.8147 257.365 65.6281 257.207 65.4721C257.048 65.3161 256.859 65.1938 256.652 65.1126C256.444 65.0315 256.223 64.9931 256 64.9999H52.0001C51.7809 64.9986 51.5636 65.0409 51.3609 65.1245C51.1583 65.2081 50.9743 65.3312 50.8197 65.4867C50.6652 65.6421 50.5432 65.8268 50.4608 66.03C50.3785 66.2332 50.3374 66.4507 50.3401 66.6699Z" fill="#231F20"/>
<path d="M41.7001 58.6V384.6C41.6993 384.859 41.7602 385.115 41.8779 385.346C41.9956 385.576 42.1667 385.776 42.3768 385.927C42.587 386.079 42.8303 386.178 43.0865 386.217C43.3428 386.256 43.6045 386.233 43.8501 386.15L143.48 352.84C143.806 352.738 144.154 352.738 144.48 352.84L244.11 386.15C244.356 386.233 244.617 386.256 244.874 386.217C245.13 386.178 245.373 386.079 245.583 385.927C245.794 385.776 245.965 385.576 246.082 385.346C246.2 385.115 246.261 384.859 246.26 384.6V58.6C246.25 58.1805 246.08 57.7809 245.784 57.4832C245.488 57.1856 245.089 57.0127 244.67 57H43.3301C42.9037 57.0025 42.495 57.1709 42.1908 57.4696C41.8865 57.7683 41.7105 58.1737 41.7001 58.6Z" fill="#4D1919"/>
<path d="M244.66 389.21C244.164 389.213 243.671 389.136 243.2 388.98L144 355.81L44.8001 389C44.1032 389.231 43.3614 389.293 42.6357 389.182C41.91 389.07 41.2211 388.788 40.6256 388.359C40.0302 387.929 39.5452 387.365 39.2104 386.711C38.8757 386.058 38.7008 385.334 38.7001 384.6V58.6C38.7106 57.3781 39.2027 56.2096 40.0696 55.3484C40.9365 54.4871 42.1081 54.0026 43.3301 54H244.67C245.899 54.0026 247.077 54.4927 247.945 55.3626C248.813 56.2324 249.3 57.4111 249.3 58.64V384.64C249.3 385.375 249.125 386.099 248.789 386.753C248.454 387.407 247.967 387.971 247.37 388.4C246.575 388.949 245.626 389.233 244.66 389.21ZM144 349.74C144.5 349.74 144.996 349.821 145.47 349.98L243.3 382.68V60H44.7001V382.68L142.53 350C143.003 349.833 143.499 349.746 144 349.74Z" fill="#4D1919"/>
<path d="M238.05 376.68L147.13 346.28C145.097 345.61 142.903 345.61 140.87 346.28L50 376.68V66.5H238.1L238.05 376.68ZM53.45 70V371.82L139.76 343C142.513 342.09 145.487 342.09 148.24 343L234.55 371.86V70H53.45Z" fill="#E3E4E5"/>
<path d="M222.815 153.45C222.708 153.46 222.601 153.46 222.495 153.45C202.355 149.78 173.585 147.68 143.565 147.68C114.005 147.68 85.5646 149.68 65.4646 153.3C65.0072 153.381 64.5363 153.276 64.1557 153.01C63.7751 152.744 63.5158 152.337 63.435 151.88C63.3541 151.422 63.4582 150.952 63.7244 150.571C63.9907 150.19 64.3972 149.931 64.8546 149.85C85.1246 146.25 113.855 144.18 143.565 144.18C173.785 144.18 202.785 146.3 223.125 150.01C223.552 150.09 223.935 150.327 224.197 150.673C224.46 151.02 224.584 151.452 224.545 151.886C224.507 152.319 224.308 152.722 223.988 153.017C223.668 153.312 223.25 153.477 222.815 153.48V153.45Z" fill="#E3E4E5"/>
<path d="M85.2313 136.943C83.8418 137.616 82.0276 137.952 79.7885 137.952C76.868 137.952 74.5714 137.094 72.8988 135.377C71.2261 133.66 70.3898 131.372 70.3898 128.514C70.3898 125.469 71.3279 123 73.2041 121.106C75.0891 119.212 77.5317 118.265 80.5319 118.265C82.3904 118.265 83.9569 118.5 85.2313 118.969V123.097C83.9569 122.336 82.5055 121.956 80.8771 121.956C79.0893 121.956 77.6468 122.518 76.5494 123.642C75.452 124.766 74.9033 126.288 74.9033 128.208C74.9033 130.049 75.421 131.518 76.4565 132.616C77.4919 133.704 78.8858 134.248 80.6381 134.248C82.3108 134.248 83.8418 133.841 85.2313 133.027V136.943Z" fill="#E3E4E5"/>
<path d="M105.024 137.62H100.723V129.868H92.8379V137.62H88.55V118.584H92.8379V126.177H100.723V118.584H105.024V137.62Z" fill="#E3E4E5"/>
<path d="M126.118 137.62H121.446L120.092 133.386H113.321L111.98 137.62H107.334L114.264 118.584H119.348L126.118 137.62ZM119.109 130.093L117.065 123.695C116.914 123.217 116.808 122.646 116.746 121.982H116.64C116.596 122.54 116.485 123.093 116.308 123.642L114.237 130.093H119.109Z" fill="#E3E4E5"/>
<path d="M150.186 137.62H145.951V126.23C145.951 125 146.004 123.642 146.111 122.155H146.004C145.783 123.323 145.584 124.164 145.407 124.677L140.947 137.62H137.442L132.902 124.81C132.778 124.465 132.579 123.58 132.305 122.155H132.185C132.3 124.031 132.358 125.677 132.358 127.093V137.62H128.495V118.584H134.774L138.663 129.868C138.973 130.77 139.199 131.677 139.34 132.589H139.42C139.659 131.536 139.911 130.62 140.177 129.841L144.066 118.584H150.186L150.186 137.62Z" fill="#E3E4E5"/>
<path d="M158.802 131.062V137.62H154.514V118.584H161.231C166.028 118.584 168.426 120.606 168.426 124.651C168.426 126.562 167.736 128.111 166.355 129.297C164.983 130.474 163.147 131.062 160.846 131.062H158.802ZM158.802 121.876V127.81H160.488C162.771 127.81 163.913 126.81 163.913 124.81C163.913 122.854 162.771 121.876 160.488 121.876H158.802Z" fill="#E3E4E5"/>
<path d="M175.502 137.62H171.214V118.584H175.502V137.62Z" fill="#E3E4E5"/>
<path d="M187.874 137.952C185.148 137.952 182.927 137.067 181.21 135.297C179.493 133.518 178.635 131.204 178.635 128.354C178.635 125.345 179.506 122.912 181.25 121.053C182.993 119.195 185.303 118.265 188.179 118.265C190.896 118.265 193.091 119.155 194.764 120.934C196.445 122.712 197.286 125.058 197.286 127.969C197.286 130.961 196.414 133.372 194.671 135.204C192.936 137.036 190.671 137.952 187.874 137.952ZM188.06 121.956C186.555 121.956 185.361 122.522 184.476 123.655C183.591 124.779 183.148 126.27 183.148 128.129C183.148 130.014 183.591 131.505 184.476 132.602C185.361 133.7 186.52 134.248 187.954 134.248C189.432 134.248 190.604 133.717 191.471 132.655C192.339 131.585 192.772 130.102 192.772 128.208C192.772 126.235 192.352 124.699 191.511 123.602C190.671 122.504 189.52 121.956 188.06 121.956Z" fill="#E3E4E5"/>
<path d="M217.57 137.62H213.243L205.397 125.659C204.937 124.96 204.618 124.434 204.441 124.08H204.388C204.459 124.752 204.494 125.779 204.494 127.16V137.62H200.445V118.584H205.065L212.619 130.173C212.964 130.695 213.282 131.213 213.574 131.726H213.628C213.557 131.284 213.521 130.412 213.521 129.111V118.584H217.57V137.62Z" fill="#E3E4E5"/>
<path d="M139.797 259.442H138.438L137.766 257.541H134.828L134.182 259.442H132.828L135.625 251.973H137.021L139.797 259.442ZM137.438 256.53L136.401 253.551C136.37 253.454 136.337 253.298 136.302 253.082H136.281C136.25 253.28 136.215 253.437 136.177 253.551L135.151 256.53H137.438Z" fill="#E3E4E5"/>
<path d="M141.917 258.671H141.896V259.442H140.688V251.546H141.896V255.046H141.917C142.33 254.338 142.934 253.983 143.729 253.983C144.403 253.983 144.929 254.223 145.308 254.702C145.689 255.178 145.88 255.817 145.88 256.619C145.88 257.511 145.667 258.226 145.24 258.765C144.813 259.299 144.229 259.567 143.49 259.567C142.795 259.567 142.271 259.268 141.917 258.671ZM141.886 256.551V257.213C141.886 257.601 142.009 257.931 142.255 258.202C142.505 258.473 142.821 258.608 143.203 258.608C143.651 258.608 144.002 258.435 144.255 258.088C144.512 257.737 144.641 257.249 144.641 256.624C144.641 256.1 144.521 255.69 144.282 255.395C144.045 255.096 143.724 254.947 143.318 254.947C142.887 254.947 142.54 255.1 142.276 255.405C142.016 255.711 141.886 256.093 141.886 256.551Z" fill="#E3E4E5"/>
<path d="M151.63 257.103H147.995C148.009 257.596 148.16 257.976 148.448 258.244C148.74 258.511 149.139 258.645 149.646 258.645C150.215 258.645 150.738 258.475 151.214 258.134V259.108C150.728 259.414 150.085 259.567 149.287 259.567C148.502 259.567 147.886 259.325 147.438 258.843C146.993 258.357 146.771 257.674 146.771 256.796C146.771 255.966 147.016 255.291 147.505 254.77C147.998 254.246 148.61 253.983 149.339 253.983C150.068 253.983 150.632 254.218 151.031 254.687C151.431 255.155 151.63 255.806 151.63 256.64V257.103ZM150.464 256.249C150.46 255.815 150.358 255.478 150.156 255.239C149.955 254.996 149.677 254.874 149.323 254.874C148.976 254.874 148.681 255.001 148.438 255.254C148.198 255.508 148.051 255.839 147.995 256.249H150.464Z" fill="#E3E4E5"/>
<path d="M125.818 268.635V267.359C125.932 267.463 126.068 267.557 126.224 267.64C126.384 267.724 126.552 267.795 126.729 267.854C126.906 267.909 127.083 267.953 127.261 267.984C127.438 268.015 127.601 268.031 127.75 268.031C128.271 268.031 128.658 267.944 128.912 267.771C129.169 267.597 129.297 267.345 129.297 267.015C129.297 266.838 129.254 266.686 129.167 266.557C129.083 266.425 128.965 266.305 128.813 266.198C128.66 266.09 128.479 265.988 128.271 265.89C128.066 265.79 127.846 265.685 127.609 265.578C127.356 265.442 127.12 265.305 126.901 265.166C126.682 265.028 126.491 264.875 126.328 264.708C126.169 264.538 126.042 264.347 125.948 264.135C125.858 263.923 125.813 263.675 125.813 263.39C125.813 263.04 125.891 262.736 126.047 262.479C126.207 262.218 126.415 262.005 126.672 261.838C126.932 261.668 127.228 261.543 127.557 261.463C127.887 261.38 128.224 261.338 128.568 261.338C129.349 261.338 129.919 261.427 130.276 261.604V262.828C129.853 262.522 129.307 262.37 128.641 262.37C128.457 262.37 128.273 262.387 128.089 262.422C127.908 262.456 127.745 262.514 127.599 262.593C127.457 262.673 127.34 262.776 127.25 262.901C127.16 263.026 127.115 263.177 127.115 263.354C127.115 263.521 127.149 263.665 127.219 263.786C127.288 263.908 127.389 264.019 127.521 264.12C127.656 264.22 127.82 264.319 128.011 264.416C128.205 264.51 128.429 264.613 128.682 264.724C128.943 264.859 129.188 265.001 129.417 265.151C129.649 265.3 129.853 265.465 130.026 265.646C130.203 265.826 130.342 266.028 130.443 266.25C130.547 266.469 130.599 266.719 130.599 267C130.599 267.378 130.523 267.698 130.37 267.958C130.217 268.219 130.011 268.43 129.75 268.594C129.493 268.757 129.196 268.875 128.86 268.948C128.523 269.021 128.167 269.057 127.792 269.057C127.667 269.057 127.512 269.047 127.328 269.026C127.148 269.009 126.962 268.981 126.771 268.943C126.58 268.908 126.399 268.864 126.229 268.812C126.059 268.76 125.922 268.701 125.818 268.635Z" fill="#E3E4E5"/>
<path d="M134.339 268.875C134.103 268.993 133.792 269.052 133.406 269.052C132.372 269.052 131.854 268.555 131.854 267.562V264.547H130.964V263.599H131.854V262.364L133.063 262.021V263.599H134.339V264.547H133.063V267.213C133.063 267.529 133.12 267.755 133.234 267.89C133.349 268.026 133.54 268.093 133.807 268.093C134.012 268.093 134.189 268.034 134.339 267.916V268.875Z" fill="#E3E4E5"/>
<path d="M139.474 268.932H138.302V268.099H138.281C137.913 268.738 137.374 269.057 136.662 269.057C136.137 269.057 135.726 268.915 135.427 268.63C135.132 268.345 134.985 267.968 134.985 267.5C134.985 266.493 135.564 265.906 136.724 265.739L138.308 265.515C138.308 264.755 137.946 264.375 137.224 264.375C136.589 264.375 136.016 264.593 135.505 265.031V263.974C136.068 263.64 136.717 263.474 137.453 263.474C138.801 263.474 139.474 264.137 139.474 265.463L139.474 268.932ZM138.308 266.312L137.188 266.468C136.84 266.514 136.578 266.599 136.401 266.724C136.228 266.845 136.141 267.06 136.141 267.369C136.141 267.595 136.221 267.781 136.38 267.927C136.544 268.069 136.761 268.14 137.031 268.14C137.4 268.14 137.703 268.012 137.943 267.755C138.186 267.494 138.308 267.168 138.308 266.776V266.312Z" fill="#E3E4E5"/>
<path d="M145.599 268.932H144.391V268.088H144.37C144.019 268.734 143.474 269.057 142.735 269.057C141.474 269.057 140.844 268.3 140.844 266.786V263.599H142.052V266.661C142.052 267.619 142.422 268.099 143.162 268.099C143.519 268.099 143.813 267.967 144.042 267.703C144.275 267.439 144.391 267.093 144.391 266.666V263.599H145.599L145.599 268.932Z" fill="#E3E4E5"/>
<path d="M148.401 268.161H148.38V268.932H147.172V261.036H148.38V264.536H148.401C148.814 263.828 149.419 263.474 150.214 263.474C150.887 263.474 151.413 263.713 151.792 264.192C152.174 264.668 152.365 265.307 152.365 266.109C152.365 267.001 152.151 267.717 151.724 268.255C151.297 268.79 150.714 269.057 149.974 269.057C149.28 269.057 148.755 268.758 148.401 268.161ZM148.37 266.041V266.703C148.37 267.092 148.493 267.422 148.74 267.692C148.99 267.963 149.306 268.099 149.688 268.099C150.136 268.099 150.486 267.925 150.74 267.578C150.997 267.227 151.125 266.739 151.125 266.114C151.125 265.59 151.005 265.18 150.766 264.885C150.53 264.586 150.209 264.437 149.802 264.437C149.372 264.437 149.025 264.59 148.761 264.896C148.5 265.201 148.37 265.583 148.37 266.041Z" fill="#E3E4E5"/>
<path d="M158.115 266.593H154.479C154.493 267.086 154.644 267.467 154.932 267.734C155.224 268.001 155.623 268.135 156.13 268.135C156.7 268.135 157.222 267.965 157.698 267.625V268.599C157.212 268.904 156.57 269.057 155.771 269.057C154.986 269.057 154.37 268.816 153.922 268.333C153.478 267.847 153.255 267.165 153.255 266.286C153.255 265.456 153.5 264.781 153.99 264.26C154.483 263.736 155.094 263.474 155.823 263.474C156.552 263.474 157.117 263.708 157.516 264.177C157.915 264.646 158.115 265.297 158.115 266.13V266.593ZM156.948 265.739C156.945 265.305 156.842 264.968 156.641 264.729C156.439 264.486 156.162 264.364 155.807 264.364C155.46 264.364 155.165 264.491 154.922 264.744C154.682 264.998 154.535 265.33 154.479 265.739H156.948Z" fill="#E3E4E5"/>
<path d="M162.36 264.75C162.214 264.635 162.004 264.578 161.729 264.578C161.372 264.578 161.073 264.739 160.834 265.062C160.594 265.385 160.474 265.824 160.474 266.38V268.932H159.266V263.599H160.474V264.698H160.495C160.613 264.323 160.794 264.031 161.037 263.823C161.283 263.611 161.558 263.505 161.86 263.505C162.078 263.505 162.245 263.538 162.36 263.604L162.36 264.75Z" fill="#E3E4E5"/>
<path d="M134.975 103.235H127.358V102.296C127.358 101.912 127.411 101.554 127.518 101.221C127.626 100.882 127.77 100.566 127.95 100.273C128.131 99.9739 128.342 99.6946 128.585 99.4351C128.828 99.1699 129.087 98.916 129.364 98.6734C129.64 98.4251 129.922 98.1881 130.21 97.9624C130.498 97.7311 130.78 97.4998 131.056 97.2684C131.316 97.0484 131.553 96.834 131.767 96.6252C131.982 96.4108 132.165 96.1907 132.317 95.965C132.47 95.7393 132.588 95.5024 132.673 95.2541C132.757 95.0002 132.8 94.7265 132.8 94.4331C132.8 94.1115 132.749 93.8322 132.647 93.5953C132.551 93.3526 132.413 93.1523 132.233 92.9943C132.058 92.8307 131.849 92.7094 131.606 92.6304C131.364 92.5458 131.099 92.5035 130.811 92.5035C130.314 92.5035 129.809 92.6191 129.296 92.8505C128.782 93.0818 128.289 93.4288 127.815 93.8915V92.0041C128.063 91.8179 128.314 91.6571 128.568 91.5217C128.822 91.3806 129.084 91.265 129.355 91.1747C129.626 91.0788 129.911 91.0082 130.21 90.9631C130.509 90.918 130.828 90.8954 131.166 90.8954C131.714 90.8954 132.21 90.9687 132.656 91.1154C133.102 91.2565 133.482 91.4681 133.798 91.7502C134.114 92.0267 134.357 92.3737 134.526 92.7912C134.701 93.2087 134.789 93.6883 134.789 94.23C134.789 94.7209 134.727 95.1638 134.602 95.5588C134.484 95.9481 134.312 96.312 134.086 96.6506C133.866 96.9891 133.598 97.3107 133.282 97.6154C132.966 97.9201 132.614 98.2333 132.224 98.5549C131.897 98.8201 131.57 99.0796 131.242 99.3335C130.921 99.5818 130.63 99.8272 130.371 100.07C130.111 100.307 129.9 100.547 129.736 100.789C129.578 101.026 129.499 101.266 129.499 101.509V101.551H134.975V103.235Z" fill="#E3E4E5"/>
<path d="M140.832 103.438C139.568 103.438 138.58 102.922 137.869 101.89C137.164 100.857 136.811 99.3646 136.811 97.4123C136.811 95.2682 137.181 93.646 137.92 92.5458C138.659 91.4455 139.726 90.8954 141.119 90.8954C143.788 90.8954 145.123 92.9689 145.123 97.1161C145.123 99.1699 144.745 100.738 143.988 101.822C143.238 102.899 142.186 103.438 140.832 103.438ZM141.026 92.4611C139.554 92.4611 138.817 94.0833 138.817 97.3277C138.817 100.363 139.539 101.881 140.984 101.881C142.406 101.881 143.117 100.338 143.117 97.2515C143.117 94.0579 142.42 92.4611 141.026 92.4611Z" fill="#E3E4E5"/>
<path d="M150.979 90.8276V103.235H149.016V93.2313C148.66 93.4852 148.277 93.7024 147.865 93.883C147.458 94.0579 146.993 94.213 146.468 94.3485V92.6727C146.796 92.5655 147.111 92.4526 147.416 92.3341C147.721 92.2157 148.02 92.0831 148.313 91.9364C148.612 91.7897 148.911 91.626 149.21 91.4455C149.515 91.2649 149.828 91.059 150.15 90.8276H150.979Z" fill="#E3E4E5"/>
<path d="M153.518 99.8498C153.518 99.5 153.561 99.1614 153.645 98.8342C153.736 98.5069 153.868 98.205 154.043 97.9286C154.218 97.6521 154.438 97.4038 154.703 97.1838C154.969 96.9637 155.279 96.786 155.634 96.6506C155.11 96.3572 154.692 95.982 154.382 95.5249C154.071 95.0623 153.916 94.5516 153.916 93.993C153.916 93.5473 154.007 93.1354 154.187 92.7574C154.373 92.3793 154.627 92.0521 154.949 91.7756C155.276 91.4991 155.66 91.2847 156.1 91.1324C156.54 90.9744 157.02 90.8954 157.539 90.8954C158.063 90.8954 158.546 90.9744 158.986 91.1324C159.432 91.2903 159.815 91.5076 160.137 91.7841C160.464 92.0605 160.718 92.3878 160.899 92.7658C161.079 93.1439 161.169 93.5529 161.169 93.993C161.169 94.5516 161.014 95.0623 160.704 95.5249C160.394 95.982 159.982 96.3572 159.468 96.6506C159.818 96.786 160.126 96.9637 160.391 97.1838C160.662 97.3982 160.887 97.6436 161.068 97.9201C161.248 98.1966 161.384 98.4985 161.474 98.8257C161.564 99.153 161.61 99.4943 161.61 99.8498C161.61 100.38 161.511 100.865 161.313 101.306C161.116 101.746 160.839 102.124 160.484 102.44C160.128 102.75 159.702 102.993 159.206 103.167C158.709 103.342 158.162 103.43 157.564 103.43C156.972 103.43 156.427 103.342 155.931 103.167C155.44 102.993 155.014 102.75 154.653 102.44C154.297 102.124 154.018 101.746 153.815 101.306C153.617 100.865 153.518 100.38 153.518 99.8498ZM155.431 99.6805C155.431 100.025 155.482 100.335 155.584 100.612C155.685 100.888 155.829 101.122 156.015 101.314C156.201 101.506 156.424 101.653 156.684 101.754C156.949 101.856 157.242 101.906 157.564 101.906C157.874 101.906 158.159 101.856 158.419 101.754C158.678 101.647 158.901 101.497 159.087 101.306C159.279 101.108 159.429 100.874 159.536 100.603C159.643 100.327 159.697 100.019 159.697 99.6805C159.697 99.3702 159.646 99.0796 159.544 98.8088C159.443 98.5323 159.299 98.2925 159.113 98.0894C158.927 97.8863 158.701 97.7255 158.436 97.607C158.176 97.4885 157.886 97.4292 157.564 97.4292C157.259 97.4292 156.974 97.4856 156.709 97.5985C156.45 97.7057 156.224 97.8609 156.032 98.064C155.846 98.2615 155.699 98.4985 155.592 98.7749C155.485 99.0514 155.431 99.3533 155.431 99.6805ZM155.846 94.1962C155.846 94.4501 155.891 94.687 155.981 94.9071C156.072 95.1215 156.193 95.3105 156.345 95.4742C156.498 95.6321 156.675 95.7563 156.878 95.8465C157.087 95.9368 157.31 95.982 157.547 95.982C157.784 95.982 158.004 95.9368 158.207 95.8465C158.416 95.7506 158.597 95.6237 158.749 95.4657C158.907 95.3021 159.031 95.113 159.121 94.8986C159.212 94.6786 159.257 94.4444 159.257 94.1962C159.257 93.9423 159.212 93.7053 159.121 93.4852C159.037 93.2652 158.918 93.0762 158.766 92.9182C158.613 92.7602 158.433 92.6361 158.224 92.5458C158.015 92.4555 157.79 92.4104 157.547 92.4104C157.293 92.4104 157.062 92.4583 156.853 92.5542C156.644 92.6445 156.464 92.7715 156.311 92.9351C156.165 93.0987 156.049 93.2906 155.964 93.5106C155.885 93.725 155.846 93.9535 155.846 94.1962Z" fill="#E3E4E5"/>
<path d="M130.828 313.998C132.04 315.595 134.416 314.838 134.414 318.669C134.412 321.95 133.307 325.106 133.879 328.051C134.762 332.602 139.331 332.214 142.644 332.248L144.29 322.907L144.331 312.29L135.1 310.903L131.549 313.476L130.828 313.998Z" fill="black"/>
<path d="M166.14 326.383C166.038 328.014 166.023 329.279 165.558 330.311L165.034 331.475C164.778 331.906 164.67 332.274 164.743 332.61C164.984 333.709 163.745 334.127 162.488 334.152C160.391 334.195 158.575 333.438 157.032 332.406L166.14 326.383Z" fill="white" stroke="black" stroke-width="0.230447"/>
<path d="M158.138 332.73C159.297 333.346 161.89 334.436 163.78 333.645C164.209 333.465 163.993 333.353 163.908 333.384C162.536 333.219 162.323 333.106 161.63 331.795C160.578 331.96 158.579 331.929 158.106 332.549C158 332.652 158.115 332.651 158.138 332.73Z" fill="black"/>
<path d="M162.108 331.981C163.007 333.929 163.966 332.562 164.413 331.22" stroke="black" stroke-width="0.230447" stroke-linecap="round" stroke-linejoin="round"/>
<path d="M136.605 313.101L136.473 310.709L146.935 316.228L141.451 329.565C141.626 328.556 141.266 326.843 141.691 325.804C142.783 323.131 143.462 320.875 143.135 319.171C142.257 314.591 139.039 313.805 136.605 313.101Z" fill="#4D4D4D" stroke="black" stroke-width="0.230447"/>
<path d="M131.164 314.307C129.237 313.846 129.028 310.752 131.746 306.683C139.283 295.402 150.042 296.735 155.025 298.07C164.13 300.51 170.727 309.9 168.119 321.174C167.351 324.494 165.878 328.18 163.463 331.737C163.241 332.064 162.998 332.446 161.834 332.086C160.254 331.598 159.008 331.52 158.051 332.173C152.403 336.029 148.381 336.102 144.869 334.647C141.006 333.045 141.098 329.854 141.698 327.023C142.204 324.632 143.802 322.313 143.531 319.632C142.981 314.209 138.856 313.479 136.14 312.852C133.709 312.291 130.952 312.887 131.164 314.307Z" fill="#E3E4E5"/>
<path d="M151.848 324.752L153.275 326.886C154.452 326.943 155.323 326.541 155.808 325.878C156.382 325.092 156.437 323.981 156.133 323.425C155.496 322.261 153.838 321.771 152.703 322.917C152.314 323.31 152.088 323.961 151.848 324.752Z" fill="black" stroke="black" stroke-width="0.230447"/>
<path d="M155.853 331.781C156.367 331.781 156.783 331.387 156.783 330.901C156.783 330.415 156.367 330.021 155.853 330.021C155.34 330.021 154.924 330.415 154.924 330.901C154.924 331.387 155.34 331.781 155.853 331.781Z" fill="url(#paint0_linear_510_777)" stroke="url(#paint1_linear_510_777)" stroke-width="0.0911904" stroke-linecap="round" stroke-linejoin="round"/>
<path d="M150.421 329.059C151.32 331.007 156.682 329.723 157.129 328.38" stroke="black" stroke-width="0.230447" stroke-linecap="round" stroke-linejoin="round"/>
<path d="M146.747 330.234C147.174 330.478 147.707 330.349 147.939 329.945C148.17 329.541 148.012 329.015 147.585 328.77C147.158 328.526 146.625 328.655 146.393 329.059C146.162 329.463 146.32 329.989 146.747 330.234Z" fill="url(#paint2_linear_510_777)" stroke="url(#paint3_linear_510_777)" stroke-width="0.087355" stroke-linecap="round" stroke-linejoin="round"/>
<path d="M143.426 324.78C138.807 334.676 150.915 336.71 158.899 330.932C155.779 332.399 153.459 333.425 151.131 333.633C147.636 333.945 144.997 333.168 143.731 331.559C142.456 329.942 142.567 327.483 143.426 324.78Z" fill="url(#paint4_linear_510_777)"/>
<path d="M137.066 319.752C137.557 319.721 138.314 319.842 138.703 320.688C138.857 321.021 138.873 321.496 138.776 322.084C138.285 325.059 140.144 326.793 142.273 328.586L142.15 331.878C139.332 332.124 136.709 331.827 135.322 330.392C133.725 328.739 133.83 325.473 134.519 322.276C134.886 320.998 135.636 319.863 137.066 319.752Z" fill="#4D4D4D"/>
<path d="M133.858 315.047C135.221 316.276 135.322 318.194 135.031 319.862C134.946 320.347 134.591 320.07 134.619 319.903C134.92 318.139 134.691 316.713 133.529 315.253C133.199 314.839 133.601 314.815 133.858 315.047Z" fill="white"/>
<path d="M133.982 307.259C134.16 306.808 130.678 308.496 130.945 308.004C131.177 307.577 131.443 307.136 131.746 306.683C139.283 295.402 150.042 296.735 155.025 298.07C147.336 298.261 139.628 298.367 133.982 307.259Z" fill="#4D4D4D"/>
<path d="M131.164 314.307C129.237 313.846 129.028 310.752 131.746 306.683C139.283 295.402 150.042 296.735 155.025 298.07C164.13 300.51 170.727 309.9 168.119 321.174C167.351 324.494 165.878 328.18 163.463 331.737C163.241 332.064 162.998 332.446 161.834 332.086C160.254 331.598 159.008 331.52 158.051 332.173C152.403 336.029 148.381 336.102 144.869 334.647C141.006 333.045 141.098 329.854 141.698 327.023C142.204 324.632 143.802 322.313 143.531 319.632C142.981 314.209 138.856 313.479 136.14 312.852C133.709 312.291 130.952 312.887 131.164 314.307Z" stroke="black" stroke-width="0.230447"/>
<path d="M135.456 306.945C135.834 307.101 136.58 306.749 136.212 307.935L134.947 311.295C134.36 312.852 135.772 313.207 136.984 313.594L134.685 313.609L133.754 311.848L134.728 308.007L135.456 306.945Z" fill="#F2F2F2" stroke="black" stroke-width="0.230447"/>
<path d="M130.742 306.494L132.153 307.178L130.96 311.921C129.426 312.371 127.558 311.895 128.458 310.306C129.177 309.036 129.908 307.765 130.742 306.494Z" fill="#D0D0D1" stroke="black" stroke-width="0.230447"/>
<path d="M131.564 307.071L135.36 306.982C135.834 306.97 135.949 307.039 135.813 307.434L134.537 311.138C134.059 312.525 134.532 313.373 135.73 313.689L131.592 313.526C131.211 313.596 131.117 314.049 131.164 314.278C128.718 313.301 129.847 309.311 131.564 307.071Z" fill="white" stroke="black" stroke-width="0.230447"/>
<path d="M133.667 306.747L134.581 307.314C134.894 307.509 135.343 307.729 135.102 308.333L133.894 311.65L132.736 309.569L133.667 306.747Z" fill="#CCCCCE" stroke="black" stroke-width="0.230447" stroke-linecap="round" stroke-linejoin="round"/>
<path d="M133.671 306.558C133.931 306.962 135.097 307.019 134.64 308.231L133.756 310.442L133.961 311.344C133.894 311.784 133.745 312.108 133.468 312.247L132.921 312.32L131.971 311.403L132.08 309.133L133.671 306.558Z" fill="#CCCCCE" stroke="black" stroke-width="0.230447" stroke-linecap="round" stroke-linejoin="round"/>
<path d="M151.79 327.864C152.364 328.209 152.986 327.744 152.88 327.246L146.317 316.938C144.957 314.511 143.239 313.125 141.276 312.452C138.86 311.588 136.378 311.184 133.91 310.683C132.898 310.635 132.839 311.706 133.704 311.938C135.632 312.334 137.529 312.543 139.506 313.234C141.675 313.873 143.631 314.832 144.712 317.103L151.79 327.864Z" fill="#CDCDCF" stroke="black" stroke-width="0.230447"/>
<path d="M134.458 318.545C130.669 322.451 126.241 321.722 122.976 321.187C122.275 321.064 121.838 321.2 121.577 321.763C120.071 325 119.596 328.772 119.27 332.721C119.246 333.016 119.361 333.375 119.708 333.452C121.533 333.485 120.649 333.303 120.834 332.186C120.777 330.092 121.02 326.074 122.729 322.627C122.883 322.316 123.227 322.145 124.087 322.38C127.423 323.36 129.851 323.031 131.598 322.145C133.028 321.42 133.61 321.078 134.346 320.552L134.458 318.545Z" fill="url(#paint5_linear_510_777)" stroke="black" stroke-width="0.230447" stroke-linecap="round" stroke-linejoin="round"/>
<path d="M123.926 327.812C123.015 327.635 122.152 327.469 121.176 327.186C120.571 327.01 120.256 325.308 121.822 325.539C126.408 326.214 129.25 325.952 133.793 325.082L133.763 326.329C128.459 327.344 126.69 327.219 123.072 326.305L121.95 326.108C122.97 326.318 123.458 326.49 124.479 326.619L123.926 327.812Z" fill="url(#paint6_linear_510_777)" stroke="black" stroke-width="0.230447" stroke-linecap="round" stroke-linejoin="round"/>
<path d="M125.551 323.038L122.801 322.442C122.228 322.18 122.016 321.278 122.991 321.176L126.177 321.729L125.551 323.038Z" fill="url(#paint7_linear_510_777)" stroke="black" stroke-width="0.230447" stroke-linecap="round" stroke-linejoin="round"/>
<path d="M132.44 315.095L127.79 326.33C126.173 330.238 124.488 331.117 121.042 331.968C119.421 332.136 119.383 332.94 119.624 333.304C119.942 333.783 121.631 334.361 123.284 334.499L123.408 333.223C122.753 333.031 121.979 333.074 121.564 332.963C121.295 332.891 121.289 332.8 121.673 332.813C121.903 332.821 122.151 332.891 122.477 332.879C123.556 332.838 124.317 332.369 125.239 331.721C127.04 330.456 127.852 329.461 129.478 325.59L133.592 315.795C133.332 315.14 132.89 315.103 132.44 315.095Z" fill="url(#paint8_linear_510_777)" stroke="black" stroke-width="0.230447" stroke-linecap="round" stroke-linejoin="round"/>
<path d="M143.738 313.833C144.104 314.1 144.459 314.426 144.798 314.831L138.035 329.495L136.43 329.598L143.738 313.833Z" fill="url(#paint9_linear_510_777)" stroke="black" stroke-width="0.230447" stroke-linecap="round" stroke-linejoin="round"/>
<path d="M147.417 318.923C147.756 318.996 148.263 319.584 148.23 320.014C146.911 321.236 146.168 321.879 144.727 322.994C143.633 323.842 142.36 324.332 141.061 324.435C137.57 324.712 134.165 324.262 130.818 323.838L126.817 323.14C126.827 323.077 126.791 322.925 126.744 322.994C125.944 324.244 125.684 325.513 125.435 326.835L134.484 328.203C135.115 328.298 138.82 328.495 141.439 328.028L150.781 326.365L151.536 327.519C147.495 328.216 143.544 328.996 139.082 329.483C137.109 329.699 134.738 329.582 133.67 329.396L125.289 327.941C125.154 327.918 125.062 327.918 125.027 328.028C124.415 330.017 124.36 331.866 124.358 333.703C124.472 333.72 124.406 333.518 124.518 333.541C129.398 334.567 135.26 332.825 136.379 329.642L137.948 329.575C135.315 334.976 129.02 335.399 124.184 334.663C123.698 334.799 123.342 334.678 123.02 334.488C122.899 329.723 123.966 325.521 125.93 321.743C126.042 321.527 126.954 321.294 126.992 322.049C133.631 323.154 136.344 323.07 140.1 323.285C141.936 323.391 143.611 322.439 145.309 320.87L147.417 318.923Z" fill="url(#paint10_linear_510_777)" stroke="black" stroke-width="0.230447" stroke-linecap="round" stroke-linejoin="round"/>
<path d="M131.628 310.381L129.302 310.262C128.439 310.505 128.428 311.479 129.389 311.485L131.606 311.414L131.628 310.381Z" fill="#D0D0D1" stroke="black" stroke-width="0.230447"/>
<path d="M132.676 306.767C133.279 306.303 133.805 306.208 134.151 306.973L132.741 310.173C132.442 310.85 131.986 311.486 133.339 312.281C132.683 312.432 132.176 312.517 131.622 312.37C131.52 312.343 131.413 312.306 131.356 312.199C130.952 311.447 130.845 310.683 131.31 309.689L132.676 306.767Z" fill="url(#paint11_linear_510_777)" stroke="black" stroke-width="0.230447" stroke-linecap="round" stroke-linejoin="round"/>
<path d="M132.769 307.809C132.881 308.038 133.145 308.047 133.36 307.83C133.576 307.613 133.659 307.251 133.547 307.023C133.436 306.794 133.171 306.784 132.956 307.001C132.741 307.218 132.657 307.58 132.769 307.809Z" fill="url(#paint12_linear_510_777)" stroke="url(#paint13_linear_510_777)" stroke-width="0.0509192" stroke-linecap="round" stroke-linejoin="round"/>
<path d="M132.219 309.133C132.33 309.362 132.595 309.371 132.81 309.154C133.025 308.937 133.109 308.575 132.997 308.347C132.886 308.118 132.621 308.108 132.406 308.325C132.191 308.542 132.107 308.904 132.219 309.133Z" fill="url(#paint14_linear_510_777)" stroke="url(#paint15_linear_510_777)" stroke-width="0.0509192" stroke-linecap="round" stroke-linejoin="round"/>
<path d="M149.784 322.167L150.998 323.926C151.352 324.439 150.894 324.615 150.627 324.79L147.479 326.858C147.031 327.152 146.73 327.086 146.492 326.837L145.545 325.85L145.627 324.471L148.158 322.928L149.784 322.167Z" fill="url(#paint16_linear_510_777)" stroke="black" stroke-width="0.230447" stroke-linecap="round" stroke-linejoin="round"/>
<path d="M145.525 325.685C144.98 325.023 144.898 324.38 145.545 323.936L147.973 322.269L148.487 322.907C147.116 323.76 145.647 324.593 145.525 325.685Z" fill="#CBCBCE" stroke="black" stroke-width="0.230447" stroke-linecap="round" stroke-linejoin="round"/>
<path d="M148.261 322.681C149.087 322.685 149.367 322.238 149.434 321.796C149.663 322.052 150.182 322.248 149.496 322.743C147.137 324.035 145.268 325.371 145.813 326.158C145.436 325.731 145.105 325.291 145.751 324.594L148.261 322.681Z" fill="#CECED0" stroke="black" stroke-width="0.230447" stroke-linecap="round" stroke-linejoin="round"/>
<path d="M146.848 326.228C147.179 326.418 147.594 326.318 147.774 326.004C147.954 325.69 147.831 325.281 147.499 325.091C147.168 324.901 146.753 325.002 146.573 325.316C146.393 325.63 146.516 326.038 146.848 326.228Z" fill="url(#paint17_linear_510_777)" stroke="url(#paint18_linear_510_777)" stroke-width="0.0678814" stroke-linecap="round" stroke-linejoin="round"/>
<path d="M147.916 324.351C147.737 324.657 147.828 325.043 148.119 325.212C148.409 325.381 148.789 325.269 148.967 324.962C149.146 324.655 149.055 324.27 148.765 324.101C148.474 323.932 148.094 324.044 147.916 324.351Z" fill="url(#paint19_linear_510_777)" stroke="url(#paint20_linear_510_777)" stroke-width="0.063006" stroke-linecap="round" stroke-linejoin="round"/>
<path d="M150.38 306.097L151.174 307.02L151.341 307.091L151.759 307.778L151.868 307.692L152.276 308.297L152.234 308.444L152.437 308.326L152.788 309.073L152.991 308.956L153.294 309.688L153.471 309.603L153.529 309.64L153.743 310.205L153.697 310.43L153.942 310.346L154.157 310.971L154.11 311.136L154.308 311.037L154.47 311.486L154.393 311.762L154.575 311.658L154.701 312.176L154.665 312.364L154.847 312.261L154.937 312.967L155.099 312.997L155.153 313.472L155.096 313.614L155.226 313.694L155.264 314.284L155.431 314.296L155.252 313.663L155.273 313.589L155.434 313.619L155.255 312.926L155.286 312.815L155.401 312.891L155.338 312.632L155.4 312.411L155.326 312.07L155.414 311.758L155.482 311.699L155.465 311.215L155.49 310.943L155.511 310.87L155.652 310.913L155.661 310.637L155.67 310.301L155.763 310.03L155.878 310.105L155.935 310.083L155.944 309.867L155.954 309.591L155.989 309.342L156.187 309.363L156.181 309.202L156.377 308.444L156.393 308.389L156.612 308.577L156.808 307.939L157.038 308.09L157.26 307.42L157.354 307.329L157.438 307.574L157.479 307.607L157.583 307.18L157.681 307.131L157.821 306.755L157.899 306.719L157.983 306.905L158.03 306.859L158.211 306.337L158.403 306.077L158.471 306.137L158.486 306.141L158.6 305.857L158.87 305.502L158.99 305.379L159.052 305.219L159.125 305.141L159.207 304.967L159.29 304.853L159.399 304.707L159.529 304.608L159.566 304.659L159.551 304.894L159.484 305.252L159.344 305.568L159.163 305.911L159.049 306.195L158.945 306.502L158.785 307.071L158.9 307.027L158.916 307.151L158.745 307.817L158.673 308.074L158.928 307.953L158.897 308.302L158.825 308.619L158.748 308.895L158.675 308.972L158.691 309.037L158.863 308.97L158.946 309.036L158.925 309.229L158.765 309.798L158.692 309.936L158.677 309.991L158.854 310.025L158.906 309.961L158.943 310.072L158.86 310.366L158.699 310.636L158.497 310.932L158.643 311.017L158.742 310.968L158.664 311.303L158.503 311.513L158.373 311.612L158.452 311.696L158.343 311.962L158.198 312.176L158.089 312.322L158.141 312.378L158.078 312.479L158.001 312.574L158.068 312.635L157.933 312.813L157.809 312.954L157.731 313.11L157.487 313.314L157.429 313.336L157.737 313.451L157.866 313.052L158.032 312.824L158.157 312.982L158.349 312.662L158.588 312.357L158.745 312.585L158.88 312.347L159.062 312.124L159.337 311.81L159.504 312.001L159.743 311.695L159.987 311.491L160.165 311.646L160.487 311.286L160.799 311.083L160.851 311.259L161.21 310.891L161.537 310.692L161.611 310.855L161.658 310.869L161.688 310.699L162.25 310.393L162.355 310.565L162.407 310.442L162.932 310.145L162.995 310.224L163.567 309.941L164.083 309.74L164.369 309.689L164.567 309.71L163.99 310.071L163.423 310.515L163.278 310.669L163.262 310.844L163.168 310.815L162.815 311.225L162.815 311.285L162.873 311.382L162.769 311.51L162.275 311.936L162.447 312.049L161.938 312.471L162.032 312.559L161.98 312.683L161.278 313.185L161.409 313.265L161.425 313.33L160.676 313.817L160.79 313.832L159.937 314.327L159.948 314.41L160.12 314.463L159.428 314.749L159.428 314.809L159.574 314.834L158.882 315.059L158.814 315.059L158.783 315.109L158.872 315.156L158.866 315.294L159.215 315.142L159.486 315.146L159.445 315.293L159.83 315.133L160.059 315.163L160.018 315.37L160.46 315.307L160.814 315.257L160.752 315.477L161.153 315.441L161.325 315.494L161.283 315.641L161.804 315.602L161.752 315.785L161.872 315.783L162.013 315.766L162.351 315.89L162.326 315.982L163.55 316.34L163.498 316.463L162.608 316.428L162.582 316.52L162.264 316.442L162.233 316.552L162.019 316.466L161.968 316.53L161.816 316.464L161.785 316.574L161.52 316.492L161.473 316.597L161.296 316.563L161.26 316.631L161.108 316.565L161.015 316.775L160.713 316.642L160.447 316.62L160.37 316.836L159.744 316.703L159.708 316.891L159.13 316.773L159.099 316.883L159.177 316.907L159.078 316.897L158.588 316.766L158.536 316.889L158.854 316.967L158.813 317.114L159.235 317.304L159.24 317.406L159.428 317.523L159.475 317.598L159.47 317.736L159.924 318.175L159.929 318.276L159.293 318L159.252 318.087L158.955 317.876L158.835 317.939L158.741 317.91L158.491 317.773L158.413 317.809L158.225 317.751L158.09 317.689L158.017 317.707L157.897 317.59L157.694 317.468L157.647 317.573L157.391 317.394L157.245 317.31L157.163 317.543L156.844 317.166L156.75 317.077L156.588 316.987L156.578 317.024L156.797 317.211L157.126 317.672L157.09 317.8L156.746 317.634L156.35 317.353L155.974 316.997L155.66 316.661L155.598 316.463L155.53 316.342L155.509 316.355L155.353 316.547L154.973 316.749L154.484 316.977L154.437 316.963L154.411 316.875L153.818 317.111L153.792 317.023L153.437 317.014L153.39 316.94L153.479 316.807L153.51 316.697L153.447 316.678L153.478 316.568L153.358 316.511L153.4 316.364L153.066 316.341L153.092 316.189L152.633 316.068L152.539 315.979L152.206 315.956L152.123 315.95L152.169 315.785L151.883 315.716L151.711 315.724L151.711 315.604L150.824 315.311L151.262 315.147L151.662 315.111L151.709 315.006L152.095 315.144L152.136 314.938L152.647 315.115L152.673 315.023L152.454 314.956L152.485 314.846L151.927 314.654L151.942 314.479L151.953 314.442L151.63 314.323L151.635 314.244L151.421 314.159L151.437 314.044L151.389 313.969L151.4 313.933L150.951 313.655L150.811 313.611L150.8 313.468L150.847 313.363L150.461 313.164L150.377 313.099L150.205 313.046L150.241 312.857L149.934 312.623L149.751 312.427L149.61 312.324L149.657 312.218L148.77 311.566L148.738 311.496L149.489 311.668L149.812 311.787L149.869 311.885L149.906 311.756L150.317 311.923L150.401 312.049L150.468 311.93L150.76 312.04L150.985 312.328L151.073 312.136L151.198 312.175L151.496 312.446L151.6 312.558L151.704 312.37L152.085 312.707L152.179 312.796L152.205 312.704L152.413 312.868L152.56 313.073L152.674 313.148L152.757 313.034L152.914 313.082L152.971 313.18L153.013 313.153L152.506 312.658L152.662 312.526L152.151 311.93L152.223 311.852L152.056 311.362L151.795 311.082L151.742 310.966L151.825 310.852L151.694 310.532L151.71 310.417L151.438 310.114L151.578 309.978L151.165 309.152L151.279 309.048L150.949 308.168L151.053 308.101L150.87 307.486L150.874 307.348L150.375 306.098L150.38 306.097Z" fill="#4D4D4D"/>
<path d="M157.942 319.113C162.114 318.205 164.769 314.131 163.873 310.014C162.977 305.896 158.869 303.293 154.698 304.201C150.526 305.108 147.871 309.182 148.767 313.3C149.663 317.418 153.771 320.021 157.942 319.113Z" stroke="#333333" stroke-width="1.92003"/>
<path d="M149.984 306.168L162.055 317.904L149.984 306.168Z" fill="#800000"/>
<path d="M149.984 306.168L162.055 317.904" stroke="#333333" stroke-width="1.92003"/>
<path d="M134.155 182.258L129.822 193.779C128.78 196.549 127.21 197.935 125.113 197.935C124.315 197.935 123.658 197.845 123.144 197.664V195.039C123.582 195.296 124.058 195.424 124.572 195.424C125.419 195.424 126.009 195.025 126.342 194.227L126.905 192.904L122.572 182.258H126.217L128.207 188.747C128.332 189.15 128.429 189.626 128.499 190.174H128.54C128.603 189.772 128.717 189.303 128.884 188.768L130.894 182.258H134.155Z" fill="#E3E4E5"/>
<path d="M140.353 193.185C138.575 193.185 137.176 192.688 136.155 191.695C135.141 190.695 134.634 189.341 134.634 187.633C134.634 185.869 135.162 184.49 136.217 183.497C137.273 182.497 138.7 181.997 140.499 181.997C142.269 181.997 143.658 182.497 144.665 183.497C145.672 184.49 146.176 185.806 146.176 187.445C146.176 189.216 145.655 190.615 144.613 191.643C143.578 192.671 142.158 193.185 140.353 193.185ZM140.436 184.518C139.658 184.518 139.054 184.786 138.624 185.32C138.193 185.855 137.978 186.612 137.978 187.591C137.978 189.64 138.804 190.664 140.457 190.664C142.033 190.664 142.821 189.612 142.821 187.508C142.821 185.515 142.026 184.518 140.436 184.518Z" fill="#E3E4E5"/>
<path d="M158.446 192.924H155.165V191.299H155.113C154.301 192.556 153.214 193.185 151.853 193.185C149.381 193.185 148.144 191.688 148.144 188.695V182.258H151.426V188.404C151.426 189.911 152.023 190.664 153.217 190.664C153.808 190.664 154.28 190.459 154.634 190.049C154.988 189.633 155.165 189.07 155.165 188.362V182.258H158.446L158.446 192.924Z" fill="#E3E4E5"/>
<path d="M168.176 185.227C167.78 185.011 167.318 184.904 166.79 184.904C166.075 184.904 165.516 185.168 165.113 185.695C164.71 186.216 164.509 186.928 164.509 187.831V192.924H161.217V182.258H164.509V184.237H164.551C165.071 182.793 166.009 182.07 167.363 182.07C167.71 182.07 167.981 182.112 168.176 182.195L168.176 185.227Z" fill="#E3E4E5"/>
<path d="M114.384 210.519C113.641 210.95 112.568 211.165 111.165 211.165C109.526 211.165 108.2 210.669 107.186 209.676C106.172 208.683 105.665 207.401 105.665 205.832C105.665 204.019 106.207 202.592 107.29 201.551C108.381 200.502 109.835 199.978 111.655 199.978C112.912 199.978 113.822 200.144 114.384 200.478V203.269C113.697 202.756 112.929 202.499 112.082 202.499C111.137 202.499 110.387 202.776 109.832 203.332C109.283 203.881 109.009 204.641 109.009 205.613C109.009 206.558 109.273 207.301 109.801 207.842C110.328 208.377 111.054 208.644 111.978 208.644C112.797 208.644 113.599 208.387 114.384 207.874V210.519Z" fill="#E3E4E5"/>
<path d="M123.499 203.207C123.103 202.992 122.641 202.884 122.113 202.884C121.398 202.884 120.839 203.148 120.436 203.676C120.033 204.196 119.832 204.908 119.832 205.811V210.905H116.54V200.238H119.832V202.217H119.874C120.394 200.773 121.332 200.051 122.686 200.051C123.033 200.051 123.304 200.092 123.499 200.176L123.499 203.207Z" fill="#E3E4E5"/>
<path d="M130.03 211.165C128.252 211.165 126.853 210.669 125.832 209.676C124.818 208.676 124.311 207.322 124.311 205.613C124.311 203.849 124.839 202.471 125.894 201.478C126.95 200.478 128.377 199.978 130.176 199.978C131.947 199.978 133.335 200.478 134.342 201.478C135.349 202.471 135.853 203.787 135.853 205.426C135.853 207.197 135.332 208.596 134.29 209.624C133.256 210.651 131.835 211.165 130.03 211.165ZM130.113 202.499C129.335 202.499 128.731 202.766 128.301 203.301C127.87 203.835 127.655 204.592 127.655 205.572C127.655 207.62 128.481 208.644 130.134 208.644C131.71 208.644 132.499 207.592 132.499 205.488C132.499 203.495 131.703 202.499 130.113 202.499Z" fill="#E3E4E5"/>
<path d="M143.072 211.165C141.294 211.165 139.894 210.669 138.874 209.676C137.86 208.676 137.353 207.322 137.353 205.613C137.353 203.849 137.881 202.471 138.936 201.478C139.992 200.478 141.419 199.978 143.217 199.978C144.988 199.978 146.377 200.478 147.384 201.478C148.391 202.471 148.894 203.787 148.894 205.426C148.894 207.197 148.374 208.596 147.332 209.624C146.297 210.651 144.877 211.165 143.072 211.165ZM143.155 202.499C142.377 202.499 141.773 202.766 141.342 203.301C140.912 203.835 140.696 204.592 140.696 205.572C140.696 207.62 141.523 208.644 143.176 208.644C144.752 208.644 145.54 207.592 145.54 205.488C145.54 203.495 144.745 202.499 143.155 202.499Z" fill="#E3E4E5"/>
<path d="M161.717 210.905H157.769L154.363 205.613H154.321V210.905H151.03V195.113H154.321V205.165H154.363L157.54 200.238H161.446L157.624 205.249L161.717 210.905Z" fill="#E3E4E5"/>
<path d="M172.238 206.509H165.28C165.391 208.058 166.367 208.832 168.207 208.832C169.381 208.832 170.412 208.554 171.301 207.999V210.374C170.315 210.901 169.033 211.165 167.457 211.165C165.735 211.165 164.398 210.69 163.447 209.738C162.495 208.78 162.019 207.447 162.019 205.738C162.019 203.967 162.533 202.565 163.561 201.53C164.589 200.495 165.853 199.978 167.353 199.978C168.908 199.978 170.11 200.44 170.957 201.363C171.811 202.287 172.238 203.54 172.238 205.124V206.509ZM169.186 204.488C169.186 202.96 168.568 202.197 167.332 202.197C166.804 202.197 166.346 202.415 165.957 202.853C165.575 203.29 165.342 203.835 165.259 204.488H169.186Z" fill="#E3E4E5"/>
<path d="M184.634 210.905H181.342V209.436H181.301C180.551 210.589 179.45 211.165 177.999 211.165C176.665 211.165 175.592 210.696 174.78 209.759C173.967 208.815 173.561 207.499 173.561 205.811C173.561 204.047 174.009 202.634 174.905 201.571C175.801 200.509 176.974 199.978 178.426 199.978C179.801 199.978 180.759 200.471 181.301 201.457H181.342V195.113H184.634V210.905ZM181.405 205.717V204.915C181.405 204.221 181.203 203.644 180.801 203.186C180.398 202.728 179.874 202.499 179.228 202.499C178.499 202.499 177.929 202.787 177.519 203.363C177.11 203.933 176.905 204.717 176.905 205.717C176.905 206.655 177.103 207.377 177.499 207.884C177.894 208.391 178.443 208.644 179.144 208.644C179.811 208.644 180.353 208.377 180.769 207.842C181.193 207.308 181.405 206.599 181.405 205.717Z" fill="#E3E4E5"/>
<path d="M109.608 228.5C108.865 228.93 107.792 229.146 106.389 229.146C104.75 229.146 103.424 228.649 102.41 227.656C101.396 226.663 100.889 225.382 100.889 223.812C100.889 222 101.431 220.573 102.514 219.531C103.605 218.482 105.059 217.958 106.879 217.958C108.136 217.958 109.046 218.125 109.608 218.458V221.25C108.921 220.736 108.153 220.479 107.306 220.479C106.361 220.479 105.611 220.757 105.056 221.312C104.507 221.861 104.233 222.621 104.233 223.594C104.233 224.538 104.497 225.281 105.025 225.823C105.552 226.357 106.278 226.625 107.202 226.625C108.021 226.625 108.823 226.368 109.608 225.854V228.5Z" fill="#E3E4E5"/>
<path d="M116.848 229.146C115.07 229.146 113.671 228.649 112.65 227.656C111.636 226.656 111.129 225.302 111.129 223.594C111.129 221.83 111.657 220.451 112.712 219.458C113.768 218.458 115.195 217.958 116.993 217.958C118.764 217.958 120.153 218.458 121.16 219.458C122.167 220.451 122.671 221.767 122.671 223.406C122.671 225.177 122.15 226.576 121.108 227.604C120.073 228.632 118.653 229.146 116.848 229.146ZM116.931 220.479C116.153 220.479 115.549 220.746 115.118 221.281C114.688 221.816 114.473 222.573 114.473 223.552C114.473 225.6 115.299 226.625 116.952 226.625C118.528 226.625 119.316 225.573 119.316 223.469C119.316 221.475 118.521 220.479 116.931 220.479Z" fill="#E3E4E5"/>
<path d="M141.743 228.885H138.462V222.802C138.462 221.253 137.893 220.479 136.754 220.479C136.212 220.479 135.771 220.712 135.431 221.177C135.091 221.642 134.92 222.222 134.92 222.916V228.885H131.629V222.739C131.629 221.232 131.07 220.479 129.952 220.479C129.389 220.479 128.938 220.701 128.598 221.146C128.264 221.59 128.098 222.194 128.098 222.958V228.885H124.806V218.219H128.098V219.885H128.139C128.48 219.316 128.955 218.854 129.566 218.5C130.184 218.139 130.858 217.958 131.587 217.958C133.094 217.958 134.125 218.621 134.681 219.948C135.493 218.621 136.688 217.958 138.264 217.958C140.584 217.958 141.743 219.389 141.743 222.25L141.743 228.885Z" fill="#E3E4E5"/>
<path d="M161.285 228.885H158.004V222.802C158.004 221.253 157.434 220.479 156.295 220.479C155.754 220.479 155.313 220.712 154.973 221.177C154.632 221.642 154.462 222.222 154.462 222.916V228.885H151.17V222.739C151.17 221.232 150.611 220.479 149.493 220.479C148.931 220.479 148.479 220.701 148.139 221.146C147.806 221.59 147.639 222.194 147.639 222.958V228.885H144.348V218.219H147.639V219.885H147.681C148.021 219.316 148.497 218.854 149.108 218.5C149.726 218.139 150.4 217.958 151.129 217.958C152.636 217.958 153.667 218.621 154.223 219.948C155.035 218.621 156.229 217.958 157.806 217.958C160.125 217.958 161.285 219.389 161.285 222.25L161.285 228.885Z" fill="#E3E4E5"/>
<path d="M165.556 216.531C165 216.531 164.545 216.368 164.191 216.041C163.837 215.708 163.66 215.302 163.66 214.823C163.66 214.33 163.837 213.927 164.191 213.614C164.545 213.302 165 213.146 165.556 213.146C166.118 213.146 166.573 213.302 166.92 213.614C167.275 213.927 167.452 214.33 167.452 214.823C167.452 215.323 167.275 215.732 166.92 216.052C166.573 216.371 166.118 216.531 165.556 216.531ZM167.181 228.885H163.889V218.219H167.181V228.885Z" fill="#E3E4E5"/>
<path d="M169.254 228.604V225.937C169.795 226.264 170.334 226.507 170.868 226.666C171.41 226.826 171.92 226.906 172.4 226.906C172.983 226.906 173.441 226.826 173.775 226.666C174.115 226.507 174.285 226.264 174.285 225.937C174.285 225.729 174.209 225.555 174.056 225.416C173.903 225.278 173.705 225.156 173.462 225.052C173.226 224.948 172.966 224.854 172.681 224.771C172.396 224.687 172.122 224.594 171.858 224.489C171.434 224.33 171.059 224.159 170.733 223.979C170.413 223.791 170.143 223.576 169.92 223.333C169.705 223.09 169.538 222.809 169.42 222.489C169.309 222.17 169.254 221.791 169.254 221.354C169.254 220.757 169.382 220.243 169.639 219.812C169.903 219.382 170.25 219.031 170.681 218.76C171.118 218.482 171.615 218.281 172.17 218.156C172.733 218.024 173.316 217.958 173.92 217.958C174.393 217.958 174.872 217.996 175.358 218.073C175.844 218.142 176.323 218.246 176.795 218.385V220.927C176.379 220.684 175.931 220.503 175.452 220.385C174.979 220.26 174.514 220.198 174.056 220.198C173.841 220.198 173.636 220.219 173.441 220.26C173.254 220.295 173.087 220.35 172.941 220.427C172.795 220.496 172.681 220.59 172.598 220.708C172.514 220.819 172.473 220.948 172.473 221.094C172.473 221.288 172.535 221.455 172.66 221.594C172.785 221.732 172.948 221.854 173.15 221.958C173.351 222.055 173.573 222.146 173.816 222.229C174.066 222.305 174.313 222.385 174.556 222.469C174.993 222.621 175.389 222.788 175.743 222.969C176.098 223.149 176.4 223.361 176.65 223.604C176.907 223.847 177.101 224.132 177.233 224.458C177.372 224.785 177.441 225.173 177.441 225.625C177.441 226.257 177.302 226.798 177.025 227.25C176.754 227.694 176.389 228.059 175.931 228.344C175.479 228.621 174.955 228.823 174.358 228.948C173.768 229.08 173.153 229.146 172.514 229.146C171.341 229.146 170.254 228.965 169.254 228.604Z" fill="#E3E4E5"/>
<path d="M189.577 228.885H186.295V222.823C186.295 221.26 185.726 220.479 184.587 220.479C184.004 220.479 183.531 220.698 183.17 221.135C182.809 221.573 182.629 222.128 182.629 222.802V228.885H179.337V213.094H182.629V219.802H182.67C183.476 218.573 184.57 217.958 185.952 217.958C188.368 217.958 189.577 219.416 189.577 222.333L189.577 228.885Z" fill="#E3E4E5"/>
<path d="M194.901 206.47L226.363 206.498L194.901 206.47Z" fill="#E3E4E5"/>
<path d="M194.901 206.47L226.363 206.498" stroke="#E3E4E5" stroke-width="2.55756" stroke-miterlimit="10" stroke-linecap="round"/>
<path d="M61.5978 206.689L95.5636 206.715L61.5978 206.689Z" fill="#E3E4E5"/>
<path d="M61.5978 206.689L95.5636 206.715" stroke="#E3E4E5" stroke-width="2.55959" stroke-miterlimit="10" stroke-linecap="round"/>
<defs>
<linearGradient id="paint0_linear_510_777" x1="155.367" y1="330.375" x2="156.228" y2="331.574" gradientUnits="userSpaceOnUse">
<stop stop-color="#B9BABC"/>
<stop offset="0.332298" stop-color="#6F7072"/>
<stop offset="0.505068" stop-color="#1F2022"/>
<stop offset="0.691743" stop-color="#6F7072"/>
<stop offset="1" stop-color="#B9BABC"/>
</linearGradient>
<linearGradient id="paint1_linear_510_777" x1="155.543" y1="329.925" x2="156.642" y2="331.732" gradientUnits="userSpaceOnUse">
<stop stop-color="#1D1E20"/>
<stop offset="1" stop-color="#CBCCCE"/>
</linearGradient>
<linearGradient id="paint2_linear_510_777" x1="147.012" y1="328.833" x2="147.157" y2="330.24" gradientUnits="userSpaceOnUse">
<stop stop-color="#B9BABC"/>
<stop offset="0.332298" stop-color="#6F7072"/>
<stop offset="0.505068" stop-color="#1F2022"/>
<stop offset="0.691743" stop-color="#6F7072"/>
<stop offset="1" stop-color="#B9BABC"/>
</linearGradient>
<linearGradient id="paint3_linear_510_777" x1="147.373" y1="328.543" x2="147.425" y2="330.568" gradientUnits="userSpaceOnUse">
<stop stop-color="#1D1E20"/>
<stop offset="1" stop-color="#CBCCCE"/>
</linearGradient>
<linearGradient id="paint4_linear_510_777" x1="143.261" y1="324.512" x2="159.187" y2="330.602" gradientUnits="userSpaceOnUse">
<stop stop-opacity="0"/>
<stop offset="0.094718"/>
<stop offset="0.397666"/>
<stop offset="0.724935"/>
<stop offset="1" stop-opacity="0"/>
</linearGradient>
<linearGradient id="paint5_linear_510_777" x1="122.564" y1="332.339" x2="144.539" y2="317.771" gradientUnits="userSpaceOnUse">
<stop stop-color="#CACACD"/>
<stop offset="1" stop-color="#D4D4D4"/>
</linearGradient>
<linearGradient id="paint6_linear_510_777" x1="122.564" y1="332.338" x2="144.539" y2="317.771" gradientUnits="userSpaceOnUse">
<stop stop-color="#CACACD"/>
<stop offset="1" stop-color="#D4D4D4"/>
</linearGradient>
<linearGradient id="paint7_linear_510_777" x1="122.564" y1="332.338" x2="144.539" y2="317.771" gradientUnits="userSpaceOnUse">
<stop stop-color="#CACACD"/>
<stop offset="1" stop-color="#D4D4D4"/>
</linearGradient>
<linearGradient id="paint8_linear_510_777" x1="122.564" y1="332.339" x2="144.539" y2="317.771" gradientUnits="userSpaceOnUse">
<stop stop-color="#CACACD"/>
<stop offset="1" stop-color="#D4D4D4"/>
</linearGradient>
<linearGradient id="paint9_linear_510_777" x1="122.564" y1="332.339" x2="144.539" y2="317.771" gradientUnits="userSpaceOnUse">
<stop stop-color="#CACACD"/>
<stop offset="1" stop-color="#D4D4D4"/>
</linearGradient>
<linearGradient id="paint10_linear_510_777" x1="122.564" y1="332.339" x2="144.539" y2="317.771" gradientUnits="userSpaceOnUse">
<stop stop-color="#CACACD"/>
<stop offset="1" stop-color="#D4D4D4"/>
</linearGradient>
<linearGradient id="paint11_linear_510_777" x1="132.115" y1="307.165" x2="131.693" y2="312.105" gradientUnits="userSpaceOnUse">
<stop stop-color="#CDCDCF"/>
<stop offset="0.583118" stop-color="#CCCCCE"/>
<stop offset="0.751085" stop-color="#929295"/>
<stop offset="0.891675" stop-color="#CCCCCE"/>
<stop offset="1" stop-color="#CDCDCF"/>
</linearGradient>
<linearGradient id="paint12_linear_510_777" x1="133.285" y1="306.964" x2="133.064" y2="307.912" gradientUnits="userSpaceOnUse">
<stop stop-color="#B9BABC"/>
<stop offset="0.332298" stop-color="#6F7072"/>
<stop offset="0.505068" stop-color="#1F2022"/>
<stop offset="0.691743" stop-color="#6F7072"/>
<stop offset="1" stop-color="#B9BABC"/>
</linearGradient>
<linearGradient id="paint13_linear_510_777" x1="133.522" y1="306.842" x2="133.047" y2="308.169" gradientUnits="userSpaceOnUse">
<stop stop-color="#1D1E20"/>
<stop offset="1" stop-color="#CBCCCE"/>
</linearGradient>
<linearGradient id="paint14_linear_510_777" x1="132.734" y1="308.288" x2="132.513" y2="309.236" gradientUnits="userSpaceOnUse">
<stop stop-color="#B9BABC"/>
<stop offset="0.332298" stop-color="#6F7072"/>
<stop offset="0.505068" stop-color="#1F2022"/>
<stop offset="0.691743" stop-color="#6F7072"/>
<stop offset="1" stop-color="#B9BABC"/>
</linearGradient>
<linearGradient id="paint15_linear_510_777" x1="132.972" y1="308.166" x2="132.497" y2="309.493" gradientUnits="userSpaceOnUse">
<stop stop-color="#1D1E20"/>
<stop offset="1" stop-color="#CBCCCE"/>
</linearGradient>
<linearGradient id="paint16_linear_510_777" x1="145.389" y1="327.819" x2="151.036" y2="323.622" gradientUnits="userSpaceOnUse">
<stop stop-color="#CDCDCF"/>
<stop offset="0.583118" stop-color="#CCCCCE"/>
<stop offset="0.751085" stop-color="#929295"/>
<stop offset="0.891675" stop-color="#CCCCCE"/>
<stop offset="1" stop-color="#CDCDCF"/>
</linearGradient>
<linearGradient id="paint17_linear_510_777" x1="147.126" y1="325.387" x2="147.401" y2="326.293" gradientUnits="userSpaceOnUse">
<stop stop-color="#B9BABC"/>
<stop offset="0.332298" stop-color="#6F7072"/>
<stop offset="0.505068" stop-color="#1F2022"/>
<stop offset="0.691743" stop-color="#6F7072"/>
<stop offset="1" stop-color="#B9BABC"/>
</linearGradient>
<linearGradient id="paint18_linear_510_777" x1="147.334" y1="324.915" x2="147.864" y2="326.462" gradientUnits="userSpaceOnUse">
<stop stop-color="#1D1E20"/>
<stop offset="1" stop-color="#CBCCCE"/>
</linearGradient>
<linearGradient id="paint19_linear_510_777" x1="148.925" y1="324.548" x2="147.909" y2="324.646" gradientUnits="userSpaceOnUse">
<stop stop-color="#B9BABC"/>
<stop offset="0.332298" stop-color="#6F7072"/>
<stop offset="0.505068" stop-color="#1F2022"/>
<stop offset="0.691743" stop-color="#6F7072"/>
<stop offset="1" stop-color="#B9BABC"/>
</linearGradient>
<linearGradient id="paint20_linear_510_777" x1="149.132" y1="324.81" x2="147.671" y2="324.838" gradientUnits="userSpaceOnUse">
<stop stop-color="#1D1E20"/>
<stop offset="1" stop-color="#CBCCCE"/>
</linearGradient>
</defs>
</svg>
