<svg width="288" height="432" viewBox="0 0 288 432" fill="none" xmlns="http://www.w3.org/2000/svg">
<path d="M256.96 42.22V48.22H31.05V42.22H256.96Z" fill="#333333"/>
<path d="M25.17 57.09C24.3744 57.09 23.6113 56.774 23.0487 56.2113C22.4861 55.6487 22.17 54.8857 22.17 54.09V36.34C22.17 35.5444 22.4861 34.7813 23.0487 34.2187C23.6113 33.6561 24.3744 33.34 25.17 33.34C25.9657 33.34 26.7288 33.6561 27.2914 34.2187C27.854 34.7813 28.17 35.5444 28.17 36.34V54.09C28.17 54.8857 27.854 55.6487 27.2914 56.2113C26.7288 56.774 25.9657 57.09 25.17 57.09Z" fill="#333333"/>
<path d="M262.83 57.09C262.034 57.09 261.271 56.774 260.709 56.2113C260.146 55.6487 259.83 54.8857 259.83 54.09V36.34C259.83 35.5444 260.146 34.7813 260.709 34.2187C261.271 33.6561 262.034 33.34 262.83 33.34C263.626 33.34 264.389 33.6561 264.951 34.2187C265.514 34.7813 265.83 35.5444 265.83 36.34V54.09C265.83 54.8857 265.514 55.6487 264.951 56.2113C264.389 56.774 263.626 57.09 262.83 57.09Z" fill="#333333"/>
<path opacity="0.2" d="M50.34 66.67V397C50.341 397.262 50.404 397.52 50.5239 397.753C50.6438 397.986 50.8172 398.187 51.0298 398.341C51.2425 398.494 51.4884 398.594 51.7474 398.634C52.0064 398.674 52.2711 398.652 52.52 398.57L153.52 364.82C153.846 364.719 154.194 364.719 154.52 364.82L255.52 398.57C255.769 398.652 256.034 398.674 256.293 398.634C256.552 398.594 256.797 398.494 257.01 398.341C257.223 398.187 257.396 397.986 257.516 397.753C257.636 397.52 257.699 397.262 257.7 397V66.67C257.703 66.4474 257.66 66.2265 257.576 66.0206C257.491 65.8148 257.365 65.6282 257.206 65.4722C257.048 65.3162 256.859 65.1939 256.651 65.1128C256.444 65.0316 256.223 64.9933 256 65H52C51.7808 64.9987 51.5635 65.041 51.3608 65.1246C51.1581 65.2082 50.9742 65.3313 50.8196 65.4868C50.6651 65.6423 50.5431 65.827 50.4607 66.0301C50.3783 66.2333 50.3373 66.4508 50.34 66.67Z" fill="#231F20"/>
<path d="M41.7 58.6V384.6C41.6991 384.859 41.7601 385.115 41.8778 385.346C41.9955 385.576 42.1665 385.776 42.3767 385.927C42.5869 386.079 42.8302 386.178 43.0864 386.217C43.3426 386.256 43.6044 386.233 43.85 386.15L143.48 352.84C143.806 352.738 144.154 352.738 144.48 352.84L244.11 386.15C244.356 386.233 244.617 386.256 244.873 386.217C245.13 386.178 245.373 386.079 245.583 385.927C245.793 385.776 245.964 385.576 246.082 385.346C246.2 385.115 246.261 384.859 246.26 384.6V58.6C246.25 58.1805 246.079 57.7809 245.784 57.4832C245.488 57.1856 245.089 57.0127 244.67 57H43.33C42.9036 57.0025 42.4949 57.1709 42.1906 57.4696C41.8863 57.7683 41.7104 58.1737 41.7 58.6Z" fill="#4D1919"/>
<path d="M244.66 389.21C244.164 389.213 243.671 389.136 243.2 388.98L144 355.81L44.7999 389C44.103 389.231 43.3613 389.293 42.6356 389.182C41.9099 389.07 41.221 388.788 40.6255 388.359C40.0301 387.929 39.545 387.365 39.2103 386.711C38.8755 386.058 38.7006 385.334 38.7 384.6V58.6C38.7105 57.3781 39.2026 56.2096 40.0695 55.3484C40.9364 54.4871 42.108 54.0026 43.33 54H244.67C245.899 54.0026 247.076 54.4927 247.944 55.3626C248.812 56.2324 249.3 57.4111 249.3 58.64V384.64C249.3 385.375 249.125 386.099 248.789 386.753C248.453 387.407 247.967 387.971 247.37 388.4C246.575 388.949 245.626 389.233 244.66 389.21ZM144 349.74C144.5 349.74 144.996 349.821 145.47 349.98L243.3 382.68V60H44.7V382.68L142.53 350C143.002 349.833 143.499 349.746 144 349.74Z" fill="#4D1919"/>
<path d="M238.05 376.68L147.13 346.28C145.097 345.61 142.903 345.61 140.87 346.28L50 376.68V66.5H238.1L238.05 376.68ZM53.45 70V371.82L139.76 343C142.513 342.09 145.487 342.09 148.24 343L234.55 371.86V70H53.45Z" fill="#E3E4E5"/>
<path d="M222.815 153.45C222.708 153.46 222.601 153.46 222.495 153.45C202.355 149.78 173.585 147.68 143.565 147.68C114.005 147.68 85.5646 149.68 65.4646 153.3C65.0072 153.381 64.5363 153.277 64.1557 153.01C63.7751 152.744 63.5158 152.337 63.435 151.88C63.3541 151.422 63.4582 150.952 63.7244 150.571C63.9907 150.19 64.3972 149.931 64.8546 149.85C85.1246 146.25 113.855 144.18 143.565 144.18C173.785 144.18 202.785 146.3 223.125 150.01C223.552 150.09 223.935 150.327 224.197 150.673C224.46 151.02 224.584 151.452 224.545 151.886C224.507 152.319 224.308 152.722 223.988 153.017C223.668 153.312 223.25 153.477 222.815 153.48V153.45Z" fill="#E3E4E5"/>
<path d="M85.2313 136.943C83.8418 137.616 82.0276 137.952 79.7885 137.952C76.868 137.952 74.5714 137.094 72.8988 135.377C71.2261 133.66 70.3898 131.372 70.3898 128.514C70.3898 125.469 71.3279 123 73.2041 121.106C75.0891 119.212 77.5317 118.265 80.5319 118.265C82.3904 118.265 83.9569 118.5 85.2313 118.969V123.097C83.9569 122.336 82.5055 121.956 80.8771 121.956C79.0893 121.956 77.6468 122.518 76.5494 123.642C75.452 124.766 74.9033 126.288 74.9033 128.208C74.9033 130.049 75.421 131.518 76.4565 132.616C77.4919 133.704 78.8858 134.248 80.6381 134.248C82.3108 134.248 83.8418 133.841 85.2313 133.027V136.943Z" fill="#E3E4E5"/>
<path d="M105.024 137.62H100.723V129.868H92.8379V137.62H88.55V118.584H92.8379V126.177H100.723V118.584H105.024V137.62Z" fill="#E3E4E5"/>
<path d="M126.118 137.62H121.446L120.092 133.386H113.321L111.98 137.62H107.334L114.264 118.584H119.348L126.118 137.62ZM119.109 130.093L117.065 123.695C116.914 123.217 116.808 122.646 116.746 121.982H116.64C116.596 122.54 116.485 123.093 116.308 123.642L114.237 130.093H119.109Z" fill="#E3E4E5"/>
<path d="M150.186 137.62H145.951V126.23C145.951 125 146.004 123.642 146.111 122.155H146.004C145.783 123.323 145.584 124.164 145.407 124.677L140.947 137.62H137.442L132.902 124.81C132.778 124.465 132.579 123.58 132.305 122.155H132.185C132.3 124.031 132.358 125.677 132.358 127.093V137.62H128.495V118.584H134.774L138.663 129.868C138.973 130.77 139.199 131.677 139.34 132.589H139.42C139.659 131.536 139.911 130.62 140.177 129.841L144.066 118.584H150.186L150.186 137.62Z" fill="#E3E4E5"/>
<path d="M158.802 131.062V137.62H154.514V118.584H161.231C166.028 118.584 168.426 120.606 168.426 124.651C168.426 126.562 167.736 128.111 166.355 129.297C164.983 130.474 163.147 131.062 160.846 131.062H158.802ZM158.802 121.876V127.81H160.488C162.771 127.81 163.913 126.81 163.913 124.81C163.913 122.854 162.771 121.876 160.488 121.876H158.802Z" fill="#E3E4E5"/>
<path d="M175.502 137.62H171.214V118.584H175.502V137.62Z" fill="#E3E4E5"/>
<path d="M187.874 137.952C185.148 137.952 182.927 137.067 181.21 135.297C179.493 133.518 178.635 131.204 178.635 128.354C178.635 125.345 179.506 122.912 181.25 121.053C182.993 119.195 185.303 118.265 188.179 118.265C190.896 118.265 193.091 119.155 194.764 120.934C196.445 122.712 197.286 125.058 197.286 127.969C197.286 130.961 196.414 133.372 194.671 135.204C192.936 137.036 190.671 137.952 187.874 137.952ZM188.06 121.956C186.555 121.956 185.361 122.522 184.476 123.655C183.591 124.779 183.148 126.27 183.148 128.129C183.148 130.014 183.591 131.505 184.476 132.602C185.361 133.7 186.52 134.248 187.954 134.248C189.432 134.248 190.604 133.717 191.471 132.655C192.339 131.585 192.772 130.102 192.772 128.208C192.772 126.235 192.352 124.699 191.511 123.602C190.671 122.504 189.52 121.956 188.06 121.956Z" fill="#E3E4E5"/>
<path d="M217.57 137.62H213.243L205.397 125.659C204.937 124.96 204.618 124.434 204.441 124.08H204.388C204.459 124.752 204.494 125.779 204.494 127.16V137.62H200.445V118.584H205.065L212.619 130.173C212.964 130.695 213.282 131.213 213.574 131.726H213.628C213.557 131.284 213.521 130.412 213.521 129.111V118.584H217.57V137.62Z" fill="#E3E4E5"/>
<path d="M137.747 253.025H135.602V259.442H134.362V253.025H132.221V251.973H137.747V253.025Z" fill="#E3E4E5"/>
<path d="M140.034 259.567C139.211 259.567 138.553 259.319 138.06 258.822C137.57 258.322 137.326 257.661 137.326 256.838C137.326 255.942 137.581 255.242 138.091 254.739C138.605 254.235 139.296 253.983 140.164 253.983C140.998 253.983 141.647 254.228 142.112 254.718C142.577 255.207 142.81 255.886 142.81 256.754C142.81 257.605 142.558 258.287 142.055 258.801C141.555 259.312 140.881 259.567 140.034 259.567ZM140.091 254.947C139.619 254.947 139.246 255.112 138.972 255.442C138.697 255.772 138.56 256.227 138.56 256.806C138.56 257.365 138.699 257.806 138.977 258.129C139.255 258.449 139.626 258.608 140.091 258.608C140.567 258.608 140.932 258.451 141.185 258.135C141.442 257.819 141.57 257.369 141.57 256.786C141.57 256.199 141.442 255.746 141.185 255.426C140.932 255.107 140.567 254.947 140.091 254.947Z" fill="#E3E4E5"/>
<path d="M152.013 259.442H150.805V256.536C150.805 255.977 150.725 255.572 150.565 255.322C150.409 255.072 150.143 254.947 149.768 254.947C149.452 254.947 149.183 255.105 148.961 255.421C148.742 255.737 148.633 256.115 148.633 256.556V259.442H147.419V256.437C147.419 255.444 147.069 254.947 146.367 254.947C146.041 254.947 145.772 255.096 145.56 255.395C145.352 255.694 145.248 256.081 145.248 256.556V259.442H144.039V254.108H145.248V254.952H145.268C145.654 254.306 146.215 253.983 146.951 253.983C147.319 253.983 147.64 254.086 147.914 254.291C148.192 254.492 148.381 254.758 148.482 255.088C148.878 254.352 149.468 253.983 150.253 253.983C151.426 253.983 152.013 254.707 152.013 256.155L152.013 259.442Z" fill="#E3E4E5"/>
<path d="M130.51 268.932V261.463H132.88C133.603 261.463 134.174 261.621 134.594 261.937C135.017 262.253 135.229 262.665 135.229 263.172C135.229 263.595 135.109 263.963 134.87 264.276C134.63 264.588 134.299 264.81 133.875 264.942V264.963C134.389 265.022 134.799 265.213 135.104 265.536C135.413 265.856 135.568 266.272 135.568 266.786C135.568 267.425 135.316 267.942 134.813 268.338C134.309 268.734 133.674 268.932 132.906 268.932L130.51 268.932ZM131.745 262.458V264.583H132.547C132.978 264.583 133.314 264.482 133.557 264.281C133.804 264.076 133.927 263.788 133.927 263.416C133.927 262.777 133.5 262.458 132.646 262.458H131.745ZM131.745 265.578V267.942H132.802C133.264 267.942 133.62 267.837 133.87 267.625C134.123 267.409 134.25 267.114 134.25 266.739C134.25 265.965 133.714 265.578 132.641 265.578H131.745Z" fill="#E3E4E5"/>
<path d="M141.469 268.932H140.26V268.088H140.24C139.889 268.734 139.344 269.057 138.604 269.057C137.344 269.057 136.714 268.3 136.714 266.786V263.599H137.922V266.661C137.922 267.62 138.292 268.099 139.031 268.099C139.389 268.099 139.682 267.967 139.912 267.703C140.144 267.439 140.26 267.093 140.26 266.666V263.599H141.469L141.469 268.932Z" fill="#E3E4E5"/>
<path d="M142.708 268.765V267.646C143.16 267.989 143.658 268.161 144.203 268.161C144.932 268.161 145.297 267.946 145.297 267.515C145.297 267.394 145.266 267.291 145.203 267.208C145.141 267.121 145.056 267.045 144.948 266.979C144.844 266.913 144.719 266.854 144.573 266.802C144.431 266.75 144.271 266.691 144.094 266.625C143.875 266.538 143.677 266.446 143.5 266.349C143.327 266.251 143.181 266.142 143.063 266.021C142.948 265.896 142.861 265.755 142.802 265.599C142.743 265.442 142.714 265.26 142.714 265.052C142.714 264.795 142.775 264.569 142.896 264.375C143.018 264.177 143.181 264.012 143.386 263.88C143.591 263.745 143.823 263.644 144.084 263.578C144.344 263.508 144.613 263.474 144.891 263.474C145.384 263.474 145.825 263.548 146.214 263.698V264.755C145.839 264.498 145.408 264.37 144.922 264.37C144.769 264.37 144.63 264.385 144.505 264.416C144.384 264.448 144.28 264.491 144.193 264.547C144.106 264.602 144.038 264.67 143.99 264.75C143.941 264.826 143.917 264.911 143.917 265.005C143.917 265.12 143.941 265.217 143.99 265.297C144.038 265.376 144.11 265.448 144.203 265.51C144.301 265.569 144.415 265.625 144.547 265.677C144.683 265.725 144.837 265.779 145.011 265.838C145.24 265.932 145.445 266.028 145.625 266.125C145.809 266.222 145.966 266.333 146.094 266.458C146.222 266.58 146.321 266.722 146.391 266.885C146.46 267.045 146.495 267.236 146.495 267.458C146.495 267.729 146.433 267.965 146.308 268.166C146.183 268.368 146.016 268.534 145.808 268.666C145.599 268.798 145.358 268.896 145.084 268.958C144.813 269.024 144.526 269.057 144.224 269.057C143.641 269.057 143.136 268.96 142.708 268.765Z" fill="#E3E4E5"/>
<path d="M151.458 268.687C151.031 268.934 150.526 269.057 149.943 269.057C149.151 269.057 148.512 268.811 148.026 268.317C147.54 267.821 147.297 267.179 147.297 266.39C147.297 265.512 147.557 264.807 148.078 264.276C148.603 263.741 149.302 263.474 150.177 263.474C150.663 263.474 151.092 263.559 151.464 263.729V264.854C151.092 264.576 150.696 264.437 150.276 264.437C149.766 264.437 149.347 264.611 149.021 264.958C148.695 265.302 148.531 265.753 148.531 266.312C148.531 266.864 148.684 267.3 148.99 267.62C149.299 267.939 149.712 268.099 150.229 268.099C150.663 268.099 151.073 267.944 151.458 267.635V268.687Z" fill="#E3E4E5"/>
<path d="M157.396 268.932H156.188V266.015C156.188 264.96 155.835 264.432 155.13 264.432C154.776 264.432 154.478 264.585 154.234 264.89C153.991 265.196 153.87 265.587 153.87 266.062V268.932H152.656V261.036H153.87V264.484H153.891C154.293 263.81 154.87 263.474 155.62 263.474C156.804 263.474 157.396 264.198 157.396 265.646L157.396 268.932Z" fill="#E3E4E5"/>
<path d="M133.65 103.235H126.033V102.296C126.033 101.912 126.087 101.554 126.194 101.221C126.301 100.882 126.445 100.566 126.626 100.273C126.806 99.9739 127.018 99.6946 127.26 99.435C127.503 99.1698 127.762 98.9159 128.039 98.6733C128.315 98.425 128.598 98.1881 128.885 97.9624C129.173 97.731 129.455 97.4997 129.732 97.2684C129.991 97.0483 130.228 96.8339 130.443 96.6251C130.657 96.4107 130.84 96.1907 130.993 95.965C131.145 95.7393 131.264 95.5023 131.348 95.254C131.433 95.0001 131.475 94.7265 131.475 94.4331C131.475 94.1115 131.424 93.8322 131.323 93.5952C131.227 93.3526 131.089 93.1523 130.908 92.9943C130.733 92.8306 130.524 92.7093 130.282 92.6303C130.039 92.5457 129.774 92.5034 129.486 92.5034C128.99 92.5034 128.485 92.6191 127.971 92.8504C127.458 93.0817 126.964 93.4287 126.49 93.8914V92.004C126.738 91.8178 126.989 91.657 127.243 91.5216C127.497 91.3806 127.76 91.2649 128.03 91.1746C128.301 91.0787 128.586 91.0082 128.885 90.963C129.184 90.9179 129.503 90.8953 129.842 90.8953C130.389 90.8953 130.885 90.9687 131.331 91.1154C131.777 91.2564 132.158 91.468 132.474 91.7501C132.79 92.0266 133.032 92.3736 133.202 92.7912C133.377 93.2087 133.464 93.6883 133.464 94.2299C133.464 94.7208 133.402 95.1638 133.278 95.5587C133.159 95.9481 132.987 96.312 132.762 96.6505C132.542 96.9891 132.274 97.3107 131.958 97.6154C131.642 97.9201 131.289 98.2332 130.9 98.5548C130.572 98.82 130.245 99.0796 129.918 99.3335C129.596 99.5817 129.306 99.8272 129.046 100.07C128.787 100.307 128.575 100.547 128.411 100.789C128.253 101.026 128.174 101.266 128.174 101.509V101.551H133.65V103.235Z" fill="#E3E4E5"/>
<path d="M139.507 103.438C138.243 103.438 137.256 102.922 136.545 101.889C135.839 100.857 135.487 99.3645 135.487 97.4122C135.487 95.2681 135.856 93.646 136.596 92.5457C137.335 91.4455 138.401 90.8953 139.795 90.8953C142.464 90.8953 143.798 92.9689 143.798 97.116C143.798 99.1698 143.42 100.738 142.664 101.822C141.913 102.899 140.861 103.438 139.507 103.438ZM139.702 92.4611C138.229 92.4611 137.493 94.0833 137.493 97.3276C137.493 100.363 138.215 101.881 139.659 101.881C141.081 101.881 141.792 100.338 141.792 97.2514C141.792 94.0579 141.095 92.4611 139.702 92.4611Z" fill="#E3E4E5"/>
<path d="M152.896 103.235H145.279V102.296C145.279 101.912 145.333 101.554 145.44 101.221C145.547 100.882 145.691 100.566 145.872 100.273C146.052 99.9739 146.264 99.6946 146.506 99.435C146.749 99.1698 147.009 98.9159 147.285 98.6733C147.562 98.425 147.844 98.1881 148.131 97.9624C148.419 97.731 148.701 97.4997 148.978 97.2684C149.237 97.0483 149.474 96.8339 149.689 96.6251C149.903 96.4107 150.086 96.1907 150.239 95.965C150.391 95.7393 150.51 95.5023 150.594 95.254C150.679 95.0001 150.721 94.7265 150.721 94.4331C150.721 94.1115 150.67 93.8322 150.569 93.5952C150.473 93.3526 150.335 93.1523 150.154 92.9943C149.979 92.8306 149.77 92.7093 149.528 92.6303C149.285 92.5457 149.02 92.5034 148.732 92.5034C148.236 92.5034 147.731 92.6191 147.217 92.8504C146.704 93.0817 146.21 93.4287 145.736 93.8914V92.004C145.984 91.8178 146.236 91.657 146.489 91.5216C146.743 91.3806 147.006 91.2649 147.277 91.1746C147.547 91.0787 147.832 91.0082 148.131 90.963C148.43 90.9179 148.749 90.8953 149.088 90.8953C149.635 90.8953 150.132 90.9687 150.577 91.1154C151.023 91.2564 151.404 91.468 151.72 91.7501C152.036 92.0266 152.279 92.3736 152.448 92.7912C152.623 93.2087 152.71 93.6883 152.71 94.2299C152.71 94.7208 152.648 95.1638 152.524 95.5587C152.405 95.9481 152.233 96.312 152.008 96.6505C151.788 96.9891 151.52 97.3107 151.204 97.6154C150.888 97.9201 150.535 98.2332 150.146 98.5548C149.818 98.82 149.491 99.0796 149.164 99.3335C148.842 99.5817 148.552 99.8272 148.292 100.07C148.033 100.307 147.821 100.547 147.657 100.789C147.499 101.026 147.42 101.266 147.42 101.509V101.551H152.896V103.235Z" fill="#E3E4E5"/>
<path d="M158.753 103.438C157.489 103.438 156.502 102.922 155.791 101.889C155.086 100.857 154.733 99.3645 154.733 97.4122C154.733 95.2681 155.102 93.646 155.842 92.5457C156.581 91.4455 157.647 90.8953 159.041 90.8953C161.71 90.8953 163.044 92.9689 163.044 97.116C163.044 99.1698 162.666 100.738 161.91 101.822C161.16 102.899 160.107 103.438 158.753 103.438ZM158.948 92.4611C157.475 92.4611 156.739 94.0833 156.739 97.3276C156.739 100.363 157.461 101.881 158.905 101.881C160.327 101.881 161.038 100.338 161.038 97.2514C161.038 94.0579 160.341 92.4611 158.948 92.4611Z" fill="#E3E4E5"/>
<path d="M130.828 313.998C132.04 315.595 134.416 314.838 134.414 318.669C134.412 321.95 133.307 325.106 133.879 328.051C134.762 332.602 139.331 332.214 142.644 332.249L144.29 322.907L144.331 312.29L135.1 310.903L131.549 313.476L130.828 313.998Z" fill="black"/>
<path d="M166.14 326.383C166.038 328.014 166.023 329.279 165.558 330.311L165.034 331.475C164.778 331.906 164.67 332.274 164.743 332.61C164.984 333.709 163.745 334.127 162.488 334.152C160.391 334.195 158.575 333.438 157.032 332.406L166.14 326.383Z" fill="white" stroke="black" stroke-width="0.230447"/>
<path d="M158.138 332.73C159.297 333.346 161.89 334.436 163.78 333.645C164.209 333.465 163.993 333.353 163.908 333.384C162.536 333.219 162.323 333.107 161.63 331.795C160.578 331.96 158.579 331.929 158.106 332.549C158 332.652 158.115 332.651 158.138 332.73Z" fill="black"/>
<path d="M162.108 331.981C163.007 333.929 163.966 332.562 164.413 331.22" stroke="black" stroke-width="0.230447" stroke-linecap="round" stroke-linejoin="round"/>
<path d="M136.605 313.101L136.473 310.709L146.935 316.228L141.451 329.565C141.626 328.556 141.266 326.843 141.691 325.804C142.783 323.131 143.462 320.875 143.135 319.171C142.257 314.591 139.039 313.805 136.605 313.101Z" fill="#4D4D4D" stroke="black" stroke-width="0.230447"/>
<path d="M131.164 314.307C129.237 313.846 129.028 310.752 131.746 306.683C139.283 295.402 150.042 296.735 155.025 298.07C164.13 300.51 170.727 309.9 168.119 321.174C167.351 324.494 165.878 328.18 163.463 331.737C163.241 332.064 162.998 332.446 161.834 332.086C160.254 331.598 159.008 331.52 158.051 332.173C152.403 336.029 148.381 336.102 144.869 334.647C141.006 333.045 141.098 329.854 141.698 327.023C142.204 324.632 143.802 322.313 143.531 319.632C142.981 314.209 138.856 313.479 136.14 312.852C133.709 312.291 130.952 312.887 131.164 314.307Z" fill="#E3E4E5"/>
<path d="M151.848 324.752L153.275 326.886C154.452 326.943 155.323 326.541 155.808 325.878C156.382 325.092 156.437 323.981 156.133 323.425C155.496 322.261 153.838 321.771 152.703 322.917C152.314 323.31 152.088 323.961 151.848 324.752Z" fill="black" stroke="black" stroke-width="0.230447"/>
<path d="M155.853 331.781C156.367 331.781 156.783 331.387 156.783 330.901C156.783 330.415 156.367 330.021 155.853 330.021C155.34 330.021 154.924 330.415 154.924 330.901C154.924 331.387 155.34 331.781 155.853 331.781Z" fill="url(#paint0_linear_510_975)" stroke="url(#paint1_linear_510_975)" stroke-width="0.0911904" stroke-linecap="round" stroke-linejoin="round"/>
<path d="M150.421 329.059C151.32 331.007 156.682 329.723 157.129 328.38" stroke="black" stroke-width="0.230447" stroke-linecap="round" stroke-linejoin="round"/>
<path d="M146.747 330.234C147.174 330.478 147.707 330.349 147.939 329.945C148.17 329.54 148.012 329.015 147.585 328.77C147.158 328.526 146.625 328.655 146.393 329.059C146.162 329.463 146.32 329.989 146.747 330.234Z" fill="url(#paint2_linear_510_975)" stroke="url(#paint3_linear_510_975)" stroke-width="0.087355" stroke-linecap="round" stroke-linejoin="round"/>
<path d="M143.426 324.78C138.807 334.676 150.915 336.71 158.899 330.932C155.779 332.399 153.459 333.425 151.131 333.633C147.636 333.945 144.997 333.168 143.731 331.559C142.456 329.942 142.567 327.484 143.426 324.78Z" fill="url(#paint4_linear_510_975)"/>
<path d="M137.066 319.752C137.557 319.721 138.314 319.842 138.703 320.688C138.857 321.021 138.873 321.496 138.776 322.084C138.285 325.059 140.144 326.794 142.273 328.586L142.15 331.878C139.332 332.124 136.709 331.827 135.322 330.392C133.725 328.739 133.83 325.473 134.519 322.276C134.886 320.998 135.636 319.863 137.066 319.752Z" fill="#4D4D4D"/>
<path d="M133.858 315.047C135.221 316.276 135.322 318.194 135.031 319.862C134.946 320.347 134.591 320.07 134.619 319.903C134.92 318.139 134.691 316.713 133.529 315.253C133.199 314.839 133.601 314.815 133.858 315.047Z" fill="white"/>
<path d="M133.982 307.259C134.16 306.808 130.678 308.496 130.945 308.004C131.177 307.577 131.443 307.136 131.746 306.683C139.283 295.402 150.042 296.735 155.025 298.07C147.336 298.261 139.628 298.367 133.982 307.259Z" fill="#4D4D4D"/>
<path d="M131.164 314.307C129.237 313.846 129.028 310.752 131.746 306.683C139.283 295.402 150.042 296.735 155.025 298.07C164.13 300.51 170.727 309.9 168.119 321.174C167.351 324.494 165.878 328.18 163.463 331.737C163.241 332.064 162.998 332.446 161.834 332.086C160.254 331.598 159.008 331.52 158.051 332.173C152.403 336.029 148.381 336.102 144.869 334.647C141.006 333.045 141.098 329.854 141.698 327.023C142.204 324.632 143.802 322.313 143.531 319.632C142.981 314.209 138.856 313.479 136.14 312.852C133.709 312.291 130.952 312.887 131.164 314.307Z" stroke="black" stroke-width="0.230447"/>
<path d="M135.456 306.945C135.834 307.101 136.58 306.749 136.212 307.935L134.947 311.295C134.36 312.852 135.772 313.207 136.984 313.594L134.685 313.609L133.754 311.848L134.728 308.007L135.456 306.945Z" fill="#F2F2F2" stroke="black" stroke-width="0.230447"/>
<path d="M130.742 306.494L132.153 307.178L130.96 311.921C129.426 312.37 127.558 311.895 128.458 310.306C129.177 309.035 129.908 307.765 130.742 306.494Z" fill="#D0D0D1" stroke="black" stroke-width="0.230447"/>
<path d="M131.564 307.071L135.36 306.982C135.834 306.97 135.949 307.039 135.813 307.434L134.537 311.138C134.059 312.525 134.532 313.373 135.73 313.689L131.592 313.526C131.211 313.596 131.117 314.049 131.164 314.278C128.718 313.3 129.847 309.31 131.564 307.071Z" fill="white" stroke="black" stroke-width="0.230447"/>
<path d="M133.667 306.747L134.581 307.314C134.894 307.509 135.343 307.729 135.102 308.333L133.894 311.65L132.736 309.569L133.667 306.747Z" fill="#CCCCCE" stroke="black" stroke-width="0.230447" stroke-linecap="round" stroke-linejoin="round"/>
<path d="M133.671 306.558C133.931 306.962 135.097 307.019 134.64 308.231L133.756 310.442L133.961 311.344C133.894 311.784 133.745 312.108 133.468 312.247L132.921 312.32L131.971 311.403L132.08 309.133L133.671 306.558Z" fill="#CCCCCE" stroke="black" stroke-width="0.230447" stroke-linecap="round" stroke-linejoin="round"/>
<path d="M151.79 327.864C152.364 328.209 152.986 327.744 152.88 327.246L146.317 316.938C144.957 314.511 143.239 313.125 141.276 312.452C138.86 311.588 136.378 311.184 133.91 310.683C132.898 310.635 132.839 311.706 133.704 311.938C135.632 312.334 137.529 312.543 139.506 313.234C141.675 313.873 143.631 314.832 144.712 317.103L151.79 327.864Z" fill="#CDCDCF" stroke="black" stroke-width="0.230447"/>
<path d="M134.458 318.545C130.669 322.451 126.241 321.722 122.976 321.187C122.275 321.064 121.838 321.2 121.577 321.763C120.071 325 119.596 328.772 119.27 332.721C119.246 333.016 119.361 333.375 119.708 333.452C121.533 333.485 120.649 333.303 120.834 332.186C120.777 330.092 121.02 326.074 122.729 322.627C122.883 322.316 123.227 322.145 124.087 322.38C127.423 323.36 129.851 323.031 131.598 322.145C133.028 321.42 133.61 321.078 134.346 320.552L134.458 318.545Z" fill="url(#paint5_linear_510_975)" stroke="black" stroke-width="0.230447" stroke-linecap="round" stroke-linejoin="round"/>
<path d="M123.926 327.812C123.015 327.635 122.152 327.469 121.176 327.186C120.571 327.01 120.256 325.308 121.822 325.539C126.408 326.214 129.25 325.952 133.793 325.082L133.763 326.329C128.459 327.344 126.69 327.219 123.072 326.305L121.95 326.108C122.97 326.318 123.458 326.49 124.479 326.619L123.926 327.812Z" fill="url(#paint6_linear_510_975)" stroke="black" stroke-width="0.230447" stroke-linecap="round" stroke-linejoin="round"/>
<path d="M125.551 323.038L122.801 322.442C122.228 322.18 122.016 321.278 122.991 321.176L126.177 321.729L125.551 323.038Z" fill="url(#paint7_linear_510_975)" stroke="black" stroke-width="0.230447" stroke-linecap="round" stroke-linejoin="round"/>
<path d="M132.44 315.095L127.79 326.33C126.173 330.238 124.488 331.117 121.042 331.968C119.421 332.136 119.383 332.94 119.624 333.304C119.942 333.783 121.631 334.361 123.284 334.499L123.408 333.223C122.753 333.031 121.979 333.074 121.564 332.963C121.295 332.891 121.289 332.8 121.673 332.813C121.903 332.821 122.151 332.891 122.477 332.879C123.556 332.838 124.317 332.369 125.239 331.721C127.04 330.456 127.852 329.461 129.478 325.59L133.592 315.794C133.332 315.14 132.89 315.103 132.44 315.095Z" fill="url(#paint8_linear_510_975)" stroke="black" stroke-width="0.230447" stroke-linecap="round" stroke-linejoin="round"/>
<path d="M143.738 313.833C144.104 314.1 144.459 314.426 144.798 314.831L138.035 329.495L136.43 329.598L143.738 313.833Z" fill="url(#paint9_linear_510_975)" stroke="black" stroke-width="0.230447" stroke-linecap="round" stroke-linejoin="round"/>
<path d="M147.417 318.923C147.756 318.996 148.263 319.584 148.23 320.014C146.911 321.236 146.168 321.879 144.727 322.994C143.633 323.842 142.36 324.332 141.061 324.435C137.57 324.712 134.165 324.262 130.818 323.838L126.817 323.14C126.827 323.077 126.791 322.925 126.744 322.994C125.944 324.244 125.684 325.513 125.435 326.835L134.484 328.203C135.115 328.298 138.82 328.495 141.439 328.028L150.781 326.365L151.536 327.519C147.495 328.216 143.544 328.996 139.082 329.483C137.109 329.699 134.738 329.582 133.67 329.396L125.289 327.941C125.154 327.918 125.062 327.918 125.027 328.028C124.415 330.017 124.36 331.866 124.358 333.703C124.472 333.72 124.406 333.518 124.518 333.541C129.398 334.567 135.26 332.825 136.379 329.642L137.948 329.575C135.315 334.976 129.02 335.399 124.184 334.663C123.698 334.799 123.342 334.678 123.02 334.488C122.899 329.723 123.966 325.521 125.93 321.743C126.042 321.527 126.954 321.294 126.992 322.049C133.631 323.154 136.344 323.07 140.1 323.285C141.936 323.391 143.611 322.439 145.309 320.87L147.417 318.923Z" fill="url(#paint10_linear_510_975)" stroke="black" stroke-width="0.230447" stroke-linecap="round" stroke-linejoin="round"/>
<path d="M131.628 310.381L129.302 310.262C128.439 310.505 128.428 311.479 129.389 311.485L131.606 311.414L131.628 310.381Z" fill="#D0D0D1" stroke="black" stroke-width="0.230447"/>
<path d="M132.676 306.767C133.279 306.303 133.805 306.208 134.151 306.973L132.741 310.173C132.442 310.85 131.986 311.486 133.339 312.281C132.683 312.432 132.176 312.517 131.622 312.37C131.52 312.343 131.413 312.306 131.356 312.199C130.952 311.447 130.845 310.683 131.31 309.689L132.676 306.767Z" fill="url(#paint11_linear_510_975)" stroke="black" stroke-width="0.230447" stroke-linecap="round" stroke-linejoin="round"/>
<path d="M132.769 307.809C132.881 308.038 133.145 308.047 133.36 307.83C133.576 307.613 133.659 307.251 133.547 307.023C133.436 306.794 133.171 306.784 132.956 307.001C132.741 307.219 132.657 307.58 132.769 307.809Z" fill="url(#paint12_linear_510_975)" stroke="url(#paint13_linear_510_975)" stroke-width="0.0509192" stroke-linecap="round" stroke-linejoin="round"/>
<path d="M132.219 309.133C132.33 309.362 132.595 309.371 132.81 309.154C133.025 308.937 133.109 308.575 132.997 308.347C132.886 308.118 132.621 308.108 132.406 308.325C132.191 308.543 132.107 308.904 132.219 309.133Z" fill="url(#paint14_linear_510_975)" stroke="url(#paint15_linear_510_975)" stroke-width="0.0509192" stroke-linecap="round" stroke-linejoin="round"/>
<path d="M149.784 322.167L150.998 323.926C151.352 324.439 150.894 324.615 150.627 324.79L147.479 326.858C147.031 327.152 146.73 327.086 146.492 326.837L145.545 325.85L145.627 324.471L148.158 322.928L149.784 322.167Z" fill="url(#paint16_linear_510_975)" stroke="black" stroke-width="0.230447" stroke-linecap="round" stroke-linejoin="round"/>
<path d="M145.525 325.685C144.98 325.023 144.898 324.38 145.545 323.936L147.973 322.269L148.487 322.907C147.116 323.76 145.647 324.593 145.525 325.685Z" fill="#CBCBCE" stroke="black" stroke-width="0.230447" stroke-linecap="round" stroke-linejoin="round"/>
<path d="M148.261 322.681C149.087 322.685 149.367 322.238 149.434 321.796C149.663 322.052 150.182 322.248 149.496 322.743C147.137 324.035 145.268 325.371 145.813 326.158C145.436 325.731 145.105 325.291 145.751 324.594L148.261 322.681Z" fill="#CECED0" stroke="black" stroke-width="0.230447" stroke-linecap="round" stroke-linejoin="round"/>
<path d="M146.848 326.228C147.179 326.418 147.594 326.318 147.774 326.004C147.954 325.69 147.831 325.281 147.499 325.091C147.168 324.901 146.753 325.001 146.573 325.315C146.393 325.629 146.516 326.038 146.848 326.228Z" fill="url(#paint17_linear_510_975)" stroke="url(#paint18_linear_510_975)" stroke-width="0.0678814" stroke-linecap="round" stroke-linejoin="round"/>
<path d="M147.916 324.351C147.737 324.657 147.828 325.043 148.119 325.212C148.409 325.381 148.789 325.269 148.967 324.962C149.146 324.655 149.055 324.27 148.765 324.101C148.474 323.932 148.094 324.044 147.916 324.351Z" fill="url(#paint19_linear_510_975)" stroke="url(#paint20_linear_510_975)" stroke-width="0.063006" stroke-linecap="round" stroke-linejoin="round"/>
<path d="M150.38 306.097L151.174 307.02L151.341 307.091L151.759 307.778L151.868 307.692L152.276 308.297L152.234 308.444L152.437 308.326L152.788 309.073L152.991 308.956L153.294 309.688L153.471 309.603L153.529 309.64L153.743 310.205L153.697 310.43L153.942 310.346L154.157 310.971L154.11 311.136L154.308 311.037L154.47 311.486L154.393 311.762L154.575 311.658L154.701 312.176L154.665 312.364L154.847 312.261L154.937 312.967L155.099 312.997L155.153 313.472L155.096 313.614L155.226 313.694L155.264 314.284L155.431 314.296L155.252 313.663L155.273 313.589L155.434 313.619L155.255 312.926L155.286 312.815L155.401 312.891L155.338 312.632L155.4 312.411L155.326 312.07L155.414 311.758L155.482 311.699L155.465 311.215L155.49 310.943L155.511 310.87L155.652 310.913L155.661 310.637L155.67 310.301L155.763 310.03L155.878 310.105L155.935 310.083L155.944 309.867L155.954 309.591L155.989 309.342L156.187 309.363L156.181 309.202L156.377 308.444L156.393 308.389L156.612 308.577L156.808 307.939L157.038 308.09L157.26 307.42L157.354 307.329L157.438 307.574L157.479 307.607L157.583 307.18L157.681 307.131L157.821 306.755L157.899 306.719L157.983 306.905L158.03 306.859L158.211 306.337L158.403 306.077L158.471 306.137L158.486 306.141L158.6 305.857L158.87 305.502L158.99 305.379L159.052 305.219L159.125 305.141L159.207 304.967L159.29 304.853L159.399 304.707L159.529 304.608L159.566 304.659L159.551 304.894L159.484 305.252L159.344 305.568L159.163 305.911L159.049 306.195L158.945 306.502L158.785 307.071L158.9 307.027L158.916 307.151L158.745 307.817L158.673 308.074L158.928 307.953L158.897 308.302L158.825 308.619L158.748 308.895L158.675 308.972L158.691 309.037L158.863 308.97L158.946 309.036L158.925 309.229L158.765 309.798L158.692 309.936L158.677 309.991L158.854 310.025L158.906 309.961L158.943 310.072L158.86 310.366L158.699 310.636L158.497 310.932L158.643 311.017L158.742 310.968L158.664 311.303L158.503 311.513L158.373 311.612L158.452 311.696L158.343 311.962L158.198 312.176L158.089 312.322L158.141 312.378L158.078 312.479L158.001 312.574L158.068 312.635L157.933 312.813L157.809 312.954L157.731 313.11L157.487 313.314L157.429 313.336L157.737 313.451L157.866 313.052L158.032 312.824L158.157 312.982L158.349 312.662L158.588 312.357L158.745 312.585L158.88 312.347L159.062 312.124L159.337 311.81L159.504 312.001L159.743 311.695L159.987 311.491L160.165 311.646L160.487 311.286L160.799 311.083L160.851 311.259L161.21 310.891L161.537 310.692L161.611 310.855L161.658 310.869L161.688 310.699L162.25 310.393L162.355 310.565L162.407 310.442L162.932 310.145L162.995 310.224L163.567 309.941L164.083 309.74L164.369 309.689L164.567 309.71L163.99 310.071L163.423 310.515L163.278 310.669L163.262 310.844L163.168 310.815L162.815 311.225L162.815 311.285L162.873 311.382L162.769 311.51L162.275 311.936L162.447 312.049L161.938 312.471L162.032 312.559L161.98 312.683L161.278 313.185L161.409 313.265L161.425 313.33L160.676 313.817L160.79 313.832L159.937 314.327L159.948 314.41L160.12 314.463L159.428 314.749L159.428 314.809L159.574 314.834L158.882 315.059L158.814 315.059L158.783 315.109L158.872 315.156L158.866 315.294L159.215 315.142L159.486 315.146L159.445 315.293L159.83 315.133L160.059 315.163L160.018 315.37L160.46 315.307L160.814 315.257L160.752 315.477L161.153 315.441L161.325 315.494L161.283 315.641L161.804 315.602L161.752 315.785L161.872 315.783L162.013 315.766L162.351 315.89L162.326 315.982L163.55 316.34L163.498 316.463L162.608 316.428L162.582 316.52L162.264 316.442L162.233 316.552L162.019 316.466L161.968 316.53L161.816 316.464L161.785 316.574L161.52 316.492L161.473 316.597L161.296 316.563L161.26 316.631L161.108 316.565L161.015 316.775L160.713 316.642L160.447 316.62L160.37 316.836L159.744 316.703L159.708 316.891L159.13 316.773L159.099 316.883L159.177 316.907L159.078 316.897L158.588 316.766L158.536 316.889L158.854 316.967L158.813 317.114L159.235 317.304L159.24 317.406L159.428 317.523L159.475 317.598L159.47 317.736L159.924 318.175L159.929 318.276L159.293 318L159.252 318.087L158.955 317.876L158.835 317.939L158.741 317.91L158.491 317.773L158.413 317.809L158.225 317.751L158.09 317.689L158.017 317.707L157.897 317.59L157.694 317.468L157.647 317.573L157.391 317.394L157.245 317.31L157.163 317.543L156.844 317.166L156.75 317.077L156.588 316.987L156.578 317.024L156.797 317.211L157.126 317.672L157.09 317.8L156.746 317.634L156.35 317.353L155.974 316.997L155.66 316.661L155.598 316.463L155.53 316.342L155.509 316.355L155.353 316.547L154.973 316.749L154.484 316.977L154.437 316.963L154.411 316.875L153.818 317.111L153.792 317.023L153.437 317.014L153.39 316.94L153.479 316.807L153.51 316.697L153.447 316.678L153.478 316.568L153.358 316.511L153.4 316.364L153.066 316.341L153.092 316.189L152.633 316.068L152.539 315.979L152.206 315.956L152.123 315.95L152.169 315.785L151.883 315.716L151.711 315.724L151.711 315.604L150.824 315.311L151.262 315.147L151.662 315.111L151.709 315.006L152.095 315.144L152.136 314.938L152.647 315.115L152.673 315.023L152.454 314.956L152.485 314.846L151.927 314.654L151.942 314.479L151.953 314.442L151.63 314.323L151.635 314.244L151.421 314.159L151.437 314.044L151.389 313.969L151.4 313.933L150.951 313.655L150.811 313.611L150.8 313.468L150.847 313.363L150.461 313.164L150.377 313.099L150.205 313.046L150.241 312.857L149.934 312.623L149.751 312.427L149.61 312.324L149.657 312.218L148.77 311.566L148.738 311.496L149.489 311.668L149.812 311.787L149.869 311.885L149.906 311.756L150.317 311.923L150.401 312.049L150.468 311.93L150.76 312.04L150.985 312.328L151.073 312.136L151.198 312.175L151.496 312.446L151.6 312.558L151.704 312.37L152.085 312.707L152.179 312.796L152.205 312.704L152.413 312.868L152.56 313.073L152.674 313.148L152.757 313.034L152.914 313.082L152.971 313.18L153.013 313.153L152.506 312.658L152.662 312.526L152.151 311.93L152.223 311.852L152.056 311.362L151.795 311.082L151.742 310.966L151.825 310.852L151.694 310.532L151.71 310.417L151.438 310.114L151.578 309.978L151.165 309.152L151.279 309.048L150.949 308.168L151.053 308.101L150.87 307.486L150.874 307.348L150.375 306.098L150.38 306.097Z" fill="#4D4D4D"/>
<path d="M157.942 319.113C162.114 318.205 164.769 314.131 163.873 310.014C162.977 305.896 158.869 303.293 154.698 304.201C150.526 305.108 147.871 309.182 148.767 313.3C149.663 317.418 153.771 320.021 157.942 319.113Z" stroke="#333333" stroke-width="1.92003"/>
<path d="M149.984 306.168L162.055 317.904L149.984 306.168Z" fill="#800000"/>
<path d="M149.984 306.168L162.055 317.904" stroke="#333333" stroke-width="1.92003"/>
<path d="M119.699 198.423V183.486H125.136C126.803 183.486 128.084 183.792 128.98 184.403C129.876 185.014 130.324 185.875 130.324 186.986C130.324 187.792 130.049 188.496 129.501 189.101C128.959 189.705 128.265 190.125 127.417 190.361V190.403C128.48 190.535 129.327 190.927 129.959 191.58C130.598 192.233 130.917 193.028 130.917 193.965C130.917 195.333 130.428 196.42 129.449 197.226C128.47 198.024 127.133 198.423 125.438 198.423L119.699 198.423ZM123.063 185.965V189.507H124.542C125.237 189.507 125.782 189.34 126.178 189.007C126.581 188.667 126.782 188.201 126.782 187.611C126.782 186.514 125.963 185.965 124.324 185.965H123.063ZM123.063 192.007V195.944H124.886C125.664 195.944 126.272 195.764 126.709 195.403C127.154 195.041 127.376 194.548 127.376 193.923C127.376 193.326 127.157 192.857 126.72 192.517C126.289 192.177 125.685 192.007 124.907 192.007H123.063Z" fill="#E3E4E5"/>
<path d="M134.72 186.069C134.164 186.069 133.709 185.906 133.355 185.58C133.001 185.246 132.824 184.84 132.824 184.361C132.824 183.868 133.001 183.465 133.355 183.153C133.709 182.84 134.164 182.684 134.72 182.684C135.282 182.684 135.737 182.84 136.084 183.153C136.438 183.465 136.615 183.868 136.615 184.361C136.615 184.861 136.438 185.271 136.084 185.59C135.737 185.91 135.282 186.069 134.72 186.069ZM136.345 198.423H133.053V187.757H136.345V198.423Z" fill="#E3E4E5"/>
<path d="M145.563 198.298C145.077 198.555 144.345 198.684 143.365 198.684C141.046 198.684 139.886 197.479 139.886 195.069V190.184H138.157V187.757H139.886V185.455L143.168 184.517V187.757H145.563V190.184H143.168V194.496C143.168 195.607 143.608 196.163 144.49 196.163C144.838 196.163 145.195 196.062 145.563 195.861V198.298Z" fill="#E3E4E5"/>
<path d="M155.417 198.038C154.674 198.469 153.601 198.684 152.199 198.684C150.56 198.684 149.233 198.187 148.22 197.194C147.206 196.201 146.699 194.92 146.699 193.35C146.699 191.538 147.24 190.111 148.324 189.069C149.414 188.021 150.869 187.496 152.688 187.496C153.945 187.496 154.855 187.663 155.417 187.996V190.788C154.73 190.274 153.963 190.017 153.115 190.017C152.171 190.017 151.421 190.295 150.865 190.85C150.317 191.399 150.042 192.16 150.042 193.132C150.042 194.076 150.306 194.819 150.834 195.361C151.362 195.896 152.088 196.163 153.011 196.163C153.831 196.163 154.633 195.906 155.417 195.392V198.038Z" fill="#E3E4E5"/>
<path d="M167.813 198.423H164.532V192.361C164.532 190.798 163.963 190.017 162.824 190.017C162.24 190.017 161.768 190.236 161.407 190.673C161.046 191.111 160.865 191.666 160.865 192.34V198.423H157.574V182.632H160.865V189.34H160.907C161.713 188.111 162.806 187.496 164.188 187.496C166.605 187.496 167.813 188.955 167.813 191.871L167.813 198.423Z" fill="#E3E4E5"/>
<path d="M124.136 216.404V201.466H129.574C131.24 201.466 132.522 201.772 133.417 202.383C134.313 202.994 134.761 203.855 134.761 204.966C134.761 205.772 134.487 206.477 133.938 207.081C133.397 207.685 132.702 208.105 131.855 208.341V208.383C132.917 208.515 133.765 208.907 134.397 209.56C135.036 210.213 135.355 211.008 135.355 211.945C135.355 213.314 134.865 214.4 133.886 215.206C132.907 216.005 131.57 216.404 129.876 216.404L124.136 216.404ZM127.501 203.945V207.487H128.98C129.674 207.487 130.22 207.32 130.615 206.987C131.018 206.647 131.22 206.182 131.22 205.591C131.22 204.494 130.4 203.945 128.761 203.945H127.501ZM127.501 209.987V213.925H129.324C130.102 213.925 130.709 213.744 131.147 213.383C131.591 213.022 131.813 212.529 131.813 211.904C131.813 211.307 131.595 210.838 131.157 210.498C130.727 210.157 130.122 209.987 129.345 209.987H127.501Z" fill="#E3E4E5"/>
<path d="M142.574 216.664C140.796 216.664 139.397 216.168 138.376 215.175C137.362 214.175 136.855 212.82 136.855 211.112C136.855 209.348 137.383 207.97 138.438 206.977C139.494 205.977 140.921 205.477 142.72 205.477C144.49 205.477 145.879 205.977 146.886 206.977C147.893 207.97 148.397 209.286 148.397 210.925C148.397 212.695 147.876 214.095 146.834 215.123C145.799 216.15 144.379 216.664 142.574 216.664ZM142.657 207.998C141.879 207.998 141.275 208.265 140.845 208.8C140.414 209.334 140.199 210.091 140.199 211.07C140.199 213.119 141.025 214.143 142.678 214.143C144.254 214.143 145.042 213.091 145.042 210.987C145.042 208.994 144.247 207.998 142.657 207.998Z" fill="#E3E4E5"/>
<path d="M152.199 204.05C151.643 204.05 151.188 203.886 150.834 203.56C150.48 203.227 150.303 202.82 150.303 202.341C150.303 201.848 150.48 201.445 150.834 201.133C151.188 200.82 151.643 200.664 152.199 200.664C152.761 200.664 153.216 200.82 153.563 201.133C153.917 201.445 154.095 201.848 154.095 202.341C154.095 202.841 153.917 203.251 153.563 203.57C153.216 203.89 152.761 204.05 152.199 204.05ZM153.824 216.404H150.532V205.737H153.824V216.404Z" fill="#E3E4E5"/>
<path d="M155.897 216.123V213.456C156.438 213.782 156.976 214.025 157.511 214.185C158.053 214.345 158.563 214.425 159.042 214.425C159.626 214.425 160.084 214.345 160.417 214.185C160.758 214.025 160.928 213.782 160.928 213.456C160.928 213.248 160.851 213.074 160.699 212.935C160.546 212.796 160.348 212.675 160.105 212.57C159.869 212.466 159.608 212.373 159.324 212.289C159.039 212.206 158.765 212.112 158.501 212.008C158.077 211.848 157.702 211.678 157.376 211.498C157.056 211.31 156.785 211.095 156.563 210.852C156.348 210.609 156.181 210.327 156.063 210.008C155.952 209.688 155.897 209.31 155.897 208.873C155.897 208.275 156.025 207.761 156.282 207.331C156.546 206.9 156.893 206.55 157.324 206.279C157.761 206.001 158.258 205.8 158.813 205.675C159.376 205.543 159.959 205.477 160.563 205.477C161.035 205.477 161.515 205.515 162.001 205.591C162.487 205.661 162.966 205.765 163.438 205.904V208.445C163.022 208.202 162.574 208.022 162.095 207.904C161.622 207.779 161.157 207.716 160.699 207.716C160.483 207.716 160.279 207.737 160.084 207.779C159.897 207.813 159.73 207.869 159.584 207.945C159.438 208.015 159.324 208.109 159.24 208.227C159.157 208.338 159.115 208.466 159.115 208.612C159.115 208.807 159.178 208.973 159.303 209.112C159.428 209.251 159.591 209.373 159.792 209.477C159.994 209.574 160.216 209.664 160.459 209.748C160.709 209.824 160.956 209.904 161.199 209.987C161.636 210.14 162.032 210.307 162.386 210.487C162.74 210.668 163.042 210.879 163.292 211.123C163.549 211.366 163.744 211.65 163.876 211.977C164.015 212.303 164.084 212.692 164.084 213.143C164.084 213.775 163.945 214.317 163.667 214.768C163.397 215.213 163.032 215.577 162.574 215.862C162.122 216.14 161.598 216.341 161.001 216.466C160.41 216.598 159.796 216.664 159.157 216.664C157.983 216.664 156.897 216.484 155.897 216.123Z" fill="#E3E4E5"/>
<path d="M111.136 219.186H105.865V222.853H110.709V225.582H105.865V231.384H102.501V216.447H111.136V219.186Z" fill="#E3E4E5"/>
<path d="M123.407 231.384H120.126V229.759H120.074C119.261 231.016 118.174 231.644 116.813 231.644C114.341 231.644 113.105 230.148 113.105 227.155V220.717H116.386V226.863C116.386 228.37 116.983 229.124 118.178 229.124C118.768 229.124 119.24 228.919 119.595 228.509C119.949 228.092 120.126 227.53 120.126 226.822V220.717H123.407L123.407 231.384Z" fill="#E3E4E5"/>
<path d="M134.261 230.999C133.518 231.429 132.445 231.645 131.042 231.645C129.404 231.645 128.077 231.148 127.063 230.155C126.049 229.162 125.542 227.881 125.542 226.311C125.542 224.499 126.084 223.072 127.167 222.03C128.258 220.981 129.713 220.457 131.532 220.457C132.789 220.457 133.699 220.624 134.261 220.957V223.749C133.574 223.235 132.806 222.978 131.959 222.978C131.015 222.978 130.265 223.256 129.709 223.811C129.161 224.36 128.886 225.12 128.886 226.092C128.886 227.037 129.15 227.78 129.678 228.322C130.206 228.856 130.931 229.124 131.855 229.124C132.674 229.124 133.477 228.867 134.261 228.353V230.999Z" fill="#E3E4E5"/>
<path d="M144.501 230.999C143.758 231.429 142.685 231.645 141.282 231.645C139.643 231.645 138.317 231.148 137.303 230.155C136.289 229.162 135.782 227.881 135.782 226.311C135.782 224.499 136.324 223.072 137.407 222.03C138.497 220.981 139.952 220.457 141.772 220.457C143.029 220.457 143.938 220.624 144.501 220.957V223.749C143.813 223.235 143.046 222.978 142.199 222.978C141.254 222.978 140.504 223.256 139.949 223.811C139.4 224.36 139.126 225.12 139.126 226.092C139.126 227.037 139.39 227.78 139.918 228.322C140.445 228.856 141.171 229.124 142.095 229.124C142.914 229.124 143.716 228.867 144.501 228.353V230.999Z" fill="#E3E4E5"/>
<path d="M154.74 230.999C153.997 231.429 152.924 231.645 151.522 231.645C149.883 231.645 148.556 231.148 147.542 230.155C146.529 229.162 146.022 227.881 146.022 226.311C146.022 224.499 146.563 223.072 147.647 222.03C148.737 220.981 150.192 220.457 152.011 220.457C153.268 220.457 154.178 220.624 154.74 220.957V223.749C154.053 223.235 153.285 222.978 152.438 222.978C151.494 222.978 150.744 223.256 150.188 223.811C149.64 224.36 149.365 225.12 149.365 226.092C149.365 227.037 149.629 227.78 150.157 228.322C150.685 228.856 151.41 229.124 152.334 229.124C153.154 229.124 153.956 228.867 154.74 228.353V230.999Z" fill="#E3E4E5"/>
<path d="M164.98 230.999C164.237 231.429 163.164 231.645 161.761 231.645C160.122 231.645 158.796 231.148 157.782 230.155C156.768 229.162 156.261 227.881 156.261 226.311C156.261 224.499 156.803 223.072 157.886 222.03C158.977 220.981 160.431 220.457 162.251 220.457C163.508 220.457 164.417 220.624 164.98 220.957V223.749C164.292 223.235 163.525 222.978 162.678 222.978C161.733 222.978 160.983 223.256 160.428 223.811C159.879 224.36 159.605 225.12 159.605 226.092C159.605 227.037 159.869 227.78 160.397 228.322C160.924 228.856 161.65 229.124 162.574 229.124C163.393 229.124 164.195 228.867 164.98 228.353V230.999Z" fill="#E3E4E5"/>
<path d="M175.219 230.999C174.476 231.429 173.403 231.645 172.001 231.645C170.362 231.645 169.035 231.148 168.022 230.155C167.008 229.162 166.501 227.881 166.501 226.311C166.501 224.499 167.042 223.072 168.126 222.03C169.216 220.981 170.671 220.457 172.49 220.457C173.747 220.457 174.657 220.624 175.219 220.957V223.749C174.532 223.235 173.765 222.978 172.917 222.978C171.973 222.978 171.223 223.256 170.667 223.811C170.119 224.36 169.844 225.12 169.844 226.092C169.844 227.037 170.108 227.78 170.636 228.322C171.164 228.856 171.89 229.124 172.813 229.124C173.633 229.124 174.435 228.867 175.219 228.353V230.999Z" fill="#E3E4E5"/>
<path d="M185.459 230.999C184.716 231.429 183.643 231.645 182.24 231.645C180.601 231.645 179.275 231.148 178.261 230.155C177.247 229.162 176.74 227.881 176.74 226.311C176.74 224.499 177.282 223.072 178.365 222.03C179.456 220.981 180.91 220.457 182.73 220.457C183.987 220.457 184.897 220.624 185.459 220.957V223.749C184.772 223.235 184.004 222.978 183.157 222.978C182.213 222.978 181.463 223.256 180.907 223.811C180.358 224.36 180.084 225.12 180.084 226.092C180.084 227.037 180.348 227.78 180.876 228.322C181.404 228.856 182.129 229.124 183.053 229.124C183.872 229.124 184.674 228.867 185.459 228.353V230.999Z" fill="#E3E4E5"/>
<path d="M179.324 206.474L226.313 206.493L179.324 206.474Z" fill="#E3E4E5"/>
<path d="M179.324 206.474L226.313 206.493" stroke="#E3E4E5" stroke-width="2.56673" stroke-miterlimit="10" stroke-linecap="round"/>
<path d="M61.5553 206.692L108.544 206.711L61.5553 206.692Z" fill="#E3E4E5"/>
<path d="M61.5553 206.692L108.544 206.711" stroke="#E3E4E5" stroke-width="2.56673" stroke-miterlimit="10" stroke-linecap="round"/>
<defs>
<linearGradient id="paint0_linear_510_975" x1="155.367" y1="330.375" x2="156.228" y2="331.574" gradientUnits="userSpaceOnUse">
<stop stop-color="#B9BABC"/>
<stop offset="0.332298" stop-color="#6F7072"/>
<stop offset="0.505068" stop-color="#1F2022"/>
<stop offset="0.691743" stop-color="#6F7072"/>
<stop offset="1" stop-color="#B9BABC"/>
</linearGradient>
<linearGradient id="paint1_linear_510_975" x1="155.543" y1="329.925" x2="156.642" y2="331.732" gradientUnits="userSpaceOnUse">
<stop stop-color="#1D1E20"/>
<stop offset="1" stop-color="#CBCCCE"/>
</linearGradient>
<linearGradient id="paint2_linear_510_975" x1="147.012" y1="328.833" x2="147.157" y2="330.24" gradientUnits="userSpaceOnUse">
<stop stop-color="#B9BABC"/>
<stop offset="0.332298" stop-color="#6F7072"/>
<stop offset="0.505068" stop-color="#1F2022"/>
<stop offset="0.691743" stop-color="#6F7072"/>
<stop offset="1" stop-color="#B9BABC"/>
</linearGradient>
<linearGradient id="paint3_linear_510_975" x1="147.373" y1="328.543" x2="147.425" y2="330.568" gradientUnits="userSpaceOnUse">
<stop stop-color="#1D1E20"/>
<stop offset="1" stop-color="#CBCCCE"/>
</linearGradient>
<linearGradient id="paint4_linear_510_975" x1="143.261" y1="324.512" x2="159.187" y2="330.603" gradientUnits="userSpaceOnUse">
<stop stop-opacity="0"/>
<stop offset="0.094718"/>
<stop offset="0.397666"/>
<stop offset="0.724935"/>
<stop offset="1" stop-opacity="0"/>
</linearGradient>
<linearGradient id="paint5_linear_510_975" x1="122.564" y1="332.339" x2="144.539" y2="317.771" gradientUnits="userSpaceOnUse">
<stop stop-color="#CACACD"/>
<stop offset="1" stop-color="#D4D4D4"/>
</linearGradient>
<linearGradient id="paint6_linear_510_975" x1="122.564" y1="332.338" x2="144.539" y2="317.771" gradientUnits="userSpaceOnUse">
<stop stop-color="#CACACD"/>
<stop offset="1" stop-color="#D4D4D4"/>
</linearGradient>
<linearGradient id="paint7_linear_510_975" x1="122.564" y1="332.338" x2="144.539" y2="317.771" gradientUnits="userSpaceOnUse">
<stop stop-color="#CACACD"/>
<stop offset="1" stop-color="#D4D4D4"/>
</linearGradient>
<linearGradient id="paint8_linear_510_975" x1="122.564" y1="332.339" x2="144.539" y2="317.771" gradientUnits="userSpaceOnUse">
<stop stop-color="#CACACD"/>
<stop offset="1" stop-color="#D4D4D4"/>
</linearGradient>
<linearGradient id="paint9_linear_510_975" x1="122.564" y1="332.339" x2="144.539" y2="317.771" gradientUnits="userSpaceOnUse">
<stop stop-color="#CACACD"/>
<stop offset="1" stop-color="#D4D4D4"/>
</linearGradient>
<linearGradient id="paint10_linear_510_975" x1="122.564" y1="332.339" x2="144.539" y2="317.771" gradientUnits="userSpaceOnUse">
<stop stop-color="#CACACD"/>
<stop offset="1" stop-color="#D4D4D4"/>
</linearGradient>
<linearGradient id="paint11_linear_510_975" x1="132.115" y1="307.165" x2="131.693" y2="312.105" gradientUnits="userSpaceOnUse">
<stop stop-color="#CDCDCF"/>
<stop offset="0.583118" stop-color="#CCCCCE"/>
<stop offset="0.751085" stop-color="#929295"/>
<stop offset="0.891675" stop-color="#CCCCCE"/>
<stop offset="1" stop-color="#CDCDCF"/>
</linearGradient>
<linearGradient id="paint12_linear_510_975" x1="133.285" y1="306.964" x2="133.064" y2="307.912" gradientUnits="userSpaceOnUse">
<stop stop-color="#B9BABC"/>
<stop offset="0.332298" stop-color="#6F7072"/>
<stop offset="0.505068" stop-color="#1F2022"/>
<stop offset="0.691743" stop-color="#6F7072"/>
<stop offset="1" stop-color="#B9BABC"/>
</linearGradient>
<linearGradient id="paint13_linear_510_975" x1="133.522" y1="306.842" x2="133.047" y2="308.169" gradientUnits="userSpaceOnUse">
<stop stop-color="#1D1E20"/>
<stop offset="1" stop-color="#CBCCCE"/>
</linearGradient>
<linearGradient id="paint14_linear_510_975" x1="132.734" y1="308.288" x2="132.513" y2="309.236" gradientUnits="userSpaceOnUse">
<stop stop-color="#B9BABC"/>
<stop offset="0.332298" stop-color="#6F7072"/>
<stop offset="0.505068" stop-color="#1F2022"/>
<stop offset="0.691743" stop-color="#6F7072"/>
<stop offset="1" stop-color="#B9BABC"/>
</linearGradient>
<linearGradient id="paint15_linear_510_975" x1="132.972" y1="308.166" x2="132.497" y2="309.493" gradientUnits="userSpaceOnUse">
<stop stop-color="#1D1E20"/>
<stop offset="1" stop-color="#CBCCCE"/>
</linearGradient>
<linearGradient id="paint16_linear_510_975" x1="145.389" y1="327.819" x2="151.036" y2="323.622" gradientUnits="userSpaceOnUse">
<stop stop-color="#CDCDCF"/>
<stop offset="0.583118" stop-color="#CCCCCE"/>
<stop offset="0.751085" stop-color="#929295"/>
<stop offset="0.891675" stop-color="#CCCCCE"/>
<stop offset="1" stop-color="#CDCDCF"/>
</linearGradient>
<linearGradient id="paint17_linear_510_975" x1="147.126" y1="325.387" x2="147.401" y2="326.293" gradientUnits="userSpaceOnUse">
<stop stop-color="#B9BABC"/>
<stop offset="0.332298" stop-color="#6F7072"/>
<stop offset="0.505068" stop-color="#1F2022"/>
<stop offset="0.691743" stop-color="#6F7072"/>
<stop offset="1" stop-color="#B9BABC"/>
</linearGradient>
<linearGradient id="paint18_linear_510_975" x1="147.334" y1="324.915" x2="147.864" y2="326.462" gradientUnits="userSpaceOnUse">
<stop stop-color="#1D1E20"/>
<stop offset="1" stop-color="#CBCCCE"/>
</linearGradient>
<linearGradient id="paint19_linear_510_975" x1="148.925" y1="324.548" x2="147.909" y2="324.646" gradientUnits="userSpaceOnUse">
<stop stop-color="#B9BABC"/>
<stop offset="0.332298" stop-color="#6F7072"/>
<stop offset="0.505068" stop-color="#1F2022"/>
<stop offset="0.691743" stop-color="#6F7072"/>
<stop offset="1" stop-color="#B9BABC"/>
</linearGradient>
<linearGradient id="paint20_linear_510_975" x1="149.132" y1="324.81" x2="147.671" y2="324.838" gradientUnits="userSpaceOnUse">
<stop stop-color="#1D1E20"/>
<stop offset="1" stop-color="#CBCCCE"/>
</linearGradient>
</defs>
</svg>
