<svg width="288" height="432" viewBox="0 0 288 432" fill="none" xmlns="http://www.w3.org/2000/svg">
<path d="M256.96 42.22V48.22H31.05V42.22H256.96Z" fill="#333333"/>
<path d="M25.17 57.09C24.3744 57.09 23.6113 56.7739 23.0487 56.2113C22.4861 55.6487 22.17 54.8856 22.17 54.09V36.34C22.17 35.5444 22.4861 34.7813 23.0487 34.2187C23.6113 33.6561 24.3744 33.34 25.17 33.34C25.9657 33.34 26.7288 33.6561 27.2914 34.2187C27.854 34.7813 28.17 35.5444 28.17 36.34V54.09C28.17 54.8856 27.854 55.6487 27.2914 56.2113C26.7288 56.7739 25.9657 57.09 25.17 57.09Z" fill="#333333"/>
<path d="M262.83 57.09C262.034 57.09 261.271 56.7739 260.709 56.2113C260.146 55.6487 259.83 54.8856 259.83 54.09V36.34C259.83 35.5444 260.146 34.7813 260.709 34.2187C261.271 33.6561 262.034 33.34 262.83 33.34C263.626 33.34 264.389 33.6561 264.951 34.2187C265.514 34.7813 265.83 35.5444 265.83 36.34V54.09C265.83 54.8856 265.514 55.6487 264.951 56.2113C264.389 56.7739 263.626 57.09 262.83 57.09Z" fill="#333333"/>
<path opacity="0.2" d="M50.34 66.67V397C50.341 397.262 50.404 397.52 50.5239 397.753C50.6438 397.986 50.8172 398.187 51.0298 398.341C51.2425 398.494 51.4884 398.594 51.7474 398.634C52.0064 398.674 52.2711 398.652 52.52 398.57L153.52 364.82C153.846 364.719 154.194 364.719 154.52 364.82L255.52 398.57C255.769 398.652 256.034 398.674 256.293 398.634C256.552 398.594 256.797 398.494 257.01 398.341C257.223 398.187 257.396 397.986 257.516 397.753C257.636 397.52 257.699 397.262 257.7 397V66.67C257.703 66.4474 257.66 66.2265 257.576 66.0206C257.491 65.8148 257.365 65.6282 257.206 65.4722C257.048 65.3161 256.859 65.1939 256.651 65.1127C256.444 65.0316 256.223 64.9932 256 65H52C51.7808 64.9987 51.5635 65.041 51.3608 65.1246C51.1581 65.2082 50.9742 65.3313 50.8196 65.4868C50.6651 65.6422 50.5431 65.8269 50.4607 66.0301C50.3783 66.2333 50.3373 66.4508 50.34 66.67Z" fill="#231F20"/>
<path d="M42 58.6V384.6C41.9992 384.859 42.0601 385.115 42.1778 385.346C42.2955 385.576 42.4666 385.776 42.6768 385.927C42.887 386.079 43.1303 386.178 43.3865 386.217C43.6427 386.256 43.9044 386.233 44.15 386.15L143.78 352.84C144.106 352.738 144.454 352.738 144.78 352.84L244.41 386.15C244.656 386.233 244.917 386.256 245.174 386.217C245.43 386.178 245.673 386.079 245.883 385.927C246.093 385.776 246.264 385.576 246.382 385.346C246.5 385.115 246.561 384.859 246.56 384.6V58.6C246.55 58.1805 246.38 57.7809 246.084 57.4832C245.788 57.1856 245.389 57.0127 244.97 57H43.63C43.2036 57.0025 42.795 57.1709 42.4907 57.4696C42.1864 57.7683 42.0104 58.1737 42 58.6Z" fill="#4D1919"/>
<path d="M244.66 389.21C244.164 389.213 243.671 389.136 243.2 388.98L144 355.81L44.7999 389C44.103 389.231 43.3613 389.293 42.6356 389.182C41.9099 389.07 41.221 388.788 40.6255 388.359C40.0301 387.929 39.545 387.365 39.2103 386.711C38.8755 386.058 38.7006 385.334 38.7 384.6V58.6C38.7105 57.3781 39.2026 56.2096 40.0695 55.3484C40.9364 54.4871 42.108 54.0026 43.33 54H244.67C245.899 54.0026 247.076 54.4927 247.944 55.3626C248.812 56.2324 249.3 57.4111 249.3 58.64V384.64C249.3 385.375 249.125 386.099 248.789 386.753C248.453 387.407 247.967 387.971 247.37 388.4C246.575 388.949 245.626 389.233 244.66 389.21ZM144 349.74C144.5 349.74 144.996 349.821 145.47 349.98L243.3 382.68V60H44.7V382.68L142.53 350C143.002 349.833 143.499 349.746 144 349.74Z" fill="#4D1919"/>
<path d="M238.05 376.68L147.13 346.28C145.097 345.61 142.903 345.61 140.87 346.28L50 376.68V66.5H238.1L238.05 376.68ZM53.45 70V371.82L139.76 343C142.513 342.09 145.487 342.09 148.24 343L234.55 371.86V70H53.45Z" fill="#E3E4E5"/>
<path d="M222.815 153.45C222.708 153.46 222.601 153.46 222.495 153.45C202.355 149.78 173.585 147.68 143.565 147.68C114.005 147.68 85.5646 149.68 65.4646 153.3C65.0072 153.381 64.5363 153.277 64.1557 153.01C63.7751 152.744 63.5158 152.337 63.435 151.88C63.3541 151.422 63.4582 150.952 63.7244 150.571C63.9907 150.19 64.3972 149.931 64.8546 149.85C85.1246 146.25 113.855 144.18 143.565 144.18C173.785 144.18 202.785 146.3 223.125 150.01C223.552 150.09 223.935 150.327 224.197 150.673C224.46 151.02 224.584 151.452 224.545 151.886C224.507 152.319 224.308 152.722 223.988 153.017C223.668 153.312 223.25 153.477 222.815 153.48V153.45Z" fill="#E3E4E5"/>
<path d="M85.2313 136.943C83.8418 137.616 82.0276 137.952 79.7885 137.952C76.868 137.952 74.5714 137.094 72.8988 135.377C71.2261 133.66 70.3898 131.372 70.3898 128.514C70.3898 125.469 71.3279 123 73.2041 121.106C75.0891 119.212 77.5317 118.265 80.5319 118.265C82.3904 118.265 83.9569 118.5 85.2313 118.969V123.097C83.9569 122.336 82.5055 121.956 80.8771 121.956C79.0893 121.956 77.6468 122.518 76.5494 123.642C75.452 124.766 74.9033 126.288 74.9033 128.208C74.9033 130.049 75.421 131.518 76.4565 132.616C77.4919 133.704 78.8858 134.248 80.6381 134.248C82.3108 134.248 83.8418 133.841 85.2313 133.027V136.943Z" fill="#E3E4E5"/>
<path d="M105.024 137.62H100.723V129.868H92.8379V137.62H88.55V118.584H92.8379V126.177H100.723V118.584H105.024V137.62Z" fill="#E3E4E5"/>
<path d="M126.118 137.62H121.446L120.092 133.386H113.321L111.98 137.62H107.334L114.264 118.584H119.348L126.118 137.62ZM119.109 130.093L117.065 123.695C116.914 123.217 116.808 122.646 116.746 121.982H116.64C116.596 122.54 116.485 123.093 116.308 123.642L114.237 130.093H119.109Z" fill="#E3E4E5"/>
<path d="M150.186 137.62H145.951V126.23C145.951 125 146.004 123.642 146.111 122.155H146.004C145.783 123.323 145.584 124.164 145.407 124.677L140.947 137.62H137.442L132.902 124.81C132.778 124.465 132.579 123.58 132.305 122.155H132.185C132.3 124.031 132.358 125.677 132.358 127.093V137.62H128.495V118.584H134.774L138.663 129.868C138.973 130.77 139.199 131.678 139.34 132.589H139.42C139.659 131.536 139.911 130.62 140.177 129.841L144.066 118.584H150.186L150.186 137.62Z" fill="#E3E4E5"/>
<path d="M158.802 131.062V137.62H154.514V118.584H161.231C166.028 118.584 168.426 120.606 168.426 124.651C168.426 126.562 167.736 128.111 166.355 129.297C164.983 130.474 163.147 131.062 160.846 131.062H158.802ZM158.802 121.876V127.81H160.488C162.771 127.81 163.913 126.81 163.913 124.81C163.913 122.854 162.771 121.876 160.488 121.876H158.802Z" fill="#E3E4E5"/>
<path d="M175.502 137.62H171.214V118.584H175.502V137.62Z" fill="#E3E4E5"/>
<path d="M187.874 137.952C185.148 137.952 182.927 137.067 181.21 135.297C179.493 133.518 178.635 131.204 178.635 128.354C178.635 125.345 179.506 122.912 181.25 121.053C182.993 119.195 185.303 118.265 188.179 118.265C190.896 118.265 193.091 119.155 194.764 120.934C196.445 122.712 197.286 125.058 197.286 127.969C197.286 130.961 196.414 133.372 194.671 135.204C192.936 137.036 190.671 137.952 187.874 137.952ZM188.06 121.956C186.555 121.956 185.361 122.522 184.476 123.655C183.591 124.779 183.148 126.27 183.148 128.129C183.148 130.014 183.591 131.505 184.476 132.602C185.361 133.7 186.52 134.248 187.954 134.248C189.432 134.248 190.604 133.717 191.471 132.655C192.339 131.585 192.772 130.102 192.772 128.208C192.772 126.235 192.352 124.699 191.511 123.602C190.671 122.504 189.52 121.956 188.06 121.956Z" fill="#E3E4E5"/>
<path d="M217.57 137.62H213.243L205.397 125.66C204.937 124.96 204.618 124.434 204.441 124.08H204.388C204.459 124.752 204.494 125.779 204.494 127.16V137.62H200.445V118.584H205.065L212.619 130.173C212.964 130.695 213.282 131.213 213.574 131.726H213.628C213.557 131.284 213.521 130.412 213.521 129.111V118.584H217.57V137.62Z" fill="#E3E4E5"/>
<path d="M130.828 313.998C132.04 315.595 134.416 314.838 134.414 318.669C134.412 321.95 133.307 325.106 133.879 328.051C134.762 332.602 139.331 332.214 142.644 332.249L144.29 322.907L144.331 312.29L135.1 310.903L131.549 313.476L130.828 313.998Z" fill="black"/>
<path d="M166.14 326.383C166.038 328.014 166.023 329.279 165.558 330.311L165.034 331.475C164.778 331.906 164.67 332.274 164.743 332.61C164.984 333.709 163.745 334.127 162.488 334.152C160.391 334.195 158.575 333.438 157.032 332.406L166.14 326.383Z" fill="white" stroke="black" stroke-width="0.230447"/>
<path d="M158.138 332.73C159.297 333.346 161.89 334.436 163.78 333.645C164.209 333.465 163.993 333.353 163.908 333.384C162.536 333.219 162.323 333.107 161.63 331.795C160.578 331.96 158.579 331.929 158.106 332.549C158 332.652 158.115 332.651 158.138 332.73Z" fill="black"/>
<path d="M162.108 331.981C163.007 333.929 163.966 332.562 164.413 331.22" stroke="black" stroke-width="0.230447" stroke-linecap="round" stroke-linejoin="round"/>
<path d="M136.605 313.101L136.473 310.709L146.935 316.228L141.451 329.565C141.626 328.556 141.266 326.843 141.691 325.804C142.783 323.131 143.462 320.875 143.135 319.171C142.257 314.591 139.039 313.805 136.605 313.101Z" fill="#4D4D4D" stroke="black" stroke-width="0.230447"/>
<path d="M131.164 314.307C129.237 313.846 129.028 310.752 131.746 306.683C139.283 295.402 150.042 296.735 155.025 298.07C164.13 300.51 170.727 309.9 168.119 321.174C167.351 324.494 165.878 328.18 163.463 331.737C163.241 332.064 162.998 332.446 161.834 332.086C160.254 331.598 159.008 331.52 158.051 332.173C152.403 336.029 148.381 336.102 144.869 334.647C141.006 333.045 141.098 329.854 141.698 327.023C142.204 324.632 143.802 322.313 143.531 319.632C142.981 314.209 138.856 313.479 136.14 312.852C133.709 312.291 130.952 312.887 131.164 314.307Z" fill="#E3E4E5"/>
<path d="M151.848 324.752L153.275 326.886C154.452 326.943 155.323 326.541 155.808 325.878C156.382 325.092 156.437 323.981 156.133 323.425C155.496 322.261 153.838 321.771 152.703 322.917C152.314 323.31 152.088 323.961 151.848 324.752Z" fill="black" stroke="black" stroke-width="0.230447"/>
<path d="M155.853 331.781C156.367 331.781 156.783 331.387 156.783 330.901C156.783 330.415 156.367 330.021 155.853 330.021C155.34 330.021 154.924 330.415 154.924 330.901C154.924 331.387 155.34 331.781 155.853 331.781Z" fill="url(#paint0_linear_510_1166)" stroke="url(#paint1_linear_510_1166)" stroke-width="0.0911904" stroke-linecap="round" stroke-linejoin="round"/>
<path d="M150.421 329.059C151.32 331.007 156.682 329.723 157.129 328.38" stroke="black" stroke-width="0.230447" stroke-linecap="round" stroke-linejoin="round"/>
<path d="M146.747 330.234C147.174 330.478 147.707 330.349 147.939 329.945C148.17 329.541 148.012 329.015 147.585 328.77C147.158 328.526 146.625 328.655 146.393 329.059C146.162 329.463 146.32 329.989 146.747 330.234Z" fill="url(#paint2_linear_510_1166)" stroke="url(#paint3_linear_510_1166)" stroke-width="0.087355" stroke-linecap="round" stroke-linejoin="round"/>
<path d="M143.426 324.78C138.807 334.676 150.915 336.71 158.899 330.932C155.779 332.399 153.459 333.425 151.131 333.633C147.636 333.945 144.997 333.168 143.731 331.559C142.456 329.942 142.567 327.484 143.426 324.78Z" fill="url(#paint4_linear_510_1166)"/>
<path d="M137.066 319.752C137.557 319.721 138.314 319.842 138.703 320.688C138.857 321.021 138.873 321.496 138.776 322.084C138.285 325.059 140.144 326.794 142.273 328.586L142.15 331.878C139.332 332.124 136.709 331.827 135.322 330.392C133.725 328.739 133.83 325.473 134.519 322.276C134.886 320.998 135.636 319.863 137.066 319.752Z" fill="#4D4D4D"/>
<path d="M133.858 315.047C135.221 316.276 135.322 318.194 135.031 319.862C134.946 320.347 134.591 320.07 134.619 319.903C134.92 318.139 134.691 316.713 133.529 315.253C133.199 314.839 133.601 314.815 133.858 315.047Z" fill="white"/>
<path d="M133.982 307.259C134.16 306.808 130.678 308.496 130.945 308.004C131.177 307.577 131.443 307.136 131.746 306.683C139.283 295.402 150.042 296.735 155.025 298.07C147.336 298.261 139.628 298.367 133.982 307.259Z" fill="#4D4D4D"/>
<path d="M131.164 314.307C129.237 313.846 129.028 310.752 131.746 306.683C139.283 295.402 150.042 296.735 155.025 298.07C164.13 300.51 170.727 309.9 168.119 321.174C167.351 324.494 165.878 328.18 163.463 331.737C163.241 332.064 162.998 332.446 161.834 332.086C160.254 331.598 159.008 331.52 158.051 332.173C152.403 336.029 148.381 336.102 144.869 334.647C141.006 333.045 141.098 329.854 141.698 327.023C142.204 324.632 143.802 322.313 143.531 319.632C142.981 314.209 138.856 313.479 136.14 312.852C133.709 312.291 130.952 312.887 131.164 314.307Z" stroke="black" stroke-width="0.230447"/>
<path d="M135.456 306.945C135.834 307.101 136.58 306.749 136.212 307.935L134.947 311.295C134.36 312.852 135.772 313.207 136.984 313.594L134.685 313.609L133.754 311.848L134.728 308.007L135.456 306.945Z" fill="#F2F2F2" stroke="black" stroke-width="0.230447"/>
<path d="M130.742 306.494L132.153 307.178L130.96 311.921C129.426 312.37 127.558 311.895 128.458 310.306C129.177 309.035 129.908 307.765 130.742 306.494Z" fill="#D0D0D1" stroke="black" stroke-width="0.230447"/>
<path d="M131.564 307.071L135.36 306.982C135.834 306.97 135.949 307.039 135.813 307.434L134.537 311.138C134.059 312.525 134.532 313.373 135.73 313.689L131.592 313.526C131.211 313.596 131.117 314.049 131.164 314.278C128.718 313.3 129.847 309.31 131.564 307.071Z" fill="white" stroke="black" stroke-width="0.230447"/>
<path d="M133.667 306.747L134.581 307.314C134.894 307.509 135.343 307.729 135.102 308.333L133.894 311.65L132.736 309.57L133.667 306.747Z" fill="#CCCCCE" stroke="black" stroke-width="0.230447" stroke-linecap="round" stroke-linejoin="round"/>
<path d="M133.671 306.558C133.931 306.962 135.097 307.019 134.64 308.231L133.756 310.442L133.961 311.345C133.894 311.784 133.745 312.108 133.468 312.247L132.921 312.32L131.971 311.403L132.08 309.133L133.671 306.558Z" fill="#CCCCCE" stroke="black" stroke-width="0.230447" stroke-linecap="round" stroke-linejoin="round"/>
<path d="M151.79 327.864C152.364 328.209 152.986 327.744 152.88 327.246L146.317 316.938C144.957 314.511 143.239 313.125 141.276 312.452C138.86 311.588 136.378 311.184 133.91 310.683C132.898 310.635 132.839 311.706 133.704 311.938C135.632 312.334 137.529 312.543 139.506 313.234C141.675 313.873 143.631 314.832 144.712 317.103L151.79 327.864Z" fill="#CDCDCF" stroke="black" stroke-width="0.230447"/>
<path d="M134.458 318.545C130.669 322.451 126.241 321.722 122.976 321.186C122.275 321.064 121.838 321.2 121.577 321.763C120.071 325 119.596 328.772 119.27 332.721C119.246 333.016 119.361 333.375 119.708 333.452C121.533 333.485 120.649 333.303 120.834 332.186C120.777 330.092 121.02 326.074 122.729 322.627C122.883 322.315 123.227 322.145 124.087 322.38C127.423 323.36 129.851 323.031 131.598 322.145C133.028 321.42 133.61 321.078 134.346 320.552L134.458 318.545Z" fill="url(#paint5_linear_510_1166)" stroke="black" stroke-width="0.230447" stroke-linecap="round" stroke-linejoin="round"/>
<path d="M123.926 327.812C123.015 327.635 122.152 327.469 121.176 327.186C120.571 327.01 120.256 325.308 121.822 325.539C126.408 326.214 129.25 325.952 133.793 325.082L133.763 326.329C128.459 327.344 126.69 327.219 123.072 326.305L121.95 326.108C122.97 326.318 123.458 326.49 124.479 326.619L123.926 327.812Z" fill="url(#paint6_linear_510_1166)" stroke="black" stroke-width="0.230447" stroke-linecap="round" stroke-linejoin="round"/>
<path d="M125.551 323.038L122.801 322.442C122.228 322.18 122.016 321.278 122.991 321.176L126.177 321.729L125.551 323.038Z" fill="url(#paint7_linear_510_1166)" stroke="black" stroke-width="0.230447" stroke-linecap="round" stroke-linejoin="round"/>
<path d="M132.44 315.095L127.79 326.33C126.173 330.238 124.488 331.117 121.042 331.968C119.421 332.136 119.383 332.94 119.624 333.304C119.942 333.783 121.631 334.361 123.284 334.499L123.408 333.223C122.753 333.031 121.979 333.074 121.564 332.963C121.295 332.891 121.289 332.8 121.673 332.813C121.903 332.821 122.151 332.891 122.477 332.879C123.556 332.838 124.317 332.369 125.239 331.721C127.04 330.456 127.852 329.461 129.478 325.59L133.592 315.794C133.332 315.14 132.89 315.103 132.44 315.095Z" fill="url(#paint8_linear_510_1166)" stroke="black" stroke-width="0.230447" stroke-linecap="round" stroke-linejoin="round"/>
<path d="M143.738 313.833C144.104 314.1 144.459 314.426 144.798 314.831L138.035 329.495L136.43 329.598L143.738 313.833Z" fill="url(#paint9_linear_510_1166)" stroke="black" stroke-width="0.230447" stroke-linecap="round" stroke-linejoin="round"/>
<path d="M147.417 318.923C147.756 318.996 148.263 319.584 148.23 320.014C146.911 321.236 146.168 321.879 144.727 322.994C143.633 323.842 142.36 324.332 141.061 324.435C137.57 324.712 134.165 324.262 130.818 323.838L126.817 323.14C126.827 323.077 126.791 322.925 126.744 322.994C125.944 324.244 125.684 325.513 125.435 326.835L134.484 328.203C135.115 328.298 138.82 328.495 141.439 328.028L150.781 326.365L151.536 327.519C147.495 328.216 143.544 328.996 139.082 329.483C137.109 329.699 134.738 329.581 133.67 329.396L125.289 327.941C125.154 327.918 125.062 327.918 125.027 328.028C124.415 330.017 124.36 331.866 124.358 333.703C124.472 333.72 124.406 333.518 124.518 333.541C129.398 334.567 135.26 332.825 136.379 329.642L137.948 329.575C135.315 334.976 129.02 335.399 124.184 334.663C123.698 334.799 123.342 334.678 123.02 334.488C122.899 329.723 123.966 325.521 125.93 321.743C126.042 321.527 126.954 321.294 126.992 322.049C133.631 323.154 136.344 323.07 140.1 323.285C141.936 323.391 143.611 322.439 145.309 320.87L147.417 318.923Z" fill="url(#paint10_linear_510_1166)" stroke="black" stroke-width="0.230447" stroke-linecap="round" stroke-linejoin="round"/>
<path d="M131.628 310.381L129.302 310.262C128.439 310.505 128.428 311.479 129.389 311.485L131.606 311.414L131.628 310.381Z" fill="#D0D0D1" stroke="black" stroke-width="0.230447"/>
<path d="M132.676 306.767C133.279 306.303 133.805 306.208 134.151 306.973L132.741 310.173C132.442 310.85 131.986 311.486 133.339 312.281C132.683 312.432 132.176 312.517 131.622 312.37C131.52 312.343 131.413 312.306 131.356 312.199C130.952 311.447 130.845 310.683 131.31 309.689L132.676 306.767Z" fill="url(#paint11_linear_510_1166)" stroke="black" stroke-width="0.230447" stroke-linecap="round" stroke-linejoin="round"/>
<path d="M132.769 307.809C132.881 308.038 133.145 308.047 133.36 307.83C133.576 307.613 133.659 307.251 133.547 307.023C133.436 306.794 133.171 306.784 132.956 307.001C132.741 307.219 132.657 307.58 132.769 307.809Z" fill="url(#paint12_linear_510_1166)" stroke="url(#paint13_linear_510_1166)" stroke-width="0.0509192" stroke-linecap="round" stroke-linejoin="round"/>
<path d="M132.219 309.133C132.33 309.362 132.595 309.371 132.81 309.154C133.025 308.937 133.109 308.575 132.997 308.347C132.886 308.118 132.621 308.108 132.406 308.325C132.191 308.543 132.107 308.904 132.219 309.133Z" fill="url(#paint14_linear_510_1166)" stroke="url(#paint15_linear_510_1166)" stroke-width="0.0509192" stroke-linecap="round" stroke-linejoin="round"/>
<path d="M149.784 322.166L150.998 323.926C151.352 324.439 150.894 324.615 150.627 324.79L147.479 326.858C147.031 327.152 146.73 327.086 146.492 326.837L145.545 325.85L145.627 324.471L148.158 322.928L149.784 322.166Z" fill="url(#paint16_linear_510_1166)" stroke="black" stroke-width="0.230447" stroke-linecap="round" stroke-linejoin="round"/>
<path d="M145.525 325.685C144.98 325.023 144.898 324.38 145.545 323.936L147.973 322.269L148.487 322.907C147.116 323.76 145.647 324.593 145.525 325.685Z" fill="#CBCBCE" stroke="black" stroke-width="0.230447" stroke-linecap="round" stroke-linejoin="round"/>
<path d="M148.261 322.681C149.087 322.685 149.367 322.238 149.434 321.796C149.663 322.052 150.182 322.248 149.496 322.743C147.137 324.035 145.268 325.371 145.813 326.158C145.436 325.731 145.105 325.291 145.751 324.594L148.261 322.681Z" fill="#CECED0" stroke="black" stroke-width="0.230447" stroke-linecap="round" stroke-linejoin="round"/>
<path d="M146.848 326.228C147.179 326.418 147.594 326.318 147.774 326.004C147.954 325.69 147.831 325.281 147.499 325.091C147.168 324.901 146.753 325.001 146.573 325.315C146.393 325.629 146.516 326.038 146.848 326.228Z" fill="url(#paint17_linear_510_1166)" stroke="url(#paint18_linear_510_1166)" stroke-width="0.0678814" stroke-linecap="round" stroke-linejoin="round"/>
<path d="M147.916 324.351C147.737 324.657 147.828 325.043 148.119 325.212C148.409 325.381 148.789 325.269 148.967 324.962C149.146 324.655 149.055 324.27 148.765 324.101C148.474 323.932 148.094 324.044 147.916 324.351Z" fill="url(#paint19_linear_510_1166)" stroke="url(#paint20_linear_510_1166)" stroke-width="0.063006" stroke-linecap="round" stroke-linejoin="round"/>
<path d="M150.38 306.097L151.174 307.02L151.341 307.091L151.759 307.778L151.868 307.692L152.276 308.297L152.234 308.444L152.437 308.326L152.788 309.073L152.991 308.956L153.294 309.688L153.471 309.603L153.529 309.64L153.743 310.205L153.697 310.43L153.942 310.346L154.157 310.971L154.11 311.136L154.308 311.037L154.47 311.486L154.393 311.762L154.575 311.658L154.701 312.176L154.665 312.364L154.847 312.261L154.937 312.967L155.099 312.997L155.153 313.472L155.096 313.614L155.226 313.694L155.264 314.284L155.431 314.296L155.252 313.663L155.273 313.589L155.434 313.619L155.255 312.926L155.286 312.815L155.401 312.891L155.338 312.632L155.4 312.411L155.326 312.07L155.414 311.758L155.482 311.699L155.465 311.215L155.49 310.943L155.511 310.87L155.652 310.913L155.661 310.637L155.67 310.301L155.763 310.03L155.878 310.105L155.935 310.083L155.944 309.867L155.954 309.591L155.989 309.342L156.187 309.363L156.181 309.202L156.377 308.444L156.393 308.389L156.612 308.577L156.808 307.939L157.038 308.09L157.26 307.42L157.354 307.329L157.438 307.574L157.479 307.607L157.583 307.18L157.681 307.131L157.821 306.755L157.899 306.719L157.983 306.905L158.03 306.859L158.211 306.337L158.403 306.077L158.471 306.137L158.486 306.141L158.6 305.857L158.87 305.502L158.99 305.379L159.052 305.219L159.125 305.141L159.207 304.967L159.29 304.853L159.399 304.707L159.529 304.608L159.566 304.659L159.551 304.894L159.484 305.252L159.344 305.568L159.163 305.911L159.049 306.195L158.945 306.502L158.785 307.071L158.9 307.027L158.916 307.151L158.745 307.817L158.673 308.074L158.928 307.953L158.897 308.303L158.825 308.619L158.748 308.895L158.675 308.972L158.691 309.037L158.863 308.97L158.946 309.036L158.925 309.229L158.765 309.798L158.692 309.936L158.677 309.991L158.854 310.025L158.906 309.962L158.943 310.072L158.86 310.366L158.699 310.636L158.497 310.932L158.643 311.017L158.742 310.968L158.664 311.303L158.503 311.513L158.373 311.612L158.452 311.696L158.343 311.962L158.198 312.176L158.089 312.322L158.141 312.378L158.078 312.479L158.001 312.574L158.068 312.635L157.933 312.813L157.809 312.954L157.731 313.11L157.487 313.314L157.429 313.336L157.737 313.451L157.866 313.052L158.032 312.824L158.157 312.982L158.349 312.662L158.588 312.357L158.745 312.585L158.88 312.347L159.062 312.124L159.337 311.81L159.504 312.001L159.743 311.695L159.987 311.491L160.165 311.646L160.487 311.286L160.799 311.083L160.851 311.259L161.21 310.891L161.537 310.692L161.611 310.855L161.658 310.869L161.688 310.699L162.25 310.393L162.355 310.565L162.407 310.442L162.932 310.145L162.995 310.224L163.567 309.941L164.083 309.741L164.369 309.689L164.567 309.71L163.99 310.071L163.423 310.515L163.278 310.669L163.262 310.844L163.168 310.815L162.815 311.225L162.815 311.285L162.873 311.382L162.769 311.51L162.275 311.936L162.447 312.049L161.938 312.471L162.032 312.559L161.98 312.683L161.278 313.185L161.409 313.265L161.425 313.33L160.676 313.817L160.79 313.832L159.937 314.327L159.948 314.41L160.12 314.463L159.428 314.749L159.428 314.809L159.574 314.834L158.882 315.059L158.814 315.059L158.783 315.109L158.872 315.156L158.866 315.294L159.215 315.142L159.486 315.146L159.445 315.293L159.83 315.133L160.059 315.163L160.018 315.37L160.46 315.307L160.814 315.257L160.752 315.477L161.153 315.441L161.325 315.494L161.283 315.641L161.804 315.602L161.752 315.785L161.872 315.783L162.013 315.766L162.351 315.89L162.326 315.982L163.55 316.34L163.498 316.463L162.608 316.428L162.582 316.52L162.264 316.442L162.233 316.552L162.019 316.466L161.968 316.53L161.816 316.464L161.785 316.574L161.52 316.492L161.473 316.597L161.296 316.563L161.26 316.631L161.108 316.565L161.015 316.775L160.713 316.642L160.447 316.62L160.37 316.836L159.744 316.703L159.708 316.891L159.13 316.773L159.099 316.883L159.177 316.907L159.078 316.897L158.588 316.766L158.536 316.889L158.854 316.967L158.813 317.114L159.235 317.304L159.24 317.406L159.428 317.523L159.475 317.598L159.47 317.736L159.924 318.175L159.929 318.276L159.293 318.001L159.252 318.088L158.955 317.876L158.835 317.939L158.741 317.91L158.491 317.773L158.413 317.809L158.225 317.751L158.09 317.689L158.017 317.707L157.897 317.59L157.694 317.468L157.647 317.573L157.391 317.394L157.245 317.31L157.163 317.543L156.844 317.166L156.75 317.077L156.588 316.987L156.578 317.024L156.797 317.211L157.126 317.672L157.09 317.8L156.746 317.634L156.35 317.353L155.974 316.997L155.66 316.662L155.598 316.463L155.53 316.342L155.509 316.355L155.353 316.547L154.973 316.749L154.484 316.977L154.437 316.963L154.411 316.875L153.818 317.111L153.792 317.023L153.437 317.014L153.39 316.94L153.479 316.807L153.51 316.697L153.447 316.678L153.478 316.568L153.358 316.511L153.4 316.364L153.066 316.341L153.092 316.189L152.633 316.068L152.539 315.979L152.206 315.956L152.123 315.95L152.169 315.785L151.883 315.716L151.711 315.724L151.711 315.604L150.824 315.311L151.262 315.147L151.662 315.111L151.709 315.006L152.095 315.144L152.136 314.938L152.647 315.115L152.673 315.023L152.454 314.956L152.485 314.846L151.927 314.654L151.942 314.479L151.953 314.442L151.63 314.323L151.635 314.244L151.421 314.159L151.437 314.044L151.389 313.969L151.4 313.933L150.951 313.655L150.811 313.611L150.8 313.468L150.847 313.363L150.461 313.164L150.377 313.099L150.205 313.046L150.241 312.857L149.934 312.623L149.751 312.427L149.61 312.324L149.657 312.218L148.77 311.566L148.738 311.496L149.489 311.668L149.812 311.787L149.869 311.885L149.906 311.756L150.317 311.923L150.401 312.049L150.468 311.93L150.76 312.04L150.985 312.328L151.073 312.136L151.198 312.175L151.496 312.446L151.6 312.558L151.704 312.37L152.085 312.707L152.179 312.796L152.205 312.704L152.413 312.868L152.56 313.073L152.674 313.148L152.757 313.034L152.914 313.082L152.971 313.18L153.013 313.153L152.506 312.658L152.662 312.526L152.151 311.93L152.223 311.852L152.056 311.362L151.795 311.082L151.742 310.966L151.825 310.852L151.694 310.532L151.71 310.417L151.438 310.114L151.578 309.978L151.165 309.152L151.279 309.048L150.949 308.169L151.053 308.101L150.87 307.486L150.874 307.348L150.375 306.098L150.38 306.097Z" fill="#4D4D4D"/>
<path d="M157.942 319.113C162.114 318.205 164.769 314.131 163.873 310.013C162.977 305.896 158.869 303.293 154.698 304.201C150.526 305.108 147.871 309.182 148.767 313.3C149.663 317.418 153.771 320.021 157.942 319.113Z" stroke="#333333" stroke-width="1.92003"/>
<path d="M149.984 306.168L162.055 317.904L149.984 306.168Z" fill="#800000"/>
<path d="M149.984 306.168L162.055 317.904" stroke="#333333" stroke-width="1.92003"/>
<path d="M199.324 207.474L224.324 207.493L199.324 207.474Z" fill="#E3E4E5"/>
<path d="M199.324 207.474L224.324 207.493" stroke="#E3E4E5" stroke-width="2.56673" stroke-miterlimit="10" stroke-linecap="round"/>
<path d="M62.5553 206.692L87.5553 206.711L62.5553 206.692Z" fill="#E3E4E5"/>
<path d="M62.5553 206.692L87.5553 206.711" stroke="#E3E4E5" stroke-width="2.56673" stroke-miterlimit="10" stroke-linecap="round"/>
<path d="M138.237 254.052H136.091V260.469H134.852V254.052H132.711V253H138.237V254.052Z" fill="#E3E4E5"/>
<path d="M140.524 260.594C139.701 260.594 139.043 260.346 138.55 259.849C138.06 259.349 137.815 258.688 137.815 257.865C137.815 256.969 138.07 256.269 138.581 255.766C139.095 255.262 139.786 255.01 140.654 255.01C141.487 255.01 142.136 255.255 142.602 255.745C143.067 256.234 143.3 256.913 143.3 257.781C143.3 258.632 143.048 259.314 142.544 259.828C142.044 260.339 141.371 260.594 140.524 260.594ZM140.581 255.974C140.109 255.974 139.735 256.139 139.461 256.469C139.187 256.799 139.05 257.253 139.05 257.833C139.05 258.392 139.188 258.833 139.466 259.156C139.744 259.476 140.116 259.635 140.581 259.635C141.057 259.635 141.421 259.477 141.675 259.161C141.932 258.846 142.06 258.396 142.06 257.813C142.06 257.226 141.932 256.773 141.675 256.453C141.421 256.134 141.057 255.974 140.581 255.974Z" fill="#E3E4E5"/>
<path d="M152.503 260.469H151.294V257.563C151.294 257.004 151.214 256.599 151.055 256.349C150.899 256.099 150.633 255.974 150.258 255.974C149.942 255.974 149.673 256.132 149.451 256.448C149.232 256.764 149.122 257.142 149.122 257.583V260.469H147.909V257.464C147.909 256.471 147.558 255.974 146.857 255.974C146.53 255.974 146.261 256.123 146.05 256.422C145.841 256.72 145.737 257.108 145.737 257.583V260.469H144.529V255.135H145.737V255.979H145.758C146.143 255.333 146.704 255.01 147.44 255.01C147.808 255.01 148.129 255.113 148.404 255.318C148.681 255.519 148.871 255.785 148.971 256.115C149.367 255.378 149.957 255.01 150.742 255.01C151.916 255.01 152.503 255.734 152.503 257.182L152.503 260.469Z" fill="#E3E4E5"/>
<path d="M131 269.959V262.49H133.37C134.092 262.49 134.663 262.648 135.083 262.964C135.507 263.28 135.719 263.692 135.719 264.199C135.719 264.622 135.599 264.99 135.359 265.303C135.12 265.615 134.788 265.837 134.365 265.969V265.99C134.878 266.049 135.288 266.24 135.594 266.563C135.903 266.883 136.057 267.299 136.057 267.813C136.057 268.452 135.806 268.969 135.302 269.365C134.799 269.761 134.163 269.959 133.396 269.959L131 269.959ZM132.234 263.485V265.61H133.036C133.467 265.61 133.804 265.509 134.047 265.308C134.293 265.103 134.417 264.815 134.417 264.443C134.417 263.804 133.99 263.485 133.135 263.485H132.234ZM132.234 266.605V268.969H133.292C133.753 268.969 134.109 268.864 134.359 268.652C134.613 268.436 134.74 268.141 134.74 267.766C134.74 266.992 134.203 266.605 133.13 266.605H132.234Z" fill="#E3E4E5"/>
<path d="M141.958 269.959H140.75V269.115H140.729C140.378 269.761 139.833 270.084 139.094 270.084C137.833 270.084 137.203 269.327 137.203 267.813V264.626H138.411V267.688C138.411 268.647 138.781 269.126 139.521 269.126C139.878 269.126 140.172 268.994 140.401 268.73C140.634 268.466 140.75 268.12 140.75 267.693V264.626H141.958L141.958 269.959Z" fill="#E3E4E5"/>
<path d="M143.198 269.792V268.673C143.649 269.016 144.148 269.188 144.693 269.188C145.422 269.188 145.787 268.973 145.787 268.542C145.787 268.421 145.755 268.318 145.693 268.235C145.63 268.148 145.545 268.072 145.438 268.006C145.333 267.94 145.208 267.881 145.063 267.829C144.92 267.777 144.761 267.718 144.583 267.652C144.365 267.565 144.167 267.473 143.99 267.376C143.816 267.278 143.67 267.169 143.552 267.048C143.438 266.923 143.351 266.782 143.292 266.626C143.233 266.469 143.203 266.287 143.203 266.079C143.203 265.822 143.264 265.596 143.386 265.402C143.507 265.204 143.67 265.039 143.875 264.907C144.08 264.772 144.313 264.671 144.573 264.605C144.834 264.535 145.103 264.501 145.38 264.501C145.873 264.501 146.314 264.575 146.703 264.725V265.782C146.328 265.525 145.898 265.396 145.412 265.396C145.259 265.396 145.12 265.412 144.995 265.443C144.873 265.475 144.769 265.518 144.682 265.574C144.596 265.629 144.528 265.697 144.479 265.777C144.431 265.853 144.406 265.938 144.406 266.032C144.406 266.147 144.431 266.244 144.479 266.324C144.528 266.403 144.599 266.475 144.693 266.537C144.79 266.596 144.905 266.652 145.037 266.704C145.172 266.752 145.327 266.806 145.5 266.865C145.729 266.959 145.934 267.055 146.115 267.152C146.299 267.249 146.455 267.36 146.584 267.485C146.712 267.607 146.811 267.749 146.88 267.912C146.95 268.072 146.985 268.263 146.985 268.485C146.985 268.756 146.922 268.992 146.797 269.193C146.672 269.395 146.505 269.561 146.297 269.693C146.089 269.825 145.847 269.923 145.573 269.985C145.302 270.051 145.016 270.084 144.714 270.084C144.13 270.084 143.625 269.987 143.198 269.792Z" fill="#E3E4E5"/>
<path d="M151.948 269.714C151.521 269.961 151.016 270.084 150.432 270.084C149.641 270.084 149.002 269.837 148.516 269.344C148.03 268.848 147.786 268.206 147.786 267.417C147.786 266.539 148.047 265.834 148.568 265.303C149.092 264.768 149.792 264.501 150.667 264.501C151.153 264.501 151.582 264.586 151.953 264.756V265.881C151.582 265.603 151.186 265.464 150.766 265.464C150.255 265.464 149.837 265.638 149.51 265.985C149.184 266.329 149.021 266.78 149.021 267.339C149.021 267.891 149.174 268.327 149.479 268.647C149.788 268.966 150.201 269.126 150.719 269.126C151.153 269.126 151.563 268.971 151.948 268.662V269.714Z" fill="#E3E4E5"/>
<path d="M157.885 269.959H156.677V267.042C156.677 265.987 156.325 265.459 155.62 265.459C155.266 265.459 154.967 265.612 154.724 265.917C154.481 266.223 154.359 266.614 154.359 267.089V269.959H153.146V262.063H154.359V265.511H154.38C154.783 264.837 155.359 264.501 156.109 264.501C157.293 264.501 157.885 265.225 157.885 266.673L157.885 269.959Z" fill="#E3E4E5"/>
<path d="M123.896 100V98.564C124.371 97.4517 125.334 96.2397 126.784 94.9282L127.722 94.0898C128.929 92.9997 129.532 91.9178 129.532 90.8442C129.532 90.158 129.324 89.6185 128.909 89.2256C128.5 88.8327 127.932 88.6362 127.208 88.6362C126.361 88.6362 125.359 88.9655 124.203 89.624V88.1797C125.293 87.665 126.377 87.4077 127.457 87.4077C128.608 87.4077 129.529 87.7176 130.221 88.3374C130.918 88.9572 131.267 89.779 131.267 90.8027C131.267 91.5387 131.09 92.1917 130.735 92.7617C130.387 93.3317 129.734 94.0234 128.776 94.8369L128.146 95.3765C126.834 96.4888 126.076 97.5513 125.871 98.564H131.208V100H123.896ZM138.621 100.307C137.332 100.307 136.291 99.7178 135.5 98.5391C134.714 97.3548 134.321 95.7943 134.321 93.8574C134.321 91.9206 134.714 90.3628 135.5 89.1841C136.291 87.9998 137.332 87.4077 138.621 87.4077C139.916 87.4077 140.956 87.9971 141.742 89.1758C142.528 90.3545 142.921 91.915 142.921 93.8574C142.921 95.7943 142.528 97.3548 141.742 98.5391C140.956 99.7178 139.916 100.307 138.621 100.307ZM138.621 99.0786C140.331 99.0786 141.186 97.3382 141.186 93.8574C141.186 90.3766 140.331 88.6362 138.621 88.6362C136.917 88.6362 136.064 90.3766 136.064 93.8574C136.064 97.3382 136.917 99.0786 138.621 99.0786ZM145.411 100V98.564C145.887 97.4517 146.85 96.2397 148.3 94.9282L149.238 94.0898C150.444 92.9997 151.047 91.9178 151.047 90.8442C151.047 90.158 150.84 89.6185 150.425 89.2256C150.015 88.8327 149.448 88.6362 148.723 88.6362C147.876 88.6362 146.875 88.9655 145.718 89.624V88.1797C146.808 87.665 147.893 87.4077 148.972 87.4077C150.123 87.4077 151.045 87.7176 151.736 88.3374C152.434 88.9572 152.782 89.779 152.782 90.8027C152.782 91.5387 152.605 92.1917 152.251 92.7617C151.902 93.3317 151.249 94.0234 150.292 94.8369L149.661 95.3765C148.35 96.4888 147.591 97.5513 147.387 98.564H152.724V100H145.411ZM161.158 100V96.522H155.629V95.2852L161.158 87.7148H162.693V95.1855H164.337V96.522H162.693V100H161.158ZM157.231 95.1855H161.266V89.7236L157.231 95.1855Z" fill="#E3E4E5"/>
<path d="M111.198 190H107.917L107.937 187.416H111.198C111.943 187.416 112.572 187.245 113.084 186.903C113.597 186.555 113.987 186.042 114.253 185.365C114.52 184.682 114.653 183.851 114.653 182.874V182.187C114.653 181.448 114.578 180.799 114.428 180.238C114.277 179.671 114.055 179.196 113.761 178.813C113.467 178.43 113.102 178.143 112.664 177.952C112.233 177.76 111.738 177.665 111.177 177.665H107.855V175.07H111.177C112.189 175.07 113.112 175.241 113.946 175.583C114.787 175.925 115.511 176.414 116.12 177.049C116.735 177.685 117.21 178.437 117.545 179.305C117.88 180.173 118.047 181.141 118.047 182.207V182.874C118.047 183.933 117.88 184.9 117.545 185.775C117.21 186.644 116.735 187.396 116.12 188.031C115.511 188.66 114.79 189.146 113.956 189.487C113.122 189.829 112.203 190 111.198 190ZM109.813 175.07V190H106.471V175.07H109.813ZM119.462 184.565V184.35C119.462 183.537 119.579 182.788 119.811 182.104C120.043 181.414 120.385 180.816 120.836 180.31C121.288 179.804 121.841 179.411 122.498 179.131C123.154 178.844 123.906 178.7 124.753 178.7C125.615 178.7 126.374 178.844 127.03 179.131C127.693 179.411 128.25 179.804 128.701 180.31C129.152 180.816 129.494 181.414 129.727 182.104C129.959 182.788 130.075 183.537 130.075 184.35V184.565C130.075 185.372 129.959 186.121 129.727 186.811C129.494 187.495 129.152 188.093 128.701 188.605C128.25 189.111 127.696 189.504 127.04 189.785C126.384 190.065 125.628 190.205 124.774 190.205C123.926 190.205 123.171 190.065 122.508 189.785C121.845 189.504 121.288 189.111 120.836 188.605C120.385 188.093 120.043 187.495 119.811 186.811C119.579 186.121 119.462 185.372 119.462 184.565ZM122.672 184.35V184.565C122.672 185.003 122.706 185.413 122.774 185.796C122.85 186.179 122.969 186.514 123.133 186.801C123.297 187.088 123.513 187.313 123.779 187.478C124.053 187.635 124.384 187.713 124.774 187.713C125.164 187.713 125.492 187.635 125.758 187.478C126.025 187.313 126.24 187.088 126.404 186.801C126.568 186.514 126.685 186.179 126.753 185.796C126.828 185.413 126.866 185.003 126.866 184.565V184.35C126.866 183.919 126.828 183.516 126.753 183.14C126.685 182.757 126.568 182.419 126.404 182.125C126.24 181.831 126.021 181.602 125.748 181.438C125.481 181.274 125.15 181.192 124.753 181.192C124.371 181.192 124.046 181.274 123.779 181.438C123.513 181.602 123.297 181.831 123.133 182.125C122.969 182.419 122.85 182.757 122.774 183.14C122.706 183.516 122.672 183.919 122.672 184.35ZM134.966 181.233V190H131.767V178.905H134.771L134.966 181.233ZM134.556 184.063L133.746 184.083C133.746 183.304 133.838 182.59 134.023 181.94C134.214 181.284 134.491 180.713 134.854 180.228C135.216 179.743 135.664 179.367 136.197 179.1C136.737 178.833 137.359 178.7 138.063 178.7C138.555 178.7 139.003 178.775 139.406 178.926C139.81 179.069 140.155 179.298 140.442 179.613C140.736 179.92 140.961 180.324 141.119 180.823C141.276 181.315 141.354 181.906 141.354 182.597V190H138.155V182.986C138.155 182.494 138.094 182.122 137.971 181.869C137.854 181.609 137.684 181.431 137.458 181.335C137.232 181.24 136.962 181.192 136.648 181.192C136.306 181.192 136.002 181.267 135.735 181.417C135.476 181.561 135.257 181.763 135.079 182.022C134.901 182.282 134.768 182.586 134.679 182.935C134.597 183.284 134.556 183.66 134.556 184.063ZM141.026 183.899L140.011 183.981C140.011 183.229 140.1 182.532 140.278 181.889C140.456 181.247 140.722 180.689 141.078 180.218C141.433 179.739 141.874 179.367 142.4 179.1C142.934 178.833 143.552 178.7 144.256 178.7C144.776 178.7 145.248 178.775 145.671 178.926C146.102 179.076 146.471 179.319 146.779 179.654C147.093 179.989 147.336 180.43 147.507 180.977C147.678 181.517 147.763 182.18 147.763 182.966V190H144.543V182.966C144.543 182.48 144.482 182.111 144.359 181.858C144.243 181.605 144.072 181.431 143.846 181.335C143.627 181.24 143.364 181.192 143.057 181.192C142.715 181.192 142.417 181.264 142.165 181.407C141.912 181.544 141.7 181.735 141.529 181.981C141.358 182.221 141.231 182.504 141.149 182.833C141.067 183.161 141.026 183.516 141.026 183.899ZM155.782 187.354V182.597C155.782 182.262 155.73 181.975 155.628 181.735C155.525 181.496 155.365 181.308 155.146 181.171C154.927 181.035 154.644 180.966 154.295 180.966C154.001 180.966 153.745 181.018 153.526 181.12C153.314 181.223 153.15 181.37 153.034 181.561C152.924 181.752 152.87 181.988 152.87 182.269H149.67C149.67 181.77 149.783 181.305 150.009 180.874C150.234 180.443 150.556 180.064 150.973 179.736C151.396 179.408 151.902 179.155 152.49 178.977C153.078 178.792 153.738 178.7 154.469 178.7C155.337 178.7 156.11 178.847 156.787 179.141C157.47 179.428 158.01 179.862 158.407 180.443C158.803 181.018 159.001 181.742 159.001 182.617V187.262C159.001 187.932 159.039 188.458 159.114 188.841C159.196 189.217 159.312 189.545 159.463 189.826V190H156.233C156.083 189.679 155.97 189.282 155.895 188.811C155.819 188.332 155.782 187.847 155.782 187.354ZM156.182 183.232L156.202 184.996H154.613C154.257 184.996 153.95 185.041 153.69 185.129C153.437 185.218 153.232 185.341 153.075 185.499C152.917 185.649 152.801 185.827 152.726 186.032C152.658 186.23 152.624 186.449 152.624 186.688C152.624 186.914 152.678 187.119 152.788 187.303C152.897 187.481 153.047 187.621 153.239 187.724C153.43 187.826 153.652 187.877 153.905 187.877C154.322 187.877 154.678 187.795 154.972 187.631C155.272 187.467 155.505 187.269 155.669 187.037C155.833 186.797 155.915 186.575 155.915 186.37L156.684 187.703C156.561 187.977 156.411 188.26 156.233 188.554C156.055 188.841 155.83 189.111 155.556 189.364C155.283 189.61 154.951 189.812 154.562 189.969C154.179 190.126 153.717 190.205 153.177 190.205C152.48 190.205 151.848 190.065 151.28 189.785C150.713 189.498 150.258 189.104 149.917 188.605C149.582 188.106 149.414 187.532 149.414 186.883C149.414 186.302 149.52 185.786 149.732 185.334C149.944 184.883 150.262 184.5 150.686 184.186C151.116 183.872 151.656 183.636 152.306 183.479C152.955 183.314 153.714 183.232 154.582 183.232H156.182ZM164.477 178.905V190H161.268V178.905H164.477ZM161.073 176.034C161.073 175.569 161.237 175.19 161.565 174.896C161.893 174.595 162.324 174.445 162.857 174.445C163.39 174.445 163.821 174.595 164.149 174.896C164.484 175.19 164.651 175.569 164.651 176.034C164.651 176.492 164.484 176.872 164.149 177.172C163.821 177.466 163.39 177.613 162.857 177.613C162.324 177.613 161.893 177.466 161.565 177.172C161.237 176.872 161.073 176.492 161.073 176.034ZM169.922 181.274V190H166.712V178.905H169.727L169.922 181.274ZM169.501 184.063L168.702 184.083C168.702 183.25 168.804 182.501 169.009 181.838C169.214 181.175 169.505 180.611 169.881 180.146C170.264 179.674 170.718 179.315 171.245 179.069C171.778 178.823 172.366 178.7 173.008 178.7C173.528 178.7 174.003 178.775 174.434 178.926C174.864 179.076 175.233 179.319 175.541 179.654C175.855 179.982 176.095 180.419 176.259 180.966C176.423 181.506 176.505 182.173 176.505 182.966V190H173.285V182.956C173.285 182.491 173.22 182.132 173.09 181.879C172.96 181.626 172.769 181.448 172.516 181.346C172.27 181.243 171.969 181.192 171.614 181.192C171.238 181.192 170.917 181.267 170.65 181.417C170.383 181.561 170.165 181.763 169.994 182.022C169.823 182.282 169.696 182.586 169.614 182.935C169.539 183.284 169.501 183.66 169.501 184.063ZM106.625 212.416V215H98.6777V212.416H106.625ZM99.8159 200.07V215H96.4731V200.07H99.8159ZM105.599 206.079V208.581H98.6777V206.079H105.599ZM106.635 200.07V202.665H98.6777V200.07H106.635ZM110.747 203.905L112.449 207.115L114.202 203.905H117.565L114.541 209.319L117.709 215H114.325L112.459 211.575L110.603 215H107.209L110.377 209.319L107.363 203.905H110.747ZM122.077 206.038V219.266H118.878V203.905H121.862L122.077 206.038ZM128.999 209.33V209.545C128.999 210.352 128.906 211.1 128.722 211.791C128.537 212.474 128.26 213.072 127.891 213.585C127.529 214.098 127.081 214.498 126.548 214.785C126.015 215.065 125.396 215.205 124.692 215.205C124.022 215.205 123.441 215.065 122.949 214.785C122.463 214.498 122.053 214.101 121.718 213.595C121.39 213.083 121.124 212.498 120.918 211.842C120.72 211.179 120.566 210.471 120.457 209.719V209.299C120.566 208.499 120.724 207.757 120.929 207.074C121.134 206.39 121.4 205.799 121.729 205.3C122.057 204.794 122.463 204.401 122.949 204.121C123.434 203.84 124.012 203.7 124.682 203.7C125.379 203.7 125.998 203.833 126.538 204.1C127.078 204.367 127.529 204.75 127.891 205.249C128.26 205.741 128.537 206.332 128.722 207.022C128.906 207.713 128.999 208.482 128.999 209.33ZM125.789 209.545V209.33C125.789 208.878 125.755 208.465 125.687 208.089C125.618 207.706 125.509 207.375 125.358 207.094C125.208 206.807 125.01 206.585 124.764 206.428C124.518 206.271 124.217 206.192 123.861 206.192C123.479 206.192 123.154 206.253 122.887 206.376C122.621 206.5 122.405 206.681 122.241 206.92C122.077 207.152 121.958 207.439 121.882 207.781C121.814 208.123 121.776 208.513 121.77 208.95V210.078C121.776 210.591 121.848 211.049 121.985 211.452C122.128 211.849 122.351 212.16 122.651 212.385C122.959 212.604 123.369 212.713 123.882 212.713C124.244 212.713 124.545 212.635 124.784 212.478C125.03 212.313 125.225 212.084 125.369 211.791C125.519 211.497 125.625 211.158 125.687 210.775C125.755 210.393 125.789 209.982 125.789 209.545ZM136.576 212.354V207.597C136.576 207.262 136.525 206.975 136.422 206.735C136.32 206.496 136.159 206.308 135.94 206.171C135.722 206.035 135.438 205.966 135.089 205.966C134.795 205.966 134.539 206.018 134.32 206.12C134.108 206.223 133.944 206.37 133.828 206.561C133.719 206.752 133.664 206.988 133.664 207.269H130.465C130.465 206.77 130.578 206.305 130.803 205.874C131.029 205.443 131.35 205.064 131.767 204.736C132.191 204.408 132.697 204.155 133.285 203.977C133.873 203.792 134.532 203.7 135.264 203.7C136.132 203.7 136.904 203.847 137.581 204.141C138.265 204.428 138.805 204.862 139.201 205.443C139.598 206.018 139.796 206.742 139.796 207.617V212.262C139.796 212.932 139.833 213.458 139.909 213.841C139.991 214.217 140.107 214.545 140.257 214.826V215H137.027C136.877 214.679 136.764 214.282 136.689 213.811C136.614 213.332 136.576 212.847 136.576 212.354ZM136.976 208.232L136.997 209.996H135.407C135.052 209.996 134.744 210.041 134.484 210.129C134.231 210.218 134.026 210.341 133.869 210.499C133.712 210.649 133.596 210.827 133.521 211.032C133.452 211.23 133.418 211.449 133.418 211.688C133.418 211.914 133.473 212.119 133.582 212.303C133.691 212.481 133.842 212.621 134.033 212.724C134.225 212.826 134.447 212.877 134.7 212.877C135.117 212.877 135.472 212.795 135.766 212.631C136.067 212.467 136.299 212.269 136.463 212.037C136.627 211.797 136.709 211.575 136.709 211.37L137.479 212.703C137.355 212.977 137.205 213.26 137.027 213.554C136.85 213.841 136.624 214.111 136.351 214.364C136.077 214.61 135.746 214.812 135.356 214.969C134.973 215.126 134.512 215.205 133.972 215.205C133.274 215.205 132.642 215.065 132.075 214.785C131.507 214.498 131.053 214.104 130.711 213.605C130.376 213.106 130.208 212.532 130.208 211.883C130.208 211.302 130.314 210.786 130.526 210.334C130.738 209.883 131.056 209.5 131.48 209.186C131.911 208.872 132.451 208.636 133.1 208.479C133.75 208.314 134.508 208.232 135.376 208.232H136.976ZM145.036 206.274V215H141.826V203.905H144.841L145.036 206.274ZM144.615 209.063L143.815 209.083C143.815 208.25 143.918 207.501 144.123 206.838C144.328 206.175 144.619 205.611 144.995 205.146C145.377 204.674 145.832 204.315 146.358 204.069C146.892 203.823 147.479 203.7 148.122 203.7C148.642 203.7 149.117 203.775 149.547 203.926C149.978 204.076 150.347 204.319 150.655 204.654C150.969 204.982 151.208 205.419 151.373 205.966C151.537 206.506 151.619 207.173 151.619 207.966V215H148.399V207.956C148.399 207.491 148.334 207.132 148.204 206.879C148.074 206.626 147.883 206.448 147.63 206.346C147.384 206.243 147.083 206.192 146.728 206.192C146.352 206.192 146.03 206.267 145.764 206.417C145.497 206.561 145.278 206.763 145.107 207.022C144.937 207.282 144.81 207.586 144.728 207.935C144.653 208.284 144.615 208.66 144.615 209.063ZM159.617 211.914C159.617 211.708 159.552 211.527 159.422 211.37C159.299 211.213 159.073 211.069 158.745 210.939C158.424 210.81 157.969 210.68 157.381 210.55C156.828 210.434 156.312 210.283 155.833 210.099C155.354 209.907 154.938 209.678 154.582 209.412C154.227 209.138 153.95 208.817 153.751 208.448C153.553 208.072 153.454 207.645 153.454 207.166C153.454 206.701 153.553 206.26 153.751 205.843C153.957 205.426 154.25 205.057 154.633 204.736C155.023 204.415 155.495 204.162 156.048 203.977C156.609 203.792 157.245 203.7 157.956 203.7C158.933 203.7 159.777 203.854 160.488 204.162C161.199 204.462 161.746 204.886 162.129 205.433C162.512 205.973 162.703 206.592 162.703 207.289H159.504C159.504 207.002 159.449 206.752 159.34 206.541C159.23 206.329 159.063 206.165 158.837 206.048C158.612 205.925 158.314 205.864 157.945 205.864C157.658 205.864 157.405 205.915 157.187 206.018C156.975 206.113 156.807 206.247 156.684 206.417C156.568 206.588 156.51 206.787 156.51 207.012C156.51 207.169 156.544 207.313 156.612 207.443C156.688 207.566 156.8 207.682 156.951 207.792C157.108 207.894 157.31 207.986 157.556 208.068C157.809 208.15 158.116 208.229 158.479 208.304C159.251 208.448 159.955 208.649 160.591 208.909C161.233 209.169 161.746 209.528 162.129 209.986C162.519 210.444 162.713 211.049 162.713 211.801C162.713 212.293 162.601 212.744 162.375 213.154C162.156 213.564 161.838 213.923 161.421 214.231C161.004 214.539 160.505 214.778 159.924 214.949C159.343 215.12 158.687 215.205 157.956 215.205C156.91 215.205 156.024 215.017 155.3 214.641C154.575 214.265 154.028 213.793 153.659 213.226C153.297 212.652 153.116 212.064 153.116 211.462H156.12C156.134 211.832 156.226 212.132 156.397 212.365C156.575 212.597 156.804 212.768 157.084 212.877C157.364 212.98 157.679 213.031 158.027 213.031C158.376 213.031 158.667 212.983 158.899 212.888C159.131 212.792 159.309 212.662 159.432 212.498C159.555 212.327 159.617 212.132 159.617 211.914ZM167.871 203.905V215H164.662V203.905H167.871ZM164.467 201.034C164.467 200.569 164.631 200.19 164.959 199.896C165.287 199.595 165.718 199.445 166.251 199.445C166.784 199.445 167.215 199.595 167.543 199.896C167.878 200.19 168.045 200.569 168.045 201.034C168.045 201.492 167.878 201.872 167.543 202.172C167.215 202.466 166.784 202.613 166.251 202.613C165.718 202.613 165.287 202.466 164.959 202.172C164.631 201.872 164.467 201.492 164.467 201.034ZM169.717 209.565V209.35C169.717 208.537 169.833 207.788 170.065 207.104C170.298 206.414 170.64 205.816 171.091 205.31C171.542 204.804 172.096 204.411 172.752 204.131C173.408 203.844 174.16 203.7 175.008 203.7C175.869 203.7 176.628 203.844 177.284 204.131C177.947 204.411 178.504 204.804 178.956 205.31C179.407 205.816 179.749 206.414 179.981 207.104C180.213 207.788 180.33 208.537 180.33 209.35V209.565C180.33 210.372 180.213 211.121 179.981 211.811C179.749 212.495 179.407 213.093 178.956 213.605C178.504 214.111 177.951 214.504 177.294 214.785C176.638 215.065 175.883 215.205 175.028 215.205C174.181 215.205 173.425 215.065 172.762 214.785C172.099 214.504 171.542 214.111 171.091 213.605C170.64 213.093 170.298 212.495 170.065 211.811C169.833 211.121 169.717 210.372 169.717 209.565ZM172.926 209.35V209.565C172.926 210.003 172.96 210.413 173.029 210.796C173.104 211.179 173.224 211.514 173.388 211.801C173.552 212.088 173.767 212.313 174.034 212.478C174.307 212.635 174.639 212.713 175.028 212.713C175.418 212.713 175.746 212.635 176.013 212.478C176.279 212.313 176.495 212.088 176.659 211.801C176.823 211.514 176.939 211.179 177.007 210.796C177.083 210.413 177.12 210.003 177.12 209.565V209.35C177.12 208.919 177.083 208.516 177.007 208.14C176.939 207.757 176.823 207.419 176.659 207.125C176.495 206.831 176.276 206.602 176.002 206.438C175.736 206.274 175.404 206.192 175.008 206.192C174.625 206.192 174.3 206.274 174.034 206.438C173.767 206.602 173.552 206.831 173.388 207.125C173.224 207.419 173.104 207.757 173.029 208.14C172.96 208.516 172.926 208.919 172.926 209.35ZM185.149 206.274V215H181.939V203.905H184.954L185.149 206.274ZM184.729 209.063L183.929 209.083C183.929 208.25 184.031 207.501 184.236 206.838C184.441 206.175 184.732 205.611 185.108 205.146C185.491 204.674 185.945 204.315 186.472 204.069C187.005 203.823 187.593 203.7 188.235 203.7C188.755 203.7 189.23 203.775 189.661 203.926C190.091 204.076 190.46 204.319 190.768 204.654C191.083 204.982 191.322 205.419 191.486 205.966C191.65 206.506 191.732 207.173 191.732 207.966V215H188.512V207.956C188.512 207.491 188.447 207.132 188.317 206.879C188.188 206.626 187.996 206.448 187.743 206.346C187.497 206.243 187.196 206.192 186.841 206.192C186.465 206.192 186.144 206.267 185.877 206.417C185.61 206.561 185.392 206.763 185.221 207.022C185.05 207.282 184.923 207.586 184.841 207.935C184.766 208.284 184.729 208.66 184.729 209.063ZM111.782 235.365V225.07H115.104V235.365C115.104 236.363 114.879 237.225 114.428 237.949C113.983 238.667 113.378 239.224 112.613 239.621C111.854 240.01 110.996 240.205 110.039 240.205C109.055 240.205 108.18 240.041 107.414 239.713C106.648 239.378 106.047 238.869 105.609 238.185C105.179 237.495 104.963 236.616 104.963 235.55H108.306C108.306 236.076 108.371 236.493 108.501 236.801C108.638 237.102 108.836 237.313 109.096 237.437C109.355 237.56 109.67 237.621 110.039 237.621C110.395 237.621 110.702 237.536 110.962 237.365C111.222 237.187 111.423 236.931 111.567 236.596C111.71 236.254 111.782 235.844 111.782 235.365ZM123.554 235.365V225.07H126.876V235.365C126.876 236.363 126.65 237.225 126.199 237.949C125.755 238.667 125.15 239.224 124.384 239.621C123.625 240.01 122.768 240.205 121.811 240.205C120.826 240.205 119.951 240.041 119.186 239.713C118.42 239.378 117.818 238.869 117.381 238.185C116.95 237.495 116.735 236.616 116.735 235.55H120.078C120.078 236.076 120.143 236.493 120.272 236.801C120.409 237.102 120.607 237.313 120.867 237.437C121.127 237.56 121.441 237.621 121.811 237.621C122.166 237.621 122.474 237.536 122.733 237.365C122.993 237.187 123.195 236.931 123.338 236.596C123.482 236.254 123.554 235.844 123.554 235.365ZM135.069 236.914C135.069 236.708 135.004 236.527 134.874 236.37C134.751 236.213 134.525 236.069 134.197 235.939C133.876 235.81 133.421 235.68 132.833 235.55C132.28 235.434 131.764 235.283 131.285 235.099C130.807 234.907 130.39 234.678 130.034 234.412C129.679 234.138 129.402 233.817 129.204 233.448C129.005 233.072 128.906 232.645 128.906 232.166C128.906 231.701 129.005 231.26 129.204 230.843C129.409 230.426 129.703 230.057 130.085 229.736C130.475 229.415 130.947 229.162 131.5 228.977C132.061 228.792 132.697 228.7 133.408 228.7C134.385 228.7 135.229 228.854 135.94 229.162C136.651 229.462 137.198 229.886 137.581 230.433C137.964 230.973 138.155 231.592 138.155 232.289H134.956C134.956 232.002 134.901 231.752 134.792 231.541C134.683 231.329 134.515 231.165 134.29 231.048C134.064 230.925 133.767 230.864 133.397 230.864C133.11 230.864 132.857 230.915 132.639 231.018C132.427 231.113 132.259 231.247 132.136 231.417C132.02 231.588 131.962 231.787 131.962 232.012C131.962 232.169 131.996 232.313 132.064 232.443C132.14 232.566 132.252 232.682 132.403 232.792C132.56 232.894 132.762 232.986 133.008 233.068C133.261 233.15 133.568 233.229 133.931 233.304C134.703 233.448 135.407 233.649 136.043 233.909C136.686 234.169 137.198 234.528 137.581 234.986C137.971 235.444 138.166 236.049 138.166 236.801C138.166 237.293 138.053 237.744 137.827 238.154C137.608 238.564 137.291 238.923 136.874 239.231C136.457 239.539 135.958 239.778 135.376 239.949C134.795 240.12 134.139 240.205 133.408 240.205C132.362 240.205 131.477 240.017 130.752 239.641C130.027 239.265 129.48 238.793 129.111 238.226C128.749 237.652 128.568 237.064 128.568 236.462H131.572C131.586 236.832 131.678 237.132 131.849 237.365C132.027 237.597 132.256 237.768 132.536 237.877C132.816 237.98 133.131 238.031 133.479 238.031C133.828 238.031 134.119 237.983 134.351 237.888C134.583 237.792 134.761 237.662 134.884 237.498C135.007 237.327 135.069 237.132 135.069 236.914ZM157.658 225.07V240H154.326L148.686 230.351V240H145.343V225.07H148.686L154.336 234.719V225.07H157.658ZM166.477 237.324V228.905H169.696V240H166.682L166.477 237.324ZM166.815 235.058L167.697 235.037C167.697 235.782 167.608 236.469 167.43 237.098C167.259 237.727 167 238.274 166.651 238.739C166.309 239.204 165.882 239.566 165.369 239.826C164.863 240.079 164.272 240.205 163.595 240.205C163.048 240.205 162.546 240.13 162.088 239.979C161.637 239.822 161.247 239.58 160.919 239.251C160.591 238.917 160.338 238.489 160.16 237.97C159.982 237.443 159.894 236.814 159.894 236.083V228.905H163.093V236.104C163.093 236.391 163.127 236.637 163.195 236.842C163.271 237.04 163.37 237.204 163.493 237.334C163.623 237.464 163.78 237.56 163.964 237.621C164.156 237.683 164.364 237.713 164.59 237.713C165.157 237.713 165.602 237.597 165.923 237.365C166.251 237.125 166.48 236.808 166.61 236.411C166.747 236.008 166.815 235.557 166.815 235.058ZM177.417 228.905V231.151H170.834V228.905H177.417ZM172.342 226.157H175.551V236.524C175.551 236.832 175.589 237.067 175.664 237.231C175.739 237.396 175.862 237.512 176.033 237.58C176.204 237.642 176.423 237.672 176.689 237.672C176.881 237.672 177.045 237.666 177.182 237.652C177.318 237.638 177.445 237.621 177.561 237.601V239.918C177.288 240.007 176.997 240.075 176.689 240.123C176.382 240.178 176.047 240.205 175.685 240.205C174.994 240.205 174.396 240.092 173.89 239.867C173.391 239.641 173.008 239.286 172.742 238.8C172.475 238.308 172.342 237.669 172.342 236.883V226.157ZM184.862 236.914C184.862 236.708 184.797 236.527 184.667 236.37C184.544 236.213 184.318 236.069 183.99 235.939C183.669 235.81 183.214 235.68 182.626 235.55C182.073 235.434 181.557 235.283 181.078 235.099C180.6 234.907 180.183 234.678 179.827 234.412C179.472 234.138 179.195 233.817 178.997 233.448C178.798 233.072 178.699 232.645 178.699 232.166C178.699 231.701 178.798 231.26 178.997 230.843C179.202 230.426 179.496 230.057 179.878 229.736C180.268 229.415 180.74 229.162 181.293 228.977C181.854 228.792 182.49 228.7 183.201 228.7C184.178 228.7 185.022 228.854 185.733 229.162C186.444 229.462 186.991 229.886 187.374 230.433C187.757 230.973 187.948 231.592 187.948 232.289H184.749C184.749 232.002 184.694 231.752 184.585 231.541C184.476 231.329 184.308 231.165 184.083 231.048C183.857 230.925 183.56 230.864 183.19 230.864C182.903 230.864 182.65 230.915 182.432 231.018C182.22 231.113 182.052 231.247 181.929 231.417C181.813 231.588 181.755 231.787 181.755 232.012C181.755 232.169 181.789 232.313 181.857 232.443C181.933 232.566 182.045 232.682 182.196 232.792C182.353 232.894 182.555 232.986 182.801 233.068C183.054 233.15 183.361 233.229 183.724 233.304C184.496 233.448 185.2 233.649 185.836 233.909C186.479 234.169 186.991 234.528 187.374 234.986C187.764 235.444 187.958 236.049 187.958 236.801C187.958 237.293 187.846 237.744 187.62 238.154C187.401 238.564 187.083 238.923 186.667 239.231C186.25 239.539 185.75 239.778 185.169 239.949C184.588 240.12 183.932 240.205 183.201 240.205C182.155 240.205 181.27 240.017 180.545 239.641C179.82 239.265 179.273 238.793 178.904 238.226C178.542 237.652 178.361 237.064 178.361 236.462H181.365C181.379 236.832 181.471 237.132 181.642 237.365C181.82 237.597 182.049 237.768 182.329 237.877C182.609 237.98 182.924 238.031 183.272 238.031C183.621 238.031 183.912 237.983 184.144 237.888C184.376 237.792 184.554 237.662 184.677 237.498C184.8 237.327 184.862 237.132 184.862 236.914Z" fill="#E3E4E5"/>
<defs>
<linearGradient id="paint0_linear_510_1166" x1="155.367" y1="330.375" x2="156.228" y2="331.574" gradientUnits="userSpaceOnUse">
<stop stop-color="#B9BABC"/>
<stop offset="0.332298" stop-color="#6F7072"/>
<stop offset="0.505068" stop-color="#1F2022"/>
<stop offset="0.691743" stop-color="#6F7072"/>
<stop offset="1" stop-color="#B9BABC"/>
</linearGradient>
<linearGradient id="paint1_linear_510_1166" x1="155.543" y1="329.925" x2="156.642" y2="331.732" gradientUnits="userSpaceOnUse">
<stop stop-color="#1D1E20"/>
<stop offset="1" stop-color="#CBCCCE"/>
</linearGradient>
<linearGradient id="paint2_linear_510_1166" x1="147.012" y1="328.833" x2="147.157" y2="330.24" gradientUnits="userSpaceOnUse">
<stop stop-color="#B9BABC"/>
<stop offset="0.332298" stop-color="#6F7072"/>
<stop offset="0.505068" stop-color="#1F2022"/>
<stop offset="0.691743" stop-color="#6F7072"/>
<stop offset="1" stop-color="#B9BABC"/>
</linearGradient>
<linearGradient id="paint3_linear_510_1166" x1="147.373" y1="328.543" x2="147.425" y2="330.568" gradientUnits="userSpaceOnUse">
<stop stop-color="#1D1E20"/>
<stop offset="1" stop-color="#CBCCCE"/>
</linearGradient>
<linearGradient id="paint4_linear_510_1166" x1="143.261" y1="324.512" x2="159.187" y2="330.602" gradientUnits="userSpaceOnUse">
<stop stop-opacity="0"/>
<stop offset="0.094718"/>
<stop offset="0.397666"/>
<stop offset="0.724935"/>
<stop offset="1" stop-opacity="0"/>
</linearGradient>
<linearGradient id="paint5_linear_510_1166" x1="122.564" y1="332.338" x2="144.539" y2="317.771" gradientUnits="userSpaceOnUse">
<stop stop-color="#CACACD"/>
<stop offset="1" stop-color="#D4D4D4"/>
</linearGradient>
<linearGradient id="paint6_linear_510_1166" x1="122.564" y1="332.338" x2="144.539" y2="317.771" gradientUnits="userSpaceOnUse">
<stop stop-color="#CACACD"/>
<stop offset="1" stop-color="#D4D4D4"/>
</linearGradient>
<linearGradient id="paint7_linear_510_1166" x1="122.564" y1="332.338" x2="144.539" y2="317.771" gradientUnits="userSpaceOnUse">
<stop stop-color="#CACACD"/>
<stop offset="1" stop-color="#D4D4D4"/>
</linearGradient>
<linearGradient id="paint8_linear_510_1166" x1="122.564" y1="332.339" x2="144.539" y2="317.771" gradientUnits="userSpaceOnUse">
<stop stop-color="#CACACD"/>
<stop offset="1" stop-color="#D4D4D4"/>
</linearGradient>
<linearGradient id="paint9_linear_510_1166" x1="122.564" y1="332.339" x2="144.539" y2="317.771" gradientUnits="userSpaceOnUse">
<stop stop-color="#CACACD"/>
<stop offset="1" stop-color="#D4D4D4"/>
</linearGradient>
<linearGradient id="paint10_linear_510_1166" x1="122.564" y1="332.338" x2="144.539" y2="317.771" gradientUnits="userSpaceOnUse">
<stop stop-color="#CACACD"/>
<stop offset="1" stop-color="#D4D4D4"/>
</linearGradient>
<linearGradient id="paint11_linear_510_1166" x1="132.115" y1="307.165" x2="131.693" y2="312.105" gradientUnits="userSpaceOnUse">
<stop stop-color="#CDCDCF"/>
<stop offset="0.583118" stop-color="#CCCCCE"/>
<stop offset="0.751085" stop-color="#929295"/>
<stop offset="0.891675" stop-color="#CCCCCE"/>
<stop offset="1" stop-color="#CDCDCF"/>
</linearGradient>
<linearGradient id="paint12_linear_510_1166" x1="133.285" y1="306.964" x2="133.064" y2="307.912" gradientUnits="userSpaceOnUse">
<stop stop-color="#B9BABC"/>
<stop offset="0.332298" stop-color="#6F7072"/>
<stop offset="0.505068" stop-color="#1F2022"/>
<stop offset="0.691743" stop-color="#6F7072"/>
<stop offset="1" stop-color="#B9BABC"/>
</linearGradient>
<linearGradient id="paint13_linear_510_1166" x1="133.522" y1="306.842" x2="133.047" y2="308.169" gradientUnits="userSpaceOnUse">
<stop stop-color="#1D1E20"/>
<stop offset="1" stop-color="#CBCCCE"/>
</linearGradient>
<linearGradient id="paint14_linear_510_1166" x1="132.734" y1="308.288" x2="132.513" y2="309.236" gradientUnits="userSpaceOnUse">
<stop stop-color="#B9BABC"/>
<stop offset="0.332298" stop-color="#6F7072"/>
<stop offset="0.505068" stop-color="#1F2022"/>
<stop offset="0.691743" stop-color="#6F7072"/>
<stop offset="1" stop-color="#B9BABC"/>
</linearGradient>
<linearGradient id="paint15_linear_510_1166" x1="132.972" y1="308.166" x2="132.497" y2="309.493" gradientUnits="userSpaceOnUse">
<stop stop-color="#1D1E20"/>
<stop offset="1" stop-color="#CBCCCE"/>
</linearGradient>
<linearGradient id="paint16_linear_510_1166" x1="145.389" y1="327.819" x2="151.036" y2="323.622" gradientUnits="userSpaceOnUse">
<stop stop-color="#CDCDCF"/>
<stop offset="0.583118" stop-color="#CCCCCE"/>
<stop offset="0.751085" stop-color="#929295"/>
<stop offset="0.891675" stop-color="#CCCCCE"/>
<stop offset="1" stop-color="#CDCDCF"/>
</linearGradient>
<linearGradient id="paint17_linear_510_1166" x1="147.126" y1="325.387" x2="147.401" y2="326.293" gradientUnits="userSpaceOnUse">
<stop stop-color="#B9BABC"/>
<stop offset="0.332298" stop-color="#6F7072"/>
<stop offset="0.505068" stop-color="#1F2022"/>
<stop offset="0.691743" stop-color="#6F7072"/>
<stop offset="1" stop-color="#B9BABC"/>
</linearGradient>
<linearGradient id="paint18_linear_510_1166" x1="147.334" y1="324.915" x2="147.864" y2="326.462" gradientUnits="userSpaceOnUse">
<stop stop-color="#1D1E20"/>
<stop offset="1" stop-color="#CBCCCE"/>
</linearGradient>
<linearGradient id="paint19_linear_510_1166" x1="148.925" y1="324.548" x2="147.909" y2="324.646" gradientUnits="userSpaceOnUse">
<stop stop-color="#B9BABC"/>
<stop offset="0.332298" stop-color="#6F7072"/>
<stop offset="0.505068" stop-color="#1F2022"/>
<stop offset="0.691743" stop-color="#6F7072"/>
<stop offset="1" stop-color="#B9BABC"/>
</linearGradient>
<linearGradient id="paint20_linear_510_1166" x1="149.132" y1="324.81" x2="147.671" y2="324.838" gradientUnits="userSpaceOnUse">
<stop stop-color="#1D1E20"/>
<stop offset="1" stop-color="#CBCCCE"/>
</linearGradient>
</defs>
</svg>
