<svg width="288" height="432" viewBox="0 0 288 432" fill="none" xmlns="http://www.w3.org/2000/svg">
<path d="M256.96 42.22V48.22H31.05V42.22H256.96Z" fill="#333333"/>
<path d="M25.17 57.09C24.3743 57.09 23.6113 56.7739 23.0487 56.2113C22.4861 55.6487 22.17 54.8856 22.17 54.09V36.34C22.17 35.5444 22.4861 34.7813 23.0487 34.2187C23.6113 33.6561 24.3743 33.34 25.17 33.34C25.9656 33.34 26.7287 33.6561 27.2913 34.2187C27.8539 34.7813 28.17 35.5444 28.17 36.34V54.09C28.17 54.8856 27.8539 55.6487 27.2913 56.2113C26.7287 56.7739 25.9656 57.09 25.17 57.09Z" fill="#333333"/>
<path d="M262.83 57.09C262.034 57.09 261.271 56.7739 260.709 56.2113C260.146 55.6487 259.83 54.8856 259.83 54.09V36.34C259.83 35.5444 260.146 34.7813 260.709 34.2187C261.271 33.6561 262.034 33.34 262.83 33.34C263.626 33.34 264.389 33.6561 264.951 34.2187C265.514 34.7813 265.83 35.5444 265.83 36.34V54.09C265.83 54.8856 265.514 55.6487 264.951 56.2113C264.389 56.7739 263.626 57.09 262.83 57.09Z" fill="#333333"/>
<path opacity="0.2" d="M50.34 66.67V397C50.341 397.262 50.4041 397.52 50.524 397.753C50.6439 397.986 50.8173 398.187 51.0299 398.341C51.2425 398.494 51.4884 398.594 51.7474 398.634C52.0064 398.674 52.2712 398.652 52.52 398.57L153.52 364.82C153.846 364.719 154.194 364.719 154.52 364.82L255.52 398.57C255.769 398.652 256.034 398.674 256.293 398.634C256.552 398.594 256.798 398.494 257.01 398.341C257.223 398.187 257.396 397.986 257.516 397.753C257.636 397.52 257.699 397.262 257.7 397V66.67C257.703 66.4474 257.661 66.2265 257.576 66.0206C257.491 65.8148 257.365 65.6282 257.206 65.4722C257.048 65.3161 256.859 65.1939 256.652 65.1127C256.444 65.0316 256.223 64.9932 256 65H52C51.7808 64.9987 51.5635 65.041 51.3609 65.1246C51.1582 65.2082 50.9742 65.3313 50.8197 65.4868C50.6651 65.6422 50.5431 65.8269 50.4608 66.0301C50.3784 66.2333 50.3374 66.4508 50.34 66.67Z" fill="#231F20"/>
<path d="M42.0001 58.6V384.6C41.9992 384.859 42.0602 385.115 42.1779 385.346C42.2956 385.576 42.4666 385.776 42.6768 385.927C42.887 386.079 43.1303 386.178 43.3865 386.217C43.6427 386.256 43.9045 386.233 44.1501 386.15L143.78 352.84C144.106 352.738 144.454 352.738 144.78 352.84L244.41 386.15C244.656 386.233 244.917 386.256 245.174 386.217C245.43 386.178 245.673 386.079 245.883 385.927C246.093 385.776 246.265 385.576 246.382 385.346C246.5 385.115 246.561 384.859 246.56 384.6V58.6C246.55 58.1805 246.38 57.7809 246.084 57.4832C245.788 57.1856 245.389 57.0127 244.97 57H43.6301C43.2037 57.0025 42.795 57.1709 42.4907 57.4696C42.1865 57.7683 42.0105 58.1737 42.0001 58.6Z" fill="#4D1919"/>
<path d="M244.66 389.21C244.164 389.213 243.671 389.136 243.2 388.98L144 355.81L44.8 389C44.1031 389.231 43.3613 389.293 42.6356 389.182C41.9099 389.07 41.221 388.788 40.6256 388.359C40.0301 387.929 39.5451 387.365 39.2103 386.711C38.8756 386.058 38.7007 385.334 38.7 384.6V58.6C38.7105 57.3781 39.2027 56.2096 40.0695 55.3484C40.9364 54.4871 42.108 54.0026 43.33 54H244.67C245.899 54.0026 247.077 54.4927 247.945 55.3626C248.813 56.2324 249.3 57.4111 249.3 58.64V384.64C249.3 385.375 249.125 386.099 248.789 386.753C248.453 387.407 247.967 387.971 247.37 388.4C246.575 388.949 245.626 389.233 244.66 389.21ZM144 349.74C144.5 349.74 144.996 349.821 145.47 349.98L243.3 382.68V60H44.7V382.68L142.53 350C143.002 349.833 143.499 349.746 144 349.74Z" fill="#4D1919"/>
<path d="M238.05 376.68L147.13 346.28C145.097 345.61 142.903 345.61 140.87 346.28L50 376.68V66.5H238.1L238.05 376.68ZM53.45 70V371.82L139.76 343C142.513 342.09 145.487 342.09 148.24 343L234.55 371.86V70H53.45Z" fill="#E3E4E5"/>
<path d="M222.815 153.45C222.708 153.46 222.601 153.46 222.495 153.45C202.355 149.78 173.585 147.68 143.565 147.68C114.005 147.68 85.5646 149.68 65.4646 153.3C65.0072 153.381 64.5363 153.277 64.1557 153.01C63.7751 152.744 63.5158 152.337 63.435 151.88C63.3541 151.422 63.4582 150.952 63.7244 150.571C63.9907 150.19 64.3972 149.931 64.8546 149.85C85.1246 146.25 113.855 144.18 143.565 144.18C173.785 144.18 202.785 146.3 223.125 150.01C223.552 150.09 223.935 150.327 224.197 150.673C224.46 151.02 224.584 151.452 224.545 151.886C224.507 152.319 224.308 152.722 223.988 153.017C223.668 153.312 223.25 153.477 222.815 153.48V153.45Z" fill="#E3E4E5"/>
<path d="M85.2313 136.943C83.8418 137.616 82.0276 137.952 79.7885 137.952C76.868 137.952 74.5714 137.094 72.8988 135.377C71.2261 133.66 70.3898 131.372 70.3898 128.514C70.3898 125.469 71.3279 123 73.2041 121.106C75.0891 119.212 77.5317 118.265 80.5319 118.265C82.3904 118.265 83.9569 118.5 85.2313 118.969V123.097C83.9569 122.336 82.5055 121.956 80.8771 121.956C79.0893 121.956 77.6468 122.518 76.5494 123.642C75.452 124.766 74.9033 126.288 74.9033 128.208C74.9033 130.049 75.421 131.518 76.4565 132.616C77.4919 133.704 78.8858 134.248 80.6381 134.248C82.3108 134.248 83.8418 133.841 85.2313 133.027V136.943Z" fill="#E3E4E5"/>
<path d="M105.024 137.62H100.723V129.868H92.8379V137.62H88.55V118.584H92.8379V126.177H100.723V118.584H105.024V137.62Z" fill="#E3E4E5"/>
<path d="M126.118 137.62H121.446L120.092 133.386H113.321L111.98 137.62H107.334L114.264 118.584H119.348L126.118 137.62ZM119.109 130.093L117.065 123.695C116.914 123.217 116.808 122.646 116.746 121.982H116.64C116.596 122.54 116.485 123.093 116.308 123.642L114.237 130.093H119.109Z" fill="#E3E4E5"/>
<path d="M150.186 137.62H145.951V126.23C145.951 125 146.004 123.642 146.111 122.155H146.004C145.783 123.323 145.584 124.164 145.407 124.677L140.947 137.62H137.442L132.902 124.81C132.778 124.465 132.579 123.58 132.305 122.155H132.185C132.3 124.031 132.358 125.677 132.358 127.093V137.62H128.495V118.584H134.774L138.663 129.868C138.973 130.77 139.199 131.678 139.34 132.589H139.42C139.659 131.536 139.911 130.62 140.177 129.841L144.066 118.584H150.186L150.186 137.62Z" fill="#E3E4E5"/>
<path d="M158.802 131.062V137.62H154.514V118.584H161.231C166.028 118.584 168.426 120.606 168.426 124.651C168.426 126.562 167.736 128.111 166.355 129.297C164.983 130.474 163.147 131.062 160.846 131.062H158.802ZM158.802 121.876V127.81H160.488C162.771 127.81 163.912 126.81 163.912 124.81C163.912 122.854 162.771 121.876 160.488 121.876H158.802Z" fill="#E3E4E5"/>
<path d="M175.502 137.62H171.214V118.584H175.502V137.62Z" fill="#E3E4E5"/>
<path d="M187.874 137.952C185.148 137.952 182.927 137.067 181.21 135.297C179.493 133.518 178.635 131.204 178.635 128.354C178.635 125.345 179.506 122.912 181.25 121.053C182.993 119.195 185.303 118.265 188.179 118.265C190.896 118.265 193.091 119.155 194.764 120.934C196.445 122.712 197.286 125.058 197.286 127.969C197.286 130.961 196.414 133.372 194.671 135.204C192.936 137.036 190.671 137.952 187.874 137.952ZM188.06 121.956C186.555 121.956 185.361 122.522 184.476 123.655C183.591 124.779 183.148 126.27 183.148 128.129C183.148 130.014 183.591 131.505 184.476 132.602C185.361 133.7 186.52 134.248 187.954 134.248C189.432 134.248 190.604 133.717 191.471 132.655C192.339 131.585 192.772 130.102 192.772 128.208C192.772 126.235 192.352 124.699 191.511 123.602C190.671 122.504 189.52 121.956 188.06 121.956Z" fill="#E3E4E5"/>
<path d="M217.57 137.62H213.243L205.397 125.66C204.937 124.96 204.618 124.434 204.441 124.08H204.388C204.459 124.752 204.494 125.779 204.494 127.16V137.62H200.445V118.584H205.065L212.619 130.173C212.964 130.695 213.282 131.213 213.574 131.726H213.628C213.557 131.284 213.521 130.412 213.521 129.111V118.584H217.57V137.62Z" fill="#E3E4E5"/>
<path d="M130.828 313.998C132.04 315.595 134.416 314.838 134.414 318.669C134.411 321.95 133.307 325.106 133.879 328.051C134.762 332.602 139.331 332.214 142.644 332.249L144.29 322.907L144.331 312.29L135.1 310.903L131.549 313.476L130.828 313.998Z" fill="black"/>
<path d="M166.14 326.383C166.038 328.014 166.023 329.279 165.558 330.311L165.034 331.475C164.778 331.906 164.67 332.274 164.743 332.61C164.984 333.709 163.745 334.127 162.488 334.152C160.391 334.195 158.575 333.438 157.032 332.406L166.14 326.383Z" fill="white" stroke="black" stroke-width="0.230447"/>
<path d="M158.138 332.73C159.297 333.346 161.89 334.436 163.78 333.645C164.209 333.465 163.993 333.353 163.908 333.384C162.536 333.219 162.323 333.107 161.63 331.795C160.578 331.96 158.579 331.929 158.106 332.549C158 332.652 158.115 332.651 158.138 332.73Z" fill="black"/>
<path d="M162.108 331.981C163.007 333.929 163.966 332.562 164.413 331.22" stroke="black" stroke-width="0.230447" stroke-linecap="round" stroke-linejoin="round"/>
<path d="M136.605 313.101L136.473 310.709L146.935 316.228L141.451 329.565C141.626 328.556 141.266 326.843 141.691 325.804C142.783 323.131 143.462 320.875 143.135 319.171C142.257 314.591 139.039 313.805 136.605 313.101Z" fill="#4D4D4D" stroke="black" stroke-width="0.230447"/>
<path d="M131.164 314.307C129.237 313.846 129.028 310.752 131.746 306.683C139.283 295.402 150.042 296.735 155.024 298.07C164.13 300.51 170.727 309.9 168.119 321.174C167.351 324.494 165.878 328.18 163.463 331.737C163.241 332.064 162.998 332.446 161.834 332.086C160.254 331.598 159.008 331.52 158.051 332.173C152.403 336.029 148.381 336.102 144.869 334.647C141.006 333.045 141.098 329.854 141.697 327.023C142.204 324.632 143.802 322.313 143.531 319.632C142.981 314.209 138.856 313.479 136.14 312.852C133.709 312.291 130.952 312.887 131.164 314.307Z" fill="#E3E4E5"/>
<path d="M151.848 324.752L153.275 326.886C154.452 326.943 155.323 326.541 155.808 325.878C156.382 325.092 156.437 323.981 156.133 323.425C155.496 322.261 153.838 321.771 152.703 322.917C152.314 323.31 152.088 323.961 151.848 324.752Z" fill="black" stroke="black" stroke-width="0.230447"/>
<path d="M155.853 331.781C156.367 331.781 156.783 331.387 156.783 330.901C156.783 330.415 156.367 330.021 155.853 330.021C155.34 330.021 154.923 330.415 154.923 330.901C154.923 331.387 155.34 331.781 155.853 331.781Z" fill="url(#paint0_linear_510_1499)" stroke="url(#paint1_linear_510_1499)" stroke-width="0.0911904" stroke-linecap="round" stroke-linejoin="round"/>
<path d="M150.421 329.059C151.32 331.007 156.682 329.723 157.129 328.38" stroke="black" stroke-width="0.230447" stroke-linecap="round" stroke-linejoin="round"/>
<path d="M146.747 330.234C147.173 330.478 147.707 330.349 147.939 329.945C148.17 329.541 148.012 329.015 147.585 328.77C147.158 328.526 146.625 328.655 146.393 329.059C146.162 329.463 146.32 329.989 146.747 330.234Z" fill="url(#paint2_linear_510_1499)" stroke="url(#paint3_linear_510_1499)" stroke-width="0.087355" stroke-linecap="round" stroke-linejoin="round"/>
<path d="M143.426 324.78C138.807 334.676 150.915 336.71 158.899 330.932C155.779 332.399 153.459 333.425 151.131 333.633C147.636 333.945 144.997 333.168 143.731 331.559C142.456 329.942 142.567 327.484 143.426 324.78Z" fill="url(#paint4_linear_510_1499)"/>
<path d="M137.066 319.752C137.557 319.721 138.314 319.842 138.703 320.688C138.857 321.021 138.873 321.496 138.776 322.084C138.285 325.059 140.144 326.794 142.273 328.586L142.15 331.878C139.332 332.124 136.709 331.827 135.322 330.392C133.725 328.739 133.83 325.473 134.519 322.276C134.886 320.998 135.636 319.863 137.066 319.752Z" fill="#4D4D4D"/>
<path d="M133.858 315.047C135.221 316.276 135.322 318.194 135.031 319.862C134.946 320.347 134.591 320.07 134.619 319.903C134.92 318.139 134.691 316.713 133.529 315.253C133.199 314.839 133.601 314.815 133.858 315.047Z" fill="white"/>
<path d="M133.982 307.259C134.16 306.808 130.678 308.496 130.945 308.004C131.177 307.577 131.443 307.136 131.746 306.683C139.283 295.402 150.042 296.735 155.024 298.07C147.336 298.261 139.628 298.367 133.982 307.259Z" fill="#4D4D4D"/>
<path d="M131.164 314.307C129.237 313.846 129.028 310.752 131.746 306.683C139.283 295.402 150.042 296.735 155.024 298.07C164.13 300.51 170.727 309.9 168.119 321.174C167.351 324.494 165.878 328.18 163.463 331.737C163.241 332.064 162.998 332.446 161.834 332.086C160.254 331.598 159.008 331.52 158.051 332.173C152.403 336.029 148.381 336.102 144.869 334.647C141.006 333.045 141.098 329.854 141.697 327.023C142.204 324.632 143.802 322.313 143.531 319.632C142.981 314.209 138.856 313.479 136.14 312.852C133.709 312.291 130.952 312.887 131.164 314.307Z" stroke="black" stroke-width="0.230447"/>
<path d="M135.456 306.945C135.834 307.101 136.58 306.749 136.212 307.935L134.947 311.295C134.36 312.852 135.772 313.207 136.984 313.594L134.685 313.609L133.754 311.848L134.728 308.007L135.456 306.945Z" fill="#F2F2F2" stroke="black" stroke-width="0.230447"/>
<path d="M130.742 306.494L132.153 307.178L130.96 311.921C129.426 312.37 127.558 311.895 128.458 310.306C129.177 309.035 129.908 307.765 130.742 306.494Z" fill="#D0D0D1" stroke="black" stroke-width="0.230447"/>
<path d="M131.564 307.071L135.36 306.982C135.833 306.97 135.949 307.039 135.813 307.434L134.537 311.138C134.059 312.525 134.531 313.373 135.73 313.689L131.592 313.526C131.211 313.596 131.117 314.049 131.164 314.278C128.718 313.3 129.846 309.31 131.564 307.071Z" fill="white" stroke="black" stroke-width="0.230447"/>
<path d="M133.667 306.747L134.581 307.314C134.894 307.509 135.343 307.729 135.102 308.333L133.894 311.65L132.736 309.57L133.667 306.747Z" fill="#CCCCCE" stroke="black" stroke-width="0.230447" stroke-linecap="round" stroke-linejoin="round"/>
<path d="M133.671 306.558C133.931 306.962 135.097 307.019 134.64 308.231L133.756 310.442L133.961 311.345C133.894 311.784 133.745 312.108 133.468 312.247L132.921 312.32L131.971 311.403L132.08 309.133L133.671 306.558Z" fill="#CCCCCE" stroke="black" stroke-width="0.230447" stroke-linecap="round" stroke-linejoin="round"/>
<path d="M151.79 327.864C152.364 328.209 152.985 327.744 152.88 327.246L146.317 316.938C144.957 314.511 143.239 313.125 141.276 312.452C138.859 311.588 136.377 311.184 133.909 310.683C132.897 310.635 132.839 311.706 133.704 311.938C135.632 312.334 137.529 312.543 139.506 313.234C141.675 313.873 143.63 314.832 144.712 317.103L151.79 327.864Z" fill="#CDCDCF" stroke="black" stroke-width="0.230447"/>
<path d="M134.458 318.545C130.669 322.451 126.241 321.722 122.976 321.186C122.275 321.064 121.838 321.2 121.576 321.763C120.071 325 119.596 328.772 119.27 332.721C119.246 333.016 119.361 333.375 119.708 333.452C121.533 333.485 120.649 333.303 120.834 332.186C120.777 330.092 121.02 326.074 122.729 322.627C122.883 322.315 123.227 322.145 124.087 322.38C127.423 323.36 129.851 323.031 131.598 322.145C133.028 321.42 133.61 321.078 134.346 320.552L134.458 318.545Z" fill="url(#paint5_linear_510_1499)" stroke="black" stroke-width="0.230447" stroke-linecap="round" stroke-linejoin="round"/>
<path d="M123.926 327.812C123.015 327.635 122.152 327.469 121.176 327.186C120.571 327.01 120.256 325.308 121.822 325.539C126.408 326.214 129.25 325.952 133.793 325.082L133.763 326.329C128.459 327.344 126.69 327.219 123.072 326.305L121.95 326.108C122.97 326.318 123.458 326.49 124.479 326.619L123.926 327.812Z" fill="url(#paint6_linear_510_1499)" stroke="black" stroke-width="0.230447" stroke-linecap="round" stroke-linejoin="round"/>
<path d="M125.551 323.038L122.801 322.442C122.228 322.18 122.016 321.278 122.991 321.176L126.177 321.729L125.551 323.038Z" fill="url(#paint7_linear_510_1499)" stroke="black" stroke-width="0.230447" stroke-linecap="round" stroke-linejoin="round"/>
<path d="M132.44 315.095L127.79 326.33C126.173 330.238 124.488 331.117 121.042 331.968C119.421 332.136 119.383 332.94 119.624 333.304C119.942 333.783 121.631 334.361 123.284 334.499L123.408 333.223C122.753 333.031 121.979 333.074 121.564 332.963C121.295 332.891 121.289 332.8 121.673 332.813C121.903 332.821 122.151 332.891 122.477 332.879C123.556 332.838 124.317 332.369 125.239 331.721C127.04 330.456 127.852 329.461 129.478 325.59L133.592 315.794C133.332 315.14 132.89 315.103 132.44 315.095Z" fill="url(#paint8_linear_510_1499)" stroke="black" stroke-width="0.230447" stroke-linecap="round" stroke-linejoin="round"/>
<path d="M143.738 313.833C144.104 314.1 144.459 314.426 144.798 314.831L138.035 329.495L136.43 329.598L143.738 313.833Z" fill="url(#paint9_linear_510_1499)" stroke="black" stroke-width="0.230447" stroke-linecap="round" stroke-linejoin="round"/>
<path d="M147.417 318.923C147.756 318.996 148.263 319.584 148.23 320.014C146.911 321.236 146.168 321.879 144.727 322.994C143.633 323.842 142.36 324.332 141.061 324.435C137.569 324.712 134.165 324.262 130.818 323.838L126.817 323.14C126.827 323.077 126.791 322.925 126.744 322.994C125.944 324.244 125.684 325.513 125.435 326.835L134.484 328.203C135.115 328.298 138.82 328.495 141.439 328.028L150.781 326.365L151.536 327.519C147.495 328.216 143.544 328.996 139.082 329.483C137.109 329.699 134.738 329.581 133.67 329.396L125.289 327.941C125.154 327.918 125.061 327.918 125.027 328.028C124.415 330.017 124.36 331.866 124.358 333.703C124.472 333.72 124.406 333.518 124.518 333.541C129.398 334.567 135.26 332.825 136.379 329.642L137.948 329.575C135.315 334.976 129.02 335.399 124.184 334.663C123.698 334.799 123.342 334.678 123.02 334.488C122.899 329.723 123.966 325.521 125.929 321.743C126.042 321.527 126.954 321.294 126.992 322.049C133.631 323.154 136.344 323.07 140.1 323.285C141.936 323.391 143.611 322.439 145.309 320.87L147.417 318.923Z" fill="url(#paint10_linear_510_1499)" stroke="black" stroke-width="0.230447" stroke-linecap="round" stroke-linejoin="round"/>
<path d="M131.628 310.381L129.302 310.262C128.439 310.505 128.428 311.479 129.389 311.485L131.606 311.414L131.628 310.381Z" fill="#D0D0D1" stroke="black" stroke-width="0.230447"/>
<path d="M132.676 306.767C133.279 306.303 133.805 306.208 134.151 306.973L132.741 310.173C132.442 310.85 131.986 311.486 133.339 312.281C132.683 312.432 132.175 312.517 131.621 312.37C131.52 312.343 131.413 312.306 131.356 312.199C130.952 311.447 130.845 310.683 131.31 309.689L132.676 306.767Z" fill="url(#paint11_linear_510_1499)" stroke="black" stroke-width="0.230447" stroke-linecap="round" stroke-linejoin="round"/>
<path d="M132.769 307.809C132.881 308.038 133.145 308.047 133.36 307.83C133.576 307.613 133.659 307.251 133.547 307.023C133.436 306.794 133.171 306.784 132.956 307.001C132.741 307.219 132.657 307.58 132.769 307.809Z" fill="url(#paint12_linear_510_1499)" stroke="url(#paint13_linear_510_1499)" stroke-width="0.0509192" stroke-linecap="round" stroke-linejoin="round"/>
<path d="M132.219 309.133C132.33 309.362 132.595 309.371 132.81 309.154C133.025 308.937 133.109 308.575 132.997 308.347C132.885 308.118 132.621 308.108 132.406 308.325C132.191 308.543 132.107 308.904 132.219 309.133Z" fill="url(#paint14_linear_510_1499)" stroke="url(#paint15_linear_510_1499)" stroke-width="0.0509192" stroke-linecap="round" stroke-linejoin="round"/>
<path d="M149.784 322.166L150.998 323.926C151.352 324.439 150.894 324.615 150.627 324.79L147.479 326.858C147.031 327.152 146.73 327.086 146.491 326.837L145.545 325.85L145.627 324.471L148.158 322.928L149.784 322.166Z" fill="url(#paint16_linear_510_1499)" stroke="black" stroke-width="0.230447" stroke-linecap="round" stroke-linejoin="round"/>
<path d="M145.524 325.685C144.98 325.023 144.898 324.38 145.545 323.936L147.973 322.269L148.487 322.907C147.116 323.76 145.647 324.593 145.524 325.685Z" fill="#CBCBCE" stroke="black" stroke-width="0.230447" stroke-linecap="round" stroke-linejoin="round"/>
<path d="M148.261 322.681C149.087 322.685 149.367 322.238 149.434 321.796C149.663 322.052 150.182 322.248 149.495 322.743C147.136 324.035 145.268 325.371 145.812 326.158C145.436 325.731 145.105 325.291 145.751 324.594L148.261 322.681Z" fill="#CECED0" stroke="black" stroke-width="0.230447" stroke-linecap="round" stroke-linejoin="round"/>
<path d="M146.848 326.228C147.179 326.418 147.594 326.318 147.774 326.004C147.954 325.69 147.831 325.281 147.499 325.091C147.167 324.901 146.753 325.001 146.573 325.315C146.393 325.629 146.516 326.038 146.848 326.228Z" fill="url(#paint17_linear_510_1499)" stroke="url(#paint18_linear_510_1499)" stroke-width="0.0678814" stroke-linecap="round" stroke-linejoin="round"/>
<path d="M147.916 324.351C147.737 324.657 147.828 325.043 148.119 325.212C148.409 325.381 148.789 325.269 148.967 324.962C149.146 324.655 149.055 324.27 148.765 324.101C148.474 323.932 148.094 324.044 147.916 324.351Z" fill="url(#paint19_linear_510_1499)" stroke="url(#paint20_linear_510_1499)" stroke-width="0.063006" stroke-linecap="round" stroke-linejoin="round"/>
<path d="M150.38 306.097L151.174 307.02L151.341 307.091L151.759 307.778L151.868 307.692L152.275 308.297L152.234 308.444L152.437 308.326L152.788 309.073L152.991 308.956L153.294 309.688L153.471 309.603L153.529 309.64L153.743 310.205L153.697 310.43L153.942 310.346L154.157 310.971L154.11 311.136L154.308 311.037L154.47 311.486L154.393 311.762L154.575 311.658L154.701 312.176L154.665 312.364L154.847 312.261L154.937 312.967L155.099 312.997L155.152 313.472L155.096 313.614L155.226 313.694L155.264 314.284L155.431 314.296L155.252 313.663L155.273 313.589L155.434 313.619L155.255 312.926L155.286 312.815L155.401 312.891L155.338 312.632L155.4 312.411L155.326 312.07L155.414 311.758L155.482 311.699L155.465 311.215L155.49 310.943L155.511 310.87L155.652 310.913L155.661 310.637L155.67 310.301L155.763 310.03L155.878 310.105L155.935 310.083L155.944 309.867L155.954 309.591L155.989 309.342L156.187 309.363L156.181 309.202L156.377 308.444L156.393 308.389L156.612 308.577L156.808 307.939L157.038 308.09L157.26 307.42L157.354 307.329L157.438 307.574L157.479 307.607L157.583 307.18L157.681 307.131L157.821 306.755L157.899 306.719L157.983 306.905L158.03 306.859L158.211 306.337L158.403 306.077L158.471 306.137L158.486 306.141L158.6 305.857L158.87 305.502L158.99 305.379L159.052 305.219L159.124 305.141L159.207 304.967L159.29 304.853L159.399 304.707L159.529 304.608L159.566 304.659L159.551 304.894L159.484 305.252L159.344 305.568L159.163 305.911L159.049 306.195L158.945 306.502L158.785 307.071L158.9 307.027L158.916 307.151L158.745 307.817L158.673 308.074L158.928 307.953L158.897 308.303L158.825 308.619L158.748 308.895L158.675 308.972L158.691 309.037L158.863 308.97L158.946 309.036L158.925 309.229L158.765 309.798L158.692 309.936L158.677 309.991L158.854 310.025L158.906 309.962L158.943 310.072L158.86 310.366L158.699 310.636L158.497 310.932L158.643 311.017L158.741 310.968L158.664 311.303L158.503 311.513L158.373 311.612L158.452 311.696L158.343 311.962L158.197 312.176L158.088 312.322L158.141 312.378L158.078 312.479L158 312.574L158.068 312.635L157.933 312.813L157.809 312.954L157.731 313.11L157.486 313.314L157.429 313.336L157.737 313.451L157.866 313.052L158.032 312.824L158.157 312.982L158.349 312.662L158.588 312.357L158.745 312.585L158.88 312.347L159.062 312.124L159.337 311.81L159.504 312.001L159.743 311.695L159.987 311.491L160.164 311.646L160.486 311.286L160.799 311.083L160.851 311.259L161.21 310.891L161.537 310.692L161.61 310.855L161.657 310.869L161.688 310.699L162.25 310.393L162.355 310.565L162.407 310.442L162.932 310.145L162.994 310.224L163.567 309.941L164.082 309.741L164.369 309.689L164.567 309.71L163.99 310.071L163.423 310.515L163.277 310.669L163.262 310.844L163.168 310.815L162.815 311.225L162.815 311.285L162.873 311.382L162.769 311.51L162.275 311.936L162.447 312.049L161.938 312.471L162.032 312.559L161.98 312.683L161.278 313.185L161.409 313.265L161.424 313.33L160.676 313.817L160.79 313.832L159.937 314.327L159.948 314.41L160.12 314.463L159.428 314.749L159.428 314.809L159.574 314.834L158.882 315.059L158.814 315.059L158.783 315.109L158.872 315.156L158.866 315.294L159.215 315.142L159.486 315.146L159.445 315.293L159.83 315.133L160.059 315.163L160.018 315.37L160.46 315.307L160.814 315.257L160.752 315.477L161.153 315.441L161.324 315.494L161.283 315.641L161.804 315.602L161.752 315.785L161.872 315.783L162.013 315.766L162.351 315.89L162.326 315.982L163.55 316.34L163.498 316.463L162.608 316.428L162.582 316.52L162.264 316.442L162.233 316.552L162.019 316.466L161.967 316.53L161.816 316.464L161.785 316.574L161.52 316.492L161.473 316.597L161.296 316.563L161.26 316.631L161.108 316.565L161.015 316.775L160.713 316.642L160.447 316.62L160.369 316.836L159.744 316.703L159.708 316.891L159.13 316.773L159.099 316.883L159.177 316.907L159.078 316.897L158.588 316.766L158.536 316.889L158.854 316.967L158.813 317.114L159.235 317.304L159.24 317.406L159.428 317.523L159.475 317.598L159.47 317.736L159.924 318.175L159.929 318.276L159.293 318.001L159.252 318.088L158.955 317.876L158.835 317.939L158.741 317.91L158.491 317.773L158.413 317.809L158.225 317.751L158.09 317.689L158.017 317.707L157.897 317.59L157.693 317.468L157.647 317.573L157.391 317.394L157.245 317.31L157.162 317.543L156.844 317.166L156.75 317.077L156.588 316.987L156.578 317.024L156.797 317.211L157.126 317.672L157.09 317.8L156.746 317.634L156.349 317.353L155.974 316.997L155.66 316.662L155.597 316.463L155.529 316.342L155.509 316.355L155.353 316.547L154.973 316.749L154.484 316.977L154.437 316.963L154.411 316.875L153.818 317.111L153.792 317.023L153.437 317.014L153.39 316.94L153.479 316.807L153.51 316.697L153.447 316.678L153.478 316.568L153.358 316.511L153.4 316.364L153.066 316.341L153.092 316.189L152.633 316.068L152.539 315.979L152.206 315.956L152.123 315.95L152.169 315.785L151.883 315.716L151.711 315.724L151.71 315.604L150.824 315.311L151.261 315.147L151.662 315.111L151.709 315.006L152.095 315.144L152.136 314.938L152.647 315.115L152.673 315.023L152.454 314.956L152.485 314.846L151.927 314.654L151.942 314.479L151.953 314.442L151.63 314.323L151.635 314.244L151.421 314.159L151.437 314.044L151.389 313.969L151.4 313.933L150.951 313.655L150.811 313.611L150.8 313.468L150.847 313.363L150.461 313.164L150.377 313.099L150.205 313.046L150.241 312.857L149.934 312.623L149.751 312.427L149.61 312.324L149.657 312.218L148.77 311.566L148.738 311.496L149.489 311.668L149.812 311.787L149.869 311.885L149.905 311.756L150.317 311.923L150.401 312.049L150.468 311.93L150.76 312.04L150.985 312.328L151.073 312.136L151.198 312.175L151.496 312.446L151.6 312.558L151.704 312.37L152.085 312.707L152.179 312.796L152.204 312.704L152.413 312.868L152.559 313.073L152.674 313.148L152.757 313.034L152.914 313.082L152.971 313.18L153.013 313.153L152.506 312.658L152.662 312.526L152.151 311.93L152.223 311.852L152.055 311.362L151.794 311.082L151.742 310.966L151.825 310.852L151.694 310.532L151.71 310.417L151.438 310.114L151.578 309.978L151.165 309.152L151.279 309.048L150.949 308.169L151.053 308.101L150.87 307.486L150.874 307.348L150.375 306.098L150.38 306.097Z" fill="#4D4D4D"/>
<path d="M157.942 319.113C162.114 318.205 164.769 314.131 163.873 310.013C162.977 305.896 158.869 303.293 154.698 304.201C150.526 305.108 147.871 309.182 148.767 313.3C149.663 317.418 153.771 320.021 157.942 319.113Z" stroke="#333333" stroke-width="1.92003"/>
<path d="M149.984 306.168L162.055 317.904L149.984 306.168Z" fill="#800000"/>
<path d="M149.984 306.168L162.055 317.904" stroke="#333333" stroke-width="1.92003"/>
<path d="M199.324 207.474L224.324 207.493L199.324 207.474Z" fill="#E3E4E5"/>
<path d="M199.324 207.474L224.324 207.493" stroke="#E3E4E5" stroke-width="2.56673" stroke-miterlimit="10" stroke-linecap="round"/>
<path d="M62.5553 206.692L87.5553 206.711L62.5553 206.692Z" fill="#E3E4E5"/>
<path d="M62.5553 206.692L87.5553 206.711" stroke="#E3E4E5" stroke-width="2.56673" stroke-miterlimit="10" stroke-linecap="round"/>
<path d="M119.637 97.2197V96.0078C119.637 95.305 119.781 94.6963 120.069 94.1816C120.362 93.667 120.736 93.263 121.189 92.9697C121.643 92.6764 122.147 92.4246 122.7 92.2144C123.254 92.0041 123.807 91.8353 124.36 91.708C124.919 91.5752 125.426 91.4424 125.879 91.3096C126.909 90.9997 127.423 90.5597 127.423 89.9897C127.423 89.37 127.263 88.9466 126.942 88.7197C126.621 88.4928 126.079 88.3794 125.315 88.3794H124.726C123.658 88.3794 122.955 88.7197 122.617 89.4004C122.368 89.9206 121.995 90.1807 121.497 90.1807H120.509C120.238 90.1807 120.027 90.0838 119.878 89.8901C119.729 89.6965 119.654 89.4862 119.654 89.2593C119.654 88.6284 119.895 88.0612 120.376 87.5576C120.863 87.0485 121.466 86.6667 122.186 86.4121C122.905 86.1576 123.655 86.0303 124.435 86.0303H125.556C127.985 86.0303 129.523 86.7054 130.171 88.0557C130.425 88.5869 130.553 89.2039 130.553 89.9067C130.553 90.6095 130.409 91.2072 130.121 91.6997C129.833 92.1922 129.463 92.5851 129.009 92.8784C128.555 93.1662 128.049 93.4152 127.49 93.6255C126.936 93.8358 126.383 94.0101 125.83 94.1484C125.276 94.2812 124.773 94.4085 124.319 94.5303C123.284 94.818 122.767 95.1916 122.767 95.6509H129.656C129.883 95.6509 130.071 95.7284 130.221 95.8833C130.376 96.0382 130.453 96.2236 130.453 96.4395V97.2197C130.453 97.4355 130.373 97.6209 130.212 97.7759C130.057 97.9253 129.872 98 129.656 98H120.442C120.227 98 120.038 97.9253 119.878 97.7759C119.717 97.6209 119.637 97.4355 119.637 97.2197ZM131.574 92.0483C131.574 90.936 131.726 89.9814 132.03 89.1846C132.34 88.3877 132.777 87.7651 133.342 87.3169C134.415 86.4591 135.815 86.0303 137.542 86.0303H138.123C139.85 86.0303 141.25 86.4591 142.323 87.3169C143.502 88.2576 144.091 89.8348 144.091 92.0483C144.091 94.2729 143.502 95.8529 142.323 96.7881C141.25 97.6403 139.85 98.0664 138.123 98.0664H137.542C135.815 98.0664 134.415 97.6403 133.342 96.7881C132.163 95.8529 131.574 94.2729 131.574 92.0483ZM137.833 88.3794C135.746 88.3794 134.703 89.6051 134.703 92.0566C134.703 94.5026 135.746 95.7256 137.833 95.7256C139.919 95.7256 140.962 94.5026 140.962 92.0566C140.962 89.6051 139.919 88.3794 137.833 88.3794ZM145.104 97.2197V96.0078C145.104 95.305 145.248 94.6963 145.536 94.1816C145.829 93.667 146.202 93.263 146.656 92.9697C147.11 92.6764 147.614 92.4246 148.167 92.2144C148.72 92.0041 149.274 91.8353 149.827 91.708C150.386 91.5752 150.892 91.4424 151.346 91.3096C152.375 90.9997 152.89 90.5597 152.89 89.9897C152.89 89.37 152.73 88.9466 152.409 88.7197C152.088 88.4928 151.545 88.3794 150.782 88.3794H150.192C149.124 88.3794 148.422 88.7197 148.084 89.4004C147.835 89.9206 147.461 90.1807 146.963 90.1807H145.976C145.704 90.1807 145.494 90.0838 145.345 89.8901C145.195 89.6965 145.121 89.4862 145.121 89.2593C145.121 88.6284 145.361 88.0612 145.843 87.5576C146.33 87.0485 146.933 86.6667 147.652 86.4121C148.372 86.1576 149.122 86.0303 149.902 86.0303H151.022C153.452 86.0303 154.99 86.7054 155.638 88.0557C155.892 88.5869 156.02 89.2039 156.02 89.9067C156.02 90.6095 155.876 91.2072 155.588 91.6997C155.3 92.1922 154.929 92.5851 154.476 92.8784C154.022 93.1662 153.515 93.4152 152.957 93.6255C152.403 93.8358 151.85 94.0101 151.296 94.1484C150.743 94.2812 150.239 94.4085 149.786 94.5303C148.751 94.818 148.233 95.1916 148.233 95.6509H155.123C155.35 95.6509 155.538 95.7284 155.688 95.8833C155.842 96.0382 155.92 96.2236 155.92 96.4395V97.2197C155.92 97.4355 155.84 97.6209 155.679 97.7759C155.524 97.9253 155.339 98 155.123 98H145.909C145.693 98 145.505 97.9253 145.345 97.7759C145.184 97.6209 145.104 97.4355 145.104 97.2197ZM157.215 95.1279C157.215 94.7959 157.312 94.5607 157.505 94.4224C157.699 94.2785 157.884 94.2065 158.062 94.2065H159.049C159.514 94.2065 159.885 94.4611 160.162 94.9702C160.438 95.4738 161.03 95.7256 161.938 95.7256H163.25C163.93 95.7256 164.428 95.6177 164.744 95.4019C165.065 95.186 165.225 94.818 165.225 94.2979C165.225 93.7721 165.065 93.4041 164.744 93.1938C164.428 92.978 163.93 92.8701 163.25 92.8701H158.418C158.203 92.8701 158.017 92.7954 157.862 92.646C157.713 92.4966 157.638 92.314 157.638 92.0981V86.8853C157.638 86.6584 157.713 86.4702 157.862 86.3208C158.017 86.1714 158.203 86.0967 158.418 86.0967H166.968C167.195 86.0967 167.383 86.1714 167.533 86.3208C167.682 86.4702 167.757 86.6584 167.757 86.8853V87.6655C167.757 87.8924 167.682 88.0806 167.533 88.23C167.383 88.3739 167.195 88.4458 166.968 88.4458H160.768V90.521H163.54C165.112 90.521 166.304 90.8171 167.118 91.4092C167.937 91.9958 168.346 92.9587 168.346 94.2979C168.346 95.6315 167.937 96.5944 167.118 97.1865C166.304 97.7731 165.112 98.0664 163.54 98.0664H161.647C160.402 98.0664 159.351 97.7869 158.493 97.228C157.641 96.6636 157.215 95.9635 157.215 95.1279Z" fill="#E3E4E5"/>
<path d="M115.146 196.688H118.468C118.413 197.714 118.133 198.62 117.627 199.406C117.128 200.185 116.434 200.797 115.545 201.241C114.657 201.679 113.601 201.897 112.377 201.897C111.399 201.897 110.524 201.73 109.752 201.395C108.979 201.06 108.323 200.582 107.783 199.959C107.25 199.331 106.84 198.575 106.553 197.693C106.272 196.805 106.132 195.803 106.132 194.689V193.776C106.132 192.662 106.279 191.661 106.573 190.772C106.867 189.883 107.288 189.125 107.834 188.496C108.381 187.867 109.038 187.385 109.803 187.05C110.569 186.715 111.423 186.547 112.367 186.547C113.638 186.547 114.711 186.776 115.586 187.234C116.461 187.692 117.138 188.321 117.617 189.121C118.102 189.921 118.393 190.833 118.488 191.859H115.156C115.128 191.278 115.019 190.789 114.828 190.393C114.636 189.989 114.342 189.685 113.946 189.48C113.549 189.275 113.023 189.172 112.367 189.172C111.888 189.172 111.468 189.261 111.105 189.439C110.75 189.617 110.453 189.894 110.213 190.27C109.981 190.646 109.807 191.124 109.69 191.705C109.574 192.279 109.516 192.963 109.516 193.756V194.689C109.516 195.475 109.567 196.155 109.67 196.729C109.772 197.304 109.937 197.779 110.162 198.155C110.395 198.531 110.692 198.811 111.054 198.996C111.417 199.18 111.857 199.272 112.377 199.272C112.972 199.272 113.467 199.18 113.864 198.996C114.26 198.804 114.564 198.517 114.776 198.134C114.988 197.751 115.111 197.27 115.146 196.688ZM126.035 199.047V194.289C126.035 193.954 125.984 193.667 125.881 193.428C125.779 193.188 125.618 193 125.399 192.864C125.181 192.727 124.897 192.659 124.548 192.659C124.254 192.659 123.998 192.71 123.779 192.812C123.567 192.915 123.403 193.062 123.287 193.253C123.178 193.445 123.123 193.681 123.123 193.961H119.924C119.924 193.462 120.037 192.997 120.262 192.566C120.488 192.136 120.809 191.756 121.226 191.428C121.65 191.1 122.156 190.847 122.744 190.669C123.332 190.485 123.991 190.393 124.723 190.393C125.591 190.393 126.363 190.54 127.04 190.833C127.724 191.121 128.264 191.555 128.66 192.136C129.057 192.71 129.255 193.435 129.255 194.31V198.955C129.255 199.625 129.292 200.151 129.368 200.534C129.45 200.91 129.566 201.238 129.716 201.518V201.692H126.486C126.336 201.371 126.223 200.975 126.148 200.503C126.073 200.024 126.035 199.539 126.035 199.047ZM126.435 194.925L126.456 196.688H124.866C124.511 196.688 124.203 196.733 123.943 196.822C123.69 196.911 123.485 197.034 123.328 197.191C123.171 197.341 123.055 197.519 122.979 197.724C122.911 197.922 122.877 198.141 122.877 198.38C122.877 198.606 122.932 198.811 123.041 198.996C123.15 199.173 123.301 199.313 123.492 199.416C123.684 199.519 123.906 199.57 124.159 199.57C124.576 199.57 124.931 199.488 125.225 199.324C125.526 199.16 125.758 198.961 125.922 198.729C126.086 198.49 126.168 198.268 126.168 198.062L126.938 199.396C126.814 199.669 126.664 199.953 126.486 200.247C126.309 200.534 126.083 200.804 125.81 201.057C125.536 201.303 125.205 201.504 124.815 201.662C124.432 201.819 123.971 201.897 123.431 201.897C122.733 201.897 122.101 201.757 121.534 201.477C120.966 201.19 120.512 200.797 120.17 200.298C119.835 199.799 119.667 199.225 119.667 198.575C119.667 197.994 119.773 197.478 119.985 197.027C120.197 196.576 120.515 196.193 120.939 195.878C121.37 195.564 121.91 195.328 122.559 195.171C123.208 195.007 123.967 194.925 124.835 194.925H126.435ZM134.73 185.942V201.692H131.521V185.942H134.73ZM140.411 185.942V201.692H137.202V185.942H140.411ZM154.49 186.763V201.692H151.157V186.763H154.49ZM159.032 186.763V189.357H146.707V186.763H159.032ZM163.646 185.942V201.692H160.447V185.942H163.646ZM163.226 195.755L162.426 195.776C162.426 194.997 162.522 194.282 162.713 193.633C162.912 192.977 163.192 192.406 163.554 191.92C163.917 191.435 164.351 191.059 164.856 190.792C165.369 190.526 165.933 190.393 166.548 190.393C167.095 190.393 167.594 190.471 168.045 190.628C168.497 190.786 168.886 191.035 169.214 191.377C169.542 191.719 169.795 192.167 169.973 192.72C170.151 193.274 170.24 193.947 170.24 194.74V201.692H167.02V194.72C167.02 194.248 166.952 193.879 166.815 193.612C166.685 193.346 166.494 193.158 166.241 193.048C165.995 192.939 165.694 192.884 165.338 192.884C164.921 192.884 164.576 192.959 164.303 193.11C164.029 193.253 163.814 193.455 163.657 193.715C163.5 193.975 163.387 194.279 163.318 194.627C163.257 194.976 163.226 195.352 163.226 195.755ZM177.561 201.897C176.679 201.897 175.89 201.757 175.192 201.477C174.495 201.197 173.904 200.811 173.418 200.318C172.94 199.819 172.574 199.245 172.321 198.596C172.068 197.946 171.942 197.252 171.942 196.514V196.125C171.942 195.297 172.058 194.535 172.291 193.838C172.523 193.141 172.861 192.536 173.306 192.023C173.757 191.503 174.311 191.104 174.967 190.823C175.623 190.536 176.372 190.393 177.212 190.393C177.999 190.393 178.699 190.522 179.314 190.782C179.93 191.035 180.449 191.401 180.873 191.879C181.297 192.351 181.618 192.922 181.837 193.592C182.062 194.255 182.175 195 182.175 195.827V197.14H173.234V195.079H179.038V194.833C179.038 194.443 178.966 194.101 178.822 193.807C178.686 193.513 178.48 193.288 178.207 193.13C177.94 192.966 177.602 192.884 177.192 192.884C176.802 192.884 176.478 192.966 176.218 193.13C175.958 193.294 175.75 193.527 175.592 193.828C175.442 194.122 175.333 194.467 175.264 194.863C175.196 195.253 175.162 195.673 175.162 196.125V196.514C175.162 196.945 175.22 197.338 175.336 197.693C175.452 198.049 175.623 198.353 175.849 198.606C176.074 198.859 176.348 199.057 176.669 199.201C176.99 199.344 177.356 199.416 177.766 199.416C178.272 199.416 178.754 199.32 179.212 199.129C179.67 198.931 180.066 198.623 180.401 198.206L181.898 199.918C181.673 200.247 181.355 200.564 180.945 200.872C180.542 201.173 180.056 201.419 179.489 201.61C178.921 201.802 178.279 201.897 177.561 201.897ZM117.719 211.763H120.488L124.077 222.437L127.655 211.763H130.424L125.194 226.692H122.949L117.719 211.763ZM116.12 211.763H118.939L119.462 222.827V226.692H116.12V211.763ZM129.204 211.763H132.034V226.692H128.681V222.827L129.204 211.763ZM139.581 226.897C138.699 226.897 137.909 226.757 137.212 226.477C136.515 226.197 135.923 225.811 135.438 225.318C134.959 224.819 134.594 224.245 134.341 223.596C134.088 222.946 133.961 222.252 133.961 221.514V221.125C133.961 220.297 134.078 219.535 134.31 218.838C134.542 218.141 134.881 217.536 135.325 217.023C135.776 216.503 136.33 216.104 136.986 215.823C137.643 215.536 138.391 215.393 139.232 215.393C140.018 215.393 140.719 215.522 141.334 215.782C141.949 216.035 142.469 216.401 142.893 216.879C143.316 217.351 143.638 217.922 143.856 218.592C144.082 219.255 144.195 220 144.195 220.827V222.14H135.253V220.079H141.057V219.833C141.057 219.443 140.985 219.101 140.842 218.807C140.705 218.513 140.5 218.288 140.227 218.13C139.96 217.966 139.622 217.884 139.211 217.884C138.822 217.884 138.497 217.966 138.237 218.13C137.978 218.294 137.769 218.527 137.612 218.828C137.461 219.122 137.352 219.467 137.284 219.863C137.215 220.253 137.181 220.673 137.181 221.125V221.514C137.181 221.945 137.239 222.338 137.355 222.693C137.472 223.049 137.643 223.353 137.868 223.606C138.094 223.859 138.367 224.057 138.688 224.201C139.01 224.344 139.375 224.416 139.786 224.416C140.292 224.416 140.773 224.32 141.231 224.129C141.689 223.931 142.086 223.623 142.421 223.206L143.918 224.918C143.692 225.247 143.375 225.564 142.964 225.872C142.561 226.173 142.076 226.419 141.508 226.61C140.941 226.802 140.298 226.897 139.581 226.897ZM152.213 224.211V210.942H155.433V226.692H152.542L152.213 224.211ZM145.302 221.278V221.063C145.302 220.222 145.395 219.457 145.579 218.766C145.771 218.069 146.047 217.471 146.41 216.972C146.779 216.466 147.233 216.076 147.773 215.803C148.313 215.529 148.932 215.393 149.629 215.393C150.272 215.393 150.833 215.536 151.311 215.823C151.79 216.104 152.196 216.5 152.531 217.013C152.873 217.519 153.15 218.117 153.362 218.807C153.574 219.491 153.734 220.232 153.844 221.032V221.401C153.741 222.167 153.581 222.881 153.362 223.544C153.15 224.208 152.873 224.792 152.531 225.298C152.196 225.797 151.786 226.19 151.301 226.477C150.822 226.757 150.258 226.897 149.609 226.897C148.912 226.897 148.293 226.757 147.753 226.477C147.22 226.197 146.772 225.804 146.41 225.298C146.047 224.792 145.771 224.197 145.579 223.514C145.395 222.83 145.302 222.085 145.302 221.278ZM148.501 221.063V221.278C148.501 221.716 148.532 222.123 148.594 222.499C148.662 222.875 148.771 223.206 148.922 223.493C149.072 223.78 149.271 224.006 149.517 224.17C149.763 224.327 150.063 224.406 150.419 224.406C150.897 224.406 151.291 224.296 151.598 224.078C151.906 223.852 152.138 223.541 152.295 223.145C152.453 222.748 152.535 222.287 152.542 221.76V220.684C152.542 220.246 152.497 219.853 152.408 219.504C152.319 219.156 152.186 218.862 152.008 218.623C151.837 218.383 151.622 218.202 151.362 218.079C151.103 217.949 150.795 217.884 150.439 217.884C150.091 217.884 149.793 217.966 149.547 218.13C149.301 218.288 149.1 218.51 148.942 218.797C148.792 219.084 148.679 219.422 148.604 219.812C148.536 220.195 148.501 220.612 148.501 221.063ZM160.939 215.598V226.692H157.73V215.598H160.939ZM157.535 212.727C157.535 212.262 157.699 211.882 158.027 211.588C158.355 211.288 158.786 211.137 159.319 211.137C159.853 211.137 160.283 211.288 160.611 211.588C160.946 211.882 161.114 212.262 161.114 212.727C161.114 213.185 160.946 213.564 160.611 213.865C160.283 214.159 159.853 214.306 159.319 214.306C158.786 214.306 158.355 214.159 158.027 213.865C157.699 213.564 157.535 213.185 157.535 212.727ZM167.881 224.406C168.223 224.406 168.521 224.341 168.773 224.211C169.026 224.081 169.221 223.9 169.358 223.667C169.501 223.428 169.573 223.141 169.573 222.806H172.588C172.588 223.613 172.379 224.324 171.962 224.939C171.552 225.554 170.999 226.036 170.301 226.385C169.604 226.727 168.818 226.897 167.943 226.897C167.082 226.897 166.33 226.757 165.687 226.477C165.044 226.19 164.508 225.79 164.077 225.277C163.646 224.765 163.322 224.17 163.103 223.493C162.891 222.81 162.785 222.071 162.785 221.278V221.012C162.785 220.226 162.891 219.491 163.103 218.807C163.322 218.124 163.646 217.525 164.077 217.013C164.508 216.5 165.041 216.104 165.677 215.823C166.319 215.536 167.071 215.393 167.933 215.393C168.842 215.393 169.645 215.567 170.342 215.916C171.046 216.264 171.597 216.767 171.993 217.423C172.39 218.072 172.588 218.855 172.588 219.771H169.573C169.573 219.416 169.508 219.098 169.378 218.817C169.255 218.53 169.064 218.305 168.804 218.141C168.551 217.97 168.237 217.884 167.861 217.884C167.471 217.884 167.15 217.97 166.897 218.141C166.651 218.305 166.463 218.534 166.333 218.828C166.203 219.122 166.114 219.457 166.066 219.833C166.019 220.202 165.995 220.595 165.995 221.012V221.278C165.995 221.702 166.019 222.105 166.066 222.488C166.114 222.864 166.203 223.196 166.333 223.483C166.47 223.77 166.661 223.996 166.907 224.16C167.153 224.324 167.478 224.406 167.881 224.406Z" fill="#E3E4E5"/>
<path d="M135.593 259.727H133.949L133.941 258.821H135.321C135.564 258.821 135.763 258.79 135.918 258.729C136.073 258.665 136.189 258.572 136.265 258.452C136.344 258.329 136.384 258.18 136.384 258.004C136.384 257.805 136.346 257.644 136.27 257.52C136.197 257.397 136.081 257.308 135.923 257.252C135.767 257.197 135.567 257.169 135.321 257.169H134.406V262.535H133.088V256.136H135.321C135.693 256.136 136.025 256.171 136.318 256.242C136.614 256.312 136.865 256.419 137.07 256.562C137.275 256.706 137.431 256.888 137.54 257.107C137.648 257.324 137.702 257.582 137.702 257.881C137.702 258.144 137.642 258.388 137.522 258.61C137.405 258.833 137.219 259.015 136.964 259.155C136.712 259.296 136.383 259.373 135.975 259.388L135.593 259.727ZM135.536 262.535H133.589L134.103 261.506H135.536C135.767 261.506 135.956 261.47 136.103 261.396C136.249 261.32 136.358 261.218 136.428 261.089C136.498 260.96 136.533 260.812 136.533 260.645C136.533 260.457 136.501 260.295 136.437 260.157C136.375 260.019 136.276 259.914 136.138 259.841C136 259.765 135.819 259.727 135.593 259.727H134.323L134.332 258.821H135.914L136.217 259.177C136.607 259.171 136.92 259.24 137.157 259.384C137.398 259.524 137.572 259.707 137.68 259.933C137.792 260.159 137.847 260.4 137.847 260.658C137.847 261.068 137.758 261.414 137.579 261.695C137.401 261.974 137.138 262.183 136.793 262.324C136.45 262.464 136.031 262.535 135.536 262.535ZM140.093 255.785V262.535H138.823V255.785H140.093ZM143.705 261.462V259.344C143.705 259.192 143.68 259.061 143.631 258.953C143.581 258.842 143.503 258.755 143.398 258.694C143.295 258.632 143.162 258.602 142.998 258.602C142.857 258.602 142.736 258.626 142.633 258.676C142.531 258.723 142.451 258.792 142.396 258.883C142.34 258.971 142.312 259.075 142.312 259.195H141.047C141.047 258.993 141.094 258.801 141.187 258.619C141.281 258.437 141.417 258.278 141.596 258.14C141.775 257.999 141.987 257.89 142.233 257.811C142.482 257.731 142.76 257.692 143.068 257.692C143.437 257.692 143.765 257.753 144.052 257.876C144.34 257.999 144.565 258.184 144.729 258.43C144.896 258.676 144.98 258.984 144.98 259.353V261.388C144.98 261.648 144.996 261.862 145.028 262.029C145.06 262.193 145.107 262.337 145.169 262.46V262.535H143.89C143.828 262.406 143.781 262.245 143.749 262.051C143.72 261.855 143.705 261.659 143.705 261.462ZM143.872 259.639L143.881 260.355H143.174C143.007 260.355 142.862 260.374 142.739 260.412C142.615 260.45 142.514 260.504 142.435 260.575C142.356 260.642 142.298 260.721 142.26 260.812C142.224 260.903 142.207 261.002 142.207 261.111C142.207 261.219 142.232 261.317 142.281 261.405C142.331 261.49 142.403 261.558 142.497 261.607C142.591 261.654 142.7 261.678 142.826 261.678C143.017 261.678 143.182 261.64 143.323 261.563C143.464 261.487 143.572 261.394 143.648 261.282C143.727 261.171 143.768 261.065 143.771 260.966L144.105 261.502C144.058 261.622 143.994 261.747 143.912 261.875C143.833 262.004 143.732 262.126 143.609 262.24C143.486 262.352 143.338 262.444 143.165 262.517C142.992 262.587 142.787 262.623 142.55 262.623C142.248 262.623 141.974 262.562 141.728 262.442C141.485 262.319 141.291 262.151 141.148 261.937C141.007 261.72 140.937 261.474 140.937 261.199C140.937 260.95 140.984 260.728 141.077 260.535C141.171 260.342 141.309 260.179 141.49 260.047C141.675 259.913 141.905 259.811 142.18 259.744C142.456 259.674 142.775 259.639 143.138 259.639H143.872ZM147.221 255.78V262.535H145.955V255.78H147.221ZM150.218 257.78L148.153 260.135L147.045 261.256L146.584 260.342L147.463 259.226L148.698 257.78H150.218ZM148.904 262.535L147.498 260.337L148.372 259.573L150.363 262.535H148.904ZM152.864 262.623C152.494 262.623 152.163 262.564 151.87 262.447C151.577 262.327 151.328 262.161 151.123 261.95C150.921 261.739 150.766 261.495 150.657 261.216C150.549 260.935 150.495 260.636 150.495 260.32V260.144C150.495 259.784 150.546 259.454 150.649 259.155C150.751 258.856 150.898 258.597 151.088 258.377C151.281 258.158 151.516 257.989 151.791 257.872C152.067 257.752 152.377 257.692 152.723 257.692C153.06 257.692 153.359 257.748 153.619 257.859C153.88 257.97 154.098 258.128 154.274 258.333C154.453 258.539 154.588 258.785 154.678 259.072C154.769 259.356 154.815 259.672 154.815 260.021V260.548H151.035V259.705H153.571V259.608C153.571 259.432 153.539 259.275 153.474 259.138C153.413 258.997 153.319 258.886 153.193 258.804C153.067 258.722 152.906 258.681 152.71 258.681C152.543 258.681 152.399 258.717 152.279 258.79C152.159 258.864 152.061 258.966 151.985 259.098C151.911 259.23 151.856 259.385 151.818 259.564C151.782 259.74 151.765 259.933 151.765 260.144V260.32C151.765 260.51 151.791 260.686 151.844 260.847C151.9 261.008 151.977 261.147 152.077 261.265C152.179 261.382 152.302 261.473 152.446 261.537C152.593 261.602 152.758 261.634 152.943 261.634C153.171 261.634 153.384 261.59 153.58 261.502C153.779 261.411 153.95 261.275 154.094 261.093L154.709 261.761C154.61 261.905 154.473 262.042 154.301 262.174C154.131 262.306 153.926 262.415 153.685 262.499C153.445 262.581 153.171 262.623 152.864 262.623ZM130.008 271.86C130.008 271.746 129.99 271.644 129.955 271.553C129.923 271.459 129.861 271.374 129.77 271.298C129.679 271.219 129.552 271.141 129.388 271.065C129.224 270.989 129.011 270.91 128.751 270.828C128.461 270.734 128.185 270.628 127.925 270.511C127.667 270.394 127.438 270.258 127.239 270.102C127.043 269.944 126.887 269.761 126.773 269.553C126.662 269.345 126.606 269.103 126.606 268.828C126.606 268.561 126.665 268.32 126.782 268.103C126.899 267.883 127.063 267.696 127.274 267.54C127.485 267.382 127.734 267.261 128.021 267.176C128.311 267.091 128.629 267.048 128.975 267.048C129.447 267.048 129.858 267.133 130.21 267.303C130.561 267.473 130.834 267.706 131.027 268.002C131.223 268.298 131.322 268.636 131.322 269.017H130.012C130.012 268.83 129.972 268.665 129.893 268.525C129.817 268.381 129.7 268.269 129.542 268.186C129.386 268.104 129.19 268.063 128.953 268.063C128.724 268.063 128.534 268.099 128.382 268.169C128.229 268.236 128.115 268.329 128.039 268.446C127.963 268.56 127.925 268.689 127.925 268.832C127.925 268.941 127.951 269.039 128.004 269.127C128.059 269.215 128.141 269.297 128.25 269.373C128.358 269.449 128.491 269.521 128.65 269.588C128.808 269.656 128.991 269.722 129.199 269.786C129.548 269.892 129.854 270.01 130.117 270.142C130.384 270.274 130.607 270.422 130.785 270.586C130.964 270.75 131.099 270.936 131.19 271.144C131.281 271.352 131.326 271.588 131.326 271.852C131.326 272.13 131.272 272.379 131.163 272.599C131.055 272.818 130.898 273.004 130.693 273.157C130.488 273.309 130.243 273.425 129.959 273.504C129.675 273.583 129.357 273.623 129.006 273.623C128.689 273.623 128.377 273.581 128.07 273.499C127.762 273.415 127.482 273.287 127.23 273.117C126.981 272.947 126.782 272.73 126.633 272.467C126.483 272.203 126.408 271.891 126.408 271.531H127.731C127.731 271.73 127.762 271.898 127.823 272.036C127.885 272.174 127.971 272.285 128.083 272.37C128.197 272.455 128.332 272.517 128.487 272.555C128.645 272.593 128.818 272.612 129.006 272.612C129.234 272.612 129.422 272.58 129.568 272.515C129.718 272.451 129.827 272.361 129.898 272.247C129.971 272.133 130.008 272.004 130.008 271.86ZM134.108 272.634C134.263 272.634 134.401 272.604 134.521 272.546C134.641 272.484 134.735 272.399 134.802 272.291C134.872 272.18 134.909 272.049 134.912 271.9H136.103C136.1 272.234 136.01 272.531 135.835 272.792C135.659 273.05 135.423 273.253 135.127 273.403C134.831 273.549 134.5 273.623 134.134 273.623C133.765 273.623 133.443 273.561 133.167 273.438C132.895 273.315 132.668 273.145 132.486 272.928C132.304 272.708 132.168 272.454 132.077 272.164C131.987 271.871 131.941 271.557 131.941 271.223V271.096C131.941 270.759 131.987 270.445 132.077 270.155C132.168 269.862 132.304 269.607 132.486 269.391C132.668 269.171 132.895 268.999 133.167 268.876C133.44 268.753 133.759 268.692 134.125 268.692C134.515 268.692 134.856 268.767 135.149 268.916C135.445 269.065 135.677 269.279 135.844 269.558C136.013 269.833 136.1 270.16 136.103 270.538H134.912C134.909 270.379 134.875 270.236 134.811 270.107C134.749 269.978 134.658 269.875 134.538 269.799C134.421 269.72 134.276 269.681 134.103 269.681C133.919 269.681 133.768 269.72 133.651 269.799C133.533 269.875 133.443 269.981 133.378 270.116C133.314 270.248 133.268 270.398 133.242 270.568C133.219 270.735 133.207 270.911 133.207 271.096V271.223C133.207 271.408 133.219 271.585 133.242 271.755C133.265 271.925 133.309 272.076 133.374 272.207C133.441 272.339 133.533 272.443 133.651 272.519C133.768 272.596 133.92 272.634 134.108 272.634ZM138.072 266.785V273.535H136.806V266.785H138.072ZM137.891 270.99H137.544C137.547 270.659 137.591 270.354 137.676 270.076C137.761 269.795 137.883 269.552 138.041 269.347C138.199 269.139 138.388 268.977 138.608 268.863C138.83 268.749 139.076 268.692 139.346 268.692C139.58 268.692 139.793 268.726 139.983 268.793C140.177 268.857 140.342 268.963 140.48 269.109C140.62 269.253 140.729 269.442 140.805 269.676C140.881 269.911 140.919 270.195 140.919 270.529V273.535H139.645V270.52C139.645 270.309 139.614 270.144 139.552 270.023C139.494 269.9 139.407 269.814 139.293 269.764C139.182 269.711 139.044 269.685 138.88 269.685C138.698 269.685 138.543 269.719 138.414 269.786C138.288 269.853 138.187 269.947 138.111 270.067C138.035 270.185 137.979 270.322 137.944 270.48C137.909 270.639 137.891 270.809 137.891 270.99ZM141.679 271.206V271.113C141.679 270.765 141.729 270.444 141.829 270.151C141.928 269.855 142.073 269.599 142.264 269.382C142.454 269.165 142.689 268.997 142.967 268.876C143.245 268.753 143.565 268.692 143.925 268.692C144.285 268.692 144.606 268.753 144.887 268.876C145.169 268.997 145.405 269.165 145.595 269.382C145.788 269.599 145.935 269.855 146.034 270.151C146.134 270.444 146.184 270.765 146.184 271.113V271.206C146.184 271.551 146.134 271.872 146.034 272.168C145.935 272.461 145.788 272.717 145.595 272.937C145.405 273.154 145.17 273.322 144.892 273.442C144.614 273.562 144.294 273.623 143.934 273.623C143.573 273.623 143.253 273.562 142.971 273.442C142.693 273.322 142.457 273.154 142.264 272.937C142.073 272.717 141.928 272.461 141.829 272.168C141.729 271.872 141.679 271.551 141.679 271.206ZM142.945 271.113V271.206C142.945 271.405 142.963 271.591 142.998 271.764C143.033 271.936 143.089 272.089 143.165 272.221C143.244 272.35 143.346 272.451 143.472 272.524C143.598 272.597 143.752 272.634 143.934 272.634C144.11 272.634 144.26 272.597 144.386 272.524C144.512 272.451 144.614 272.35 144.69 272.221C144.766 272.089 144.822 271.936 144.857 271.764C144.895 271.591 144.914 271.405 144.914 271.206V271.113C144.914 270.92 144.895 270.738 144.857 270.568C144.822 270.395 144.764 270.243 144.685 270.111C144.609 269.977 144.508 269.871 144.382 269.795C144.256 269.719 144.104 269.681 143.925 269.681C143.746 269.681 143.594 269.719 143.468 269.795C143.345 269.871 143.244 269.977 143.165 270.111C143.089 270.243 143.033 270.395 142.998 270.568C142.963 270.738 142.945 270.92 142.945 271.113ZM149.15 273.623C148.781 273.623 148.45 273.564 148.157 273.447C147.864 273.327 147.615 273.161 147.41 272.95C147.208 272.739 147.052 272.495 146.944 272.216C146.836 271.935 146.781 271.636 146.781 271.32V271.144C146.781 270.784 146.833 270.454 146.935 270.155C147.038 269.856 147.184 269.597 147.375 269.377C147.568 269.158 147.802 268.989 148.078 268.872C148.353 268.752 148.664 268.692 149.01 268.692C149.346 268.692 149.645 268.748 149.906 268.859C150.167 268.97 150.385 269.128 150.561 269.333C150.74 269.539 150.874 269.785 150.965 270.072C151.056 270.356 151.101 270.672 151.101 271.021V271.548H147.322V270.705H149.858V270.608C149.858 270.432 149.825 270.275 149.761 270.138C149.699 269.997 149.606 269.886 149.48 269.804C149.354 269.722 149.193 269.681 148.996 269.681C148.829 269.681 148.686 269.717 148.566 269.79C148.446 269.864 148.347 269.966 148.271 270.098C148.198 270.23 148.142 270.385 148.104 270.564C148.069 270.74 148.052 270.933 148.052 271.144V271.32C148.052 271.51 148.078 271.686 148.131 271.847C148.186 272.008 148.264 272.147 148.364 272.265C148.466 272.382 148.589 272.473 148.733 272.537C148.879 272.602 149.045 272.634 149.229 272.634C149.458 272.634 149.67 272.59 149.866 272.502C150.066 272.411 150.237 272.275 150.381 272.093L150.996 272.761C150.896 272.905 150.76 273.042 150.587 273.174C150.417 273.306 150.212 273.415 149.972 273.499C149.732 273.581 149.458 273.623 149.15 273.623ZM153.088 269.694V275.363H151.822V268.78H152.995L153.088 269.694ZM156.098 271.104V271.197C156.098 271.542 156.057 271.863 155.975 272.159C155.896 272.455 155.779 272.713 155.623 272.933C155.468 273.149 155.275 273.319 155.043 273.442C154.815 273.562 154.551 273.623 154.252 273.623C153.962 273.623 153.71 273.564 153.496 273.447C153.282 273.33 153.102 273.165 152.956 272.955C152.812 272.741 152.697 272.493 152.609 272.212C152.521 271.931 152.453 271.629 152.406 271.307V271.065C152.453 270.719 152.521 270.403 152.609 270.116C152.697 269.826 152.812 269.575 152.956 269.364C153.102 269.15 153.281 268.985 153.492 268.868C153.706 268.75 153.956 268.692 154.243 268.692C154.545 268.692 154.81 268.749 155.039 268.863C155.27 268.977 155.464 269.142 155.619 269.355C155.777 269.569 155.896 269.824 155.975 270.12C156.057 270.416 156.098 270.744 156.098 271.104ZM154.828 271.197V271.104C154.828 270.902 154.81 270.716 154.775 270.546C154.743 270.373 154.69 270.223 154.617 270.094C154.547 269.965 154.453 269.865 154.336 269.795C154.221 269.722 154.082 269.685 153.918 269.685C153.745 269.685 153.597 269.713 153.474 269.769C153.354 269.824 153.256 269.905 153.18 270.01C153.104 270.116 153.047 270.242 153.009 270.388C152.97 270.535 152.947 270.7 152.938 270.885V271.496C152.953 271.712 152.994 271.907 153.061 272.08C153.129 272.25 153.233 272.385 153.373 272.484C153.514 272.584 153.698 272.634 153.927 272.634C154.094 272.634 154.235 272.597 154.349 272.524C154.463 272.448 154.555 272.344 154.626 272.212C154.699 272.08 154.75 271.928 154.78 271.755C154.812 271.582 154.828 271.396 154.828 271.197ZM158.15 269.694V275.363H156.885V268.78H158.058L158.15 269.694ZM161.16 271.104V271.197C161.16 271.542 161.119 271.863 161.037 272.159C160.958 272.455 160.841 272.713 160.686 272.933C160.531 273.149 160.337 273.319 160.106 273.442C159.877 273.562 159.614 273.623 159.315 273.623C159.025 273.623 158.773 273.564 158.559 273.447C158.345 273.33 158.165 273.165 158.018 272.955C157.875 272.741 157.759 272.493 157.671 272.212C157.583 271.931 157.516 271.629 157.469 271.307V271.065C157.516 270.719 157.583 270.403 157.671 270.116C157.759 269.826 157.875 269.575 158.018 269.364C158.165 269.15 158.344 268.985 158.554 268.868C158.768 268.75 159.019 268.692 159.306 268.692C159.608 268.692 159.873 268.749 160.101 268.863C160.333 268.977 160.526 269.142 160.681 269.355C160.84 269.569 160.958 269.824 161.037 270.12C161.119 270.416 161.16 270.744 161.16 271.104ZM159.89 271.197V271.104C159.89 270.902 159.873 270.716 159.838 270.546C159.805 270.373 159.753 270.223 159.679 270.094C159.609 269.965 159.515 269.865 159.398 269.795C159.284 269.722 159.145 269.685 158.981 269.685C158.808 269.685 158.66 269.713 158.537 269.769C158.417 269.824 158.319 269.905 158.242 270.01C158.166 270.116 158.109 270.242 158.071 270.388C158.033 270.535 158.01 270.7 158.001 270.885V271.496C158.015 271.712 158.056 271.907 158.124 272.08C158.191 272.25 158.295 272.385 158.436 272.484C158.576 272.584 158.761 272.634 158.99 272.634C159.156 272.634 159.297 272.597 159.411 272.524C159.526 272.448 159.618 272.344 159.688 272.212C159.761 272.08 159.813 271.928 159.842 271.755C159.874 271.582 159.89 271.396 159.89 271.197Z" fill="#E3E4E5"/>
<defs>
<linearGradient id="paint0_linear_510_1499" x1="155.366" y1="330.375" x2="156.228" y2="331.574" gradientUnits="userSpaceOnUse">
<stop stop-color="#B9BABC"/>
<stop offset="0.332298" stop-color="#6F7072"/>
<stop offset="0.505068" stop-color="#1F2022"/>
<stop offset="0.691743" stop-color="#6F7072"/>
<stop offset="1" stop-color="#B9BABC"/>
</linearGradient>
<linearGradient id="paint1_linear_510_1499" x1="155.543" y1="329.925" x2="156.641" y2="331.732" gradientUnits="userSpaceOnUse">
<stop stop-color="#1D1E20"/>
<stop offset="1" stop-color="#CBCCCE"/>
</linearGradient>
<linearGradient id="paint2_linear_510_1499" x1="147.012" y1="328.833" x2="147.157" y2="330.24" gradientUnits="userSpaceOnUse">
<stop stop-color="#B9BABC"/>
<stop offset="0.332298" stop-color="#6F7072"/>
<stop offset="0.505068" stop-color="#1F2022"/>
<stop offset="0.691743" stop-color="#6F7072"/>
<stop offset="1" stop-color="#B9BABC"/>
</linearGradient>
<linearGradient id="paint3_linear_510_1499" x1="147.373" y1="328.543" x2="147.425" y2="330.568" gradientUnits="userSpaceOnUse">
<stop stop-color="#1D1E20"/>
<stop offset="1" stop-color="#CBCCCE"/>
</linearGradient>
<linearGradient id="paint4_linear_510_1499" x1="143.261" y1="324.512" x2="159.187" y2="330.602" gradientUnits="userSpaceOnUse">
<stop stop-opacity="0"/>
<stop offset="0.094718"/>
<stop offset="0.397666"/>
<stop offset="0.724935"/>
<stop offset="1" stop-opacity="0"/>
</linearGradient>
<linearGradient id="paint5_linear_510_1499" x1="122.564" y1="332.338" x2="144.539" y2="317.771" gradientUnits="userSpaceOnUse">
<stop stop-color="#CACACD"/>
<stop offset="1" stop-color="#D4D4D4"/>
</linearGradient>
<linearGradient id="paint6_linear_510_1499" x1="122.564" y1="332.338" x2="144.539" y2="317.771" gradientUnits="userSpaceOnUse">
<stop stop-color="#CACACD"/>
<stop offset="1" stop-color="#D4D4D4"/>
</linearGradient>
<linearGradient id="paint7_linear_510_1499" x1="122.564" y1="332.338" x2="144.539" y2="317.771" gradientUnits="userSpaceOnUse">
<stop stop-color="#CACACD"/>
<stop offset="1" stop-color="#D4D4D4"/>
</linearGradient>
<linearGradient id="paint8_linear_510_1499" x1="122.564" y1="332.339" x2="144.539" y2="317.771" gradientUnits="userSpaceOnUse">
<stop stop-color="#CACACD"/>
<stop offset="1" stop-color="#D4D4D4"/>
</linearGradient>
<linearGradient id="paint9_linear_510_1499" x1="122.564" y1="332.339" x2="144.539" y2="317.771" gradientUnits="userSpaceOnUse">
<stop stop-color="#CACACD"/>
<stop offset="1" stop-color="#D4D4D4"/>
</linearGradient>
<linearGradient id="paint10_linear_510_1499" x1="122.564" y1="332.338" x2="144.539" y2="317.771" gradientUnits="userSpaceOnUse">
<stop stop-color="#CACACD"/>
<stop offset="1" stop-color="#D4D4D4"/>
</linearGradient>
<linearGradient id="paint11_linear_510_1499" x1="132.115" y1="307.165" x2="131.693" y2="312.105" gradientUnits="userSpaceOnUse">
<stop stop-color="#CDCDCF"/>
<stop offset="0.583118" stop-color="#CCCCCE"/>
<stop offset="0.751085" stop-color="#929295"/>
<stop offset="0.891675" stop-color="#CCCCCE"/>
<stop offset="1" stop-color="#CDCDCF"/>
</linearGradient>
<linearGradient id="paint12_linear_510_1499" x1="133.285" y1="306.964" x2="133.064" y2="307.912" gradientUnits="userSpaceOnUse">
<stop stop-color="#B9BABC"/>
<stop offset="0.332298" stop-color="#6F7072"/>
<stop offset="0.505068" stop-color="#1F2022"/>
<stop offset="0.691743" stop-color="#6F7072"/>
<stop offset="1" stop-color="#B9BABC"/>
</linearGradient>
<linearGradient id="paint13_linear_510_1499" x1="133.522" y1="306.842" x2="133.047" y2="308.169" gradientUnits="userSpaceOnUse">
<stop stop-color="#1D1E20"/>
<stop offset="1" stop-color="#CBCCCE"/>
</linearGradient>
<linearGradient id="paint14_linear_510_1499" x1="132.734" y1="308.288" x2="132.513" y2="309.236" gradientUnits="userSpaceOnUse">
<stop stop-color="#B9BABC"/>
<stop offset="0.332298" stop-color="#6F7072"/>
<stop offset="0.505068" stop-color="#1F2022"/>
<stop offset="0.691743" stop-color="#6F7072"/>
<stop offset="1" stop-color="#B9BABC"/>
</linearGradient>
<linearGradient id="paint15_linear_510_1499" x1="132.972" y1="308.166" x2="132.497" y2="309.493" gradientUnits="userSpaceOnUse">
<stop stop-color="#1D1E20"/>
<stop offset="1" stop-color="#CBCCCE"/>
</linearGradient>
<linearGradient id="paint16_linear_510_1499" x1="145.389" y1="327.819" x2="151.036" y2="323.622" gradientUnits="userSpaceOnUse">
<stop stop-color="#CDCDCF"/>
<stop offset="0.583118" stop-color="#CCCCCE"/>
<stop offset="0.751085" stop-color="#929295"/>
<stop offset="0.891675" stop-color="#CCCCCE"/>
<stop offset="1" stop-color="#CDCDCF"/>
</linearGradient>
<linearGradient id="paint17_linear_510_1499" x1="147.126" y1="325.387" x2="147.401" y2="326.293" gradientUnits="userSpaceOnUse">
<stop stop-color="#B9BABC"/>
<stop offset="0.332298" stop-color="#6F7072"/>
<stop offset="0.505068" stop-color="#1F2022"/>
<stop offset="0.691743" stop-color="#6F7072"/>
<stop offset="1" stop-color="#B9BABC"/>
</linearGradient>
<linearGradient id="paint18_linear_510_1499" x1="147.334" y1="324.915" x2="147.864" y2="326.462" gradientUnits="userSpaceOnUse">
<stop stop-color="#1D1E20"/>
<stop offset="1" stop-color="#CBCCCE"/>
</linearGradient>
<linearGradient id="paint19_linear_510_1499" x1="148.925" y1="324.548" x2="147.909" y2="324.646" gradientUnits="userSpaceOnUse">
<stop stop-color="#B9BABC"/>
<stop offset="0.332298" stop-color="#6F7072"/>
<stop offset="0.505068" stop-color="#1F2022"/>
<stop offset="0.691743" stop-color="#6F7072"/>
<stop offset="1" stop-color="#B9BABC"/>
</linearGradient>
<linearGradient id="paint20_linear_510_1499" x1="149.132" y1="324.81" x2="147.671" y2="324.838" gradientUnits="userSpaceOnUse">
<stop stop-color="#1D1E20"/>
<stop offset="1" stop-color="#CBCCCE"/>
</linearGradient>
</defs>
</svg>
