<svg width="594" height="579" viewBox="0 0 594 579" fill="none" xmlns="http://www.w3.org/2000/svg">
<path d="M296.064 499.885C300.378 474.245 301.994 439.22 299.089 439.22C298.342 439.22 295.348 440.728 292.436 442.572C285.447 446.996 267.359 456.469 265.899 456.469C265.266 456.469 264.397 455.847 263.967 455.087C263.306 453.919 261.865 454.366 254.716 457.949C247.303 461.665 245.989 462.057 244.169 461.093C242.376 460.144 241.157 460.436 235.275 463.224C227.79 466.773 226.893 466.952 224.376 465.397C222.976 464.532 221.931 464.76 218.653 466.643C212.145 470.382 210.674 470.583 209.975 467.829C209.646 466.53 209.116 465.609 208.798 465.781C203.345 468.729 198.202 470.451 194.453 470.585C189.232 470.772 183.818 472.327 170.304 477.525C165.097 479.527 160.648 480.978 160.417 480.75C159.329 479.674 161.789 477.231 170.971 470.263L182.634 461.153C183.582 460.289 185.379 458.882 186.627 458.026C187.874 457.169 188.907 455.553 188.921 454.425C188.941 452.853 190.177 451.774 194.278 449.746C197.641 448.083 199.202 446.859 198.503 446.433C196.415 445.156 198.461 443.025 203.601 441.122C206.431 440.075 209.556 439.218 210.547 439.218C212.602 439.218 212.714 438.867 211.418 436.473C210.603 434.965 210.968 434.621 214.401 433.659C216.552 433.057 220.669 432.529 223.549 432.486C228.412 432.414 228.749 432.272 228.296 430.479C227.84 428.681 228.262 428.509 234.531 427.953C238.275 427.621 242.614 427.754 244.32 428.254C246.776 428.973 247.291 428.909 246.911 427.93C246.16 425.993 250.973 425.511 265.561 426.065L278.881 426.571L269.704 423.356C261.017 420.312 241.304 414.266 232.739 412.02C230.579 411.453 228.965 410.702 229.152 410.351C229.832 409.077 226.492 406.982 223.358 406.717C221.593 406.567 216.575 405.817 212.205 405.049C205.533 403.876 204.158 403.339 203.617 401.689C203.262 400.609 203.02 399.279 203.078 398.734C203.137 398.189 199.605 396.999 195.229 396.091C186.756 394.332 183.407 392.248 184.347 389.318C184.78 387.969 184.282 387.509 181.87 387.033C173.457 385.37 169.371 383.753 167.877 381.498C166.409 379.281 166.41 379.045 167.909 377.406C169.266 375.924 169.293 375.667 168.094 375.667C167.32 375.667 163.723 375.005 160.099 374.196C155.162 373.093 153.153 372.183 152.082 370.567C150.742 368.543 150.788 368.298 152.822 366.622C154.016 365.639 154.682 364.769 154.303 364.69L152.926 364.422C149.008 363.716 137.757 358.719 136.059 356.93C133.944 354.702 133.932 354.606 135.631 353.377C137.348 352.134 137.348 352.103 135.631 351.511C130.992 349.914 125.528 347.307 124.053 345.986C122.298 344.415 121.811 341.168 123.33 341.168C125.78 341.168 123.699 339.586 118.753 337.689C115.731 336.53 112.393 334.493 111.336 333.164L109.415 330.746L111.336 329.484C113.173 328.277 112.985 328.064 107.065 324.641C100.343 320.755 99.2757 319.68 99.9637 317.487C100.256 316.557 99.5401 315.656 97.9367 314.933C94.0435 313.178 88.3948 308.421 88.6688 307.128C89.0322 305.412 78.4142 297.304 67.4225 290.903C60.2314 286.715 58.358 285.26 59.8727 285.04C60.9813 284.879 64.0463 285.439 66.6846 286.285C72.3071 288.089 90.9634 295.386 93.2406 296.673C94.1036 297.161 95.403 297.335 96.1275 297.06C96.852 296.785 100.069 297.912 103.276 299.565L109.795 302.879C110.174 303.049 110.484 302.542 110.484 301.751C110.484 300.961 110.711 300.314 110.988 300.314C112.129 300.314 117.595 303.464 120.862 306.005C124.278 308.661 124.37 308.679 124.87 306.788C125.151 305.724 125.708 304.853 126.107 304.853C127.209 304.853 136.871 312.827 137.364 314.142C137.61 314.799 138.237 314.195 138.823 312.736L139.851 310.178L142.833 312.262C144.473 313.408 147.757 316.257 150.131 318.593L154.447 322.84L155.479 319.749C156.047 318.048 156.73 316.657 156.999 316.657C157.914 316.657 167.829 325.913 170.729 329.473L173.618 333.02L174.582 330.285C175.111 328.781 175.933 327.551 176.405 327.551C177.652 327.551 188.493 339.216 189.37 341.502C190.09 343.378 190.149 343.361 191.283 340.941C191.927 339.568 192.959 338.445 193.577 338.445C194.971 338.445 205.91 349.903 205.961 351.415C205.981 352.021 206.614 351.393 207.367 350.02C208.12 348.647 209.044 347.524 209.42 347.524C210.384 347.524 219.158 357.509 221.405 361.164L223.275 364.206L224.212 361.766C224.728 360.424 225.527 359.326 225.988 359.326C227.04 359.326 238.031 373.644 238.076 375.071C238.094 375.649 238.61 375.229 239.223 374.138C239.836 373.048 240.61 372.027 240.942 371.868C241.67 371.524 252.329 385.006 254.302 388.768C255.69 391.413 255.704 391.417 256.772 389.441C257.834 387.478 257.883 387.494 261.123 390.867C262.926 392.743 266.068 396.407 268.105 399.009C272.057 404.054 283.218 414.63 288.504 418.339L291.704 420.583L289.652 417.732C288.523 416.163 287.599 414.614 287.599 414.29C287.599 413.966 285.979 411.339 283.998 408.453C280.27 403.022 273.479 395.989 262.297 385.978C258.727 382.783 255.277 378.849 254.629 377.237C253.553 374.561 251.916 373.038 241.972 365.459C239.278 363.405 236.208 359.36 236.208 357.86C236.208 357.668 236.931 357.489 237.814 357.462C239.102 357.424 238.971 357.11 237.152 355.874C229.391 350.6 222.046 344.548 221.013 342.577C219.971 340.591 220.017 340.17 221.348 339.433C222.194 338.964 222.683 338.414 222.435 338.21C222.186 338.006 219.093 335.862 215.56 333.444C207.392 327.858 203.901 323.918 207.117 323.918C207.773 323.918 208.78 323.453 209.355 322.884C210.137 322.11 209.086 321.008 205.179 318.505C200.192 315.31 193.993 309.291 193.993 307.643C193.993 307.215 195.025 306.609 196.287 306.295C197.549 305.982 198.582 305.396 198.582 304.993C198.582 304.589 196.062 302.453 192.981 300.246C189.901 298.038 186.81 295.138 186.111 293.803C184.887 291.461 184.941 291.352 187.581 290.778C191.084 290.017 191.034 289.307 187.339 287.319C183.369 285.184 174.697 277.449 174.71 276.056C174.716 275.448 175.784 274.399 177.084 273.725L179.447 272.5L175.663 270.023C171.046 266.999 164.626 261.343 164.626 260.297C164.626 259.876 166.196 259.066 168.114 258.497L171.603 257.463L163.526 249.586C159.084 245.254 155.449 241.049 155.449 240.244C155.449 239.289 156.565 238.572 158.656 238.184L161.864 237.589L156.057 231.955C148.824 224.937 148.076 223.286 151.796 222.55C153.3 222.252 154.531 221.857 154.531 221.673C154.531 221.489 152.506 218.851 150.03 215.812C145.401 210.129 143.798 206.813 145.669 206.789C146.253 206.781 147.337 206.395 148.078 205.932C149.222 205.216 149.146 204.842 147.572 203.449C144.554 200.777 140.766 195.396 140.766 193.779C140.766 192.767 141.542 192.276 143.142 192.276H145.518L143.098 189.431C140.236 186.065 137.096 180.211 137.096 178.24C137.096 177.462 137.884 176.842 138.873 176.842C140.538 176.842 140.479 176.466 137.956 170.96C135.194 164.934 134.423 160.789 136.276 161.922C136.953 162.335 137.094 161.926 136.7 160.697C136.374 159.681 135.324 156.055 134.366 152.639C133.409 149.222 130.121 141.035 127.06 134.444C123.999 127.852 121.494 122.172 121.494 121.82C121.494 120.012 126.111 125.857 134.062 137.732C138.936 145.011 143.846 151.831 144.972 152.888C146.098 153.944 148.122 157.115 149.471 159.934C150.819 162.752 152.32 164.814 152.807 164.516C153.294 164.218 154.328 164.494 155.102 165.13C156.825 166.545 160.455 173.596 161.352 177.272L162.012 179.974L163.642 177.836L165.273 175.697L166.706 177.72C167.494 178.834 168.897 182.152 169.824 185.094C171.502 190.42 172.514 191.371 174.457 189.448C175.019 188.893 175.877 188.681 176.365 188.98C177.694 189.793 180.493 195.953 181.084 199.366L181.604 202.372L183.782 200.361C185.897 198.408 185.991 198.4 186.97 200.078C189.011 203.572 192.044 211.621 192.643 215.133L193.26 218.746L195.291 216.858C196.408 215.82 197.779 214.97 198.336 214.97C199.415 214.97 202.251 225.903 202.251 230.061V232.537L204.619 230.336C206.912 228.205 207.028 228.19 208.253 229.846C208.949 230.788 209.778 233.273 210.095 235.37C210.96 241.072 211.818 242.054 214.131 239.983C215.175 239.048 216.22 238.474 216.455 238.707C217.415 239.657 221.353 251.1 221.955 254.691C222.31 256.813 222.849 258.55 223.15 258.55C223.452 258.55 224.653 257.663 225.82 256.579C226.986 255.495 228.198 254.863 228.513 255.175C229.473 256.124 231.589 266.048 231.604 269.671C231.619 273.286 232.504 273.939 234.371 271.714C235 270.965 235.844 270.352 236.248 270.352C237.238 270.352 238.8 275.23 240.183 282.645C241.241 288.316 241.435 288.655 242.829 287.275C243.656 286.456 244.526 285.786 244.76 285.786C245.643 285.786 250.259 300.964 250.792 305.618L251.348 310.472L253.874 308.502C255.757 307.033 256.498 306.837 256.784 307.734L260.07 317.79C261.667 322.66 263.248 328.52 263.584 330.812L264.196 334.98L266.676 333.049L269.156 331.117L270.062 334.553C272.273 342.936 273.722 349.167 274.294 352.743C274.905 356.566 275.884 357.55 277.115 355.58C277.933 354.27 279.564 358.866 282.952 372.035C285.386 381.5 290.357 394.715 295.075 404.265L296.869 407.896L296.445 400.633C296.205 396.526 295.014 390.215 293.704 386.108C292.431 382.113 290.752 375.78 289.976 372.035C288.748 366.117 288.736 365.097 289.884 364.241C290.711 363.625 290.881 362.936 290.341 362.401C289.491 361.561 283.01 343.688 283.01 342.186C283.01 341.765 284.002 341.606 285.213 341.836L287.416 342.253L283.884 333.568C281.94 328.791 280.077 323.44 279.743 321.677C279.173 318.672 279.286 318.47 281.532 318.47C282.85 318.47 283.929 318.343 283.929 318.186C283.929 318.029 282.922 315.837 281.691 313.314C279.647 309.122 276.587 299.208 276.587 296.777C276.587 296.225 277.87 295.774 279.438 295.774C281.8 295.774 282.173 295.5 281.613 294.185C279.373 288.919 275.673 278.791 275.182 276.581C274.631 274.099 274.751 273.985 277.913 273.985H281.222L279.923 271.488C278.362 268.485 274.75 257.097 274.75 255.175C274.75 254.166 275.484 253.912 277.543 254.212C279.83 254.544 280.218 254.357 279.687 253.18C278.354 250.226 274.908 239.832 274.288 236.894L273.645 233.848L277.548 234.5C281.125 235.098 281.389 235.011 280.713 233.461C278.396 228.147 276.548 221.781 276.012 217.262L275.4 212.118L278.681 212.726L281.961 213.335L279.754 208.026C278.541 205.105 277.538 201.338 277.526 199.653C277.506 196.706 277.614 196.61 280.355 197.152C282.773 197.631 283.114 197.484 282.609 196.18C278.47 185.51 278.491 182.61 282.709 183.029L285.591 183.316L284.202 179.398C283.438 177.243 282.754 173.437 282.682 170.94L282.552 166.401L286.085 166.611C289.125 166.792 289.523 166.603 288.934 165.249C288.558 164.384 288.052 159.843 287.81 155.157L287.369 146.637L290.688 147.253C293.964 147.86 293.996 147.837 293.098 145.5C291.974 142.577 291.932 135.975 293.026 134.266C293.472 133.569 294.498 133.25 295.307 133.556C296.552 134.029 296.776 133.297 296.776 128.769C296.776 122.664 297.381 120.49 298.917 121.076C299.677 121.365 299.895 120.005 299.668 116.389C299.366 111.567 299.451 111.327 301.274 111.899C303.042 112.454 303.199 112.157 303.199 108.268C303.199 105.937 303.776 102.744 304.481 101.171C305.187 99.5978 306.241 94.0197 306.824 88.777C308.052 77.7518 310.325 61.411 311.181 57.4552L311.77 54.7316L312.44 57.0017C312.809 58.2503 313.152 64.3562 313.203 70.5719C313.314 84.2823 315.018 102.64 316.251 103.413C316.745 103.723 317.004 106.272 316.828 109.078C316.536 113.71 316.664 114.13 318.214 113.642C319.8 113.143 319.898 113.623 319.586 120.411C319.271 127.274 319.362 127.706 321.091 127.54C322.748 127.38 322.93 127.904 322.929 132.81C322.928 135.806 322.585 139.192 322.167 140.335C321.467 142.251 321.603 142.365 323.913 141.791L326.418 141.169L325.932 148.874C325.665 153.112 324.956 157.484 324.357 158.592C323.305 160.535 323.382 160.584 326.541 159.998L329.813 159.391V162.925C329.813 166.266 328.188 173.452 326.591 177.174C325.852 178.898 326.584 178.875 331.557 177.022C332.605 176.631 332.751 177.614 332.345 182.366C332.072 185.569 331.216 189.975 330.442 192.156L329.035 196.122L332.225 195.61C334.421 195.257 335.561 195.474 335.883 196.305C336.286 197.345 333.521 206.419 331.202 211.67C330.535 213.179 330.766 213.293 333.346 212.732C336.149 212.123 336.237 212.198 336.237 215.212C336.237 218.838 333.36 227.563 330.685 232.048C328.439 235.815 328.805 236.379 332.635 235.058L335.551 234.052L335.112 238.579C334.87 241.068 333.397 245.651 331.838 248.763C330.279 251.874 329.128 254.544 329.281 254.695C329.434 254.846 330.663 254.554 332.013 254.046C337.244 252.079 336.048 258.342 328.145 274.307C327.934 274.734 329.048 274.803 330.622 274.462C333.381 273.863 333.484 273.949 333.469 276.863C333.46 278.525 332.022 283.358 330.272 287.603L327.076 295.547C327.067 295.671 328.126 295.774 329.428 295.774C331.614 295.774 331.748 295.999 331.175 298.724C330.835 300.347 329.15 304.605 327.432 308.186C325.713 311.767 324.307 314.895 324.307 315.137C324.307 315.379 325.133 315.364 326.142 315.102C329.034 314.354 328.497 318.813 324.766 326.514C322.999 330.161 321.553 333.324 321.553 333.542C321.553 333.761 322.586 333.683 323.848 333.37C325.751 332.897 326.142 333.126 326.142 334.714C326.142 335.767 326.556 336.628 327.06 336.628C327.565 336.628 327.978 334.586 327.978 332.089C327.978 328.742 328.325 327.55 329.3 327.55C330.028 327.55 330.877 327.959 331.189 328.458C332.589 330.699 334.301 329.277 334.195 325.961C334.066 321.933 335.328 308.323 335.92 307.36C336.147 306.991 337.281 307.303 338.439 308.055L340.546 309.421L341.093 300.534C341.709 290.533 342.329 288.179 344.155 288.913L346.588 289.894C347.461 290.247 348.065 287.859 348.934 280.613C349.579 275.247 350.315 270.649 350.572 270.395C350.828 270.141 352.195 270.591 353.609 271.394L356.18 272.854L356.795 265.476C357.133 261.417 357.833 256.535 358.348 254.626L359.285 251.154L362.323 253.446L365.36 255.738L365.946 250.807C366.715 244.336 368.212 237.54 369.224 235.927C369.913 234.83 370.388 234.867 372.406 236.175L374.779 237.713L374.783 234.287C374.786 232.403 375.222 229.228 375.751 227.23C377.449 220.822 377.381 220.913 379.228 222.567C381.793 224.863 383.037 224.359 383.037 221.026C383.037 217.103 384.944 207.711 385.742 207.711C386.081 207.711 387.159 208.311 388.138 209.044C390.782 211.022 390.984 210.825 391.157 206.122C391.334 201.288 393.717 192.277 394.817 192.277C395.212 192.277 396.336 192.877 397.315 193.61C399.878 195.527 400.473 195.319 400.479 192.504C400.486 189.166 402.034 184.058 403.689 181.91C404.956 180.266 405.13 180.255 406.754 181.708C408.408 183.19 408.497 183.096 409.023 179.302C409.324 177.131 410.007 174.217 410.542 172.826C411.485 170.371 411.58 170.34 413.793 171.775C416.007 173.21 416.074 173.189 416.074 171.038C416.074 169.82 416.914 166.883 417.942 164.512C419.363 161.232 420.064 160.455 420.878 161.259C422.459 162.823 423.416 162.548 423.416 160.531C423.416 159.55 424.114 157.299 424.966 155.531C426.127 153.121 426.932 152.447 428.178 152.838C429.238 153.171 429.84 152.903 429.84 152.098C429.84 151.404 431.629 148.006 433.815 144.547C440.134 134.549 445.441 125.5 445.441 124.722C445.441 123.321 452.26 113.101 452.573 114.032C452.955 115.165 450.967 121.889 448.27 128.588C445.211 136.183 439.825 157.284 440.858 157.627C442.327 158.114 441.912 161.659 439.935 165.495C437.739 169.755 437.759 169.581 439.475 169.581C441.838 169.581 441.152 171.993 435.502 183.555C435.284 184 436.193 184.094 437.52 183.765C439.714 183.22 439.935 183.407 439.935 185.811C439.935 187.266 438.357 191.563 436.427 195.361L432.919 202.265H435.509C437.63 202.265 438.099 202.659 438.099 204.443C438.099 206.844 433.696 215.632 430.252 220.107C427.91 223.147 428.465 224.054 432.668 224.054C436.489 224.054 434.417 228.708 427.417 235.856L422.527 240.85L425.708 241.771L428.89 242.692L426.985 245.856C425.937 247.596 422.989 251.141 420.433 253.733L415.786 258.446L418.253 259.059C421.739 259.924 420.776 262.404 414.627 268.389C411.891 271.053 409.652 273.401 409.652 273.609C409.652 273.816 410.505 273.986 411.549 273.986C415.149 273.986 412.074 279.759 405.898 284.593L402.148 287.53L404.523 288.12C405.83 288.444 406.898 289.101 406.898 289.579C406.898 290.673 405.01 294.264 404.117 294.868C403.748 295.118 401.486 297.115 399.09 299.306C395.404 302.678 394.965 303.419 396.234 304.122C398.461 305.354 396.824 307.82 388.736 315.418C382.511 321.265 382.032 321.955 383.809 322.513C385.653 323.092 385.693 323.292 384.438 325.693C383.702 327.102 380.402 330.598 377.104 333.461C370.991 338.772 369.991 340.263 372.547 340.263C375.369 340.263 372.854 344.291 365.528 351.503C361.531 355.438 358.261 358.808 358.261 358.993C358.261 359.178 358.88 359.328 359.638 359.328C361.204 359.328 361.481 360.752 360.082 361.607C359.569 361.92 359.362 362.519 359.624 362.936C359.885 363.354 356.819 366.432 352.812 369.778C348.804 373.123 345.128 376.941 344.642 378.262C344.156 379.583 340.637 384.34 336.824 388.834C327.69 399.598 311.703 422.843 316.531 418.34C325.984 409.524 334.854 399.852 339.054 393.781C345.364 384.658 346.128 383.91 347.353 385.657C348.05 386.651 348.431 386.721 348.762 385.914C350.355 382.05 354.783 374.878 358.721 369.786C362.537 364.85 363.481 364.082 364.328 365.222C365.715 367.086 366.23 366.948 366.849 364.549C367.139 363.426 369.053 360.307 371.102 357.618C373.151 354.93 375.23 352.07 375.722 351.263C376.531 349.935 376.739 349.955 377.931 351.475C379.16 353.044 379.397 352.864 381.532 348.752C382.789 346.331 385.076 342.919 386.614 341.172C389.46 337.939 389.837 337.972 391.744 341.625C392.026 342.167 392.436 342.068 392.759 341.379C393.236 340.363 402.833 326.831 403.818 325.787C404.027 325.566 405.078 326.255 406.154 327.319L408.11 329.254L410.028 325.746C412.143 321.882 418.243 314.842 419.479 314.842C419.91 314.842 420.759 316.141 421.365 317.729L422.466 320.615L425.008 316.894C428.112 312.348 434.21 305.763 435.315 305.763C435.76 305.763 436.602 307.193 437.185 308.941C438.356 312.452 439.529 313.007 440.353 310.441C440.934 308.63 453.93 296.685 455.319 296.685C455.782 296.685 456.679 297.808 457.31 299.18C458.455 301.667 458.462 301.669 459.989 299.803C462.07 297.261 473.054 289.423 474.534 289.423C475.191 289.423 475.728 290.171 475.728 291.087C475.728 293.822 476.711 293.98 479.09 291.626C481.344 289.397 489.515 284.883 491.298 284.883C491.82 284.883 492.247 285.559 492.247 286.386C492.247 287.739 492.406 287.751 493.853 286.502C496.282 284.406 499.782 282.777 502.342 282.551C503.604 282.44 510.417 279.819 517.484 276.726C533.909 269.539 534.461 269.329 534.461 270.296C534.461 270.737 531.674 273.263 528.267 275.908C519.373 282.814 509.203 292.406 509.354 293.748C509.512 295.145 503.048 300.782 498.771 302.976C495.677 304.563 495.67 304.581 497.624 305.935C499.501 307.235 499.516 307.364 497.958 308.757C497.061 309.561 493.941 311.298 491.024 312.62C486.198 314.805 485.87 315.131 487.377 316.24C489.829 318.043 488.103 320.133 481.342 323.549C474.356 327.08 473.952 327.458 475.972 328.577C479.342 330.443 474.204 334.569 464.361 337.899C462.756 338.443 462.738 338.602 464.125 340.118C465.34 341.447 465.406 342.029 464.479 343.238C463.106 345.029 450.751 351.149 448.453 351.178C447.082 351.195 447.168 351.462 448.994 352.851C453.401 356.204 448.462 360.568 437.414 363.083C432.39 364.227 431.583 365.033 434.077 366.414C437.136 368.108 433.926 370.764 425.06 373.877C412.711 378.212 412.813 378.147 414.797 380.315C416.355 382.019 416.344 382.167 414.521 383.97C413.26 385.218 409.766 386.429 404.123 387.574C396.485 389.124 393.287 390.713 393.164 393.018C393.148 393.321 389.522 394.911 385.105 396.551C380.688 398.191 376.194 400.463 375.117 401.602C372.413 404.46 368.74 406.186 348.168 414.269C338.326 418.137 328.002 422.483 325.226 423.929C320.614 426.329 320.456 426.509 323.39 426.009C325.157 425.708 330.817 424.29 335.969 422.859C349.68 419.047 351.839 418.73 351.839 420.531C351.839 421.857 352.059 421.875 353.904 420.69C355.554 419.63 362.449 418.068 369.735 417.102C370.239 417.035 370.518 417.931 370.354 419.092C370.078 421.036 370.223 421.114 372.173 420.082C374.054 419.086 386.087 415.674 387.86 415.634C388.238 415.625 388.548 416.479 388.548 417.531C388.548 418.979 388.937 419.296 390.152 418.835C393.459 417.58 400.601 416.378 401.876 416.863C402.629 417.149 402.964 417.975 402.652 418.779C402.203 419.936 402.498 420.045 404.274 419.38C405.467 418.933 408.668 418.267 411.388 417.899L416.333 417.23L415.875 419.596L415.417 421.962L421.713 421.384C427.72 420.831 428.009 420.894 428.009 422.75C428.009 424.537 428.489 424.696 433.872 424.696C438.893 424.696 439.717 424.924 439.608 426.285C439.537 427.159 440 427.771 440.635 427.645C441.27 427.519 443.54 427.802 445.682 428.275C447.824 428.748 451.017 429.385 452.78 429.691C454.542 429.996 456.318 430.836 456.725 431.556C457.132 432.277 458.2 432.867 459.095 432.867C463.449 432.867 482.828 441.17 484.419 443.718C484.657 444.097 476.65 444.365 466.628 444.312C450.48 444.227 448.203 444.397 446.624 445.805C445.442 446.858 443.339 447.394 440.384 447.394C437.095 447.394 435.38 447.902 433.84 449.333C432.017 451.028 430.644 451.278 422.969 451.313C415.516 451.348 414.22 451.57 414.421 452.778C415.076 456.733 412.044 457.314 402.768 455.009C397.308 453.652 396.77 453.655 395.354 455.057C393.633 456.76 390.257 456.381 384.877 453.88C382.875 452.95 379.244 452.379 375.241 452.365C368.257 452.34 351.616 447.823 328.438 439.661C319.464 436.502 315.637 435.57 312.996 435.903C306.531 436.718 305.727 433.9 305.062 452.078C304.421 469.582 302.186 488.982 298.566 508.46C294.073 512.254 295.41 503.87 296.065 499.888L296.064 499.885ZM306.686 429.991C305 428.908 297.432 429.337 298.558 430.45C299.046 430.933 300.703 431.292 302.241 431.249C303.778 431.206 305.036 431.601 305.036 432.128C305.036 432.711 305.592 432.63 306.456 431.921C307.592 430.989 307.637 430.602 306.686 429.991ZM318.225 376.536C318.992 375.017 319.875 371.85 320.189 369.5L320.758 365.228L318.127 370.222C316.664 372.998 315.666 376.122 315.879 377.258C316.375 379.899 316.559 379.842 318.225 376.536ZM325.211 350.24C326.791 351.077 326.938 350.647 327.218 344.381C327.384 340.662 327.174 337.962 326.752 338.382C325.053 340.073 320.013 352.802 321.225 352.342C321.977 352.057 322.53 352.538 322.618 353.554C322.699 354.482 322.932 353.912 323.135 352.289C323.456 349.733 323.735 349.458 325.211 350.239L325.211 350.24Z" fill="#14471A"/>
<path d="M325.359 418.339H341.169V427.169H325.359V418.339Z" fill="#14471A"/>
<path d="M296.923 12.5C454.306 12.5 581.347 136.814 581.347 289.5C581.347 442.186 454.306 566.5 296.923 566.5C139.54 566.5 12.5 442.186 12.5 289.5C12.5 136.814 139.54 12.5001 296.923 12.5Z" stroke="#A90000" stroke-width="25"/>
<line x1="103.074" y1="500.458" x2="518.364" y2="96.8282" stroke="#A90000" stroke-width="25"/>
</svg>
