<svg width="288" height="432" viewBox="0 0 288 432" fill="none" xmlns="http://www.w3.org/2000/svg">
<path d="M256.96 42.22V48.22H31.05V42.22H256.96Z" fill="#333333"/>
<path d="M25.17 57.09C24.3744 57.09 23.6113 56.7739 23.0487 56.2113C22.4861 55.6487 22.17 54.8856 22.17 54.09V36.34C22.17 35.5443 22.4861 34.7813 23.0487 34.2186C23.6113 33.656 24.3744 33.34 25.17 33.34C25.9657 33.34 26.7288 33.656 27.2914 34.2186C27.854 34.7813 28.17 35.5443 28.17 36.34V54.09C28.17 54.8856 27.854 55.6487 27.2914 56.2113C26.7288 56.7739 25.9657 57.09 25.17 57.09Z" fill="#333333"/>
<path d="M262.83 57.09C262.034 57.09 261.271 56.7739 260.709 56.2113C260.146 55.6487 259.83 54.8856 259.83 54.09V36.34C259.83 35.5443 260.146 34.7813 260.709 34.2186C261.271 33.656 262.034 33.34 262.83 33.34C263.626 33.34 264.389 33.656 264.951 34.2186C265.514 34.7813 265.83 35.5443 265.83 36.34V54.09C265.83 54.8856 265.514 55.6487 264.951 56.2113C264.389 56.7739 263.626 57.09 262.83 57.09Z" fill="#333333"/>
<path opacity="0.2" d="M50.34 66.67V397C50.341 397.262 50.404 397.52 50.5239 397.753C50.6438 397.986 50.8172 398.187 51.0298 398.341C51.2425 398.494 51.4884 398.594 51.7474 398.634C52.0064 398.674 52.2711 398.652 52.52 398.57L153.52 364.82C153.846 364.719 154.194 364.719 154.52 364.82L255.52 398.57C255.769 398.652 256.034 398.674 256.293 398.634C256.552 398.594 256.797 398.494 257.01 398.341C257.223 398.187 257.396 397.986 257.516 397.753C257.636 397.52 257.699 397.262 257.7 397V66.67C257.703 66.4474 257.66 66.2265 257.576 66.0206C257.491 65.8148 257.365 65.6282 257.206 65.4722C257.048 65.3162 256.859 65.1939 256.651 65.1128C256.444 65.0316 256.223 64.9933 256 65H52C51.7808 64.9987 51.5635 65.041 51.3608 65.1246C51.1581 65.2082 50.9742 65.3313 50.8196 65.4868C50.6651 65.6423 50.5431 65.827 50.4607 66.0301C50.3783 66.2333 50.3373 66.4508 50.34 66.67Z" fill="#231F20"/>
<path d="M41.7 58.6V384.6C41.6991 384.859 41.7601 385.115 41.8778 385.346C41.9955 385.576 42.1665 385.776 42.3767 385.927C42.5869 386.079 42.8302 386.178 43.0864 386.217C43.3426 386.256 43.6044 386.233 43.85 386.15L143.48 352.84C143.806 352.738 144.154 352.738 144.48 352.84L244.11 386.15C244.356 386.233 244.617 386.256 244.873 386.217C245.13 386.178 245.373 386.079 245.583 385.927C245.793 385.776 245.964 385.576 246.082 385.346C246.2 385.115 246.261 384.859 246.26 384.6V58.6C246.25 58.1805 246.079 57.7809 245.784 57.4832C245.488 57.1856 245.089 57.0127 244.67 57H43.33C42.9036 57.0025 42.4949 57.1709 42.1906 57.4696C41.8863 57.7683 41.7104 58.1737 41.7 58.6Z" fill="#4D1919"/>
<path d="M244.66 389.21C244.164 389.213 243.671 389.136 243.2 388.98L144 355.81L44.7999 389C44.103 389.231 43.3613 389.293 42.6356 389.182C41.9099 389.07 41.221 388.788 40.6255 388.359C40.0301 387.929 39.545 387.365 39.2103 386.711C38.8755 386.058 38.7006 385.334 38.7 384.6V58.6C38.7105 57.3781 39.2026 56.2096 40.0695 55.3484C40.9364 54.4871 42.108 54.0026 43.33 54H244.67C245.899 54.0026 247.076 54.4927 247.944 55.3626C248.812 56.2324 249.3 57.4111 249.3 58.64V384.64C249.3 385.375 249.125 386.099 248.789 386.753C248.453 387.407 247.967 387.971 247.37 388.4C246.575 388.949 245.626 389.233 244.66 389.21ZM144 349.74C144.5 349.74 144.996 349.821 145.47 349.98L243.3 382.68V60H44.7V382.68L142.53 350C143.002 349.833 143.499 349.746 144 349.74Z" fill="#4D1919"/>
<path d="M238.05 376.68L147.13 346.28C145.097 345.61 142.903 345.61 140.87 346.28L50 376.68V66.5H238.1L238.05 376.68ZM53.45 70V371.82L139.76 343C142.513 342.09 145.487 342.09 148.24 343L234.55 371.86V70H53.45Z" fill="#E3E4E5"/>
<path d="M222.815 153.45C222.708 153.46 222.601 153.46 222.495 153.45C202.355 149.78 173.585 147.68 143.565 147.68C114.005 147.68 85.5646 149.68 65.4646 153.3C65.0072 153.381 64.5363 153.276 64.1557 153.01C63.7751 152.744 63.5158 152.337 63.435 151.88C63.3541 151.422 63.4582 150.952 63.7244 150.571C63.9907 150.19 64.3972 149.931 64.8546 149.85C85.1246 146.25 113.855 144.18 143.565 144.18C173.785 144.18 202.785 146.3 223.125 150.01C223.552 150.09 223.935 150.327 224.197 150.673C224.46 151.02 224.584 151.452 224.545 151.886C224.507 152.319 224.308 152.722 223.988 153.017C223.668 153.312 223.25 153.477 222.815 153.48V153.45Z" fill="#E3E4E5"/>
<path d="M85.2313 136.943C83.8418 137.616 82.0276 137.952 79.7885 137.952C76.868 137.952 74.5714 137.094 72.8988 135.377C71.2261 133.66 70.3898 131.372 70.3898 128.514C70.3898 125.469 71.3279 123 73.2041 121.106C75.0891 119.212 77.5317 118.265 80.5319 118.265C82.3904 118.265 83.9569 118.5 85.2313 118.969V123.097C83.9569 122.336 82.5055 121.956 80.8771 121.956C79.0893 121.956 77.6468 122.518 76.5494 123.642C75.452 124.766 74.9033 126.288 74.9033 128.208C74.9033 130.049 75.421 131.518 76.4565 132.616C77.4919 133.704 78.8858 134.248 80.6381 134.248C82.3108 134.248 83.8418 133.841 85.2313 133.027V136.943Z" fill="#E3E4E5"/>
<path d="M105.024 137.62H100.723V129.868H92.8379V137.62H88.55V118.584H92.8379V126.177H100.723V118.584H105.024V137.62Z" fill="#E3E4E5"/>
<path d="M126.118 137.62H121.446L120.092 133.386H113.321L111.98 137.62H107.334L114.264 118.584H119.348L126.118 137.62ZM119.109 130.093L117.065 123.695C116.914 123.217 116.808 122.646 116.746 121.982H116.64C116.596 122.54 116.485 123.093 116.308 123.642L114.237 130.093H119.109Z" fill="#E3E4E5"/>
<path d="M150.186 137.62H145.951V126.23C145.951 125 146.004 123.642 146.111 122.155H146.004C145.783 123.323 145.584 124.164 145.407 124.677L140.947 137.62H137.442L132.902 124.81C132.778 124.465 132.579 123.58 132.305 122.155H132.185C132.3 124.031 132.358 125.677 132.358 127.093V137.62H128.495V118.584H134.774L138.663 129.868C138.973 130.77 139.199 131.677 139.34 132.589H139.42C139.659 131.536 139.911 130.62 140.177 129.841L144.066 118.584H150.186L150.186 137.62Z" fill="#E3E4E5"/>
<path d="M158.802 131.062V137.62H154.514V118.584H161.231C166.028 118.584 168.426 120.606 168.426 124.651C168.426 126.562 167.736 128.111 166.355 129.297C164.983 130.474 163.147 131.062 160.846 131.062H158.802ZM158.802 121.876V127.81H160.488C162.771 127.81 163.913 126.81 163.913 124.81C163.913 122.854 162.771 121.876 160.488 121.876H158.802Z" fill="#E3E4E5"/>
<path d="M175.502 137.62H171.214V118.584H175.502V137.62Z" fill="#E3E4E5"/>
<path d="M187.874 137.952C185.148 137.952 182.927 137.067 181.21 135.297C179.493 133.518 178.635 131.204 178.635 128.354C178.635 125.345 179.506 122.912 181.25 121.053C182.993 119.195 185.303 118.265 188.179 118.265C190.896 118.265 193.091 119.155 194.764 120.934C196.445 122.712 197.286 125.058 197.286 127.969C197.286 130.961 196.414 133.372 194.671 135.204C192.936 137.036 190.671 137.952 187.874 137.952ZM188.06 121.956C186.555 121.956 185.361 122.522 184.476 123.655C183.591 124.779 183.148 126.27 183.148 128.129C183.148 130.014 183.591 131.505 184.476 132.602C185.361 133.7 186.52 134.248 187.954 134.248C189.432 134.248 190.604 133.717 191.471 132.655C192.339 131.585 192.772 130.102 192.772 128.208C192.772 126.235 192.352 124.699 191.511 123.602C190.671 122.504 189.52 121.956 188.06 121.956Z" fill="#E3E4E5"/>
<path d="M217.57 137.62H213.243L205.397 125.659C204.937 124.96 204.618 124.434 204.441 124.08H204.388C204.459 124.752 204.494 125.779 204.494 127.16V137.62H200.445V118.584H205.065L212.619 130.173C212.964 130.695 213.282 131.213 213.574 131.726H213.628C213.557 131.284 213.521 130.412 213.521 129.111V118.584H217.57V137.62Z" fill="#E3E4E5"/>
<path d="M130.352 259.442V251.973H132.721C133.444 251.973 134.015 252.131 134.435 252.447C134.859 252.763 135.07 253.174 135.07 253.681C135.07 254.105 134.951 254.473 134.711 254.786C134.471 255.098 134.14 255.32 133.716 255.452V255.473C134.23 255.532 134.64 255.723 134.945 256.046C135.254 256.365 135.409 256.782 135.409 257.296C135.409 257.935 135.157 258.452 134.654 258.848C134.15 259.244 133.515 259.442 132.748 259.442L130.352 259.442ZM131.586 252.968V255.093H132.388C132.819 255.093 133.156 254.992 133.399 254.791C133.645 254.586 133.768 254.298 133.768 253.926C133.768 253.287 133.341 252.968 132.487 252.968H131.586ZM131.586 256.088V258.452H132.643C133.105 258.452 133.461 258.346 133.711 258.135C133.965 257.919 134.091 257.624 134.091 257.249C134.091 256.475 133.555 256.088 132.482 256.088H131.586Z" fill="#E3E4E5"/>
<path d="M137.873 259.442H136.659V251.546H137.873V259.442Z" fill="#E3E4E5"/>
<path d="M143.539 259.442H142.367V258.608H142.347C141.979 259.247 141.439 259.567 140.727 259.567C140.202 259.567 139.791 259.424 139.492 259.14C139.197 258.855 139.05 258.478 139.05 258.009C139.05 257.003 139.63 256.416 140.789 256.249L142.373 256.025C142.373 255.265 142.012 254.884 141.289 254.884C140.654 254.884 140.081 255.103 139.571 255.541V254.483C140.133 254.15 140.782 253.983 141.518 253.983C142.866 253.983 143.539 254.647 143.539 255.973L143.539 259.442ZM142.373 256.822L141.253 256.978C140.906 257.023 140.643 257.108 140.466 257.233C140.293 257.355 140.206 257.57 140.206 257.879C140.206 258.105 140.286 258.291 140.445 258.437C140.609 258.579 140.826 258.65 141.097 258.65C141.465 258.65 141.768 258.522 142.008 258.265C142.251 258.004 142.373 257.678 142.373 257.286V256.822Z" fill="#E3E4E5"/>
<path d="M149.852 259.442H148.32L146.248 256.879H146.227V259.442H145.013V251.546H146.227V256.551H146.248L148.206 254.108H149.659L147.456 256.681L149.852 259.442Z" fill="#E3E4E5"/>
<path d="M154.94 257.103H151.305C151.319 257.596 151.47 257.976 151.758 258.244C152.05 258.511 152.449 258.645 152.956 258.645C153.525 258.645 154.048 258.475 154.524 258.134V259.108C154.038 259.414 153.395 259.567 152.597 259.567C151.812 259.567 151.196 259.325 150.748 258.843C150.303 258.357 150.081 257.674 150.081 256.796C150.081 255.966 150.326 255.291 150.815 254.77C151.308 254.246 151.919 253.983 152.649 253.983C153.378 253.983 153.942 254.218 154.341 254.687C154.741 255.155 154.94 255.806 154.94 256.64V257.103ZM153.774 256.249C153.77 255.815 153.668 255.478 153.466 255.239C153.265 254.996 152.987 254.874 152.633 254.874C152.286 254.874 151.991 255.001 151.748 255.254C151.508 255.508 151.36 255.839 151.305 256.249H153.774Z" fill="#E3E4E5"/>
<path d="M123.451 268.635V267.359C123.565 267.463 123.701 267.557 123.857 267.64C124.017 267.724 124.185 267.795 124.362 267.854C124.539 267.909 124.716 267.953 124.893 267.984C125.07 268.015 125.234 268.031 125.383 268.031C125.904 268.031 126.291 267.944 126.544 267.771C126.801 267.597 126.93 267.345 126.93 267.015C126.93 266.838 126.886 266.686 126.8 266.557C126.716 266.425 126.598 266.305 126.445 266.198C126.293 266.09 126.112 265.988 125.904 265.89C125.699 265.79 125.478 265.685 125.242 265.578C124.989 265.442 124.753 265.305 124.534 265.166C124.315 265.028 124.124 264.875 123.961 264.708C123.801 264.538 123.675 264.347 123.581 264.135C123.491 263.923 123.445 263.675 123.445 263.39C123.445 263.04 123.524 262.736 123.68 262.479C123.84 262.218 124.048 262.005 124.305 261.838C124.565 261.668 124.86 261.543 125.19 261.463C125.52 261.38 125.857 261.338 126.201 261.338C126.982 261.338 127.551 261.427 127.909 261.604V262.828C127.485 262.522 126.94 262.37 126.274 262.37C126.09 262.37 125.906 262.387 125.721 262.422C125.541 262.456 125.378 262.514 125.232 262.593C125.09 262.673 124.973 262.776 124.883 262.901C124.793 263.026 124.748 263.177 124.748 263.354C124.748 263.521 124.782 263.665 124.852 263.786C124.921 263.908 125.022 264.019 125.154 264.12C125.289 264.22 125.452 264.319 125.643 264.416C125.838 264.51 126.062 264.613 126.315 264.724C126.576 264.859 126.82 265.001 127.05 265.151C127.282 265.3 127.485 265.465 127.659 265.646C127.836 265.826 127.975 266.028 128.076 266.25C128.18 266.469 128.232 266.719 128.232 267C128.232 267.378 128.156 267.698 128.003 267.958C127.85 268.219 127.643 268.43 127.383 268.594C127.126 268.757 126.829 268.875 126.492 268.948C126.156 269.021 125.8 269.057 125.425 269.057C125.3 269.057 125.145 269.047 124.961 269.026C124.781 269.009 124.595 268.981 124.404 268.943C124.213 268.908 124.032 268.864 123.862 268.812C123.692 268.76 123.555 268.701 123.451 268.635Z" fill="#E3E4E5"/>
<path d="M133.284 268.687C132.857 268.934 132.352 269.057 131.768 269.057C130.977 269.057 130.338 268.81 129.852 268.317C129.366 267.821 129.123 267.178 129.123 266.39C129.123 265.512 129.383 264.807 129.904 264.276C130.428 263.741 131.128 263.474 132.003 263.474C132.489 263.474 132.918 263.559 133.289 263.729V264.854C132.918 264.576 132.522 264.437 132.102 264.437C131.591 264.437 131.173 264.611 130.847 264.958C130.52 265.302 130.357 265.753 130.357 266.312C130.357 266.864 130.51 267.3 130.815 267.619C131.124 267.939 131.537 268.099 132.055 268.099C132.489 268.099 132.899 267.944 133.284 267.635V268.687Z" fill="#E3E4E5"/>
<path d="M139.222 268.932H138.013V266.015C138.013 264.96 137.661 264.432 136.956 264.432C136.602 264.432 136.303 264.585 136.06 264.89C135.817 265.196 135.695 265.586 135.695 266.062V268.932H134.482V261.036H135.695V264.484H135.716C136.119 263.81 136.695 263.474 137.445 263.474C138.629 263.474 139.221 264.198 139.221 265.646L139.222 268.932Z" fill="#E3E4E5"/>
<path d="M143.055 269.057C142.232 269.057 141.574 268.809 141.081 268.312C140.591 267.812 140.347 267.151 140.347 266.328C140.347 265.432 140.602 264.732 141.112 264.229C141.626 263.725 142.317 263.474 143.185 263.474C144.018 263.474 144.668 263.718 145.133 264.208C145.598 264.698 145.831 265.376 145.831 266.244C145.831 267.095 145.579 267.777 145.076 268.291C144.576 268.802 143.902 269.057 143.055 269.057ZM143.112 264.437C142.64 264.437 142.267 264.602 141.992 264.932C141.718 265.262 141.581 265.717 141.581 266.297C141.581 266.856 141.72 267.297 141.998 267.619C142.275 267.939 142.647 268.099 143.112 268.099C143.588 268.099 143.952 267.941 144.206 267.625C144.463 267.309 144.591 266.859 144.591 266.276C144.591 265.689 144.463 265.236 144.206 264.916C143.952 264.597 143.588 264.437 143.112 264.437Z" fill="#E3E4E5"/>
<path d="M151.576 266.593H147.94C147.954 267.086 148.105 267.467 148.393 267.734C148.685 268.001 149.084 268.135 149.591 268.135C150.161 268.135 150.683 267.965 151.159 267.625V268.599C150.673 268.904 150.031 269.057 149.232 269.057C148.447 269.057 147.831 268.816 147.383 268.333C146.939 267.847 146.716 267.165 146.716 266.286C146.716 265.456 146.961 264.781 147.451 264.26C147.944 263.736 148.555 263.474 149.284 263.474C150.013 263.474 150.577 263.708 150.977 264.177C151.376 264.646 151.576 265.297 151.576 266.13V266.593ZM150.409 265.739C150.406 265.305 150.303 264.968 150.102 264.729C149.9 264.486 149.623 264.364 149.268 264.364C148.921 264.364 148.626 264.491 148.383 264.744C148.143 264.998 147.996 265.33 147.94 265.739H150.409Z" fill="#E3E4E5"/>
<path d="M153.956 268.146H153.935V271.385H152.727V263.599H153.935V264.536H153.956C154.369 263.828 154.973 263.474 155.768 263.474C156.446 263.474 156.973 263.711 157.352 264.187C157.73 264.663 157.919 265.302 157.919 266.104C157.919 266.993 157.706 267.705 157.279 268.239C156.852 268.774 156.268 269.041 155.529 269.041C154.848 269.041 154.324 268.743 153.956 268.146ZM153.925 266.041V266.703C153.925 267.092 154.048 267.422 154.295 267.692C154.545 267.963 154.861 268.099 155.242 268.099C155.69 268.099 156.041 267.925 156.295 267.578C156.551 267.227 156.68 266.739 156.68 266.114C156.68 265.59 156.56 265.18 156.321 264.885C156.084 264.586 155.763 264.437 155.357 264.437C154.926 264.437 154.579 264.59 154.315 264.896C154.055 265.201 153.925 265.583 153.925 266.041Z" fill="#E3E4E5"/>
<path d="M160.383 268.146H160.362V271.385H159.154V263.599H160.362V264.536H160.383C160.796 263.828 161.4 263.474 162.196 263.474C162.873 263.474 163.4 263.711 163.779 264.187C164.157 264.663 164.347 265.302 164.347 266.104C164.347 266.993 164.133 267.705 163.706 268.239C163.279 268.774 162.696 269.041 161.956 269.041C161.275 269.041 160.751 268.743 160.383 268.146ZM160.352 266.041V266.703C160.352 267.092 160.475 267.422 160.722 267.692C160.972 267.963 161.288 268.099 161.67 268.099C162.118 268.099 162.468 267.925 162.722 267.578C162.979 267.227 163.107 266.739 163.107 266.114C163.107 265.59 162.987 265.18 162.748 264.885C162.512 264.586 162.19 264.437 161.784 264.437C161.354 264.437 161.006 264.59 160.743 264.896C160.482 265.201 160.352 265.583 160.352 266.041Z" fill="#E3E4E5"/>
<path d="M134.975 103.235H127.358V102.296C127.358 101.912 127.411 101.554 127.518 101.221C127.626 100.882 127.77 100.566 127.95 100.273C128.131 99.9739 128.342 99.6946 128.585 99.4351C128.828 99.1699 129.087 98.916 129.364 98.6734C129.64 98.4251 129.922 98.1881 130.21 97.9624C130.498 97.7311 130.78 97.4998 131.056 97.2684C131.316 97.0484 131.553 96.834 131.767 96.6252C131.982 96.4108 132.165 96.1907 132.317 95.965C132.47 95.7393 132.588 95.5024 132.673 95.2541C132.757 95.0002 132.8 94.7265 132.8 94.4331C132.8 94.1115 132.749 93.8322 132.647 93.5953C132.551 93.3526 132.413 93.1523 132.233 92.9943C132.058 92.8307 131.849 92.7094 131.606 92.6304C131.364 92.5458 131.099 92.5035 130.811 92.5035C130.314 92.5035 129.809 92.6191 129.296 92.8505C128.782 93.0818 128.289 93.4288 127.815 93.8915V92.0041C128.063 91.8179 128.314 91.6571 128.568 91.5217C128.822 91.3806 129.084 91.265 129.355 91.1747C129.626 91.0788 129.911 91.0082 130.21 90.9631C130.509 90.918 130.828 90.8954 131.166 90.8954C131.714 90.8954 132.21 90.9687 132.656 91.1154C133.102 91.2565 133.482 91.4681 133.798 91.7502C134.114 92.0267 134.357 92.3737 134.526 92.7912C134.701 93.2087 134.789 93.6883 134.789 94.23C134.789 94.7209 134.727 95.1638 134.602 95.5588C134.484 95.9481 134.312 96.312 134.086 96.6506C133.866 96.9891 133.598 97.3107 133.282 97.6154C132.966 97.9201 132.614 98.2333 132.224 98.5549C131.897 98.8201 131.57 99.0796 131.242 99.3335C130.921 99.5818 130.63 99.8272 130.371 100.07C130.111 100.307 129.9 100.547 129.736 100.789C129.578 101.026 129.499 101.266 129.499 101.509V101.551H134.975V103.235Z" fill="#E3E4E5"/>
<path d="M140.832 103.438C139.568 103.438 138.58 102.922 137.869 101.89C137.164 100.857 136.811 99.3646 136.811 97.4123C136.811 95.2682 137.181 93.646 137.92 92.5458C138.659 91.4455 139.726 90.8954 141.119 90.8954C143.788 90.8954 145.123 92.9689 145.123 97.1161C145.123 99.1699 144.745 100.738 143.988 101.822C143.238 102.899 142.186 103.438 140.832 103.438ZM141.026 92.4611C139.554 92.4611 138.817 94.0833 138.817 97.3277C138.817 100.363 139.539 101.881 140.984 101.881C142.406 101.881 143.117 100.338 143.117 97.2515C143.117 94.0579 142.42 92.4611 141.026 92.4611Z" fill="#E3E4E5"/>
<path d="M150.979 90.8276V103.235H149.016V93.2313C148.66 93.4852 148.277 93.7024 147.865 93.883C147.458 94.0579 146.993 94.213 146.468 94.3485V92.6727C146.796 92.5655 147.111 92.4526 147.416 92.3341C147.721 92.2157 148.02 92.0831 148.313 91.9364C148.612 91.7897 148.911 91.626 149.21 91.4455C149.515 91.2649 149.828 91.059 150.15 90.8276H150.979Z" fill="#E3E4E5"/>
<path d="M154.06 102.956V101.069C154.856 101.605 155.662 101.873 156.481 101.873C157.304 101.873 157.967 101.664 158.47 101.246C158.972 100.823 159.223 100.262 159.223 99.562C159.223 98.8737 158.966 98.3376 158.453 97.954C157.945 97.5703 157.214 97.3784 156.261 97.3784C155.933 97.3784 155.27 97.4123 154.272 97.48L154.703 91.0985H160.679V92.7743H156.337L156.134 95.8127C156.523 95.7901 156.876 95.7788 157.192 95.7788C158.478 95.7788 159.471 96.1089 160.171 96.7691C160.876 97.4292 161.229 98.332 161.229 99.4774C161.229 100.679 160.825 101.644 160.018 102.372C159.217 103.094 158.114 103.455 156.709 103.455C155.524 103.455 154.641 103.289 154.06 102.956Z" fill="#E3E4E5"/>
<path d="M130.828 313.998C132.04 315.595 134.416 314.838 134.414 318.669C134.412 321.95 133.307 325.106 133.879 328.051C134.762 332.602 139.331 332.214 142.644 332.248L144.29 322.907L144.331 312.29L135.1 310.903L131.549 313.476L130.828 313.998Z" fill="black"/>
<path d="M166.14 326.383C166.038 328.014 166.023 329.279 165.558 330.311L165.034 331.475C164.778 331.906 164.67 332.274 164.743 332.61C164.984 333.709 163.745 334.127 162.488 334.152C160.391 334.195 158.575 333.438 157.032 332.406L166.14 326.383Z" fill="white" stroke="black" stroke-width="0.230447"/>
<path d="M158.138 332.73C159.297 333.346 161.89 334.436 163.78 333.645C164.209 333.465 163.993 333.353 163.908 333.384C162.536 333.219 162.323 333.106 161.63 331.795C160.578 331.96 158.579 331.929 158.106 332.549C158 332.652 158.115 332.651 158.138 332.73Z" fill="black"/>
<path d="M162.108 331.981C163.007 333.929 163.966 332.562 164.413 331.22" stroke="black" stroke-width="0.230447" stroke-linecap="round" stroke-linejoin="round"/>
<path d="M136.605 313.101L136.473 310.709L146.935 316.228L141.451 329.565C141.626 328.556 141.266 326.843 141.691 325.804C142.783 323.131 143.462 320.875 143.135 319.171C142.257 314.591 139.039 313.805 136.605 313.101Z" fill="#4D4D4D" stroke="black" stroke-width="0.230447"/>
<path d="M131.164 314.307C129.237 313.846 129.028 310.752 131.746 306.683C139.283 295.402 150.042 296.735 155.025 298.07C164.13 300.51 170.727 309.9 168.119 321.174C167.351 324.494 165.878 328.18 163.463 331.737C163.241 332.064 162.998 332.446 161.834 332.086C160.254 331.598 159.008 331.52 158.051 332.173C152.403 336.029 148.381 336.102 144.869 334.647C141.006 333.045 141.098 329.854 141.698 327.023C142.204 324.632 143.802 322.313 143.531 319.632C142.981 314.209 138.856 313.479 136.14 312.852C133.709 312.291 130.952 312.887 131.164 314.307Z" fill="#E3E4E5"/>
<path d="M151.848 324.752L153.275 326.886C154.452 326.943 155.323 326.541 155.808 325.878C156.382 325.092 156.437 323.981 156.133 323.425C155.496 322.261 153.838 321.771 152.703 322.917C152.314 323.31 152.088 323.961 151.848 324.752Z" fill="black" stroke="black" stroke-width="0.230447"/>
<path d="M155.853 331.781C156.367 331.781 156.783 331.387 156.783 330.901C156.783 330.415 156.367 330.021 155.853 330.021C155.34 330.021 154.924 330.415 154.924 330.901C154.924 331.387 155.34 331.781 155.853 331.781Z" fill="url(#paint0_linear_510_502)" stroke="url(#paint1_linear_510_502)" stroke-width="0.0911904" stroke-linecap="round" stroke-linejoin="round"/>
<path d="M150.421 329.059C151.32 331.007 156.682 329.723 157.129 328.38" stroke="black" stroke-width="0.230447" stroke-linecap="round" stroke-linejoin="round"/>
<path d="M146.747 330.234C147.174 330.478 147.707 330.349 147.939 329.945C148.17 329.541 148.012 329.015 147.585 328.77C147.158 328.526 146.625 328.655 146.393 329.059C146.162 329.463 146.32 329.989 146.747 330.234Z" fill="url(#paint2_linear_510_502)" stroke="url(#paint3_linear_510_502)" stroke-width="0.087355" stroke-linecap="round" stroke-linejoin="round"/>
<path d="M143.426 324.78C138.807 334.676 150.915 336.71 158.899 330.932C155.779 332.399 153.459 333.425 151.131 333.633C147.636 333.945 144.997 333.168 143.731 331.559C142.456 329.942 142.567 327.483 143.426 324.78Z" fill="url(#paint4_linear_510_502)"/>
<path d="M137.066 319.752C137.557 319.721 138.314 319.842 138.703 320.688C138.857 321.021 138.873 321.496 138.776 322.084C138.285 325.059 140.144 326.793 142.273 328.586L142.15 331.878C139.332 332.124 136.709 331.827 135.322 330.392C133.725 328.739 133.83 325.473 134.519 322.276C134.886 320.998 135.636 319.863 137.066 319.752Z" fill="#4D4D4D"/>
<path d="M133.858 315.047C135.221 316.276 135.322 318.194 135.031 319.862C134.946 320.347 134.591 320.07 134.619 319.903C134.92 318.139 134.691 316.713 133.529 315.253C133.199 314.839 133.601 314.815 133.858 315.047Z" fill="white"/>
<path d="M133.982 307.259C134.16 306.808 130.678 308.496 130.945 308.004C131.177 307.577 131.443 307.136 131.746 306.683C139.283 295.402 150.042 296.735 155.025 298.07C147.336 298.261 139.628 298.367 133.982 307.259Z" fill="#4D4D4D"/>
<path d="M131.164 314.307C129.237 313.846 129.028 310.752 131.746 306.683C139.283 295.402 150.042 296.735 155.025 298.07C164.13 300.51 170.727 309.9 168.119 321.174C167.351 324.494 165.878 328.18 163.463 331.737C163.241 332.064 162.998 332.446 161.834 332.086C160.254 331.598 159.008 331.52 158.051 332.173C152.403 336.029 148.381 336.102 144.869 334.647C141.006 333.045 141.098 329.854 141.698 327.023C142.204 324.632 143.802 322.313 143.531 319.632C142.981 314.209 138.856 313.479 136.14 312.852C133.709 312.291 130.952 312.887 131.164 314.307Z" stroke="black" stroke-width="0.230447"/>
<path d="M135.456 306.945C135.834 307.101 136.58 306.749 136.212 307.935L134.947 311.295C134.36 312.852 135.772 313.207 136.984 313.594L134.685 313.609L133.754 311.848L134.728 308.007L135.456 306.945Z" fill="#F2F2F2" stroke="black" stroke-width="0.230447"/>
<path d="M130.742 306.494L132.153 307.178L130.96 311.921C129.426 312.371 127.558 311.895 128.458 310.306C129.177 309.036 129.908 307.765 130.742 306.494Z" fill="#D0D0D1" stroke="black" stroke-width="0.230447"/>
<path d="M131.564 307.071L135.36 306.982C135.834 306.97 135.949 307.039 135.813 307.434L134.537 311.138C134.059 312.525 134.532 313.373 135.73 313.689L131.592 313.526C131.211 313.596 131.117 314.049 131.164 314.278C128.718 313.301 129.847 309.311 131.564 307.071Z" fill="white" stroke="black" stroke-width="0.230447"/>
<path d="M133.667 306.747L134.581 307.314C134.894 307.509 135.343 307.729 135.102 308.333L133.894 311.65L132.736 309.569L133.667 306.747Z" fill="#CCCCCE" stroke="black" stroke-width="0.230447" stroke-linecap="round" stroke-linejoin="round"/>
<path d="M133.671 306.558C133.931 306.962 135.097 307.019 134.64 308.231L133.756 310.442L133.961 311.344C133.894 311.784 133.745 312.108 133.468 312.247L132.921 312.32L131.971 311.403L132.08 309.133L133.671 306.558Z" fill="#CCCCCE" stroke="black" stroke-width="0.230447" stroke-linecap="round" stroke-linejoin="round"/>
<path d="M151.79 327.864C152.364 328.209 152.986 327.744 152.88 327.246L146.317 316.938C144.957 314.511 143.239 313.125 141.276 312.452C138.86 311.588 136.378 311.184 133.91 310.683C132.898 310.635 132.839 311.706 133.704 311.938C135.632 312.334 137.529 312.543 139.506 313.234C141.675 313.873 143.631 314.832 144.712 317.103L151.79 327.864Z" fill="#CDCDCF" stroke="black" stroke-width="0.230447"/>
<path d="M134.458 318.545C130.669 322.451 126.241 321.722 122.976 321.187C122.275 321.064 121.838 321.2 121.577 321.763C120.071 325 119.596 328.772 119.27 332.721C119.246 333.016 119.361 333.375 119.708 333.452C121.533 333.485 120.649 333.303 120.834 332.186C120.777 330.092 121.02 326.074 122.729 322.627C122.883 322.316 123.227 322.145 124.087 322.38C127.423 323.36 129.851 323.031 131.598 322.145C133.028 321.42 133.61 321.078 134.346 320.552L134.458 318.545Z" fill="url(#paint5_linear_510_502)" stroke="black" stroke-width="0.230447" stroke-linecap="round" stroke-linejoin="round"/>
<path d="M123.926 327.812C123.015 327.635 122.152 327.469 121.176 327.186C120.571 327.01 120.256 325.308 121.822 325.539C126.408 326.214 129.25 325.952 133.793 325.082L133.763 326.329C128.459 327.344 126.69 327.219 123.072 326.305L121.95 326.108C122.97 326.318 123.458 326.49 124.479 326.619L123.926 327.812Z" fill="url(#paint6_linear_510_502)" stroke="black" stroke-width="0.230447" stroke-linecap="round" stroke-linejoin="round"/>
<path d="M125.551 323.038L122.801 322.442C122.228 322.18 122.016 321.278 122.991 321.176L126.177 321.729L125.551 323.038Z" fill="url(#paint7_linear_510_502)" stroke="black" stroke-width="0.230447" stroke-linecap="round" stroke-linejoin="round"/>
<path d="M132.44 315.095L127.79 326.33C126.173 330.238 124.488 331.117 121.042 331.968C119.421 332.136 119.383 332.94 119.624 333.304C119.942 333.783 121.631 334.361 123.284 334.499L123.408 333.223C122.753 333.031 121.979 333.074 121.564 332.963C121.295 332.891 121.289 332.8 121.673 332.813C121.903 332.821 122.151 332.891 122.477 332.879C123.556 332.838 124.317 332.369 125.239 331.721C127.04 330.456 127.852 329.461 129.478 325.59L133.592 315.795C133.332 315.14 132.89 315.103 132.44 315.095Z" fill="url(#paint8_linear_510_502)" stroke="black" stroke-width="0.230447" stroke-linecap="round" stroke-linejoin="round"/>
<path d="M143.738 313.833C144.104 314.1 144.459 314.426 144.798 314.831L138.035 329.495L136.43 329.598L143.738 313.833Z" fill="url(#paint9_linear_510_502)" stroke="black" stroke-width="0.230447" stroke-linecap="round" stroke-linejoin="round"/>
<path d="M147.417 318.923C147.756 318.996 148.263 319.584 148.23 320.014C146.911 321.236 146.168 321.879 144.727 322.994C143.633 323.842 142.36 324.332 141.061 324.435C137.57 324.712 134.165 324.262 130.818 323.838L126.817 323.14C126.827 323.077 126.791 322.925 126.744 322.994C125.944 324.244 125.684 325.513 125.435 326.835L134.484 328.203C135.115 328.298 138.82 328.495 141.439 328.028L150.781 326.365L151.536 327.519C147.495 328.216 143.544 328.996 139.082 329.483C137.109 329.699 134.738 329.582 133.67 329.396L125.289 327.941C125.154 327.918 125.062 327.918 125.027 328.028C124.415 330.017 124.36 331.866 124.358 333.703C124.472 333.72 124.406 333.518 124.518 333.541C129.398 334.567 135.26 332.825 136.379 329.642L137.948 329.575C135.315 334.976 129.02 335.399 124.184 334.663C123.698 334.799 123.342 334.678 123.02 334.488C122.899 329.723 123.966 325.521 125.93 321.743C126.042 321.527 126.954 321.294 126.992 322.049C133.631 323.154 136.344 323.07 140.1 323.285C141.936 323.391 143.611 322.439 145.309 320.87L147.417 318.923Z" fill="url(#paint10_linear_510_502)" stroke="black" stroke-width="0.230447" stroke-linecap="round" stroke-linejoin="round"/>
<path d="M131.628 310.381L129.302 310.262C128.439 310.505 128.428 311.479 129.389 311.485L131.606 311.414L131.628 310.381Z" fill="#D0D0D1" stroke="black" stroke-width="0.230447"/>
<path d="M132.676 306.767C133.279 306.303 133.805 306.208 134.151 306.973L132.741 310.173C132.442 310.85 131.986 311.486 133.339 312.281C132.683 312.432 132.176 312.517 131.622 312.37C131.52 312.343 131.413 312.306 131.356 312.199C130.952 311.447 130.845 310.683 131.31 309.689L132.676 306.767Z" fill="url(#paint11_linear_510_502)" stroke="black" stroke-width="0.230447" stroke-linecap="round" stroke-linejoin="round"/>
<path d="M132.769 307.809C132.881 308.038 133.145 308.047 133.36 307.83C133.576 307.613 133.659 307.251 133.547 307.023C133.436 306.794 133.171 306.784 132.956 307.001C132.741 307.218 132.657 307.58 132.769 307.809Z" fill="url(#paint12_linear_510_502)" stroke="url(#paint13_linear_510_502)" stroke-width="0.0509192" stroke-linecap="round" stroke-linejoin="round"/>
<path d="M132.219 309.133C132.33 309.362 132.595 309.371 132.81 309.154C133.025 308.937 133.109 308.575 132.997 308.347C132.886 308.118 132.621 308.108 132.406 308.325C132.191 308.542 132.107 308.904 132.219 309.133Z" fill="url(#paint14_linear_510_502)" stroke="url(#paint15_linear_510_502)" stroke-width="0.0509192" stroke-linecap="round" stroke-linejoin="round"/>
<path d="M149.784 322.167L150.998 323.926C151.352 324.439 150.894 324.615 150.627 324.79L147.479 326.858C147.031 327.152 146.73 327.086 146.492 326.837L145.545 325.85L145.627 324.471L148.158 322.928L149.784 322.167Z" fill="url(#paint16_linear_510_502)" stroke="black" stroke-width="0.230447" stroke-linecap="round" stroke-linejoin="round"/>
<path d="M145.525 325.685C144.98 325.023 144.898 324.38 145.545 323.936L147.973 322.269L148.487 322.907C147.116 323.76 145.647 324.593 145.525 325.685Z" fill="#CBCBCE" stroke="black" stroke-width="0.230447" stroke-linecap="round" stroke-linejoin="round"/>
<path d="M148.261 322.681C149.087 322.685 149.367 322.238 149.434 321.796C149.663 322.052 150.182 322.248 149.496 322.743C147.137 324.035 145.268 325.371 145.813 326.158C145.436 325.731 145.105 325.291 145.751 324.594L148.261 322.681Z" fill="#CECED0" stroke="black" stroke-width="0.230447" stroke-linecap="round" stroke-linejoin="round"/>
<path d="M146.848 326.228C147.179 326.418 147.594 326.318 147.774 326.004C147.954 325.69 147.831 325.281 147.499 325.091C147.168 324.901 146.753 325.002 146.573 325.316C146.393 325.63 146.516 326.038 146.848 326.228Z" fill="url(#paint17_linear_510_502)" stroke="url(#paint18_linear_510_502)" stroke-width="0.0678814" stroke-linecap="round" stroke-linejoin="round"/>
<path d="M147.916 324.351C147.737 324.657 147.828 325.043 148.119 325.212C148.409 325.381 148.789 325.269 148.967 324.962C149.146 324.655 149.055 324.27 148.765 324.101C148.474 323.932 148.094 324.044 147.916 324.351Z" fill="url(#paint19_linear_510_502)" stroke="url(#paint20_linear_510_502)" stroke-width="0.063006" stroke-linecap="round" stroke-linejoin="round"/>
<path d="M150.38 306.097L151.174 307.02L151.341 307.091L151.759 307.778L151.868 307.692L152.276 308.297L152.234 308.444L152.437 308.326L152.788 309.073L152.991 308.956L153.294 309.688L153.471 309.603L153.529 309.64L153.743 310.205L153.697 310.43L153.942 310.346L154.157 310.971L154.11 311.136L154.308 311.037L154.47 311.486L154.393 311.762L154.575 311.658L154.701 312.176L154.665 312.364L154.847 312.261L154.937 312.967L155.099 312.997L155.153 313.472L155.096 313.614L155.226 313.694L155.264 314.284L155.431 314.296L155.252 313.663L155.273 313.589L155.434 313.619L155.255 312.926L155.286 312.815L155.401 312.891L155.338 312.632L155.4 312.411L155.326 312.07L155.414 311.758L155.482 311.699L155.465 311.215L155.49 310.943L155.511 310.87L155.652 310.913L155.661 310.637L155.67 310.301L155.763 310.03L155.878 310.105L155.935 310.083L155.944 309.867L155.954 309.591L155.989 309.342L156.187 309.363L156.181 309.202L156.377 308.444L156.393 308.389L156.612 308.577L156.808 307.939L157.038 308.09L157.26 307.42L157.354 307.329L157.438 307.574L157.479 307.607L157.583 307.18L157.681 307.131L157.821 306.755L157.899 306.719L157.983 306.905L158.03 306.859L158.211 306.337L158.403 306.077L158.471 306.137L158.486 306.141L158.6 305.857L158.87 305.502L158.99 305.379L159.052 305.219L159.125 305.141L159.207 304.967L159.29 304.853L159.399 304.707L159.529 304.608L159.566 304.659L159.551 304.894L159.484 305.252L159.344 305.568L159.163 305.911L159.049 306.195L158.945 306.502L158.785 307.071L158.9 307.027L158.916 307.151L158.745 307.817L158.673 308.074L158.928 307.953L158.897 308.302L158.825 308.619L158.748 308.895L158.675 308.972L158.691 309.037L158.863 308.97L158.946 309.036L158.925 309.229L158.765 309.798L158.692 309.936L158.677 309.991L158.854 310.025L158.906 309.961L158.943 310.072L158.86 310.366L158.699 310.636L158.497 310.932L158.643 311.017L158.742 310.968L158.664 311.303L158.503 311.513L158.373 311.612L158.452 311.696L158.343 311.962L158.198 312.176L158.089 312.322L158.141 312.378L158.078 312.479L158.001 312.574L158.068 312.635L157.933 312.813L157.809 312.954L157.731 313.11L157.487 313.314L157.429 313.336L157.737 313.451L157.866 313.052L158.032 312.824L158.157 312.982L158.349 312.662L158.588 312.357L158.745 312.585L158.88 312.347L159.062 312.124L159.337 311.81L159.504 312.001L159.743 311.695L159.987 311.491L160.165 311.646L160.487 311.286L160.799 311.083L160.851 311.259L161.21 310.891L161.537 310.692L161.611 310.855L161.658 310.869L161.688 310.699L162.25 310.393L162.355 310.565L162.407 310.442L162.932 310.145L162.995 310.224L163.567 309.941L164.083 309.74L164.369 309.689L164.567 309.71L163.99 310.071L163.423 310.515L163.278 310.669L163.262 310.844L163.168 310.815L162.815 311.225L162.815 311.285L162.873 311.382L162.769 311.51L162.275 311.936L162.447 312.049L161.938 312.471L162.032 312.559L161.98 312.683L161.278 313.185L161.409 313.265L161.425 313.33L160.676 313.817L160.79 313.832L159.937 314.327L159.948 314.41L160.12 314.463L159.428 314.749L159.428 314.809L159.574 314.834L158.882 315.059L158.814 315.059L158.783 315.109L158.872 315.156L158.866 315.294L159.215 315.142L159.486 315.146L159.445 315.293L159.83 315.133L160.059 315.163L160.018 315.37L160.46 315.307L160.814 315.257L160.752 315.477L161.153 315.441L161.325 315.494L161.283 315.641L161.804 315.602L161.752 315.785L161.872 315.783L162.013 315.766L162.351 315.89L162.326 315.982L163.55 316.34L163.498 316.463L162.608 316.428L162.582 316.52L162.264 316.442L162.233 316.552L162.019 316.466L161.968 316.53L161.816 316.464L161.785 316.574L161.52 316.492L161.473 316.597L161.296 316.563L161.26 316.631L161.108 316.565L161.015 316.775L160.713 316.642L160.447 316.62L160.37 316.836L159.744 316.703L159.708 316.891L159.13 316.773L159.099 316.883L159.177 316.907L159.078 316.897L158.588 316.766L158.536 316.889L158.854 316.967L158.813 317.114L159.235 317.304L159.24 317.406L159.428 317.523L159.475 317.598L159.47 317.736L159.924 318.175L159.929 318.276L159.293 318L159.252 318.087L158.955 317.876L158.835 317.939L158.741 317.91L158.491 317.773L158.413 317.809L158.225 317.751L158.09 317.689L158.017 317.707L157.897 317.59L157.694 317.468L157.647 317.573L157.391 317.394L157.245 317.31L157.163 317.543L156.844 317.166L156.75 317.077L156.588 316.987L156.578 317.024L156.797 317.211L157.126 317.672L157.09 317.8L156.746 317.634L156.35 317.353L155.974 316.997L155.66 316.661L155.598 316.463L155.53 316.342L155.509 316.355L155.353 316.547L154.973 316.749L154.484 316.977L154.437 316.963L154.411 316.875L153.818 317.111L153.792 317.023L153.437 317.014L153.39 316.94L153.479 316.807L153.51 316.697L153.447 316.678L153.478 316.568L153.358 316.511L153.4 316.364L153.066 316.341L153.092 316.189L152.633 316.068L152.539 315.979L152.206 315.956L152.123 315.95L152.169 315.785L151.883 315.716L151.711 315.724L151.711 315.604L150.824 315.311L151.262 315.147L151.662 315.111L151.709 315.006L152.095 315.144L152.136 314.938L152.647 315.115L152.673 315.023L152.454 314.956L152.485 314.846L151.927 314.654L151.942 314.479L151.953 314.442L151.63 314.323L151.635 314.244L151.421 314.159L151.437 314.044L151.389 313.969L151.4 313.933L150.951 313.655L150.811 313.611L150.8 313.468L150.847 313.363L150.461 313.164L150.377 313.099L150.205 313.046L150.241 312.857L149.934 312.623L149.751 312.427L149.61 312.324L149.657 312.218L148.77 311.566L148.738 311.496L149.489 311.668L149.812 311.787L149.869 311.885L149.906 311.756L150.317 311.923L150.401 312.049L150.468 311.93L150.76 312.04L150.985 312.328L151.073 312.136L151.198 312.175L151.496 312.446L151.6 312.558L151.704 312.37L152.085 312.707L152.179 312.796L152.205 312.704L152.413 312.868L152.56 313.073L152.674 313.148L152.757 313.034L152.914 313.082L152.971 313.18L153.013 313.153L152.506 312.658L152.662 312.526L152.151 311.93L152.223 311.852L152.056 311.362L151.795 311.082L151.742 310.966L151.825 310.852L151.694 310.532L151.71 310.417L151.438 310.114L151.578 309.978L151.165 309.152L151.279 309.048L150.949 308.168L151.053 308.101L150.87 307.486L150.874 307.348L150.375 306.098L150.38 306.097Z" fill="#4D4D4D"/>
<path d="M157.942 319.113C162.114 318.205 164.769 314.131 163.873 310.014C162.977 305.896 158.869 303.293 154.698 304.201C150.526 305.108 147.871 309.182 148.767 313.3C149.663 317.418 153.771 320.021 157.942 319.113Z" stroke="#333333" stroke-width="1.92003"/>
<path d="M149.984 306.168L162.055 317.904L149.984 306.168Z" fill="#800000"/>
<path d="M149.984 306.168L162.055 317.904" stroke="#333333" stroke-width="1.92003"/>
<path d="M130.267 196.456C129.176 196.984 127.753 197.247 125.996 197.247C123.704 197.247 121.902 196.574 120.589 195.227C119.277 193.879 118.621 192.084 118.621 189.841C118.621 187.452 119.357 185.515 120.829 184.029C122.308 182.543 124.225 181.8 126.579 181.8C128.037 181.8 129.267 181.984 130.267 182.352V185.591C129.267 184.994 128.128 184.695 126.85 184.695C125.447 184.695 124.315 185.136 123.454 186.018C122.593 186.9 122.162 188.095 122.162 189.602C122.162 191.046 122.569 192.199 123.381 193.06C124.194 193.914 125.287 194.341 126.662 194.341C127.975 194.341 129.176 194.022 130.267 193.383V196.456Z" fill="#E3E4E5"/>
<path d="M135.839 196.987H132.548V181.195H135.839V196.987Z" fill="#E3E4E5"/>
<path d="M148.194 192.591H141.235C141.346 194.14 142.322 194.914 144.162 194.914C145.336 194.914 146.367 194.636 147.256 194.081V196.456C146.27 196.984 144.989 197.248 143.412 197.248C141.69 197.248 140.353 196.772 139.402 195.82C138.451 194.862 137.975 193.529 137.975 191.82C137.975 190.05 138.489 188.647 139.517 187.612C140.544 186.577 141.808 186.06 143.308 186.06C144.864 186.06 146.065 186.522 146.912 187.445C147.767 188.369 148.194 189.623 148.194 191.206V192.591ZM145.142 190.57C145.142 189.043 144.523 188.279 143.287 188.279C142.76 188.279 142.301 188.498 141.912 188.935C141.53 189.373 141.298 189.918 141.214 190.57H145.142Z" fill="#E3E4E5"/>
<path d="M159.027 196.987H155.912V195.456H155.871C155.155 196.65 154.096 197.248 152.694 197.248C151.659 197.248 150.843 196.956 150.246 196.373C149.655 195.782 149.36 194.998 149.36 194.018C149.36 191.949 150.586 190.754 153.037 190.435L155.933 190.05C155.933 188.883 155.301 188.3 154.037 188.3C152.766 188.3 151.558 188.678 150.412 189.435V186.956C150.871 186.72 151.496 186.511 152.287 186.331C153.086 186.15 153.812 186.06 154.464 186.06C157.506 186.06 159.027 187.577 159.027 190.612L159.027 196.987ZM155.933 192.654V191.935L153.996 192.185C152.926 192.324 152.392 192.807 152.392 193.633C152.392 194.008 152.52 194.317 152.777 194.56C153.041 194.796 153.395 194.914 153.839 194.914C154.457 194.914 154.961 194.702 155.35 194.279C155.739 193.848 155.933 193.307 155.933 192.654Z" fill="#E3E4E5"/>
<path d="M168.079 196.862C167.593 197.119 166.86 197.247 165.881 197.247C163.562 197.247 162.402 196.043 162.402 193.633V188.747H160.673V186.32H162.402V184.018L165.683 183.081V186.32H168.079V188.747H165.683V193.06C165.683 194.171 166.124 194.727 167.006 194.727C167.353 194.727 167.711 194.626 168.079 194.425V196.862Z" fill="#E3E4E5"/>
<path d="M136.954 203.769H132.694V215.967H129.319V203.769H125.079V201.03H136.954V203.769Z" fill="#E3E4E5"/>
<path d="M148.881 215.967H145.6V209.905C145.6 208.342 145.03 207.561 143.891 207.561C143.308 207.561 142.836 207.78 142.475 208.217C142.114 208.655 141.933 209.21 141.933 209.884V215.967H138.641V200.176H141.933V206.884H141.975C142.78 205.655 143.874 205.04 145.256 205.04C147.673 205.04 148.881 206.499 148.881 209.415L148.881 215.967Z" fill="#E3E4E5"/>
<path d="M161.069 211.572H154.11C154.221 213.12 155.197 213.894 157.037 213.894C158.211 213.894 159.242 213.617 160.131 213.061V215.436C159.145 215.964 157.864 216.228 156.287 216.228C154.565 216.228 153.228 215.752 152.277 214.801C151.326 213.842 150.85 212.509 150.85 210.801C150.85 209.03 151.364 207.627 152.392 206.592C153.419 205.558 154.683 205.04 156.183 205.04C157.739 205.04 158.94 205.502 159.787 206.426C160.642 207.349 161.069 208.603 161.069 210.186V211.572ZM158.017 209.551C158.017 208.023 157.398 207.259 156.162 207.259C155.635 207.259 155.176 207.478 154.787 207.915C154.405 208.353 154.173 208.898 154.089 209.551H158.017Z" fill="#E3E4E5"/>
<path d="M114.688 226.802V231.948H111.324V217.01H116.595C120.359 217.01 122.241 218.597 122.241 221.771C122.241 223.271 121.699 224.486 120.616 225.417C119.539 226.34 118.098 226.802 116.293 226.802H114.688ZM114.688 219.594V224.25H116.011C117.803 224.25 118.699 223.465 118.699 221.896C118.699 220.361 117.803 219.594 116.011 219.594H114.688Z" fill="#E3E4E5"/>
<path d="M134.24 231.948H130.959V230.323H130.907C130.095 231.58 129.008 232.208 127.647 232.208C125.174 232.208 123.938 230.712 123.938 227.719V221.281H127.22V227.427C127.22 228.934 127.817 229.687 129.011 229.687C129.602 229.687 130.074 229.482 130.428 229.073C130.782 228.656 130.959 228.094 130.959 227.385V221.281H134.24L134.24 231.948Z" fill="#E3E4E5"/>
<path d="M147.313 231.948H144.032V226.021C144.032 224.368 143.442 223.542 142.261 223.542C141.692 223.542 141.223 223.76 140.855 224.198C140.487 224.635 140.303 225.191 140.303 225.864V231.948H137.011V221.281H140.303V222.969H140.345C141.129 221.67 142.272 221.021 143.772 221.021C146.133 221.021 147.313 222.486 147.313 225.417L147.313 231.948Z" fill="#E3E4E5"/>
<path d="M156.365 231.823C155.879 232.08 155.147 232.208 154.168 232.208C151.848 232.208 150.688 231.003 150.688 228.594V223.708H148.959V221.281H150.688V218.979L153.97 218.042V221.281H156.365V223.708H153.97V228.021C153.97 229.132 154.411 229.687 155.293 229.687C155.64 229.687 155.997 229.587 156.365 229.385V231.823Z" fill="#E3E4E5"/>
<path d="M167.72 227.552H160.761C160.872 229.101 161.848 229.875 163.688 229.875C164.862 229.875 165.893 229.597 166.782 229.042V231.417C165.796 231.944 164.515 232.208 162.938 232.208C161.216 232.208 159.879 231.733 158.928 230.781C157.977 229.823 157.501 228.489 157.501 226.781C157.501 225.01 158.015 223.608 159.043 222.573C160.07 221.538 161.334 221.021 162.834 221.021C164.39 221.021 165.591 221.483 166.438 222.406C167.293 223.33 167.72 224.583 167.72 226.167V227.552ZM164.668 225.531C164.668 224.003 164.049 223.24 162.813 223.24C162.286 223.24 161.827 223.458 161.438 223.896C161.056 224.333 160.824 224.878 160.74 225.531H164.668Z" fill="#E3E4E5"/>
<path d="M176.636 224.25C176.24 224.035 175.779 223.927 175.251 223.927C174.536 223.927 173.977 224.191 173.574 224.719C173.171 225.239 172.97 225.951 172.97 226.854V231.948H169.678V221.281H172.97V223.26H173.011C173.532 221.816 174.47 221.094 175.824 221.094C176.171 221.094 176.442 221.135 176.636 221.219L176.636 224.25Z" fill="#E3E4E5"/>
<path d="M179.324 206.474L226.313 206.493L179.324 206.474Z" fill="#E3E4E5"/>
<path d="M179.324 206.474L226.313 206.493" stroke="#E3E4E5" stroke-width="2.56673" stroke-miterlimit="10" stroke-linecap="round"/>
<path d="M61.5553 206.692L108.544 206.711L61.5553 206.692Z" fill="#E3E4E5"/>
<path d="M61.5553 206.692L108.544 206.711" stroke="#E3E4E5" stroke-width="2.56673" stroke-miterlimit="10" stroke-linecap="round"/>
<defs>
<linearGradient id="paint0_linear_510_502" x1="155.367" y1="330.375" x2="156.228" y2="331.574" gradientUnits="userSpaceOnUse">
<stop stop-color="#B9BABC"/>
<stop offset="0.332298" stop-color="#6F7072"/>
<stop offset="0.505068" stop-color="#1F2022"/>
<stop offset="0.691743" stop-color="#6F7072"/>
<stop offset="1" stop-color="#B9BABC"/>
</linearGradient>
<linearGradient id="paint1_linear_510_502" x1="155.543" y1="329.925" x2="156.642" y2="331.732" gradientUnits="userSpaceOnUse">
<stop stop-color="#1D1E20"/>
<stop offset="1" stop-color="#CBCCCE"/>
</linearGradient>
<linearGradient id="paint2_linear_510_502" x1="147.012" y1="328.833" x2="147.157" y2="330.24" gradientUnits="userSpaceOnUse">
<stop stop-color="#B9BABC"/>
<stop offset="0.332298" stop-color="#6F7072"/>
<stop offset="0.505068" stop-color="#1F2022"/>
<stop offset="0.691743" stop-color="#6F7072"/>
<stop offset="1" stop-color="#B9BABC"/>
</linearGradient>
<linearGradient id="paint3_linear_510_502" x1="147.373" y1="328.543" x2="147.425" y2="330.568" gradientUnits="userSpaceOnUse">
<stop stop-color="#1D1E20"/>
<stop offset="1" stop-color="#CBCCCE"/>
</linearGradient>
<linearGradient id="paint4_linear_510_502" x1="143.261" y1="324.512" x2="159.187" y2="330.602" gradientUnits="userSpaceOnUse">
<stop stop-opacity="0"/>
<stop offset="0.094718"/>
<stop offset="0.397666"/>
<stop offset="0.724935"/>
<stop offset="1" stop-opacity="0"/>
</linearGradient>
<linearGradient id="paint5_linear_510_502" x1="122.564" y1="332.339" x2="144.539" y2="317.771" gradientUnits="userSpaceOnUse">
<stop stop-color="#CACACD"/>
<stop offset="1" stop-color="#D4D4D4"/>
</linearGradient>
<linearGradient id="paint6_linear_510_502" x1="122.564" y1="332.338" x2="144.539" y2="317.771" gradientUnits="userSpaceOnUse">
<stop stop-color="#CACACD"/>
<stop offset="1" stop-color="#D4D4D4"/>
</linearGradient>
<linearGradient id="paint7_linear_510_502" x1="122.564" y1="332.338" x2="144.539" y2="317.771" gradientUnits="userSpaceOnUse">
<stop stop-color="#CACACD"/>
<stop offset="1" stop-color="#D4D4D4"/>
</linearGradient>
<linearGradient id="paint8_linear_510_502" x1="122.564" y1="332.339" x2="144.539" y2="317.771" gradientUnits="userSpaceOnUse">
<stop stop-color="#CACACD"/>
<stop offset="1" stop-color="#D4D4D4"/>
</linearGradient>
<linearGradient id="paint9_linear_510_502" x1="122.564" y1="332.339" x2="144.539" y2="317.771" gradientUnits="userSpaceOnUse">
<stop stop-color="#CACACD"/>
<stop offset="1" stop-color="#D4D4D4"/>
</linearGradient>
<linearGradient id="paint10_linear_510_502" x1="122.564" y1="332.339" x2="144.539" y2="317.771" gradientUnits="userSpaceOnUse">
<stop stop-color="#CACACD"/>
<stop offset="1" stop-color="#D4D4D4"/>
</linearGradient>
<linearGradient id="paint11_linear_510_502" x1="132.115" y1="307.165" x2="131.693" y2="312.105" gradientUnits="userSpaceOnUse">
<stop stop-color="#CDCDCF"/>
<stop offset="0.583118" stop-color="#CCCCCE"/>
<stop offset="0.751085" stop-color="#929295"/>
<stop offset="0.891675" stop-color="#CCCCCE"/>
<stop offset="1" stop-color="#CDCDCF"/>
</linearGradient>
<linearGradient id="paint12_linear_510_502" x1="133.285" y1="306.964" x2="133.064" y2="307.912" gradientUnits="userSpaceOnUse">
<stop stop-color="#B9BABC"/>
<stop offset="0.332298" stop-color="#6F7072"/>
<stop offset="0.505068" stop-color="#1F2022"/>
<stop offset="0.691743" stop-color="#6F7072"/>
<stop offset="1" stop-color="#B9BABC"/>
</linearGradient>
<linearGradient id="paint13_linear_510_502" x1="133.522" y1="306.842" x2="133.047" y2="308.169" gradientUnits="userSpaceOnUse">
<stop stop-color="#1D1E20"/>
<stop offset="1" stop-color="#CBCCCE"/>
</linearGradient>
<linearGradient id="paint14_linear_510_502" x1="132.734" y1="308.288" x2="132.513" y2="309.236" gradientUnits="userSpaceOnUse">
<stop stop-color="#B9BABC"/>
<stop offset="0.332298" stop-color="#6F7072"/>
<stop offset="0.505068" stop-color="#1F2022"/>
<stop offset="0.691743" stop-color="#6F7072"/>
<stop offset="1" stop-color="#B9BABC"/>
</linearGradient>
<linearGradient id="paint15_linear_510_502" x1="132.972" y1="308.166" x2="132.497" y2="309.493" gradientUnits="userSpaceOnUse">
<stop stop-color="#1D1E20"/>
<stop offset="1" stop-color="#CBCCCE"/>
</linearGradient>
<linearGradient id="paint16_linear_510_502" x1="145.389" y1="327.819" x2="151.036" y2="323.622" gradientUnits="userSpaceOnUse">
<stop stop-color="#CDCDCF"/>
<stop offset="0.583118" stop-color="#CCCCCE"/>
<stop offset="0.751085" stop-color="#929295"/>
<stop offset="0.891675" stop-color="#CCCCCE"/>
<stop offset="1" stop-color="#CDCDCF"/>
</linearGradient>
<linearGradient id="paint17_linear_510_502" x1="147.126" y1="325.387" x2="147.401" y2="326.293" gradientUnits="userSpaceOnUse">
<stop stop-color="#B9BABC"/>
<stop offset="0.332298" stop-color="#6F7072"/>
<stop offset="0.505068" stop-color="#1F2022"/>
<stop offset="0.691743" stop-color="#6F7072"/>
<stop offset="1" stop-color="#B9BABC"/>
</linearGradient>
<linearGradient id="paint18_linear_510_502" x1="147.334" y1="324.915" x2="147.864" y2="326.462" gradientUnits="userSpaceOnUse">
<stop stop-color="#1D1E20"/>
<stop offset="1" stop-color="#CBCCCE"/>
</linearGradient>
<linearGradient id="paint19_linear_510_502" x1="148.925" y1="324.548" x2="147.909" y2="324.646" gradientUnits="userSpaceOnUse">
<stop stop-color="#B9BABC"/>
<stop offset="0.332298" stop-color="#6F7072"/>
<stop offset="0.505068" stop-color="#1F2022"/>
<stop offset="0.691743" stop-color="#6F7072"/>
<stop offset="1" stop-color="#B9BABC"/>
</linearGradient>
<linearGradient id="paint20_linear_510_502" x1="149.132" y1="324.81" x2="147.671" y2="324.838" gradientUnits="userSpaceOnUse">
<stop stop-color="#1D1E20"/>
<stop offset="1" stop-color="#CBCCCE"/>
</linearGradient>
</defs>
</svg>
