<svg width="288" height="432" viewBox="0 0 288 432" fill="none" xmlns="http://www.w3.org/2000/svg">
<path d="M256.96 42.22V48.22H31.05V42.22H256.96Z" fill="#333333"/>
<path d="M25.17 57.09C24.3744 57.09 23.6113 56.774 23.0487 56.2113C22.4861 55.6487 22.17 54.8857 22.17 54.09V36.34C22.17 35.5444 22.4861 34.7813 23.0487 34.2187C23.6113 33.6561 24.3744 33.34 25.17 33.34C25.9657 33.34 26.7288 33.6561 27.2914 34.2187C27.854 34.7813 28.17 35.5444 28.17 36.34V54.09C28.17 54.8857 27.854 55.6487 27.2914 56.2113C26.7288 56.774 25.9657 57.09 25.17 57.09Z" fill="#333333"/>
<path d="M262.83 57.09C262.034 57.09 261.271 56.774 260.709 56.2113C260.146 55.6487 259.83 54.8857 259.83 54.09V36.34C259.83 35.5444 260.146 34.7813 260.709 34.2187C261.271 33.6561 262.034 33.34 262.83 33.34C263.626 33.34 264.389 33.6561 264.951 34.2187C265.514 34.7813 265.83 35.5444 265.83 36.34V54.09C265.83 54.8857 265.514 55.6487 264.951 56.2113C264.389 56.774 263.626 57.09 262.83 57.09Z" fill="#333333"/>
<path opacity="0.2" d="M50.34 66.67V397C50.341 397.262 50.404 397.52 50.5239 397.753C50.6438 397.986 50.8172 398.187 51.0298 398.341C51.2425 398.494 51.4884 398.594 51.7474 398.634C52.0064 398.674 52.2711 398.652 52.52 398.57L153.52 364.82C153.846 364.719 154.194 364.719 154.52 364.82L255.52 398.57C255.769 398.652 256.034 398.674 256.293 398.634C256.552 398.594 256.797 398.494 257.01 398.341C257.223 398.187 257.396 397.986 257.516 397.753C257.636 397.52 257.699 397.262 257.7 397V66.67C257.703 66.4474 257.66 66.2265 257.576 66.0206C257.491 65.8148 257.365 65.6282 257.206 65.4722C257.048 65.3162 256.859 65.1939 256.651 65.1128C256.444 65.0316 256.223 64.9933 256 65H52C51.7808 64.9987 51.5635 65.041 51.3608 65.1246C51.1581 65.2082 50.9742 65.3313 50.8196 65.4868C50.6651 65.6423 50.5431 65.827 50.4607 66.0301C50.3783 66.2333 50.3373 66.4508 50.34 66.67Z" fill="#231F20"/>
<path d="M41.7 58.6V384.6C41.6991 384.859 41.7601 385.115 41.8778 385.346C41.9955 385.576 42.1665 385.776 42.3767 385.927C42.5869 386.079 42.8302 386.178 43.0864 386.217C43.3426 386.256 43.6044 386.233 43.85 386.15L143.48 352.84C143.806 352.738 144.154 352.738 144.48 352.84L244.11 386.15C244.356 386.233 244.617 386.256 244.873 386.217C245.13 386.178 245.373 386.079 245.583 385.927C245.793 385.776 245.964 385.576 246.082 385.346C246.2 385.115 246.261 384.859 246.26 384.6V58.6C246.25 58.1805 246.079 57.7809 245.784 57.4832C245.488 57.1856 245.089 57.0127 244.67 57H43.33C42.9036 57.0025 42.4949 57.1709 42.1906 57.4696C41.8863 57.7683 41.7104 58.1737 41.7 58.6Z" fill="#4D1919"/>
<path d="M244.66 389.21C244.164 389.213 243.671 389.136 243.2 388.98L144 355.81L44.7999 389C44.103 389.231 43.3613 389.293 42.6356 389.182C41.9099 389.07 41.221 388.788 40.6255 388.359C40.0301 387.929 39.545 387.365 39.2103 386.711C38.8755 386.058 38.7006 385.334 38.7 384.6V58.6C38.7105 57.3781 39.2026 56.2096 40.0695 55.3484C40.9364 54.4871 42.108 54.0026 43.33 54H244.67C245.899 54.0026 247.076 54.4927 247.944 55.3626C248.812 56.2324 249.3 57.4111 249.3 58.64V384.64C249.3 385.375 249.125 386.099 248.789 386.753C248.453 387.407 247.967 387.971 247.37 388.4C246.575 388.949 245.626 389.233 244.66 389.21ZM144 349.74C144.5 349.74 144.996 349.821 145.47 349.98L243.3 382.68V60H44.7V382.68L142.53 350C143.002 349.833 143.499 349.746 144 349.74Z" fill="#4D1919"/>
<path d="M238.05 376.68L147.13 346.28C145.097 345.61 142.903 345.61 140.87 346.28L50 376.68V66.5H238.1L238.05 376.68ZM53.45 70V371.82L139.76 343C142.513 342.09 145.487 342.09 148.24 343L234.55 371.86V70H53.45Z" fill="#E3E4E5"/>
<path d="M222.815 153.45C222.708 153.46 222.601 153.46 222.495 153.45C202.355 149.78 173.585 147.68 143.565 147.68C114.005 147.68 85.5646 149.68 65.4646 153.3C65.0072 153.381 64.5363 153.277 64.1557 153.01C63.7751 152.744 63.5158 152.337 63.435 151.88C63.3541 151.422 63.4582 150.952 63.7244 150.571C63.9907 150.19 64.3972 149.931 64.8546 149.85C85.1246 146.25 113.855 144.18 143.565 144.18C173.785 144.18 202.785 146.3 223.125 150.01C223.552 150.09 223.935 150.327 224.197 150.673C224.46 151.02 224.584 151.452 224.545 151.886C224.507 152.319 224.308 152.722 223.988 153.017C223.668 153.312 223.25 153.477 222.815 153.48V153.45Z" fill="#E3E4E5"/>
<path d="M85.2313 136.943C83.8418 137.616 82.0276 137.952 79.7885 137.952C76.868 137.952 74.5714 137.094 72.8988 135.377C71.2261 133.66 70.3898 131.372 70.3898 128.514C70.3898 125.469 71.3279 123 73.2041 121.106C75.0891 119.212 77.5317 118.265 80.5319 118.265C82.3904 118.265 83.9569 118.5 85.2313 118.969V123.097C83.9569 122.336 82.5055 121.956 80.8771 121.956C79.0893 121.956 77.6468 122.518 76.5494 123.642C75.452 124.766 74.9033 126.288 74.9033 128.208C74.9033 130.049 75.421 131.518 76.4565 132.616C77.4919 133.704 78.8858 134.248 80.6381 134.248C82.3108 134.248 83.8418 133.841 85.2313 133.027V136.943Z" fill="#E3E4E5"/>
<path d="M105.024 137.62H100.723V129.868H92.8379V137.62H88.55V118.584H92.8379V126.177H100.723V118.584H105.024V137.62Z" fill="#E3E4E5"/>
<path d="M126.118 137.62H121.446L120.092 133.386H113.321L111.98 137.62H107.334L114.264 118.584H119.348L126.118 137.62ZM119.109 130.093L117.065 123.695C116.914 123.217 116.808 122.646 116.746 121.982H116.64C116.596 122.54 116.485 123.093 116.308 123.642L114.237 130.093H119.109Z" fill="#E3E4E5"/>
<path d="M150.186 137.62H145.951V126.23C145.951 125 146.004 123.642 146.111 122.155H146.004C145.783 123.323 145.584 124.164 145.407 124.677L140.947 137.62H137.442L132.902 124.81C132.778 124.465 132.579 123.58 132.305 122.155H132.185C132.3 124.031 132.358 125.677 132.358 127.093V137.62H128.495V118.584H134.774L138.663 129.868C138.973 130.77 139.199 131.677 139.34 132.589H139.42C139.659 131.536 139.911 130.62 140.177 129.841L144.066 118.584H150.186L150.186 137.62Z" fill="#E3E4E5"/>
<path d="M158.802 131.062V137.62H154.514V118.584H161.231C166.028 118.584 168.426 120.606 168.426 124.651C168.426 126.562 167.736 128.111 166.355 129.297C164.983 130.474 163.147 131.062 160.846 131.062H158.802ZM158.802 121.876V127.81H160.488C162.771 127.81 163.913 126.81 163.913 124.81C163.913 122.854 162.771 121.876 160.488 121.876H158.802Z" fill="#E3E4E5"/>
<path d="M175.502 137.62H171.214V118.584H175.502V137.62Z" fill="#E3E4E5"/>
<path d="M187.874 137.952C185.148 137.952 182.927 137.067 181.21 135.297C179.493 133.518 178.635 131.204 178.635 128.354C178.635 125.345 179.506 122.912 181.25 121.053C182.993 119.195 185.303 118.265 188.179 118.265C190.896 118.265 193.091 119.155 194.764 120.934C196.445 122.712 197.286 125.058 197.286 127.969C197.286 130.961 196.414 133.372 194.671 135.204C192.936 137.036 190.671 137.952 187.874 137.952ZM188.06 121.956C186.555 121.956 185.361 122.522 184.476 123.655C183.591 124.779 183.148 126.27 183.148 128.129C183.148 130.014 183.591 131.505 184.476 132.602C185.361 133.7 186.52 134.248 187.954 134.248C189.432 134.248 190.604 133.717 191.471 132.655C192.339 131.585 192.772 130.102 192.772 128.208C192.772 126.235 192.352 124.699 191.511 123.602C190.671 122.504 189.52 121.956 188.06 121.956Z" fill="#E3E4E5"/>
<path d="M217.57 137.62H213.243L205.397 125.659C204.937 124.96 204.618 124.434 204.441 124.08H204.388C204.459 124.752 204.494 125.779 204.494 127.16V137.62H200.445V118.584H205.065L212.619 130.173C212.964 130.695 213.282 131.213 213.574 131.726H213.628C213.557 131.284 213.521 130.412 213.521 129.111V118.584H217.57V137.62Z" fill="#E3E4E5"/>
<path d="M132.44 259.442H131.196V256.202H127.68V259.442H126.44V251.973H127.68V255.114H131.196V251.973H132.44V259.442Z" fill="#E3E4E5"/>
<path d="M138.8 259.442H137.591V258.598H137.571C137.22 259.244 136.675 259.567 135.935 259.567C134.675 259.567 134.045 258.81 134.045 257.296V254.108H135.253V257.171C135.253 258.129 135.623 258.608 136.362 258.608C136.72 258.608 137.013 258.477 137.242 258.213C137.475 257.949 137.591 257.603 137.591 257.176V254.108H138.8L138.8 259.442Z" fill="#E3E4E5"/>
<path d="M145.123 259.442H143.914V256.437C143.914 255.44 143.562 254.942 142.857 254.942C142.489 254.942 142.185 255.081 141.945 255.358C141.706 255.633 141.586 255.98 141.586 256.4V259.442H140.373V254.108H141.586V254.994H141.607C142.006 254.32 142.583 253.983 143.336 253.983C143.916 253.983 144.359 254.173 144.664 254.551C144.97 254.926 145.123 255.47 145.123 256.181L145.123 259.442Z" fill="#E3E4E5"/>
<path d="M149.409 259.385C149.173 259.503 148.862 259.562 148.477 259.562C147.442 259.562 146.925 259.065 146.925 258.072V255.056H146.034V254.108H146.925V252.874L148.133 252.53V254.108H149.409V255.056H148.133V257.723C148.133 258.039 148.19 258.265 148.305 258.4C148.419 258.536 148.61 258.603 148.878 258.603C149.083 258.603 149.26 258.544 149.409 258.426V259.385Z" fill="#E3E4E5"/>
<path d="M154.904 257.103H151.269C151.282 257.596 151.433 257.977 151.722 258.244C152.013 258.511 152.413 258.645 152.92 258.645C153.489 258.645 154.012 258.475 154.487 258.135V259.108C154.001 259.414 153.359 259.567 152.56 259.567C151.775 259.567 151.159 259.325 150.711 258.843C150.267 258.357 150.045 257.674 150.045 256.796C150.045 255.966 150.289 255.291 150.779 254.77C151.272 254.246 151.883 253.983 152.612 253.983C153.341 253.983 153.906 254.218 154.305 254.687C154.704 255.155 154.904 255.806 154.904 256.64V257.103ZM153.737 256.249C153.734 255.815 153.632 255.478 153.43 255.239C153.229 254.996 152.951 254.874 152.597 254.874C152.249 254.874 151.954 255.001 151.711 255.254C151.472 255.508 151.324 255.839 151.269 256.249H153.737Z" fill="#E3E4E5"/>
<path d="M159.149 255.26C159.003 255.145 158.793 255.088 158.518 255.088C158.161 255.088 157.862 255.249 157.623 255.572C157.383 255.895 157.263 256.334 157.263 256.89V259.442H156.055V254.108H157.263V255.207H157.284C157.402 254.832 157.583 254.541 157.826 254.332C158.072 254.121 158.347 254.015 158.649 254.015C158.867 254.015 159.034 254.048 159.149 254.114L159.149 255.26Z" fill="#E3E4E5"/>
<path d="M123.568 266.224V268.932H122.333V261.463H124.599C125.457 261.463 126.122 261.663 126.594 262.062C127.066 262.462 127.302 263.024 127.302 263.75C127.302 264.475 127.056 265.069 126.563 265.531C126.07 265.993 125.403 266.224 124.563 266.224H123.568ZM123.568 262.484V265.213H124.37C124.901 265.213 125.306 265.09 125.584 264.843C125.861 264.597 126 264.25 126 263.802C126 262.923 125.49 262.484 124.469 262.484H123.568Z" fill="#E3E4E5"/>
<path d="M132.589 266.593H128.953C128.967 267.087 129.118 267.467 129.406 267.734C129.698 268.001 130.097 268.135 130.604 268.135C131.174 268.135 131.696 267.965 132.172 267.625V268.599C131.686 268.904 131.044 269.057 130.245 269.057C129.46 269.057 128.844 268.816 128.396 268.333C127.952 267.847 127.729 267.165 127.729 266.286C127.729 265.456 127.974 264.781 128.464 264.26C128.957 263.736 129.568 263.474 130.297 263.474C131.026 263.474 131.59 263.708 131.99 264.177C132.389 264.646 132.589 265.297 132.589 266.13V266.593ZM131.422 265.739C131.419 265.305 131.316 264.968 131.115 264.729C130.913 264.486 130.636 264.364 130.281 264.364C129.934 264.364 129.639 264.491 129.396 264.745C129.156 264.998 129.009 265.33 128.953 265.739H131.422Z" fill="#E3E4E5"/>
<path d="M138.589 268.932H137.38V268.026H137.36C136.971 268.713 136.372 269.057 135.563 269.057C134.907 269.057 134.38 268.819 133.985 268.343C133.592 267.864 133.396 267.213 133.396 266.39C133.396 265.508 133.613 264.802 134.047 264.271C134.485 263.739 135.066 263.474 135.792 263.474C136.511 263.474 137.033 263.762 137.36 264.338H137.38V261.036H138.589V268.932ZM137.396 266.495V265.797C137.396 265.418 137.273 265.097 137.026 264.833C136.78 264.569 136.466 264.437 136.084 264.437C135.632 264.437 135.276 264.606 135.016 264.942C134.759 265.279 134.63 265.746 134.63 266.343C134.63 266.885 134.754 267.314 135 267.63C135.25 267.942 135.585 268.099 136.005 268.099C136.419 268.099 136.754 267.948 137.011 267.646C137.268 267.34 137.396 266.956 137.396 266.495Z" fill="#E3E4E5"/>
<path d="M144.683 266.593H141.047C141.061 267.087 141.212 267.467 141.5 267.734C141.792 268.001 142.191 268.135 142.698 268.135C143.268 268.135 143.79 267.965 144.266 267.625V268.599C143.78 268.904 143.137 269.057 142.339 269.057C141.554 269.057 140.938 268.816 140.49 268.333C140.045 267.847 139.823 267.165 139.823 266.286C139.823 265.456 140.068 264.781 140.558 264.26C141.051 263.736 141.662 263.474 142.391 263.474C143.12 263.474 143.684 263.708 144.084 264.177C144.483 264.646 144.683 265.297 144.683 266.13V266.593ZM143.516 265.739C143.513 265.305 143.41 264.968 143.209 264.729C143.007 264.486 142.729 264.364 142.375 264.364C142.028 264.364 141.733 264.491 141.49 264.745C141.25 264.998 141.103 265.33 141.047 265.739H143.516Z" fill="#E3E4E5"/>
<path d="M148.927 264.75C148.782 264.635 148.571 264.578 148.297 264.578C147.94 264.578 147.641 264.739 147.401 265.062C147.162 265.385 147.042 265.824 147.042 266.38V268.932H145.834V263.599H147.042V264.698H147.063C147.181 264.323 147.361 264.031 147.604 263.823C147.851 263.611 148.125 263.505 148.427 263.505C148.646 263.505 148.813 263.538 148.927 263.604L148.927 264.75Z" fill="#E3E4E5"/>
<path d="M149.516 268.765V267.646C149.967 267.989 150.466 268.161 151.011 268.161C151.74 268.161 152.104 267.946 152.104 267.515C152.104 267.394 152.073 267.291 152.011 267.208C151.948 267.121 151.863 267.045 151.756 266.979C151.651 266.913 151.526 266.854 151.381 266.802C151.238 266.75 151.078 266.691 150.901 266.625C150.683 266.538 150.485 266.446 150.308 266.349C150.134 266.251 149.988 266.142 149.87 266.021C149.756 265.896 149.669 265.755 149.61 265.599C149.551 265.442 149.521 265.26 149.521 265.052C149.521 264.795 149.582 264.569 149.703 264.375C149.825 264.177 149.988 264.012 150.193 263.88C150.398 263.745 150.631 263.644 150.891 263.578C151.151 263.508 151.42 263.474 151.698 263.474C152.191 263.474 152.632 263.548 153.021 263.698V264.755C152.646 264.498 152.216 264.37 151.73 264.37C151.577 264.37 151.438 264.385 151.313 264.416C151.191 264.448 151.087 264.491 151 264.547C150.914 264.602 150.846 264.67 150.797 264.75C150.749 264.826 150.724 264.911 150.724 265.005C150.724 265.12 150.749 265.217 150.797 265.297C150.846 265.376 150.917 265.448 151.011 265.51C151.108 265.569 151.223 265.625 151.355 265.677C151.49 265.725 151.644 265.779 151.818 265.838C152.047 265.932 152.252 266.028 152.433 266.125C152.617 266.222 152.773 266.333 152.901 266.458C153.03 266.58 153.129 266.722 153.198 266.885C153.268 267.045 153.302 267.236 153.302 267.458C153.302 267.729 153.24 267.965 153.115 268.166C152.99 268.368 152.823 268.534 152.615 268.666C152.407 268.798 152.165 268.896 151.891 268.958C151.62 269.024 151.334 269.057 151.032 269.057C150.448 269.057 149.943 268.96 149.516 268.765Z" fill="#E3E4E5"/>
<path d="M156.813 269.057C155.99 269.057 155.332 268.809 154.839 268.312C154.349 267.812 154.104 267.151 154.104 266.328C154.104 265.432 154.36 264.732 154.87 264.229C155.384 263.725 156.075 263.474 156.943 263.474C157.776 263.474 158.426 263.718 158.891 264.208C159.356 264.698 159.589 265.376 159.589 266.245C159.589 267.095 159.337 267.778 158.834 268.291C158.334 268.802 157.66 269.057 156.813 269.057ZM156.87 264.437C156.398 264.437 156.025 264.602 155.75 264.932C155.476 265.262 155.339 265.717 155.339 266.297C155.339 266.856 155.478 267.297 155.756 267.62C156.033 267.939 156.405 268.099 156.87 268.099C157.346 268.099 157.71 267.941 157.964 267.625C158.221 267.309 158.349 266.859 158.349 266.276C158.349 265.689 158.221 265.236 157.964 264.916C157.71 264.597 157.346 264.437 156.87 264.437Z" fill="#E3E4E5"/>
<path d="M165.568 268.932H164.36V265.927C164.36 264.93 164.007 264.432 163.302 264.432C162.934 264.432 162.63 264.571 162.391 264.849C162.151 265.123 162.032 265.47 162.032 265.89V268.932H160.818V263.599H162.032V264.484H162.052C162.452 263.81 163.028 263.474 163.782 263.474C164.361 263.474 164.804 263.663 165.11 264.041C165.415 264.416 165.568 264.96 165.568 265.672L165.568 268.932Z" fill="#E3E4E5"/>
<path d="M134.975 103.235H127.358V102.296C127.358 101.912 127.411 101.554 127.518 101.221C127.626 100.882 127.77 100.566 127.95 100.273C128.131 99.9739 128.342 99.6946 128.585 99.435C128.828 99.1698 129.087 98.9159 129.364 98.6733C129.64 98.425 129.922 98.1881 130.21 97.9624C130.498 97.731 130.78 97.4997 131.056 97.2684C131.316 97.0483 131.553 96.8339 131.767 96.6251C131.982 96.4107 132.165 96.1907 132.317 95.965C132.47 95.7393 132.588 95.5023 132.673 95.254C132.757 95.0001 132.8 94.7265 132.8 94.4331C132.8 94.1115 132.749 93.8322 132.647 93.5952C132.551 93.3526 132.413 93.1523 132.233 92.9943C132.058 92.8306 131.849 92.7093 131.606 92.6303C131.364 92.5457 131.099 92.5034 130.811 92.5034C130.314 92.5034 129.809 92.6191 129.296 92.8504C128.782 93.0817 128.289 93.4287 127.815 93.8914V92.004C128.063 91.8178 128.314 91.657 128.568 91.5216C128.822 91.3806 129.084 91.2649 129.355 91.1746C129.626 91.0787 129.911 91.0082 130.21 90.963C130.509 90.9179 130.828 90.8953 131.166 90.8953C131.714 90.8953 132.21 90.9687 132.656 91.1154C133.102 91.2564 133.482 91.468 133.798 91.7501C134.114 92.0266 134.357 92.3736 134.526 92.7912C134.701 93.2087 134.789 93.6883 134.789 94.2299C134.789 94.7208 134.727 95.1638 134.602 95.5587C134.484 95.9481 134.312 96.312 134.086 96.6505C133.866 96.9891 133.598 97.3107 133.282 97.6154C132.966 97.9201 132.614 98.2332 132.224 98.5548C131.897 98.82 131.57 99.0796 131.242 99.3335C130.921 99.5817 130.63 99.8272 130.371 100.07C130.111 100.307 129.9 100.547 129.736 100.789C129.578 101.026 129.499 101.266 129.499 101.509V101.551H134.975V103.235Z" fill="#E3E4E5"/>
<path d="M140.832 103.438C139.568 103.438 138.58 102.922 137.869 101.889C137.164 100.857 136.811 99.3645 136.811 97.4122C136.811 95.2681 137.181 93.646 137.92 92.5457C138.659 91.4455 139.726 90.8953 141.119 90.8953C143.788 90.8953 145.123 92.9689 145.123 97.116C145.123 99.1698 144.745 100.738 143.988 101.822C143.238 102.899 142.186 103.438 140.832 103.438ZM141.026 92.4611C139.554 92.4611 138.817 94.0833 138.817 97.3276C138.817 100.363 139.539 101.881 140.984 101.881C142.406 101.881 143.117 100.338 143.117 97.2514C143.117 94.0579 142.42 92.4611 141.026 92.4611Z" fill="#E3E4E5"/>
<path d="M154.221 103.235H146.604V102.296C146.604 101.912 146.657 101.554 146.765 101.221C146.872 100.882 147.016 100.566 147.196 100.273C147.377 99.9739 147.588 99.6946 147.831 99.435C148.074 99.1698 148.333 98.9159 148.61 98.6733C148.886 98.425 149.168 98.1881 149.456 97.9624C149.744 97.731 150.026 97.4997 150.302 97.2684C150.562 97.0483 150.799 96.8339 151.013 96.6251C151.228 96.4107 151.411 96.1907 151.563 95.965C151.716 95.7393 151.834 95.5023 151.919 95.254C152.003 95.0001 152.046 94.7265 152.046 94.4331C152.046 94.1115 151.995 93.8322 151.893 93.5952C151.798 93.3526 151.659 93.1523 151.479 92.9943C151.304 92.8306 151.095 92.7093 150.852 92.6303C150.61 92.5457 150.345 92.5034 150.057 92.5034C149.56 92.5034 149.055 92.6191 148.542 92.8504C148.028 93.0817 147.535 93.4287 147.061 93.8914V92.004C147.309 91.8178 147.56 91.657 147.814 91.5216C148.068 91.3806 148.33 91.2649 148.601 91.1746C148.872 91.0787 149.157 91.0082 149.456 90.963C149.755 90.9179 150.074 90.8953 150.412 90.8953C150.96 90.8953 151.456 90.9687 151.902 91.1154C152.348 91.2564 152.729 91.468 153.045 91.7501C153.36 92.0266 153.603 92.3736 153.772 92.7912C153.947 93.2087 154.035 93.6883 154.035 94.2299C154.035 94.7208 153.973 95.1638 153.849 95.5587C153.73 95.9481 153.558 96.312 153.332 96.6505C153.112 96.9891 152.844 97.3107 152.528 97.6154C152.212 97.9201 151.86 98.2332 151.47 98.5548C151.143 98.82 150.816 99.0796 150.489 99.3335C150.167 99.5817 149.876 99.8272 149.617 100.07C149.357 100.307 149.146 100.547 148.982 100.789C148.824 101.026 148.745 101.266 148.745 101.509V101.551H154.221V103.235Z" fill="#E3E4E5"/>
<path d="M160.602 90.8276V103.235H158.639V93.2313C158.283 93.4852 157.9 93.7024 157.488 93.883C157.082 94.0579 156.616 94.213 156.091 94.3485V92.6727C156.419 92.5655 156.735 92.4526 157.039 92.3341C157.344 92.2157 157.643 92.0831 157.936 91.9364C158.235 91.7897 158.534 91.626 158.833 91.4455C159.138 91.2649 159.451 91.059 159.773 90.8276H160.602Z" fill="#E3E4E5"/>
<path d="M130.828 313.998C132.04 315.595 134.416 314.838 134.414 318.669C134.412 321.95 133.307 325.106 133.879 328.051C134.762 332.602 139.331 332.214 142.644 332.249L144.29 322.907L144.331 312.29L135.1 310.903L131.549 313.476L130.828 313.998Z" fill="black"/>
<path d="M166.14 326.383C166.038 328.014 166.023 329.279 165.558 330.311L165.034 331.475C164.778 331.906 164.67 332.274 164.743 332.61C164.984 333.709 163.745 334.127 162.488 334.152C160.391 334.195 158.575 333.438 157.032 332.406L166.14 326.383Z" fill="white" stroke="black" stroke-width="0.230447"/>
<path d="M158.138 332.73C159.297 333.346 161.89 334.436 163.78 333.645C164.209 333.465 163.993 333.353 163.908 333.384C162.536 333.219 162.323 333.107 161.63 331.795C160.578 331.96 158.579 331.929 158.106 332.549C158 332.652 158.115 332.651 158.138 332.73Z" fill="black"/>
<path d="M162.108 331.981C163.007 333.929 163.966 332.562 164.413 331.22" stroke="black" stroke-width="0.230447" stroke-linecap="round" stroke-linejoin="round"/>
<path d="M136.605 313.101L136.473 310.709L146.935 316.228L141.451 329.565C141.626 328.556 141.266 326.843 141.691 325.804C142.783 323.131 143.462 320.875 143.135 319.171C142.257 314.591 139.039 313.805 136.605 313.101Z" fill="#4D4D4D" stroke="black" stroke-width="0.230447"/>
<path d="M131.164 314.307C129.237 313.846 129.028 310.752 131.746 306.683C139.283 295.402 150.042 296.735 155.025 298.07C164.13 300.51 170.727 309.9 168.119 321.174C167.351 324.494 165.878 328.18 163.463 331.737C163.241 332.064 162.998 332.446 161.834 332.086C160.254 331.598 159.008 331.52 158.051 332.173C152.403 336.029 148.381 336.102 144.869 334.647C141.006 333.045 141.098 329.854 141.698 327.023C142.204 324.632 143.802 322.313 143.531 319.632C142.981 314.209 138.856 313.479 136.14 312.852C133.709 312.291 130.952 312.887 131.164 314.307Z" fill="#E3E4E5"/>
<path d="M151.848 324.752L153.275 326.886C154.452 326.943 155.323 326.541 155.808 325.878C156.382 325.092 156.437 323.981 156.133 323.425C155.496 322.261 153.838 321.771 152.703 322.917C152.314 323.31 152.088 323.961 151.848 324.752Z" fill="black" stroke="black" stroke-width="0.230447"/>
<path d="M155.853 331.781C156.367 331.781 156.783 331.387 156.783 330.901C156.783 330.415 156.367 330.021 155.853 330.021C155.34 330.021 154.924 330.415 154.924 330.901C154.924 331.387 155.34 331.781 155.853 331.781Z" fill="url(#paint0_linear_510_46)" stroke="url(#paint1_linear_510_46)" stroke-width="0.0911904" stroke-linecap="round" stroke-linejoin="round"/>
<path d="M150.421 329.059C151.32 331.007 156.682 329.723 157.129 328.38" stroke="black" stroke-width="0.230447" stroke-linecap="round" stroke-linejoin="round"/>
<path d="M146.747 330.234C147.174 330.478 147.707 330.349 147.939 329.945C148.17 329.54 148.012 329.015 147.585 328.77C147.158 328.526 146.625 328.655 146.393 329.059C146.162 329.463 146.32 329.989 146.747 330.234Z" fill="url(#paint2_linear_510_46)" stroke="url(#paint3_linear_510_46)" stroke-width="0.087355" stroke-linecap="round" stroke-linejoin="round"/>
<path d="M143.426 324.78C138.807 334.676 150.915 336.71 158.899 330.932C155.779 332.399 153.459 333.425 151.131 333.633C147.636 333.945 144.997 333.168 143.731 331.559C142.456 329.942 142.567 327.484 143.426 324.78Z" fill="url(#paint4_linear_510_46)"/>
<path d="M137.066 319.752C137.557 319.721 138.314 319.842 138.703 320.688C138.857 321.021 138.873 321.496 138.776 322.084C138.285 325.059 140.144 326.794 142.273 328.586L142.15 331.878C139.332 332.124 136.709 331.827 135.322 330.392C133.725 328.739 133.83 325.473 134.519 322.276C134.886 320.998 135.636 319.863 137.066 319.752Z" fill="#4D4D4D"/>
<path d="M133.858 315.047C135.221 316.276 135.322 318.194 135.031 319.862C134.946 320.347 134.591 320.07 134.619 319.903C134.92 318.139 134.691 316.713 133.529 315.253C133.199 314.839 133.601 314.815 133.858 315.047Z" fill="white"/>
<path d="M133.982 307.259C134.16 306.808 130.678 308.496 130.945 308.004C131.177 307.577 131.443 307.136 131.746 306.683C139.283 295.402 150.042 296.735 155.025 298.07C147.336 298.261 139.628 298.367 133.982 307.259Z" fill="#4D4D4D"/>
<path d="M131.164 314.307C129.237 313.846 129.028 310.752 131.746 306.683C139.283 295.402 150.042 296.735 155.025 298.07C164.13 300.51 170.727 309.9 168.119 321.174C167.351 324.494 165.878 328.18 163.463 331.737C163.241 332.064 162.998 332.446 161.834 332.086C160.254 331.598 159.008 331.52 158.051 332.173C152.403 336.029 148.381 336.102 144.869 334.647C141.006 333.045 141.098 329.854 141.698 327.023C142.204 324.632 143.802 322.313 143.531 319.632C142.981 314.209 138.856 313.479 136.14 312.852C133.709 312.291 130.952 312.887 131.164 314.307Z" stroke="black" stroke-width="0.230447"/>
<path d="M135.456 306.945C135.834 307.101 136.58 306.749 136.212 307.935L134.947 311.295C134.36 312.852 135.772 313.207 136.984 313.594L134.685 313.609L133.754 311.848L134.728 308.007L135.456 306.945Z" fill="#F2F2F2" stroke="black" stroke-width="0.230447"/>
<path d="M130.742 306.494L132.153 307.178L130.96 311.921C129.426 312.37 127.558 311.895 128.458 310.306C129.177 309.035 129.908 307.765 130.742 306.494Z" fill="#D0D0D1" stroke="black" stroke-width="0.230447"/>
<path d="M131.564 307.071L135.36 306.982C135.834 306.97 135.949 307.039 135.813 307.434L134.537 311.138C134.059 312.525 134.532 313.373 135.73 313.689L131.592 313.526C131.211 313.596 131.117 314.049 131.164 314.278C128.718 313.3 129.847 309.31 131.564 307.071Z" fill="white" stroke="black" stroke-width="0.230447"/>
<path d="M133.667 306.747L134.581 307.314C134.894 307.509 135.343 307.729 135.102 308.333L133.894 311.65L132.736 309.569L133.667 306.747Z" fill="#CCCCCE" stroke="black" stroke-width="0.230447" stroke-linecap="round" stroke-linejoin="round"/>
<path d="M133.671 306.558C133.931 306.962 135.097 307.019 134.64 308.231L133.756 310.442L133.961 311.344C133.894 311.784 133.745 312.108 133.468 312.247L132.921 312.32L131.971 311.403L132.08 309.133L133.671 306.558Z" fill="#CCCCCE" stroke="black" stroke-width="0.230447" stroke-linecap="round" stroke-linejoin="round"/>
<path d="M151.79 327.864C152.364 328.209 152.986 327.744 152.88 327.246L146.317 316.938C144.957 314.511 143.239 313.125 141.276 312.452C138.86 311.588 136.378 311.184 133.91 310.683C132.898 310.635 132.839 311.706 133.704 311.938C135.632 312.334 137.529 312.543 139.506 313.234C141.675 313.873 143.631 314.832 144.712 317.103L151.79 327.864Z" fill="#CDCDCF" stroke="black" stroke-width="0.230447"/>
<path d="M134.458 318.545C130.669 322.451 126.241 321.722 122.976 321.187C122.275 321.064 121.838 321.2 121.577 321.763C120.071 325 119.596 328.772 119.27 332.721C119.246 333.016 119.361 333.375 119.708 333.452C121.533 333.485 120.649 333.303 120.834 332.186C120.777 330.092 121.02 326.074 122.729 322.627C122.883 322.316 123.227 322.145 124.087 322.38C127.423 323.36 129.851 323.031 131.598 322.145C133.028 321.42 133.61 321.078 134.346 320.552L134.458 318.545Z" fill="url(#paint5_linear_510_46)" stroke="black" stroke-width="0.230447" stroke-linecap="round" stroke-linejoin="round"/>
<path d="M123.926 327.812C123.015 327.635 122.152 327.469 121.176 327.186C120.571 327.01 120.256 325.308 121.822 325.539C126.408 326.214 129.25 325.952 133.793 325.082L133.763 326.329C128.459 327.344 126.69 327.219 123.072 326.305L121.95 326.108C122.97 326.318 123.458 326.49 124.479 326.619L123.926 327.812Z" fill="url(#paint6_linear_510_46)" stroke="black" stroke-width="0.230447" stroke-linecap="round" stroke-linejoin="round"/>
<path d="M125.551 323.038L122.801 322.442C122.228 322.18 122.016 321.278 122.991 321.176L126.177 321.729L125.551 323.038Z" fill="url(#paint7_linear_510_46)" stroke="black" stroke-width="0.230447" stroke-linecap="round" stroke-linejoin="round"/>
<path d="M132.44 315.095L127.79 326.33C126.173 330.238 124.488 331.117 121.042 331.968C119.421 332.136 119.383 332.94 119.624 333.304C119.942 333.783 121.631 334.361 123.284 334.499L123.408 333.223C122.753 333.031 121.979 333.074 121.564 332.963C121.295 332.891 121.289 332.8 121.673 332.813C121.903 332.821 122.151 332.891 122.477 332.879C123.556 332.838 124.317 332.369 125.239 331.721C127.04 330.456 127.852 329.461 129.478 325.59L133.592 315.794C133.332 315.14 132.89 315.103 132.44 315.095Z" fill="url(#paint8_linear_510_46)" stroke="black" stroke-width="0.230447" stroke-linecap="round" stroke-linejoin="round"/>
<path d="M143.738 313.833C144.104 314.1 144.459 314.426 144.798 314.831L138.035 329.495L136.43 329.598L143.738 313.833Z" fill="url(#paint9_linear_510_46)" stroke="black" stroke-width="0.230447" stroke-linecap="round" stroke-linejoin="round"/>
<path d="M147.417 318.923C147.756 318.996 148.263 319.584 148.23 320.014C146.911 321.236 146.168 321.879 144.727 322.994C143.633 323.842 142.36 324.332 141.061 324.435C137.57 324.712 134.165 324.262 130.818 323.838L126.817 323.14C126.827 323.077 126.791 322.925 126.744 322.994C125.944 324.244 125.684 325.513 125.435 326.835L134.484 328.203C135.115 328.298 138.82 328.495 141.439 328.028L150.781 326.365L151.536 327.519C147.495 328.216 143.544 328.996 139.082 329.483C137.109 329.699 134.738 329.582 133.67 329.396L125.289 327.941C125.154 327.918 125.062 327.918 125.027 328.028C124.415 330.017 124.36 331.866 124.358 333.703C124.472 333.72 124.406 333.518 124.518 333.541C129.398 334.567 135.26 332.825 136.379 329.642L137.948 329.575C135.315 334.976 129.02 335.399 124.184 334.663C123.698 334.799 123.342 334.678 123.02 334.488C122.899 329.723 123.966 325.521 125.93 321.743C126.042 321.527 126.954 321.294 126.992 322.049C133.631 323.154 136.344 323.07 140.1 323.285C141.936 323.391 143.611 322.439 145.309 320.87L147.417 318.923Z" fill="url(#paint10_linear_510_46)" stroke="black" stroke-width="0.230447" stroke-linecap="round" stroke-linejoin="round"/>
<path d="M131.628 310.381L129.302 310.262C128.439 310.505 128.428 311.479 129.389 311.485L131.606 311.414L131.628 310.381Z" fill="#D0D0D1" stroke="black" stroke-width="0.230447"/>
<path d="M132.676 306.767C133.279 306.303 133.805 306.208 134.151 306.973L132.741 310.173C132.442 310.85 131.986 311.486 133.339 312.281C132.683 312.432 132.176 312.517 131.622 312.37C131.52 312.343 131.413 312.306 131.356 312.199C130.952 311.447 130.845 310.683 131.31 309.689L132.676 306.767Z" fill="url(#paint11_linear_510_46)" stroke="black" stroke-width="0.230447" stroke-linecap="round" stroke-linejoin="round"/>
<path d="M132.769 307.809C132.881 308.038 133.145 308.047 133.36 307.83C133.576 307.613 133.659 307.251 133.547 307.023C133.436 306.794 133.171 306.784 132.956 307.001C132.741 307.219 132.657 307.58 132.769 307.809Z" fill="url(#paint12_linear_510_46)" stroke="url(#paint13_linear_510_46)" stroke-width="0.0509192" stroke-linecap="round" stroke-linejoin="round"/>
<path d="M132.219 309.133C132.33 309.362 132.595 309.371 132.81 309.154C133.025 308.937 133.109 308.575 132.997 308.347C132.886 308.118 132.621 308.108 132.406 308.325C132.191 308.543 132.107 308.904 132.219 309.133Z" fill="url(#paint14_linear_510_46)" stroke="url(#paint15_linear_510_46)" stroke-width="0.0509192" stroke-linecap="round" stroke-linejoin="round"/>
<path d="M149.784 322.167L150.998 323.926C151.352 324.439 150.894 324.615 150.627 324.79L147.479 326.858C147.031 327.152 146.73 327.086 146.492 326.837L145.545 325.85L145.627 324.471L148.158 322.928L149.784 322.167Z" fill="url(#paint16_linear_510_46)" stroke="black" stroke-width="0.230447" stroke-linecap="round" stroke-linejoin="round"/>
<path d="M145.525 325.685C144.98 325.023 144.898 324.38 145.545 323.936L147.973 322.269L148.487 322.907C147.116 323.76 145.647 324.593 145.525 325.685Z" fill="#CBCBCE" stroke="black" stroke-width="0.230447" stroke-linecap="round" stroke-linejoin="round"/>
<path d="M148.261 322.681C149.087 322.685 149.367 322.238 149.434 321.796C149.663 322.052 150.182 322.248 149.496 322.743C147.137 324.035 145.268 325.371 145.813 326.158C145.436 325.731 145.105 325.291 145.751 324.594L148.261 322.681Z" fill="#CECED0" stroke="black" stroke-width="0.230447" stroke-linecap="round" stroke-linejoin="round"/>
<path d="M146.848 326.228C147.179 326.418 147.594 326.318 147.774 326.004C147.954 325.69 147.831 325.281 147.499 325.091C147.168 324.901 146.753 325.001 146.573 325.315C146.393 325.629 146.516 326.038 146.848 326.228Z" fill="url(#paint17_linear_510_46)" stroke="url(#paint18_linear_510_46)" stroke-width="0.0678814" stroke-linecap="round" stroke-linejoin="round"/>
<path d="M147.916 324.351C147.737 324.657 147.828 325.043 148.119 325.212C148.409 325.381 148.789 325.269 148.967 324.962C149.146 324.655 149.055 324.27 148.765 324.101C148.474 323.932 148.094 324.044 147.916 324.351Z" fill="url(#paint19_linear_510_46)" stroke="url(#paint20_linear_510_46)" stroke-width="0.063006" stroke-linecap="round" stroke-linejoin="round"/>
<path d="M150.38 306.097L151.174 307.02L151.341 307.091L151.759 307.778L151.868 307.692L152.276 308.297L152.234 308.444L152.437 308.326L152.788 309.073L152.991 308.956L153.294 309.688L153.471 309.603L153.529 309.64L153.743 310.205L153.697 310.43L153.942 310.346L154.157 310.971L154.11 311.136L154.308 311.037L154.47 311.486L154.393 311.762L154.575 311.658L154.701 312.176L154.665 312.364L154.847 312.261L154.937 312.967L155.099 312.997L155.153 313.472L155.096 313.614L155.226 313.694L155.264 314.284L155.431 314.296L155.252 313.663L155.273 313.589L155.434 313.619L155.255 312.926L155.286 312.815L155.401 312.891L155.338 312.632L155.4 312.411L155.326 312.07L155.414 311.758L155.482 311.699L155.465 311.215L155.49 310.943L155.511 310.87L155.652 310.913L155.661 310.637L155.67 310.301L155.763 310.03L155.878 310.105L155.935 310.083L155.944 309.867L155.954 309.591L155.989 309.342L156.187 309.363L156.181 309.202L156.377 308.444L156.393 308.389L156.612 308.577L156.808 307.939L157.038 308.09L157.26 307.42L157.354 307.329L157.438 307.574L157.479 307.607L157.583 307.18L157.681 307.131L157.821 306.755L157.899 306.719L157.983 306.905L158.03 306.859L158.211 306.337L158.403 306.077L158.471 306.137L158.486 306.141L158.6 305.857L158.87 305.502L158.99 305.379L159.052 305.219L159.125 305.141L159.207 304.967L159.29 304.853L159.399 304.707L159.529 304.608L159.566 304.659L159.551 304.894L159.484 305.252L159.344 305.568L159.163 305.911L159.049 306.195L158.945 306.502L158.785 307.071L158.9 307.027L158.916 307.151L158.745 307.817L158.673 308.074L158.928 307.953L158.897 308.302L158.825 308.619L158.748 308.895L158.675 308.972L158.691 309.037L158.863 308.97L158.946 309.036L158.925 309.229L158.765 309.798L158.692 309.936L158.677 309.991L158.854 310.025L158.906 309.961L158.943 310.072L158.86 310.366L158.699 310.636L158.497 310.932L158.643 311.017L158.742 310.968L158.664 311.303L158.503 311.513L158.373 311.612L158.452 311.696L158.343 311.962L158.198 312.176L158.089 312.322L158.141 312.378L158.078 312.479L158.001 312.574L158.068 312.635L157.933 312.813L157.809 312.954L157.731 313.11L157.487 313.314L157.429 313.336L157.737 313.451L157.866 313.052L158.032 312.824L158.157 312.982L158.349 312.662L158.588 312.357L158.745 312.585L158.88 312.347L159.062 312.124L159.337 311.81L159.504 312.001L159.743 311.695L159.987 311.491L160.165 311.646L160.487 311.286L160.799 311.083L160.851 311.259L161.21 310.891L161.537 310.692L161.611 310.855L161.658 310.869L161.688 310.699L162.25 310.393L162.355 310.565L162.407 310.442L162.932 310.145L162.995 310.224L163.567 309.941L164.083 309.74L164.369 309.689L164.567 309.71L163.99 310.071L163.423 310.515L163.278 310.669L163.262 310.844L163.168 310.815L162.815 311.225L162.815 311.285L162.873 311.382L162.769 311.51L162.275 311.936L162.447 312.049L161.938 312.471L162.032 312.559L161.98 312.683L161.278 313.185L161.409 313.265L161.425 313.33L160.676 313.817L160.79 313.832L159.937 314.327L159.948 314.41L160.12 314.463L159.428 314.749L159.428 314.809L159.574 314.834L158.882 315.059L158.814 315.059L158.783 315.109L158.872 315.156L158.866 315.294L159.215 315.142L159.486 315.146L159.445 315.293L159.83 315.133L160.059 315.163L160.018 315.37L160.46 315.307L160.814 315.257L160.752 315.477L161.153 315.441L161.325 315.494L161.283 315.641L161.804 315.602L161.752 315.785L161.872 315.783L162.013 315.766L162.351 315.89L162.326 315.982L163.55 316.34L163.498 316.463L162.608 316.428L162.582 316.52L162.264 316.442L162.233 316.552L162.019 316.466L161.968 316.53L161.816 316.464L161.785 316.574L161.52 316.492L161.473 316.597L161.296 316.563L161.26 316.631L161.108 316.565L161.015 316.775L160.713 316.642L160.447 316.62L160.37 316.836L159.744 316.703L159.708 316.891L159.13 316.773L159.099 316.883L159.177 316.907L159.078 316.897L158.588 316.766L158.536 316.889L158.854 316.967L158.813 317.114L159.235 317.304L159.24 317.406L159.428 317.523L159.475 317.598L159.47 317.736L159.924 318.175L159.929 318.276L159.293 318L159.252 318.087L158.955 317.876L158.835 317.939L158.741 317.91L158.491 317.773L158.413 317.809L158.225 317.751L158.09 317.689L158.017 317.707L157.897 317.59L157.694 317.468L157.647 317.573L157.391 317.394L157.245 317.31L157.163 317.543L156.844 317.166L156.75 317.077L156.588 316.987L156.578 317.024L156.797 317.211L157.126 317.672L157.09 317.8L156.746 317.634L156.35 317.353L155.974 316.997L155.66 316.661L155.598 316.463L155.53 316.342L155.509 316.355L155.353 316.547L154.973 316.749L154.484 316.977L154.437 316.963L154.411 316.875L153.818 317.111L153.792 317.023L153.437 317.014L153.39 316.94L153.479 316.807L153.51 316.697L153.447 316.678L153.478 316.568L153.358 316.511L153.4 316.364L153.066 316.341L153.092 316.189L152.633 316.068L152.539 315.979L152.206 315.956L152.123 315.95L152.169 315.785L151.883 315.716L151.711 315.724L151.711 315.604L150.824 315.311L151.262 315.147L151.662 315.111L151.709 315.006L152.095 315.144L152.136 314.938L152.647 315.115L152.673 315.023L152.454 314.956L152.485 314.846L151.927 314.654L151.942 314.479L151.953 314.442L151.63 314.323L151.635 314.244L151.421 314.159L151.437 314.044L151.389 313.969L151.4 313.933L150.951 313.655L150.811 313.611L150.8 313.468L150.847 313.363L150.461 313.164L150.377 313.099L150.205 313.046L150.241 312.857L149.934 312.623L149.751 312.427L149.61 312.324L149.657 312.218L148.77 311.566L148.738 311.496L149.489 311.668L149.812 311.787L149.869 311.885L149.906 311.756L150.317 311.923L150.401 312.049L150.468 311.93L150.76 312.04L150.985 312.328L151.073 312.136L151.198 312.175L151.496 312.446L151.6 312.558L151.704 312.37L152.085 312.707L152.179 312.796L152.205 312.704L152.413 312.868L152.56 313.073L152.674 313.148L152.757 313.034L152.914 313.082L152.971 313.18L153.013 313.153L152.506 312.658L152.662 312.526L152.151 311.93L152.223 311.852L152.056 311.362L151.795 311.082L151.742 310.966L151.825 310.852L151.694 310.532L151.71 310.417L151.438 310.114L151.578 309.978L151.165 309.152L151.279 309.048L150.949 308.168L151.053 308.101L150.87 307.486L150.874 307.348L150.375 306.098L150.38 306.097Z" fill="#4D4D4D"/>
<path d="M157.942 319.113C162.114 318.205 164.769 314.131 163.873 310.014C162.977 305.896 158.869 303.293 154.698 304.201C150.526 305.108 147.871 309.182 148.767 313.3C149.663 317.418 153.771 320.021 157.942 319.113Z" stroke="#333333" stroke-width="1.92003"/>
<path d="M149.984 306.168L162.055 317.904L149.984 306.168Z" fill="#800000"/>
<path d="M149.984 306.168L162.055 317.904" stroke="#333333" stroke-width="1.92003"/>
<path d="M91.9384 186.456C91.9384 190.942 89.8481 193.185 85.6676 193.185C81.612 193.185 79.5842 190.994 79.5842 186.612V177.987H82.9592V186.654C82.9592 189.07 83.9037 190.279 85.7926 190.279C87.6467 190.279 88.5738 189.112 88.5738 186.779V177.987H91.9384V186.456Z" fill="#E3E4E5"/>
<path d="M101.824 185.227C101.428 185.011 100.966 184.904 100.438 184.904C99.7231 184.904 99.1641 185.168 98.7613 185.695C98.3585 186.216 98.1571 186.928 98.1571 187.831V192.925H94.8655V182.258H98.1571V184.237H98.1988C98.7196 182.793 99.6571 182.07 101.011 182.07C101.359 182.07 101.629 182.112 101.824 182.195V185.227Z" fill="#E3E4E5"/>
<path d="M106.688 191.685H106.647V192.925H103.355V177.133H106.647V183.862H106.688C107.501 182.619 108.657 181.998 110.157 181.998C111.532 181.998 112.591 182.47 113.334 183.414C114.077 184.359 114.449 185.65 114.449 187.289C114.449 189.067 114.015 190.494 113.147 191.57C112.279 192.647 111.119 193.185 109.668 193.185C108.355 193.185 107.362 192.685 106.688 191.685ZM106.595 187.185V188.279C106.595 188.966 106.793 189.536 107.188 189.987C107.584 190.438 108.091 190.664 108.709 190.664C109.459 190.664 110.039 190.376 110.449 189.8C110.865 189.216 111.074 188.393 111.074 187.331C111.074 186.449 110.883 185.761 110.501 185.268C110.126 184.768 109.588 184.518 108.886 184.518C108.227 184.518 107.678 184.765 107.24 185.258C106.81 185.751 106.595 186.393 106.595 187.185Z" fill="#E3E4E5"/>
<path d="M125.251 192.925H122.136V191.393H122.095C121.379 192.588 120.32 193.185 118.917 193.185C117.883 193.185 117.067 192.893 116.47 192.31C115.879 191.72 115.584 190.935 115.584 189.956C115.584 187.886 116.81 186.692 119.261 186.372L122.157 185.987C122.157 184.82 121.525 184.237 120.261 184.237C118.99 184.237 117.782 184.616 116.636 185.372V182.893C117.095 182.657 117.72 182.449 118.511 182.268C119.31 182.088 120.035 181.997 120.688 181.997C123.73 181.997 125.251 183.515 125.251 186.55L125.251 192.925ZM122.157 188.591V187.872L120.22 188.122C119.15 188.261 118.615 188.744 118.615 189.57C118.615 189.945 118.744 190.254 119.001 190.497C119.265 190.734 119.619 190.852 120.063 190.852C120.681 190.852 121.185 190.64 121.574 190.216C121.963 189.786 122.157 189.244 122.157 188.591Z" fill="#E3E4E5"/>
<path d="M138.157 192.925H134.876V186.997C134.876 185.345 134.286 184.518 133.105 184.518C132.536 184.518 132.067 184.737 131.699 185.175C131.331 185.612 131.147 186.168 131.147 186.841V192.925H127.855V182.258H131.147V183.945H131.188C131.973 182.647 133.115 181.997 134.615 181.997C136.977 181.997 138.157 183.463 138.157 186.393L138.157 192.925Z" fill="#E3E4E5"/>
<path d="M163.99 192.925H160.667V183.987C160.667 183.022 160.709 181.956 160.792 180.789H160.709C160.536 181.706 160.379 182.366 160.24 182.768L156.74 192.925H153.99L150.428 182.873C150.331 182.602 150.174 181.907 149.959 180.789H149.865C149.956 182.261 150.001 183.553 150.001 184.664V192.925H146.97V177.987H151.897L154.949 186.841C155.192 187.55 155.369 188.261 155.48 188.977H155.543C155.73 188.15 155.928 187.432 156.136 186.82L159.188 177.987H163.99L163.99 192.925Z" fill="#E3E4E5"/>
<path d="M176.647 188.529H169.688C169.799 190.077 170.775 190.852 172.615 190.852C173.789 190.852 174.82 190.574 175.709 190.018V192.393C174.723 192.921 173.442 193.185 171.865 193.185C170.143 193.185 168.806 192.709 167.855 191.758C166.904 190.8 166.428 189.466 166.428 187.758C166.428 185.987 166.942 184.584 167.97 183.55C168.997 182.515 170.261 181.997 171.761 181.997C173.317 181.997 174.518 182.459 175.365 183.383C176.22 184.307 176.647 185.56 176.647 187.143V188.529ZM173.595 186.508C173.595 184.98 172.976 184.216 171.74 184.216C171.213 184.216 170.754 184.435 170.365 184.872C169.983 185.31 169.751 185.855 169.667 186.508H173.595Z" fill="#E3E4E5"/>
<path d="M188.761 182.258L184.428 193.779C183.386 196.55 181.817 197.935 179.72 197.935C178.921 197.935 178.265 197.845 177.751 197.664V195.039C178.188 195.296 178.664 195.425 179.178 195.425C180.025 195.425 180.615 195.025 180.949 194.227L181.511 192.904L177.178 182.258H180.824L182.813 188.747C182.938 189.15 183.035 189.626 183.105 190.175H183.147C183.209 189.772 183.324 189.303 183.49 188.768L185.501 182.258H188.761Z" fill="#E3E4E5"/>
<path d="M199.459 188.529H192.501C192.612 190.077 193.588 190.852 195.428 190.852C196.601 190.852 197.633 190.574 198.522 190.018V192.393C197.535 192.921 196.254 193.185 194.678 193.185C192.956 193.185 191.619 192.709 190.667 191.758C189.716 190.8 189.24 189.466 189.24 187.758C189.24 185.987 189.754 184.584 190.782 183.55C191.81 182.515 193.074 181.997 194.574 181.997C196.129 181.997 197.331 182.459 198.178 183.383C199.032 184.307 199.459 185.56 199.459 187.143V188.529ZM196.407 186.508C196.407 184.98 195.789 184.216 194.553 184.216C194.025 184.216 193.567 184.435 193.178 184.872C192.796 185.31 192.563 185.855 192.48 186.508H196.407Z" fill="#E3E4E5"/>
<path d="M208.376 185.227C207.98 185.011 207.518 184.904 206.99 184.904C206.275 184.904 205.716 185.168 205.313 185.695C204.91 186.216 204.709 186.928 204.709 187.831V192.925H201.417V182.258H204.709V184.237H204.751C205.272 182.793 206.209 182.07 207.563 182.07C207.91 182.07 208.181 182.112 208.376 182.195L208.376 185.227Z" fill="#E3E4E5"/>
<path d="M124.678 198.707H119.407V202.374H124.251V205.103H119.407V210.905H116.042V195.967H124.678V198.707Z" fill="#E3E4E5"/>
<path d="M128.48 198.551C127.924 198.551 127.47 198.388 127.115 198.061C126.761 197.728 126.584 197.322 126.584 196.842C126.584 196.349 126.761 195.947 127.115 195.634C127.47 195.322 127.924 195.165 128.48 195.165C129.042 195.165 129.497 195.322 129.845 195.634C130.199 195.947 130.376 196.349 130.376 196.842C130.376 197.342 130.199 197.752 129.845 198.072C129.497 198.391 129.042 198.551 128.48 198.551ZM130.105 210.905H126.813V200.238H130.105V210.905Z" fill="#E3E4E5"/>
<path d="M139.834 203.207C139.438 202.992 138.977 202.884 138.449 202.884C137.733 202.884 137.174 203.148 136.772 203.676C136.369 204.197 136.168 204.908 136.168 205.811V210.905H132.876V200.238H136.168V202.217H136.209C136.73 200.773 137.668 200.051 139.022 200.051C139.369 200.051 139.64 200.092 139.834 200.176L139.834 203.207Z" fill="#E3E4E5"/>
<path d="M143.115 198.551C142.56 198.551 142.105 198.388 141.751 198.061C141.397 197.728 141.22 197.322 141.22 196.842C141.22 196.349 141.397 195.947 141.751 195.634C142.105 195.322 142.56 195.165 143.115 195.165C143.678 195.165 144.133 195.322 144.48 195.634C144.834 195.947 145.011 196.349 145.011 196.842C145.011 197.342 144.834 197.752 144.48 198.072C144.133 198.391 143.678 198.551 143.115 198.551ZM144.74 210.905H141.449V200.238H144.74V210.905Z" fill="#E3E4E5"/>
<path d="M157.813 210.905H154.532V204.978C154.532 203.325 153.942 202.499 152.761 202.499C152.192 202.499 151.723 202.717 151.355 203.155C150.987 203.592 150.803 204.148 150.803 204.822V210.905H147.511V200.238H150.803V201.926H150.845C151.629 200.627 152.772 199.978 154.272 199.978C156.633 199.978 157.813 201.443 157.813 204.374L157.813 210.905Z" fill="#E3E4E5"/>
<path d="M170.876 209.686C170.876 211.665 170.303 213.197 169.157 214.28C168.011 215.37 166.351 215.915 164.178 215.915C162.74 215.915 161.601 215.71 160.761 215.301V212.53C161.858 213.169 162.966 213.488 164.084 213.488C165.195 213.488 166.056 213.193 166.667 212.603C167.279 212.019 167.584 211.224 167.584 210.217V209.374H167.542C166.792 210.568 165.685 211.165 164.219 211.165C162.858 211.165 161.779 210.686 160.98 209.728C160.181 208.77 159.782 207.485 159.782 205.874C159.782 204.068 160.226 202.634 161.115 201.572C162.004 200.509 163.174 199.978 164.626 199.978C165.924 199.978 166.897 200.478 167.542 201.478H167.584V200.238H170.876V209.686ZM167.626 205.78V204.936C167.626 204.263 167.424 203.69 167.022 203.217C166.626 202.738 166.108 202.499 165.469 202.499C164.74 202.499 164.167 202.783 163.751 203.353C163.334 203.922 163.126 204.724 163.126 205.759C163.126 206.648 163.324 207.353 163.719 207.874C164.115 208.388 164.657 208.645 165.344 208.645C166.025 208.645 166.574 208.384 166.99 207.863C167.414 207.335 167.626 206.641 167.626 205.78Z" fill="#E3E4E5"/>
<path d="M112.928 228.312V224.979C113.532 225.486 114.188 225.868 114.897 226.125C115.605 226.375 116.32 226.5 117.043 226.5C117.466 226.5 117.834 226.462 118.147 226.385C118.466 226.309 118.73 226.205 118.938 226.073C119.154 225.934 119.313 225.774 119.418 225.594C119.522 225.406 119.574 225.205 119.574 224.989C119.574 224.698 119.49 224.437 119.324 224.208C119.157 223.979 118.928 223.767 118.636 223.573C118.352 223.378 118.011 223.191 117.615 223.01C117.22 222.83 116.793 222.646 116.334 222.458C115.168 221.972 114.296 221.378 113.72 220.677C113.15 219.976 112.865 219.128 112.865 218.135C112.865 217.357 113.022 216.691 113.334 216.135C113.647 215.573 114.07 215.111 114.605 214.75C115.147 214.389 115.772 214.125 116.48 213.958C117.188 213.785 117.938 213.698 118.73 213.698C119.508 213.698 120.195 213.746 120.793 213.844C121.397 213.934 121.952 214.076 122.459 214.271V217.385C122.209 217.212 121.935 217.059 121.636 216.927C121.345 216.795 121.043 216.687 120.73 216.604C120.418 216.514 120.105 216.448 119.793 216.406C119.487 216.364 119.195 216.344 118.918 216.344C118.536 216.344 118.188 216.382 117.876 216.458C117.563 216.528 117.3 216.628 117.084 216.76C116.869 216.892 116.702 217.052 116.584 217.239C116.466 217.42 116.407 217.625 116.407 217.854C116.407 218.104 116.473 218.33 116.605 218.531C116.737 218.726 116.924 218.913 117.168 219.094C117.411 219.267 117.706 219.441 118.053 219.614C118.4 219.781 118.793 219.955 119.23 220.135C119.827 220.385 120.362 220.653 120.834 220.937C121.313 221.215 121.723 221.531 122.063 221.885C122.404 222.239 122.664 222.646 122.845 223.104C123.025 223.555 123.115 224.083 123.115 224.687C123.115 225.521 122.956 226.222 122.636 226.791C122.324 227.354 121.897 227.812 121.355 228.166C120.813 228.514 120.181 228.764 119.459 228.916C118.744 229.069 117.987 229.146 117.188 229.146C116.369 229.146 115.588 229.076 114.845 228.937C114.109 228.798 113.47 228.59 112.928 228.312Z" fill="#E3E4E5"/>
<path d="M135.688 233.792H132.397V227.417H132.355C131.612 228.569 130.518 229.146 129.074 229.146C127.733 229.146 126.654 228.68 125.834 227.75C125.022 226.812 124.615 225.5 124.615 223.812C124.615 222.035 125.063 220.614 125.959 219.552C126.855 218.489 128.022 217.958 129.459 217.958C130.765 217.958 131.73 218.458 132.355 219.458H132.397V218.219H135.688V233.792ZM132.459 223.792V222.937C132.459 222.243 132.258 221.66 131.855 221.187C131.452 220.715 130.935 220.479 130.303 220.479C129.574 220.479 129.001 220.767 128.584 221.344C128.167 221.913 127.959 222.705 127.959 223.719C127.959 224.628 128.161 225.34 128.563 225.854C128.973 226.368 129.504 226.625 130.157 226.625C130.851 226.625 131.407 226.364 131.824 225.844C132.247 225.323 132.459 224.639 132.459 223.792Z" fill="#E3E4E5"/>
<path d="M148.595 228.885H145.313V227.26H145.261C144.449 228.517 143.362 229.146 142.001 229.146C139.529 229.146 138.292 227.649 138.292 224.656V218.219H141.574V224.364C141.574 225.871 142.171 226.625 143.365 226.625C143.956 226.625 144.428 226.42 144.782 226.01C145.136 225.594 145.313 225.031 145.313 224.323V218.219H148.595L148.595 228.885Z" fill="#E3E4E5"/>
<path d="M160.24 228.885H157.126V227.354H157.084C156.369 228.548 155.31 229.146 153.907 229.146C152.872 229.146 152.056 228.854 151.459 228.271C150.869 227.68 150.574 226.896 150.574 225.917C150.574 223.847 151.799 222.653 154.251 222.333L157.147 221.948C157.147 220.781 156.515 220.198 155.251 220.198C153.98 220.198 152.772 220.576 151.626 221.333V218.854C152.084 218.618 152.709 218.41 153.501 218.229C154.299 218.048 155.025 217.958 155.678 217.958C158.719 217.958 160.24 219.476 160.24 222.51L160.24 228.885ZM157.147 224.552V223.833L155.209 224.083C154.14 224.222 153.605 224.705 153.605 225.531C153.605 225.906 153.733 226.215 153.99 226.458C154.254 226.694 154.608 226.812 155.053 226.812C155.671 226.812 156.174 226.601 156.563 226.177C156.952 225.746 157.147 225.205 157.147 224.552Z" fill="#E3E4E5"/>
<path d="M173.282 228.885H169.99V227.417H169.949C169.199 228.569 168.098 229.146 166.647 229.146C165.313 229.146 164.24 228.677 163.428 227.739C162.615 226.795 162.209 225.479 162.209 223.792C162.209 222.028 162.657 220.614 163.553 219.552C164.449 218.489 165.622 217.958 167.074 217.958C168.449 217.958 169.407 218.451 169.949 219.437H169.99V213.094H173.282V228.885ZM170.053 223.698V222.896C170.053 222.201 169.851 221.625 169.449 221.167C169.046 220.708 168.522 220.479 167.876 220.479C167.147 220.479 166.577 220.767 166.167 221.344C165.758 221.913 165.553 222.698 165.553 223.698C165.553 224.635 165.751 225.358 166.147 225.864C166.542 226.371 167.091 226.625 167.792 226.625C168.459 226.625 169.001 226.357 169.417 225.823C169.841 225.288 170.053 224.58 170.053 223.698Z" fill="#E3E4E5"/>
<path d="M179.324 206.474L226.313 206.493L179.324 206.474Z" fill="#E3E4E5"/>
<path d="M179.324 206.474L226.313 206.493" stroke="#E3E4E5" stroke-width="2.56673" stroke-miterlimit="10" stroke-linecap="round"/>
<path d="M61.5553 206.692L108.544 206.711L61.5553 206.692Z" fill="#E3E4E5"/>
<path d="M61.5553 206.692L108.544 206.711" stroke="#E3E4E5" stroke-width="2.56673" stroke-miterlimit="10" stroke-linecap="round"/>
<defs>
<linearGradient id="paint0_linear_510_46" x1="155.367" y1="330.375" x2="156.228" y2="331.574" gradientUnits="userSpaceOnUse">
<stop stop-color="#B9BABC"/>
<stop offset="0.332298" stop-color="#6F7072"/>
<stop offset="0.505068" stop-color="#1F2022"/>
<stop offset="0.691743" stop-color="#6F7072"/>
<stop offset="1" stop-color="#B9BABC"/>
</linearGradient>
<linearGradient id="paint1_linear_510_46" x1="155.543" y1="329.925" x2="156.642" y2="331.732" gradientUnits="userSpaceOnUse">
<stop stop-color="#1D1E20"/>
<stop offset="1" stop-color="#CBCCCE"/>
</linearGradient>
<linearGradient id="paint2_linear_510_46" x1="147.012" y1="328.833" x2="147.157" y2="330.24" gradientUnits="userSpaceOnUse">
<stop stop-color="#B9BABC"/>
<stop offset="0.332298" stop-color="#6F7072"/>
<stop offset="0.505068" stop-color="#1F2022"/>
<stop offset="0.691743" stop-color="#6F7072"/>
<stop offset="1" stop-color="#B9BABC"/>
</linearGradient>
<linearGradient id="paint3_linear_510_46" x1="147.373" y1="328.543" x2="147.425" y2="330.568" gradientUnits="userSpaceOnUse">
<stop stop-color="#1D1E20"/>
<stop offset="1" stop-color="#CBCCCE"/>
</linearGradient>
<linearGradient id="paint4_linear_510_46" x1="143.261" y1="324.512" x2="159.187" y2="330.603" gradientUnits="userSpaceOnUse">
<stop stop-opacity="0"/>
<stop offset="0.094718"/>
<stop offset="0.397666"/>
<stop offset="0.724935"/>
<stop offset="1" stop-opacity="0"/>
</linearGradient>
<linearGradient id="paint5_linear_510_46" x1="122.564" y1="332.339" x2="144.539" y2="317.771" gradientUnits="userSpaceOnUse">
<stop stop-color="#CACACD"/>
<stop offset="1" stop-color="#D4D4D4"/>
</linearGradient>
<linearGradient id="paint6_linear_510_46" x1="122.564" y1="332.338" x2="144.539" y2="317.771" gradientUnits="userSpaceOnUse">
<stop stop-color="#CACACD"/>
<stop offset="1" stop-color="#D4D4D4"/>
</linearGradient>
<linearGradient id="paint7_linear_510_46" x1="122.564" y1="332.338" x2="144.539" y2="317.771" gradientUnits="userSpaceOnUse">
<stop stop-color="#CACACD"/>
<stop offset="1" stop-color="#D4D4D4"/>
</linearGradient>
<linearGradient id="paint8_linear_510_46" x1="122.564" y1="332.339" x2="144.539" y2="317.771" gradientUnits="userSpaceOnUse">
<stop stop-color="#CACACD"/>
<stop offset="1" stop-color="#D4D4D4"/>
</linearGradient>
<linearGradient id="paint9_linear_510_46" x1="122.564" y1="332.339" x2="144.539" y2="317.771" gradientUnits="userSpaceOnUse">
<stop stop-color="#CACACD"/>
<stop offset="1" stop-color="#D4D4D4"/>
</linearGradient>
<linearGradient id="paint10_linear_510_46" x1="122.564" y1="332.339" x2="144.539" y2="317.771" gradientUnits="userSpaceOnUse">
<stop stop-color="#CACACD"/>
<stop offset="1" stop-color="#D4D4D4"/>
</linearGradient>
<linearGradient id="paint11_linear_510_46" x1="132.115" y1="307.165" x2="131.693" y2="312.105" gradientUnits="userSpaceOnUse">
<stop stop-color="#CDCDCF"/>
<stop offset="0.583118" stop-color="#CCCCCE"/>
<stop offset="0.751085" stop-color="#929295"/>
<stop offset="0.891675" stop-color="#CCCCCE"/>
<stop offset="1" stop-color="#CDCDCF"/>
</linearGradient>
<linearGradient id="paint12_linear_510_46" x1="133.285" y1="306.964" x2="133.064" y2="307.912" gradientUnits="userSpaceOnUse">
<stop stop-color="#B9BABC"/>
<stop offset="0.332298" stop-color="#6F7072"/>
<stop offset="0.505068" stop-color="#1F2022"/>
<stop offset="0.691743" stop-color="#6F7072"/>
<stop offset="1" stop-color="#B9BABC"/>
</linearGradient>
<linearGradient id="paint13_linear_510_46" x1="133.522" y1="306.842" x2="133.047" y2="308.169" gradientUnits="userSpaceOnUse">
<stop stop-color="#1D1E20"/>
<stop offset="1" stop-color="#CBCCCE"/>
</linearGradient>
<linearGradient id="paint14_linear_510_46" x1="132.734" y1="308.288" x2="132.513" y2="309.236" gradientUnits="userSpaceOnUse">
<stop stop-color="#B9BABC"/>
<stop offset="0.332298" stop-color="#6F7072"/>
<stop offset="0.505068" stop-color="#1F2022"/>
<stop offset="0.691743" stop-color="#6F7072"/>
<stop offset="1" stop-color="#B9BABC"/>
</linearGradient>
<linearGradient id="paint15_linear_510_46" x1="132.972" y1="308.166" x2="132.497" y2="309.493" gradientUnits="userSpaceOnUse">
<stop stop-color="#1D1E20"/>
<stop offset="1" stop-color="#CBCCCE"/>
</linearGradient>
<linearGradient id="paint16_linear_510_46" x1="145.389" y1="327.819" x2="151.036" y2="323.622" gradientUnits="userSpaceOnUse">
<stop stop-color="#CDCDCF"/>
<stop offset="0.583118" stop-color="#CCCCCE"/>
<stop offset="0.751085" stop-color="#929295"/>
<stop offset="0.891675" stop-color="#CCCCCE"/>
<stop offset="1" stop-color="#CDCDCF"/>
</linearGradient>
<linearGradient id="paint17_linear_510_46" x1="147.126" y1="325.387" x2="147.401" y2="326.293" gradientUnits="userSpaceOnUse">
<stop stop-color="#B9BABC"/>
<stop offset="0.332298" stop-color="#6F7072"/>
<stop offset="0.505068" stop-color="#1F2022"/>
<stop offset="0.691743" stop-color="#6F7072"/>
<stop offset="1" stop-color="#B9BABC"/>
</linearGradient>
<linearGradient id="paint18_linear_510_46" x1="147.334" y1="324.915" x2="147.864" y2="326.462" gradientUnits="userSpaceOnUse">
<stop stop-color="#1D1E20"/>
<stop offset="1" stop-color="#CBCCCE"/>
</linearGradient>
<linearGradient id="paint19_linear_510_46" x1="148.925" y1="324.548" x2="147.909" y2="324.646" gradientUnits="userSpaceOnUse">
<stop stop-color="#B9BABC"/>
<stop offset="0.332298" stop-color="#6F7072"/>
<stop offset="0.505068" stop-color="#1F2022"/>
<stop offset="0.691743" stop-color="#6F7072"/>
<stop offset="1" stop-color="#B9BABC"/>
</linearGradient>
<linearGradient id="paint20_linear_510_46" x1="149.132" y1="324.81" x2="147.671" y2="324.838" gradientUnits="userSpaceOnUse">
<stop stop-color="#1D1E20"/>
<stop offset="1" stop-color="#CBCCCE"/>
</linearGradient>
</defs>
</svg>
