<svg width="288" height="432" viewBox="0 0 288 432" fill="none" xmlns="http://www.w3.org/2000/svg">
<path d="M256.96 42.22V48.22H31.05V42.22H256.96Z" fill="#333333"/>
<path d="M25.17 57.09C24.3743 57.09 23.6113 56.774 23.0487 56.2113C22.4861 55.6487 22.17 54.8857 22.17 54.09V36.34C22.17 35.5444 22.4861 34.7813 23.0487 34.2187C23.6113 33.6561 24.3743 33.34 25.17 33.34C25.9656 33.34 26.7287 33.6561 27.2913 34.2187C27.8539 34.7813 28.17 35.5444 28.17 36.34V54.09C28.17 54.8857 27.8539 55.6487 27.2913 56.2113C26.7287 56.774 25.9656 57.09 25.17 57.09Z" fill="#333333"/>
<path d="M262.83 57.09C262.034 57.09 261.271 56.774 260.709 56.2113C260.146 55.6487 259.83 54.8857 259.83 54.09V36.34C259.83 35.5444 260.146 34.7813 260.709 34.2187C261.271 33.6561 262.034 33.34 262.83 33.34C263.626 33.34 264.389 33.6561 264.951 34.2187C265.514 34.7813 265.83 35.5444 265.83 36.34V54.09C265.83 54.8857 265.514 55.6487 264.951 56.2113C264.389 56.774 263.626 57.09 262.83 57.09Z" fill="#333333"/>
<path opacity="0.2" d="M50.34 66.67V397C50.341 397.262 50.4041 397.52 50.524 397.753C50.6439 397.986 50.8173 398.187 51.0299 398.341C51.2425 398.494 51.4884 398.594 51.7474 398.634C52.0064 398.674 52.2712 398.652 52.52 398.57L153.52 364.82C153.846 364.719 154.194 364.719 154.52 364.82L255.52 398.57C255.769 398.652 256.034 398.674 256.293 398.634C256.552 398.594 256.798 398.494 257.01 398.341C257.223 398.187 257.396 397.986 257.516 397.753C257.636 397.52 257.699 397.262 257.7 397V66.67C257.703 66.4474 257.661 66.2265 257.576 66.0206C257.491 65.8148 257.365 65.6282 257.206 65.4722C257.048 65.3162 256.859 65.1939 256.652 65.1128C256.444 65.0316 256.223 64.9933 256 65H52C51.7808 64.9987 51.5635 65.041 51.3609 65.1246C51.1582 65.2082 50.9742 65.3313 50.8197 65.4868C50.6651 65.6423 50.5431 65.827 50.4608 66.0301C50.3784 66.2333 50.3374 66.4508 50.34 66.67Z" fill="#231F20"/>
<path d="M42.0001 58.6V384.6C41.9992 384.859 42.0602 385.115 42.1779 385.346C42.2956 385.576 42.4666 385.776 42.6768 385.927C42.887 386.079 43.1303 386.178 43.3865 386.217C43.6427 386.256 43.9045 386.233 44.1501 386.15L143.78 352.84C144.106 352.738 144.454 352.738 144.78 352.84L244.41 386.15C244.656 386.233 244.917 386.256 245.174 386.217C245.43 386.178 245.673 386.079 245.883 385.927C246.093 385.776 246.265 385.576 246.382 385.346C246.5 385.115 246.561 384.859 246.56 384.6V58.6C246.55 58.1805 246.38 57.7809 246.084 57.4832C245.788 57.1856 245.389 57.0127 244.97 57H43.6301C43.2037 57.0025 42.795 57.1709 42.4907 57.4696C42.1865 57.7683 42.0105 58.1737 42.0001 58.6Z" fill="#4D1919"/>
<path d="M244.66 389.21C244.164 389.213 243.671 389.136 243.2 388.98L144 355.81L44.8 389C44.1031 389.231 43.3613 389.293 42.6356 389.182C41.9099 389.07 41.221 388.788 40.6256 388.359C40.0301 387.929 39.5451 387.365 39.2103 386.711C38.8756 386.058 38.7007 385.334 38.7 384.6V58.6C38.7105 57.3781 39.2027 56.2096 40.0695 55.3484C40.9364 54.4871 42.108 54.0026 43.33 54H244.67C245.899 54.0026 247.077 54.4927 247.945 55.3626C248.813 56.2324 249.3 57.4111 249.3 58.64V384.64C249.3 385.375 249.125 386.099 248.789 386.753C248.453 387.407 247.967 387.971 247.37 388.4C246.575 388.949 245.626 389.233 244.66 389.21ZM144 349.74C144.5 349.74 144.996 349.821 145.47 349.98L243.3 382.68V60H44.7V382.68L142.53 350C143.002 349.833 143.499 349.746 144 349.74Z" fill="#4D1919"/>
<path d="M238.05 376.68L147.13 346.28C145.097 345.61 142.903 345.61 140.87 346.28L50 376.68V66.5H238.1L238.05 376.68ZM53.45 70V371.82L139.76 343C142.513 342.09 145.487 342.09 148.24 343L234.55 371.86V70H53.45Z" fill="#E3E4E5"/>
<path d="M222.815 153.45C222.708 153.46 222.601 153.46 222.495 153.45C202.355 149.78 173.585 147.68 143.565 147.68C114.005 147.68 85.5646 149.68 65.4646 153.3C65.0072 153.381 64.5363 153.277 64.1557 153.01C63.7751 152.744 63.5158 152.337 63.435 151.88C63.3541 151.422 63.4582 150.952 63.7244 150.571C63.9907 150.19 64.3972 149.931 64.8546 149.85C85.1246 146.25 113.855 144.18 143.565 144.18C173.785 144.18 202.785 146.3 223.125 150.01C223.552 150.09 223.935 150.327 224.197 150.673C224.46 151.02 224.584 151.452 224.545 151.886C224.507 152.319 224.308 152.722 223.988 153.017C223.668 153.312 223.25 153.477 222.815 153.48V153.45Z" fill="#E3E4E5"/>
<path d="M85.2313 136.943C83.8418 137.616 82.0276 137.952 79.7885 137.952C76.868 137.952 74.5714 137.094 72.8988 135.377C71.2261 133.66 70.3898 131.372 70.3898 128.514C70.3898 125.469 71.3279 123 73.2041 121.106C75.0891 119.212 77.5317 118.265 80.5319 118.265C82.3904 118.265 83.9569 118.5 85.2313 118.969V123.097C83.9569 122.336 82.5055 121.956 80.8771 121.956C79.0893 121.956 77.6468 122.518 76.5494 123.642C75.452 124.766 74.9033 126.288 74.9033 128.208C74.9033 130.049 75.421 131.518 76.4565 132.616C77.4919 133.704 78.8858 134.248 80.6381 134.248C82.3108 134.248 83.8418 133.841 85.2313 133.027V136.943Z" fill="#E3E4E5"/>
<path d="M105.024 137.62H100.723V129.868H92.8379V137.62H88.55V118.584H92.8379V126.177H100.723V118.584H105.024V137.62Z" fill="#E3E4E5"/>
<path d="M126.118 137.62H121.446L120.092 133.386H113.321L111.98 137.62H107.334L114.264 118.584H119.348L126.118 137.62ZM119.109 130.093L117.065 123.695C116.914 123.217 116.808 122.646 116.746 121.982H116.64C116.596 122.54 116.485 123.093 116.308 123.642L114.237 130.093H119.109Z" fill="#E3E4E5"/>
<path d="M150.186 137.62H145.951V126.23C145.951 125 146.004 123.642 146.111 122.155H146.004C145.783 123.323 145.584 124.164 145.407 124.677L140.947 137.62H137.442L132.902 124.81C132.778 124.465 132.579 123.58 132.305 122.155H132.185C132.3 124.031 132.358 125.677 132.358 127.093V137.62H128.495V118.584H134.774L138.663 129.868C138.973 130.77 139.199 131.677 139.34 132.589H139.42C139.659 131.536 139.911 130.62 140.177 129.841L144.066 118.584H150.186L150.186 137.62Z" fill="#E3E4E5"/>
<path d="M158.802 131.062V137.62H154.514V118.584H161.231C166.028 118.584 168.426 120.606 168.426 124.651C168.426 126.562 167.736 128.111 166.355 129.297C164.983 130.474 163.147 131.062 160.846 131.062H158.802ZM158.802 121.876V127.81H160.488C162.771 127.81 163.912 126.81 163.912 124.81C163.912 122.854 162.771 121.876 160.488 121.876H158.802Z" fill="#E3E4E5"/>
<path d="M175.502 137.62H171.214V118.584H175.502V137.62Z" fill="#E3E4E5"/>
<path d="M187.874 137.952C185.148 137.952 182.927 137.067 181.21 135.297C179.493 133.518 178.635 131.204 178.635 128.354C178.635 125.345 179.506 122.912 181.25 121.053C182.993 119.195 185.303 118.265 188.179 118.265C190.896 118.265 193.091 119.155 194.764 120.934C196.445 122.712 197.286 125.058 197.286 127.969C197.286 130.961 196.414 133.372 194.671 135.204C192.936 137.036 190.671 137.952 187.874 137.952ZM188.06 121.956C186.555 121.956 185.361 122.522 184.476 123.655C183.591 124.779 183.148 126.27 183.148 128.129C183.148 130.014 183.591 131.505 184.476 132.602C185.361 133.7 186.52 134.248 187.954 134.248C189.432 134.248 190.604 133.717 191.471 132.655C192.339 131.585 192.772 130.102 192.772 128.208C192.772 126.235 192.352 124.699 191.511 123.602C190.671 122.504 189.52 121.956 188.06 121.956Z" fill="#E3E4E5"/>
<path d="M217.57 137.62H213.243L205.397 125.659C204.937 124.96 204.618 124.434 204.441 124.08H204.388C204.459 124.752 204.494 125.779 204.494 127.16V137.62H200.445V118.584H205.065L212.619 130.173C212.964 130.695 213.282 131.213 213.574 131.726H213.628C213.557 131.284 213.521 130.412 213.521 129.111V118.584H217.57V137.62Z" fill="#E3E4E5"/>
<path d="M130.828 313.998C132.04 315.595 134.416 314.838 134.414 318.669C134.411 321.95 133.307 325.106 133.879 328.051C134.762 332.602 139.331 332.214 142.644 332.249L144.29 322.907L144.331 312.29L135.1 310.903L131.549 313.476L130.828 313.998Z" fill="black"/>
<path d="M166.14 326.383C166.038 328.014 166.023 329.279 165.558 330.311L165.034 331.475C164.778 331.906 164.67 332.274 164.743 332.61C164.984 333.709 163.745 334.127 162.488 334.152C160.391 334.195 158.575 333.438 157.032 332.406L166.14 326.383Z" fill="white" stroke="black" stroke-width="0.230447"/>
<path d="M158.138 332.73C159.297 333.346 161.89 334.436 163.78 333.645C164.209 333.465 163.993 333.353 163.908 333.384C162.536 333.219 162.323 333.107 161.63 331.795C160.578 331.96 158.579 331.929 158.106 332.549C158 332.652 158.115 332.651 158.138 332.73Z" fill="black"/>
<path d="M162.108 331.981C163.007 333.929 163.966 332.562 164.413 331.22" stroke="black" stroke-width="0.230447" stroke-linecap="round" stroke-linejoin="round"/>
<path d="M136.605 313.101L136.473 310.709L146.935 316.228L141.451 329.565C141.626 328.556 141.266 326.843 141.691 325.804C142.783 323.131 143.462 320.875 143.135 319.171C142.257 314.591 139.039 313.805 136.605 313.101Z" fill="#4D4D4D" stroke="black" stroke-width="0.230447"/>
<path d="M131.164 314.307C129.237 313.846 129.028 310.752 131.746 306.683C139.283 295.402 150.042 296.735 155.024 298.07C164.13 300.51 170.727 309.9 168.119 321.174C167.351 324.494 165.878 328.18 163.463 331.737C163.241 332.064 162.998 332.446 161.834 332.086C160.254 331.598 159.008 331.52 158.051 332.173C152.403 336.029 148.381 336.102 144.869 334.647C141.006 333.045 141.098 329.854 141.697 327.023C142.204 324.632 143.802 322.313 143.531 319.632C142.981 314.209 138.856 313.479 136.14 312.852C133.709 312.291 130.952 312.887 131.164 314.307Z" fill="#E3E4E5"/>
<path d="M151.848 324.752L153.275 326.886C154.452 326.943 155.323 326.541 155.808 325.878C156.382 325.092 156.437 323.981 156.133 323.425C155.496 322.261 153.838 321.771 152.703 322.917C152.314 323.31 152.088 323.961 151.848 324.752Z" fill="black" stroke="black" stroke-width="0.230447"/>
<path d="M155.853 331.781C156.367 331.781 156.783 331.387 156.783 330.901C156.783 330.415 156.367 330.021 155.853 330.021C155.34 330.021 154.923 330.415 154.923 330.901C154.923 331.387 155.34 331.781 155.853 331.781Z" fill="url(#paint0_linear_510_1242)" stroke="url(#paint1_linear_510_1242)" stroke-width="0.0911904" stroke-linecap="round" stroke-linejoin="round"/>
<path d="M150.421 329.059C151.32 331.007 156.682 329.723 157.129 328.38" stroke="black" stroke-width="0.230447" stroke-linecap="round" stroke-linejoin="round"/>
<path d="M146.747 330.234C147.173 330.478 147.707 330.349 147.939 329.945C148.17 329.54 148.012 329.015 147.585 328.77C147.158 328.526 146.625 328.655 146.393 329.059C146.162 329.463 146.32 329.989 146.747 330.234Z" fill="url(#paint2_linear_510_1242)" stroke="url(#paint3_linear_510_1242)" stroke-width="0.087355" stroke-linecap="round" stroke-linejoin="round"/>
<path d="M143.426 324.78C138.807 334.676 150.915 336.71 158.899 330.932C155.779 332.399 153.459 333.425 151.131 333.633C147.636 333.945 144.997 333.168 143.731 331.559C142.456 329.942 142.567 327.484 143.426 324.78Z" fill="url(#paint4_linear_510_1242)"/>
<path d="M137.066 319.752C137.557 319.721 138.314 319.842 138.703 320.688C138.857 321.021 138.873 321.496 138.776 322.084C138.285 325.059 140.144 326.794 142.273 328.586L142.15 331.878C139.332 332.124 136.709 331.827 135.322 330.392C133.725 328.739 133.83 325.473 134.519 322.276C134.886 320.998 135.636 319.863 137.066 319.752Z" fill="#4D4D4D"/>
<path d="M133.858 315.047C135.221 316.276 135.322 318.194 135.031 319.862C134.946 320.347 134.591 320.07 134.619 319.903C134.92 318.139 134.691 316.713 133.529 315.253C133.199 314.839 133.601 314.815 133.858 315.047Z" fill="white"/>
<path d="M133.982 307.259C134.16 306.808 130.678 308.496 130.945 308.004C131.177 307.577 131.443 307.136 131.746 306.683C139.283 295.402 150.042 296.735 155.024 298.07C147.336 298.261 139.628 298.367 133.982 307.259Z" fill="#4D4D4D"/>
<path d="M131.164 314.307C129.237 313.846 129.028 310.752 131.746 306.683C139.283 295.402 150.042 296.735 155.024 298.07C164.13 300.51 170.727 309.9 168.119 321.174C167.351 324.494 165.878 328.18 163.463 331.737C163.241 332.064 162.998 332.446 161.834 332.086C160.254 331.598 159.008 331.52 158.051 332.173C152.403 336.029 148.381 336.102 144.869 334.647C141.006 333.045 141.098 329.854 141.697 327.023C142.204 324.632 143.802 322.313 143.531 319.632C142.981 314.209 138.856 313.479 136.14 312.852C133.709 312.291 130.952 312.887 131.164 314.307Z" stroke="black" stroke-width="0.230447"/>
<path d="M135.456 306.945C135.834 307.101 136.58 306.749 136.212 307.935L134.947 311.295C134.36 312.852 135.772 313.207 136.984 313.594L134.685 313.609L133.754 311.848L134.728 308.007L135.456 306.945Z" fill="#F2F2F2" stroke="black" stroke-width="0.230447"/>
<path d="M130.742 306.494L132.153 307.178L130.96 311.921C129.426 312.37 127.558 311.895 128.458 310.306C129.177 309.035 129.908 307.765 130.742 306.494Z" fill="#D0D0D1" stroke="black" stroke-width="0.230447"/>
<path d="M131.564 307.071L135.36 306.982C135.833 306.97 135.949 307.039 135.813 307.434L134.537 311.138C134.059 312.525 134.531 313.373 135.73 313.689L131.592 313.526C131.211 313.596 131.117 314.049 131.164 314.278C128.718 313.3 129.846 309.31 131.564 307.071Z" fill="white" stroke="black" stroke-width="0.230447"/>
<path d="M133.667 306.747L134.581 307.314C134.894 307.509 135.343 307.729 135.102 308.333L133.894 311.65L132.736 309.569L133.667 306.747Z" fill="#CCCCCE" stroke="black" stroke-width="0.230447" stroke-linecap="round" stroke-linejoin="round"/>
<path d="M133.671 306.558C133.931 306.962 135.097 307.019 134.64 308.231L133.756 310.442L133.961 311.344C133.894 311.784 133.745 312.108 133.468 312.247L132.921 312.32L131.971 311.403L132.08 309.133L133.671 306.558Z" fill="#CCCCCE" stroke="black" stroke-width="0.230447" stroke-linecap="round" stroke-linejoin="round"/>
<path d="M151.79 327.864C152.364 328.209 152.985 327.744 152.88 327.246L146.317 316.938C144.957 314.511 143.239 313.125 141.276 312.452C138.859 311.588 136.377 311.184 133.909 310.683C132.897 310.635 132.839 311.706 133.704 311.938C135.632 312.334 137.529 312.543 139.506 313.234C141.675 313.873 143.63 314.832 144.712 317.103L151.79 327.864Z" fill="#CDCDCF" stroke="black" stroke-width="0.230447"/>
<path d="M134.458 318.545C130.669 322.451 126.241 321.722 122.976 321.187C122.275 321.064 121.838 321.2 121.576 321.763C120.071 325 119.596 328.772 119.27 332.721C119.246 333.016 119.361 333.375 119.708 333.452C121.533 333.485 120.649 333.303 120.834 332.186C120.777 330.092 121.02 326.074 122.729 322.627C122.883 322.316 123.227 322.145 124.087 322.38C127.423 323.36 129.851 323.031 131.598 322.145C133.028 321.42 133.61 321.078 134.346 320.552L134.458 318.545Z" fill="url(#paint5_linear_510_1242)" stroke="black" stroke-width="0.230447" stroke-linecap="round" stroke-linejoin="round"/>
<path d="M123.926 327.812C123.015 327.635 122.152 327.469 121.176 327.186C120.571 327.01 120.256 325.308 121.822 325.539C126.408 326.214 129.25 325.952 133.793 325.082L133.763 326.329C128.459 327.344 126.69 327.219 123.072 326.305L121.95 326.108C122.97 326.318 123.458 326.49 124.479 326.619L123.926 327.812Z" fill="url(#paint6_linear_510_1242)" stroke="black" stroke-width="0.230447" stroke-linecap="round" stroke-linejoin="round"/>
<path d="M125.551 323.038L122.801 322.442C122.228 322.18 122.016 321.278 122.991 321.176L126.177 321.729L125.551 323.038Z" fill="url(#paint7_linear_510_1242)" stroke="black" stroke-width="0.230447" stroke-linecap="round" stroke-linejoin="round"/>
<path d="M132.44 315.095L127.79 326.33C126.173 330.238 124.488 331.117 121.042 331.968C119.421 332.136 119.383 332.94 119.624 333.304C119.942 333.783 121.631 334.361 123.284 334.499L123.408 333.223C122.753 333.031 121.979 333.074 121.564 332.963C121.295 332.891 121.289 332.8 121.673 332.813C121.903 332.821 122.151 332.891 122.477 332.879C123.556 332.838 124.317 332.369 125.239 331.721C127.04 330.456 127.852 329.461 129.478 325.59L133.592 315.794C133.332 315.14 132.89 315.103 132.44 315.095Z" fill="url(#paint8_linear_510_1242)" stroke="black" stroke-width="0.230447" stroke-linecap="round" stroke-linejoin="round"/>
<path d="M143.738 313.833C144.104 314.1 144.459 314.426 144.798 314.831L138.035 329.495L136.43 329.598L143.738 313.833Z" fill="url(#paint9_linear_510_1242)" stroke="black" stroke-width="0.230447" stroke-linecap="round" stroke-linejoin="round"/>
<path d="M147.417 318.923C147.756 318.996 148.263 319.584 148.23 320.014C146.911 321.236 146.168 321.879 144.727 322.994C143.633 323.842 142.36 324.332 141.061 324.435C137.569 324.712 134.165 324.262 130.818 323.838L126.817 323.14C126.827 323.077 126.791 322.925 126.744 322.994C125.944 324.244 125.684 325.513 125.435 326.835L134.484 328.203C135.115 328.298 138.82 328.495 141.439 328.028L150.781 326.365L151.536 327.519C147.495 328.216 143.544 328.996 139.082 329.483C137.109 329.699 134.738 329.582 133.67 329.396L125.289 327.941C125.154 327.918 125.061 327.918 125.027 328.028C124.415 330.017 124.36 331.866 124.358 333.703C124.472 333.72 124.406 333.518 124.518 333.541C129.398 334.567 135.26 332.825 136.379 329.642L137.948 329.575C135.315 334.976 129.02 335.399 124.184 334.663C123.698 334.799 123.342 334.678 123.02 334.488C122.899 329.723 123.966 325.521 125.929 321.743C126.042 321.527 126.954 321.294 126.992 322.049C133.631 323.154 136.344 323.07 140.1 323.285C141.936 323.391 143.611 322.439 145.309 320.87L147.417 318.923Z" fill="url(#paint10_linear_510_1242)" stroke="black" stroke-width="0.230447" stroke-linecap="round" stroke-linejoin="round"/>
<path d="M131.628 310.381L129.302 310.262C128.439 310.505 128.428 311.479 129.389 311.485L131.606 311.414L131.628 310.381Z" fill="#D0D0D1" stroke="black" stroke-width="0.230447"/>
<path d="M132.676 306.767C133.279 306.303 133.805 306.208 134.151 306.973L132.741 310.173C132.442 310.85 131.986 311.486 133.339 312.281C132.683 312.432 132.175 312.517 131.621 312.37C131.52 312.343 131.413 312.306 131.356 312.199C130.952 311.447 130.845 310.683 131.31 309.689L132.676 306.767Z" fill="url(#paint11_linear_510_1242)" stroke="black" stroke-width="0.230447" stroke-linecap="round" stroke-linejoin="round"/>
<path d="M132.769 307.809C132.881 308.038 133.145 308.047 133.36 307.83C133.576 307.613 133.659 307.251 133.547 307.023C133.436 306.794 133.171 306.784 132.956 307.001C132.741 307.219 132.657 307.58 132.769 307.809Z" fill="url(#paint12_linear_510_1242)" stroke="url(#paint13_linear_510_1242)" stroke-width="0.0509192" stroke-linecap="round" stroke-linejoin="round"/>
<path d="M132.219 309.133C132.33 309.362 132.595 309.371 132.81 309.154C133.025 308.937 133.109 308.575 132.997 308.347C132.885 308.118 132.621 308.108 132.406 308.325C132.191 308.543 132.107 308.904 132.219 309.133Z" fill="url(#paint14_linear_510_1242)" stroke="url(#paint15_linear_510_1242)" stroke-width="0.0509192" stroke-linecap="round" stroke-linejoin="round"/>
<path d="M149.784 322.167L150.998 323.926C151.352 324.439 150.894 324.615 150.627 324.79L147.479 326.858C147.031 327.152 146.73 327.086 146.491 326.837L145.545 325.85L145.627 324.471L148.158 322.928L149.784 322.167Z" fill="url(#paint16_linear_510_1242)" stroke="black" stroke-width="0.230447" stroke-linecap="round" stroke-linejoin="round"/>
<path d="M145.524 325.685C144.98 325.023 144.898 324.38 145.545 323.936L147.973 322.269L148.487 322.907C147.116 323.76 145.647 324.593 145.524 325.685Z" fill="#CBCBCE" stroke="black" stroke-width="0.230447" stroke-linecap="round" stroke-linejoin="round"/>
<path d="M148.261 322.681C149.087 322.685 149.367 322.238 149.434 321.796C149.663 322.052 150.182 322.248 149.495 322.743C147.136 324.035 145.268 325.371 145.812 326.158C145.436 325.731 145.105 325.291 145.751 324.594L148.261 322.681Z" fill="#CECED0" stroke="black" stroke-width="0.230447" stroke-linecap="round" stroke-linejoin="round"/>
<path d="M146.848 326.228C147.179 326.418 147.594 326.318 147.774 326.004C147.954 325.69 147.831 325.281 147.499 325.091C147.167 324.901 146.753 325.001 146.573 325.315C146.393 325.629 146.516 326.038 146.848 326.228Z" fill="url(#paint17_linear_510_1242)" stroke="url(#paint18_linear_510_1242)" stroke-width="0.0678814" stroke-linecap="round" stroke-linejoin="round"/>
<path d="M147.916 324.351C147.737 324.657 147.828 325.043 148.119 325.212C148.409 325.381 148.789 325.269 148.967 324.962C149.146 324.655 149.055 324.27 148.765 324.101C148.474 323.932 148.094 324.044 147.916 324.351Z" fill="url(#paint19_linear_510_1242)" stroke="url(#paint20_linear_510_1242)" stroke-width="0.063006" stroke-linecap="round" stroke-linejoin="round"/>
<path d="M150.38 306.097L151.174 307.02L151.341 307.091L151.759 307.778L151.868 307.692L152.275 308.297L152.234 308.444L152.437 308.326L152.788 309.073L152.991 308.956L153.294 309.688L153.471 309.603L153.529 309.64L153.743 310.205L153.697 310.43L153.942 310.346L154.157 310.971L154.11 311.136L154.308 311.037L154.47 311.486L154.393 311.762L154.575 311.658L154.701 312.176L154.665 312.364L154.847 312.261L154.937 312.967L155.099 312.997L155.152 313.472L155.096 313.614L155.226 313.694L155.264 314.284L155.431 314.296L155.252 313.663L155.273 313.589L155.434 313.619L155.255 312.926L155.286 312.815L155.401 312.891L155.338 312.632L155.4 312.411L155.326 312.07L155.414 311.758L155.482 311.699L155.465 311.215L155.49 310.943L155.511 310.87L155.652 310.913L155.661 310.637L155.67 310.301L155.763 310.03L155.878 310.105L155.935 310.083L155.944 309.867L155.954 309.591L155.989 309.342L156.187 309.363L156.181 309.202L156.377 308.444L156.393 308.389L156.612 308.577L156.808 307.939L157.038 308.09L157.26 307.42L157.354 307.329L157.438 307.574L157.479 307.607L157.583 307.18L157.681 307.131L157.821 306.755L157.899 306.719L157.983 306.905L158.03 306.859L158.211 306.337L158.403 306.077L158.471 306.137L158.486 306.141L158.6 305.857L158.87 305.502L158.99 305.379L159.052 305.219L159.124 305.141L159.207 304.967L159.29 304.853L159.399 304.707L159.529 304.608L159.566 304.659L159.551 304.894L159.484 305.252L159.344 305.568L159.163 305.911L159.049 306.195L158.945 306.502L158.785 307.071L158.9 307.027L158.916 307.151L158.745 307.817L158.673 308.074L158.928 307.953L158.897 308.302L158.825 308.619L158.748 308.895L158.675 308.972L158.691 309.037L158.863 308.97L158.946 309.036L158.925 309.229L158.765 309.798L158.692 309.936L158.677 309.991L158.854 310.025L158.906 309.961L158.943 310.072L158.86 310.366L158.699 310.636L158.497 310.932L158.643 311.017L158.741 310.968L158.664 311.303L158.503 311.513L158.373 311.612L158.452 311.696L158.343 311.962L158.197 312.176L158.088 312.322L158.141 312.378L158.078 312.479L158 312.574L158.068 312.635L157.933 312.813L157.809 312.954L157.731 313.11L157.486 313.314L157.429 313.336L157.737 313.451L157.866 313.052L158.032 312.824L158.157 312.982L158.349 312.662L158.588 312.357L158.745 312.585L158.88 312.347L159.062 312.124L159.337 311.81L159.504 312.001L159.743 311.695L159.987 311.491L160.164 311.646L160.486 311.286L160.799 311.083L160.851 311.259L161.21 310.891L161.537 310.692L161.61 310.855L161.657 310.869L161.688 310.699L162.25 310.393L162.355 310.565L162.407 310.442L162.932 310.145L162.994 310.224L163.567 309.941L164.082 309.74L164.369 309.689L164.567 309.71L163.99 310.071L163.423 310.515L163.277 310.669L163.262 310.844L163.168 310.815L162.815 311.225L162.815 311.285L162.873 311.382L162.769 311.51L162.275 311.936L162.447 312.049L161.938 312.471L162.032 312.559L161.98 312.683L161.278 313.185L161.409 313.265L161.424 313.33L160.676 313.817L160.79 313.832L159.937 314.327L159.948 314.41L160.12 314.463L159.428 314.749L159.428 314.809L159.574 314.834L158.882 315.059L158.814 315.059L158.783 315.109L158.872 315.156L158.866 315.294L159.215 315.142L159.486 315.146L159.445 315.293L159.83 315.133L160.059 315.163L160.018 315.37L160.46 315.307L160.814 315.257L160.752 315.477L161.153 315.441L161.324 315.494L161.283 315.641L161.804 315.602L161.752 315.785L161.872 315.783L162.013 315.766L162.351 315.89L162.326 315.982L163.55 316.34L163.498 316.463L162.608 316.428L162.582 316.52L162.264 316.442L162.233 316.552L162.019 316.466L161.967 316.53L161.816 316.464L161.785 316.574L161.52 316.492L161.473 316.597L161.296 316.563L161.26 316.631L161.108 316.565L161.015 316.775L160.713 316.642L160.447 316.62L160.369 316.836L159.744 316.703L159.708 316.891L159.13 316.773L159.099 316.883L159.177 316.907L159.078 316.897L158.588 316.766L158.536 316.889L158.854 316.967L158.813 317.114L159.235 317.304L159.24 317.406L159.428 317.523L159.475 317.598L159.47 317.736L159.924 318.175L159.929 318.276L159.293 318L159.252 318.087L158.955 317.876L158.835 317.939L158.741 317.91L158.491 317.773L158.413 317.809L158.225 317.751L158.09 317.689L158.017 317.707L157.897 317.59L157.693 317.468L157.647 317.573L157.391 317.394L157.245 317.31L157.162 317.543L156.844 317.166L156.75 317.077L156.588 316.987L156.578 317.024L156.797 317.211L157.126 317.672L157.09 317.8L156.746 317.634L156.349 317.353L155.974 316.997L155.66 316.661L155.597 316.463L155.529 316.342L155.509 316.355L155.353 316.547L154.973 316.749L154.484 316.977L154.437 316.963L154.411 316.875L153.818 317.111L153.792 317.023L153.437 317.014L153.39 316.94L153.479 316.807L153.51 316.697L153.447 316.678L153.478 316.568L153.358 316.511L153.4 316.364L153.066 316.341L153.092 316.189L152.633 316.068L152.539 315.979L152.206 315.956L152.123 315.95L152.169 315.785L151.883 315.716L151.711 315.724L151.71 315.604L150.824 315.311L151.261 315.147L151.662 315.111L151.709 315.006L152.095 315.144L152.136 314.938L152.647 315.115L152.673 315.023L152.454 314.956L152.485 314.846L151.927 314.654L151.942 314.479L151.953 314.442L151.63 314.323L151.635 314.244L151.421 314.159L151.437 314.044L151.389 313.969L151.4 313.933L150.951 313.655L150.811 313.611L150.8 313.468L150.847 313.363L150.461 313.164L150.377 313.099L150.205 313.046L150.241 312.857L149.934 312.623L149.751 312.427L149.61 312.324L149.657 312.218L148.77 311.566L148.738 311.496L149.489 311.668L149.812 311.787L149.869 311.885L149.905 311.756L150.317 311.923L150.401 312.049L150.468 311.93L150.76 312.04L150.985 312.328L151.073 312.136L151.198 312.175L151.496 312.446L151.6 312.558L151.704 312.37L152.085 312.707L152.179 312.796L152.204 312.704L152.413 312.868L152.559 313.073L152.674 313.148L152.757 313.034L152.914 313.082L152.971 313.18L153.013 313.153L152.506 312.658L152.662 312.526L152.151 311.93L152.223 311.852L152.055 311.362L151.794 311.082L151.742 310.966L151.825 310.852L151.694 310.532L151.71 310.417L151.438 310.114L151.578 309.978L151.165 309.152L151.279 309.048L150.949 308.168L151.053 308.101L150.87 307.486L150.874 307.348L150.375 306.098L150.38 306.097Z" fill="#4D4D4D"/>
<path d="M157.942 319.113C162.114 318.205 164.769 314.131 163.873 310.014C162.977 305.896 158.869 303.293 154.698 304.201C150.526 305.108 147.871 309.182 148.767 313.3C149.663 317.418 153.771 320.021 157.942 319.113Z" stroke="#333333" stroke-width="1.92003"/>
<path d="M149.984 306.168L162.055 317.904L149.984 306.168Z" fill="#800000"/>
<path d="M149.984 306.168L162.055 317.904" stroke="#333333" stroke-width="1.92003"/>
<path d="M183.324 207.474L218.324 207.493L183.324 207.474Z" fill="#E3E4E5"/>
<path d="M183.324 207.474L218.324 207.493" stroke="#E3E4E5" stroke-width="2.56673" stroke-miterlimit="10" stroke-linecap="round"/>
<path d="M66.5553 206.692L101.555 206.711L66.5553 206.692Z" fill="#E3E4E5"/>
<path d="M66.5553 206.692L101.555 206.711" stroke="#E3E4E5" stroke-width="2.56673" stroke-miterlimit="10" stroke-linecap="round"/>
<path d="M123.896 100V98.564C124.371 97.4517 125.334 96.2397 126.784 94.9282L127.722 94.0898C128.929 92.9997 129.532 91.9178 129.532 90.8442C129.532 90.158 129.324 89.6185 128.909 89.2256C128.5 88.8327 127.932 88.6362 127.208 88.6362C126.361 88.6362 125.359 88.9655 124.203 89.624V88.1797C125.293 87.665 126.377 87.4077 127.457 87.4077C128.608 87.4077 129.529 87.7176 130.221 88.3374C130.918 88.9572 131.267 89.779 131.267 90.8027C131.267 91.5387 131.09 92.1917 130.735 92.7617C130.387 93.3317 129.734 94.0234 128.776 94.8369L128.146 95.3765C126.834 96.4888 126.076 97.5513 125.871 98.564H131.208V100H123.896ZM138.621 100.307C137.332 100.307 136.291 99.7178 135.5 98.5391C134.714 97.3548 134.321 95.7943 134.321 93.8574C134.321 91.9206 134.714 90.3628 135.5 89.1841C136.291 87.9998 137.332 87.4077 138.621 87.4077C139.916 87.4077 140.956 87.9971 141.742 89.1758C142.528 90.3545 142.921 91.915 142.921 93.8574C142.921 95.7943 142.528 97.3548 141.742 98.5391C140.956 99.7178 139.916 100.307 138.621 100.307ZM138.621 99.0786C140.331 99.0786 141.186 97.3382 141.186 93.8574C141.186 90.3766 140.331 88.6362 138.621 88.6362C136.917 88.6362 136.064 90.3766 136.064 93.8574C136.064 97.3382 136.917 99.0786 138.621 99.0786ZM145.411 100V98.564C145.887 97.4517 146.85 96.2397 148.3 94.9282L149.238 94.0898C150.444 92.9997 151.047 91.9178 151.047 90.8442C151.047 90.158 150.84 89.6185 150.425 89.2256C150.015 88.8327 149.448 88.6362 148.723 88.6362C147.876 88.6362 146.875 88.9655 145.718 89.624V88.1797C146.808 87.665 147.893 87.4077 148.972 87.4077C150.123 87.4077 151.045 87.7176 151.736 88.3374C152.434 88.9572 152.782 89.779 152.782 90.8027C152.782 91.5387 152.605 92.1917 152.251 92.7617C151.902 93.3317 151.249 94.0234 150.292 94.8369L149.661 95.3765C148.35 96.4888 147.591 97.5513 147.387 98.564H152.724V100H145.411ZM156.169 100V98.564C156.645 97.4517 157.608 96.2397 159.058 94.9282L159.996 94.0898C161.202 92.9997 161.805 91.9178 161.805 90.8442C161.805 90.158 161.598 89.6185 161.183 89.2256C160.773 88.8327 160.206 88.6362 159.481 88.6362C158.634 88.6362 157.633 88.9655 156.476 89.624V88.1797C157.566 87.665 158.651 87.4077 159.73 87.4077C160.881 87.4077 161.802 87.7176 162.494 88.3374C163.191 88.9572 163.54 89.779 163.54 90.8027C163.54 91.5387 163.363 92.1917 163.009 92.7617C162.66 93.3317 162.007 94.0234 161.05 94.8369L160.419 95.3765C159.107 96.4888 158.349 97.5513 158.145 98.564H163.482V100H156.169Z" fill="#E3E4E5"/>
<path d="M129.583 173.07L132.505 179.715L135.448 173.07H139.058L134.208 182.606V188H130.813V182.606L125.953 173.07H129.583ZM138.996 182.565V182.35C138.996 181.537 139.112 180.788 139.345 180.104C139.577 179.414 139.919 178.816 140.37 178.31C140.821 177.804 141.375 177.411 142.031 177.131C142.688 176.844 143.439 176.7 144.287 176.7C145.148 176.7 145.907 176.844 146.563 177.131C147.227 177.411 147.784 177.804 148.235 178.31C148.686 178.816 149.028 179.414 149.26 180.104C149.493 180.788 149.609 181.537 149.609 182.35V182.565C149.609 183.372 149.493 184.121 149.26 184.811C149.028 185.495 148.686 186.093 148.235 186.605C147.784 187.111 147.23 187.504 146.574 187.785C145.917 188.065 145.162 188.205 144.308 188.205C143.46 188.205 142.705 188.065 142.042 187.785C141.378 187.504 140.821 187.111 140.37 186.605C139.919 186.093 139.577 185.495 139.345 184.811C139.112 184.121 138.996 183.372 138.996 182.565ZM142.206 182.35V182.565C142.206 183.003 142.24 183.413 142.308 183.796C142.383 184.179 142.503 184.514 142.667 184.801C142.831 185.088 143.046 185.313 143.313 185.478C143.586 185.635 143.918 185.713 144.308 185.713C144.697 185.713 145.025 185.635 145.292 185.478C145.559 185.313 145.774 185.088 145.938 184.801C146.102 184.514 146.218 184.179 146.287 183.796C146.362 183.413 146.399 183.003 146.399 182.565V182.35C146.399 181.919 146.362 181.516 146.287 181.14C146.218 180.757 146.102 180.419 145.938 180.125C145.774 179.831 145.555 179.602 145.282 179.438C145.015 179.274 144.684 179.192 144.287 179.192C143.904 179.192 143.58 179.274 143.313 179.438C143.046 179.602 142.831 179.831 142.667 180.125C142.503 180.419 142.383 180.757 142.308 181.14C142.24 181.516 142.206 181.919 142.206 182.35ZM157.802 185.324V176.905H161.021V188H158.007L157.802 185.324ZM158.14 183.058L159.022 183.037C159.022 183.782 158.933 184.469 158.755 185.098C158.584 185.727 158.325 186.274 157.976 186.739C157.634 187.204 157.207 187.566 156.694 187.826C156.188 188.079 155.597 188.205 154.92 188.205C154.374 188.205 153.871 188.13 153.413 187.979C152.962 187.822 152.572 187.58 152.244 187.251C151.916 186.917 151.663 186.489 151.485 185.97C151.308 185.443 151.219 184.814 151.219 184.083V176.905H154.418V184.104C154.418 184.391 154.452 184.637 154.521 184.842C154.596 185.04 154.695 185.204 154.818 185.334C154.948 185.464 155.105 185.56 155.29 185.621C155.481 185.683 155.689 185.713 155.915 185.713C156.482 185.713 156.927 185.597 157.248 185.365C157.576 185.125 157.805 184.808 157.935 184.411C158.072 184.008 158.14 183.557 158.14 183.058ZM125.071 213H121.79L121.811 210.416H125.071C125.816 210.416 126.445 210.245 126.958 209.903C127.471 209.555 127.86 209.042 128.127 208.365C128.394 207.682 128.527 206.851 128.527 205.874V205.187C128.527 204.448 128.452 203.799 128.301 203.238C128.151 202.671 127.929 202.196 127.635 201.813C127.341 201.43 126.975 201.143 126.538 200.952C126.107 200.76 125.611 200.665 125.051 200.665H121.729V198.07H125.051C126.062 198.07 126.985 198.241 127.819 198.583C128.66 198.925 129.385 199.414 129.993 200.049C130.608 200.685 131.083 201.437 131.418 202.305C131.753 203.173 131.921 204.141 131.921 205.207V205.874C131.921 206.933 131.753 207.9 131.418 208.775C131.083 209.644 130.608 210.396 129.993 211.031C129.385 211.66 128.664 212.146 127.83 212.487C126.996 212.829 126.076 213 125.071 213ZM123.687 198.07V213H120.344V198.07H123.687ZM137.171 201.905V213H133.961V201.905H137.171ZM133.767 199.034C133.767 198.569 133.931 198.19 134.259 197.896C134.587 197.595 135.018 197.445 135.551 197.445C136.084 197.445 136.515 197.595 136.843 197.896C137.178 198.19 137.345 198.569 137.345 199.034C137.345 199.492 137.178 199.872 136.843 200.172C136.515 200.466 136.084 200.613 135.551 200.613C135.018 200.613 134.587 200.466 134.259 200.172C133.931 199.872 133.767 199.492 133.767 199.034ZM145.938 210.519V197.25H149.158V213H146.266L145.938 210.519ZM139.027 207.586V207.371C139.027 206.53 139.119 205.764 139.304 205.074C139.495 204.376 139.772 203.778 140.134 203.279C140.503 202.773 140.958 202.384 141.498 202.11C142.038 201.837 142.657 201.7 143.354 201.7C143.997 201.7 144.557 201.844 145.036 202.131C145.514 202.411 145.921 202.808 146.256 203.32C146.598 203.826 146.875 204.424 147.086 205.115C147.298 205.798 147.459 206.54 147.568 207.34V207.709C147.466 208.475 147.305 209.189 147.086 209.852C146.875 210.515 146.598 211.1 146.256 211.605C145.921 212.104 145.511 212.498 145.025 212.785C144.547 213.065 143.983 213.205 143.333 213.205C142.636 213.205 142.018 213.065 141.478 212.785C140.944 212.504 140.497 212.111 140.134 211.605C139.772 211.1 139.495 210.505 139.304 209.821C139.119 209.138 139.027 208.393 139.027 207.586ZM142.226 207.371V207.586C142.226 208.023 142.257 208.43 142.318 208.806C142.387 209.182 142.496 209.514 142.646 209.801C142.797 210.088 142.995 210.313 143.241 210.478C143.487 210.635 143.788 210.713 144.144 210.713C144.622 210.713 145.015 210.604 145.323 210.385C145.63 210.16 145.863 209.849 146.02 209.452C146.177 209.056 146.259 208.594 146.266 208.068V206.991C146.266 206.554 146.222 206.161 146.133 205.812C146.044 205.463 145.911 205.169 145.733 204.93C145.562 204.691 145.347 204.51 145.087 204.387C144.827 204.257 144.52 204.192 144.164 204.192C143.815 204.192 143.518 204.274 143.272 204.438C143.026 204.595 142.824 204.817 142.667 205.104C142.517 205.392 142.404 205.73 142.329 206.12C142.26 206.502 142.226 206.919 142.226 207.371ZM160.242 198.07V213H156.91V198.07H160.242ZM168.415 201.905V204.151H161.832V201.905H168.415ZM163.339 199.157H166.548V209.524C166.548 209.832 166.586 210.067 166.661 210.231C166.736 210.396 166.859 210.512 167.03 210.58C167.201 210.642 167.42 210.672 167.687 210.672C167.878 210.672 168.042 210.666 168.179 210.652C168.315 210.638 168.442 210.621 168.558 210.601V212.918C168.285 213.007 167.994 213.075 167.687 213.123C167.379 213.178 167.044 213.205 166.682 213.205C165.991 213.205 165.393 213.092 164.887 212.867C164.388 212.641 164.005 212.286 163.739 211.8C163.472 211.308 163.339 210.669 163.339 209.883V199.157ZM110.941 232.996H114.264C114.209 234.021 113.929 234.927 113.423 235.713C112.924 236.493 112.23 237.104 111.341 237.549C110.453 237.986 109.396 238.205 108.173 238.205C107.195 238.205 106.32 238.038 105.548 237.703C104.775 237.368 104.119 236.889 103.579 236.267C103.046 235.638 102.636 234.883 102.349 234.001C102.068 233.112 101.928 232.111 101.928 230.997V230.084C101.928 228.97 102.075 227.968 102.369 227.08C102.663 226.191 103.083 225.432 103.63 224.803C104.177 224.174 104.833 223.692 105.599 223.357C106.365 223.022 107.219 222.855 108.163 222.855C109.434 222.855 110.507 223.084 111.382 223.542C112.257 224 112.934 224.629 113.413 225.429C113.898 226.229 114.188 227.141 114.284 228.167H110.952C110.924 227.585 110.815 227.097 110.624 226.7C110.432 226.297 110.138 225.993 109.742 225.788C109.345 225.583 108.819 225.48 108.163 225.48C107.684 225.48 107.264 225.569 106.901 225.747C106.546 225.924 106.249 226.201 106.009 226.577C105.777 226.953 105.603 227.432 105.486 228.013C105.37 228.587 105.312 229.271 105.312 230.063V230.997C105.312 231.783 105.363 232.463 105.466 233.037C105.568 233.611 105.732 234.086 105.958 234.462C106.19 234.838 106.488 235.119 106.85 235.303C107.212 235.488 107.653 235.58 108.173 235.58C108.768 235.58 109.263 235.488 109.66 235.303C110.056 235.112 110.36 234.825 110.572 234.442C110.784 234.059 110.907 233.577 110.941 232.996ZM119.083 222.25V238H115.884V222.25H119.083ZM118.663 232.063L117.863 232.083C117.863 231.304 117.958 230.59 118.15 229.94C118.348 229.284 118.628 228.713 118.991 228.228C119.353 227.743 119.787 227.367 120.293 227.1C120.806 226.833 121.37 226.7 121.985 226.7C122.532 226.7 123.031 226.779 123.482 226.936C123.933 227.093 124.323 227.343 124.651 227.685C124.979 228.026 125.232 228.474 125.41 229.028C125.587 229.582 125.676 230.255 125.676 231.048V238H122.457V231.027C122.457 230.556 122.388 230.187 122.251 229.92C122.122 229.653 121.93 229.465 121.677 229.356C121.431 229.247 121.13 229.192 120.775 229.192C120.358 229.192 120.013 229.267 119.739 229.417C119.466 229.561 119.25 229.763 119.093 230.022C118.936 230.282 118.823 230.586 118.755 230.935C118.693 231.284 118.663 231.66 118.663 232.063ZM130.978 229.489V238H127.778V226.905H130.783L130.978 229.489ZM134.29 226.823L134.238 229.807C134.102 229.787 133.924 229.77 133.705 229.756C133.486 229.735 133.298 229.725 133.141 229.725C132.731 229.725 132.375 229.776 132.075 229.879C131.781 229.975 131.535 230.118 131.336 230.31C131.145 230.501 131.001 230.74 130.906 231.027C130.81 231.308 130.762 231.632 130.762 232.001L130.157 231.704C130.157 230.973 130.229 230.303 130.373 229.694C130.516 229.086 130.725 228.56 130.998 228.115C131.271 227.664 131.606 227.315 132.003 227.069C132.399 226.823 132.851 226.7 133.356 226.7C133.521 226.7 133.688 226.71 133.859 226.731C134.03 226.751 134.173 226.782 134.29 226.823ZM138.976 226.905V238H135.766V226.905H138.976ZM135.571 224.034C135.571 223.569 135.735 223.19 136.063 222.896C136.392 222.595 136.822 222.445 137.355 222.445C137.889 222.445 138.319 222.595 138.647 222.896C138.982 223.19 139.15 223.569 139.15 224.034C139.15 224.492 138.982 224.872 138.647 225.172C138.319 225.466 137.889 225.613 137.355 225.613C136.822 225.613 136.392 225.466 136.063 225.172C135.735 224.872 135.571 224.492 135.571 224.034ZM147.189 234.914C147.189 234.708 147.124 234.527 146.994 234.37C146.871 234.213 146.646 234.069 146.317 233.939C145.996 233.81 145.542 233.68 144.954 233.55C144.4 233.434 143.884 233.283 143.405 233.099C142.927 232.907 142.51 232.678 142.154 232.412C141.799 232.138 141.522 231.817 141.324 231.448C141.125 231.072 141.026 230.645 141.026 230.166C141.026 229.701 141.125 229.26 141.324 228.843C141.529 228.426 141.823 228.057 142.206 227.736C142.595 227.415 143.067 227.162 143.621 226.977C144.181 226.792 144.817 226.7 145.528 226.7C146.505 226.7 147.35 226.854 148.061 227.162C148.771 227.462 149.318 227.886 149.701 228.433C150.084 228.973 150.275 229.592 150.275 230.289H147.076C147.076 230.002 147.021 229.752 146.912 229.541C146.803 229.329 146.635 229.165 146.41 229.048C146.184 228.925 145.887 228.864 145.518 228.864C145.23 228.864 144.978 228.915 144.759 229.018C144.547 229.113 144.379 229.247 144.256 229.417C144.14 229.588 144.082 229.787 144.082 230.012C144.082 230.169 144.116 230.313 144.185 230.443C144.26 230.566 144.373 230.682 144.523 230.792C144.68 230.894 144.882 230.986 145.128 231.068C145.381 231.15 145.688 231.229 146.051 231.304C146.823 231.448 147.527 231.649 148.163 231.909C148.806 232.169 149.318 232.528 149.701 232.986C150.091 233.444 150.286 234.049 150.286 234.801C150.286 235.293 150.173 235.744 149.947 236.154C149.729 236.564 149.411 236.923 148.994 237.231C148.577 237.539 148.078 237.778 147.497 237.949C146.916 238.12 146.259 238.205 145.528 238.205C144.482 238.205 143.597 238.017 142.872 237.641C142.147 237.265 141.601 236.793 141.231 236.226C140.869 235.652 140.688 235.064 140.688 234.462H143.692C143.706 234.832 143.798 235.132 143.969 235.365C144.147 235.597 144.376 235.768 144.656 235.877C144.937 235.98 145.251 236.031 145.6 236.031C145.948 236.031 146.239 235.983 146.471 235.888C146.704 235.792 146.881 235.662 147.004 235.498C147.127 235.327 147.189 235.132 147.189 234.914ZM157.709 226.905V229.151H151.126V226.905H157.709ZM152.634 224.157H155.843V234.524C155.843 234.832 155.881 235.067 155.956 235.231C156.031 235.396 156.154 235.512 156.325 235.58C156.496 235.642 156.715 235.672 156.981 235.672C157.173 235.672 157.337 235.666 157.474 235.652C157.61 235.638 157.737 235.621 157.853 235.601V237.918C157.58 238.007 157.289 238.075 156.981 238.123C156.674 238.178 156.339 238.205 155.977 238.205C155.286 238.205 154.688 238.092 154.182 237.867C153.683 237.641 153.3 237.286 153.034 236.8C152.767 236.308 152.634 235.669 152.634 234.883V224.157ZM162.621 226.905V238H159.412V226.905H162.621ZM159.217 224.034C159.217 223.569 159.381 223.19 159.709 222.896C160.037 222.595 160.468 222.445 161.001 222.445C161.534 222.445 161.965 222.595 162.293 222.896C162.628 223.19 162.795 223.569 162.795 224.034C162.795 224.492 162.628 224.872 162.293 225.172C161.965 225.466 161.534 225.613 161.001 225.613C160.468 225.613 160.037 225.466 159.709 225.172C159.381 224.872 159.217 224.492 159.217 224.034ZM170.804 235.354V230.597C170.804 230.262 170.752 229.975 170.65 229.735C170.547 229.496 170.387 229.308 170.168 229.171C169.949 229.035 169.666 228.966 169.317 228.966C169.023 228.966 168.767 229.018 168.548 229.12C168.336 229.223 168.172 229.37 168.056 229.561C167.946 229.752 167.892 229.988 167.892 230.269H164.692C164.692 229.77 164.805 229.305 165.031 228.874C165.256 228.443 165.578 228.064 165.995 227.736C166.418 227.408 166.924 227.155 167.512 226.977C168.1 226.792 168.76 226.7 169.491 226.7C170.359 226.7 171.132 226.847 171.809 227.141C172.492 227.428 173.032 227.862 173.429 228.443C173.825 229.018 174.023 229.742 174.023 230.617V235.262C174.023 235.932 174.061 236.458 174.136 236.841C174.218 237.217 174.334 237.545 174.485 237.826V238H171.255C171.104 237.679 170.992 237.282 170.917 236.811C170.841 236.332 170.804 235.847 170.804 235.354ZM171.204 231.232L171.224 232.996H169.635C169.279 232.996 168.972 233.041 168.712 233.129C168.459 233.218 168.254 233.341 168.097 233.499C167.939 233.649 167.823 233.827 167.748 234.032C167.68 234.23 167.646 234.449 167.646 234.688C167.646 234.914 167.7 235.119 167.81 235.303C167.919 235.481 168.069 235.621 168.261 235.724C168.452 235.826 168.674 235.877 168.927 235.877C169.344 235.877 169.7 235.795 169.994 235.631C170.294 235.467 170.527 235.269 170.691 235.037C170.855 234.797 170.937 234.575 170.937 234.37L171.706 235.703C171.583 235.977 171.433 236.26 171.255 236.554C171.077 236.841 170.852 237.111 170.578 237.364C170.305 237.61 169.973 237.812 169.583 237.969C169.201 238.126 168.739 238.205 168.199 238.205C167.502 238.205 166.87 238.065 166.302 237.785C165.735 237.498 165.28 237.104 164.938 236.605C164.604 236.106 164.436 235.532 164.436 234.883C164.436 234.302 164.542 233.786 164.754 233.334C164.966 232.883 165.284 232.5 165.708 232.186C166.138 231.872 166.678 231.636 167.328 231.479C167.977 231.314 168.736 231.232 169.604 231.232H171.204ZM179.263 229.274V238H176.054V226.905H179.068L179.263 229.274ZM178.843 232.063L178.043 232.083C178.043 231.25 178.146 230.501 178.351 229.838C178.556 229.175 178.846 228.611 179.222 228.146C179.605 227.674 180.06 227.315 180.586 227.069C181.119 226.823 181.707 226.7 182.35 226.7C182.869 226.7 183.344 226.775 183.775 226.926C184.206 227.076 184.575 227.319 184.882 227.654C185.197 227.982 185.436 228.419 185.6 228.966C185.764 229.506 185.846 230.173 185.846 230.966V238H182.626V230.956C182.626 230.491 182.562 230.132 182.432 229.879C182.302 229.626 182.11 229.448 181.857 229.346C181.611 229.243 181.311 229.192 180.955 229.192C180.579 229.192 180.258 229.267 179.991 229.417C179.725 229.561 179.506 229.763 179.335 230.022C179.164 230.282 179.038 230.586 178.956 230.935C178.88 231.284 178.843 231.66 178.843 232.063Z" fill="#E3E4E5"/>
<path d="M134.884 253.891H136.202L137.911 258.974L139.615 253.891H140.934L138.443 261H137.374L134.884 253.891ZM134.122 253.891H135.465L135.714 259.159V261H134.122V253.891ZM140.353 253.891H141.7V261H140.104V259.159L140.353 253.891ZM145.602 259.74V257.475C145.602 257.315 145.577 257.178 145.528 257.064C145.479 256.951 145.403 256.861 145.299 256.796C145.195 256.731 145.06 256.698 144.894 256.698C144.754 256.698 144.632 256.723 144.527 256.771C144.426 256.82 144.348 256.89 144.293 256.981C144.241 257.073 144.215 257.185 144.215 257.318H142.691C142.691 257.081 142.745 256.859 142.853 256.654C142.96 256.449 143.113 256.269 143.312 256.112C143.513 255.956 143.754 255.836 144.034 255.751C144.314 255.663 144.628 255.619 144.977 255.619C145.39 255.619 145.758 255.689 146.08 255.829C146.406 255.966 146.663 256.173 146.852 256.449C147.04 256.723 147.135 257.068 147.135 257.484V259.696C147.135 260.015 147.153 260.266 147.188 260.448C147.228 260.627 147.283 260.784 147.354 260.917V261H145.816C145.745 260.847 145.691 260.658 145.655 260.434C145.619 260.206 145.602 259.975 145.602 259.74ZM145.792 257.777L145.802 258.617H145.045C144.876 258.617 144.729 258.638 144.605 258.681C144.485 258.723 144.387 258.782 144.312 258.856C144.238 258.928 144.182 259.013 144.146 259.11C144.114 259.205 144.098 259.309 144.098 259.423C144.098 259.53 144.124 259.628 144.176 259.716C144.228 259.8 144.299 259.867 144.391 259.916C144.482 259.965 144.588 259.989 144.708 259.989C144.907 259.989 145.076 259.95 145.216 259.872C145.359 259.794 145.47 259.7 145.548 259.589C145.626 259.475 145.665 259.369 145.665 259.271L146.031 259.906C145.973 260.036 145.901 260.172 145.816 260.312C145.732 260.448 145.624 260.577 145.494 260.697C145.364 260.814 145.206 260.91 145.021 260.985C144.838 261.06 144.618 261.098 144.361 261.098C144.029 261.098 143.728 261.031 143.458 260.897C143.188 260.761 142.971 260.574 142.809 260.336C142.649 260.098 142.569 259.825 142.569 259.516C142.569 259.239 142.62 258.993 142.721 258.778C142.822 258.563 142.973 258.381 143.175 258.231C143.38 258.082 143.637 257.969 143.946 257.895C144.256 257.816 144.617 257.777 145.03 257.777H145.792ZM150.821 255.717V256.786H147.687V255.717H150.821ZM148.404 254.408H149.933V259.345C149.933 259.491 149.951 259.604 149.986 259.682C150.022 259.76 150.081 259.815 150.162 259.848C150.243 259.877 150.348 259.892 150.475 259.892C150.566 259.892 150.644 259.888 150.709 259.882C150.774 259.875 150.834 259.867 150.89 259.857V260.961C150.759 261.003 150.621 261.036 150.475 261.059C150.328 261.085 150.169 261.098 149.996 261.098C149.667 261.098 149.382 261.044 149.142 260.937C148.904 260.829 148.722 260.66 148.595 260.429C148.468 260.194 148.404 259.89 148.404 259.516V254.408ZM154.239 255.717V256.786H151.104V255.717H154.239ZM151.822 254.408H153.351V259.345C153.351 259.491 153.368 259.604 153.404 259.682C153.44 259.76 153.499 259.815 153.58 259.848C153.661 259.877 153.766 259.892 153.893 259.892C153.984 259.892 154.062 259.888 154.127 259.882C154.192 259.875 154.252 259.867 154.308 259.857V260.961C154.177 261.003 154.039 261.036 153.893 261.059C153.746 261.085 153.587 261.098 153.414 261.098C153.085 261.098 152.8 261.044 152.56 260.937C152.322 260.829 152.14 260.66 152.013 260.429C151.886 260.194 151.822 259.89 151.822 259.516V254.408ZM129.889 271.77V273H126.104V271.77H129.889ZM126.646 265.891V273H125.055V265.891H126.646ZM129.4 268.752V269.943H126.104V268.752H129.4ZM129.894 265.891V267.126H126.104V265.891H129.894ZM132.12 268.947V273H130.597V267.717H132.027L132.12 268.947ZM133.697 267.678L133.673 269.099C133.608 269.089 133.523 269.081 133.419 269.074C133.315 269.064 133.225 269.06 133.15 269.06C132.955 269.06 132.786 269.084 132.643 269.133C132.503 269.178 132.385 269.247 132.291 269.338C132.2 269.429 132.132 269.543 132.086 269.68C132.04 269.813 132.018 269.968 132.018 270.144L131.729 270.002C131.729 269.654 131.764 269.335 131.832 269.045C131.9 268.755 132 268.505 132.13 268.293C132.26 268.078 132.42 267.912 132.608 267.795C132.797 267.678 133.012 267.619 133.253 267.619C133.331 267.619 133.411 267.624 133.492 267.634C133.574 267.644 133.642 267.658 133.697 267.678ZM135.929 267.717V273H134.4V267.717H135.929ZM134.308 266.35C134.308 266.128 134.386 265.948 134.542 265.808C134.698 265.664 134.903 265.593 135.157 265.593C135.411 265.593 135.616 265.664 135.772 265.808C135.932 265.948 136.012 266.128 136.012 266.35C136.012 266.568 135.932 266.748 135.772 266.892C135.616 267.032 135.411 267.102 135.157 267.102C134.903 267.102 134.698 267.032 134.542 266.892C134.386 266.748 134.308 266.568 134.308 266.35ZM139.234 271.911C139.397 271.911 139.539 271.88 139.659 271.818C139.78 271.757 139.872 271.67 139.938 271.56C140.006 271.446 140.04 271.309 140.04 271.149H141.476C141.476 271.534 141.376 271.872 141.178 272.165C140.982 272.458 140.719 272.688 140.387 272.854C140.055 273.016 139.68 273.098 139.264 273.098C138.854 273.098 138.495 273.031 138.189 272.897C137.883 272.761 137.628 272.57 137.423 272.326C137.218 272.082 137.063 271.799 136.959 271.477C136.858 271.151 136.808 270.799 136.808 270.422V270.295C136.808 269.921 136.858 269.571 136.959 269.245C137.063 268.92 137.218 268.635 137.423 268.391C137.628 268.146 137.882 267.958 138.185 267.824C138.491 267.688 138.849 267.619 139.259 267.619C139.692 267.619 140.074 267.702 140.406 267.868C140.742 268.034 141.004 268.273 141.192 268.586C141.381 268.895 141.476 269.268 141.476 269.704H140.04C140.04 269.535 140.009 269.383 139.947 269.25C139.889 269.113 139.798 269.006 139.674 268.928C139.553 268.846 139.404 268.806 139.225 268.806C139.039 268.806 138.886 268.846 138.766 268.928C138.648 269.006 138.559 269.115 138.497 269.255C138.435 269.395 138.393 269.554 138.37 269.733C138.347 269.909 138.336 270.096 138.336 270.295V270.422C138.336 270.624 138.347 270.816 138.37 270.998C138.393 271.177 138.435 271.335 138.497 271.472C138.562 271.608 138.653 271.716 138.771 271.794C138.888 271.872 139.042 271.911 139.234 271.911ZM143.766 265.495V273H142.237V265.495H143.766ZM147.12 267.717L144.82 270.373L143.604 271.594L142.994 270.563L143.98 269.289L145.284 267.717H147.12ZM145.509 273L144.02 270.573L145.113 269.719L147.257 273H145.509ZM150.455 271.53C150.455 271.433 150.424 271.346 150.362 271.271C150.304 271.197 150.196 271.128 150.04 271.066C149.887 271.005 149.671 270.943 149.391 270.881C149.127 270.826 148.881 270.754 148.653 270.666C148.425 270.575 148.227 270.466 148.058 270.339C147.888 270.209 147.757 270.056 147.662 269.88C147.568 269.701 147.521 269.497 147.521 269.27C147.521 269.048 147.568 268.838 147.662 268.64C147.76 268.441 147.9 268.265 148.082 268.112C148.268 267.959 148.492 267.839 148.756 267.751C149.023 267.663 149.326 267.619 149.664 267.619C150.13 267.619 150.532 267.692 150.87 267.839C151.209 267.982 151.469 268.184 151.651 268.444C151.834 268.701 151.925 268.996 151.925 269.328H150.401C150.401 269.191 150.375 269.073 150.323 268.972C150.271 268.871 150.191 268.793 150.084 268.737C149.977 268.679 149.835 268.649 149.659 268.649C149.522 268.649 149.402 268.674 149.298 268.723C149.197 268.768 149.117 268.832 149.059 268.913C149.003 268.994 148.976 269.089 148.976 269.196C148.976 269.271 148.992 269.34 149.024 269.401C149.06 269.46 149.114 269.515 149.186 269.567C149.26 269.616 149.356 269.66 149.474 269.699C149.594 269.738 149.741 269.776 149.913 269.812C150.281 269.88 150.616 269.976 150.919 270.1C151.225 270.223 151.469 270.394 151.651 270.612C151.837 270.83 151.93 271.118 151.93 271.477C151.93 271.711 151.876 271.926 151.769 272.121C151.664 272.316 151.513 272.487 151.314 272.634C151.116 272.78 150.878 272.894 150.602 272.976C150.325 273.057 150.012 273.098 149.664 273.098C149.166 273.098 148.744 273.008 148.399 272.829C148.054 272.65 147.794 272.425 147.618 272.155C147.446 271.882 147.359 271.602 147.359 271.315H148.79C148.797 271.491 148.84 271.634 148.922 271.745C149.007 271.856 149.116 271.937 149.249 271.989C149.382 272.038 149.532 272.062 149.698 272.062C149.864 272.062 150.003 272.04 150.113 271.994C150.224 271.949 150.309 271.887 150.367 271.809C150.426 271.727 150.455 271.634 150.455 271.53ZM152.56 270.412V270.31C152.56 269.922 152.615 269.566 152.726 269.24C152.836 268.911 152.999 268.627 153.214 268.386C153.429 268.145 153.692 267.958 154.005 267.824C154.317 267.688 154.675 267.619 155.079 267.619C155.489 267.619 155.851 267.688 156.163 267.824C156.479 267.958 156.744 268.145 156.959 268.386C157.174 268.627 157.337 268.911 157.447 269.24C157.558 269.566 157.613 269.922 157.613 270.31V270.412C157.613 270.796 157.558 271.153 157.447 271.481C157.337 271.807 157.174 272.092 156.959 272.336C156.744 272.577 156.48 272.764 156.168 272.897C155.855 273.031 155.496 273.098 155.089 273.098C154.685 273.098 154.326 273.031 154.01 272.897C153.694 272.764 153.429 272.577 153.214 272.336C152.999 272.092 152.836 271.807 152.726 271.481C152.615 271.153 152.56 270.796 152.56 270.412ZM154.088 270.31V270.412C154.088 270.62 154.104 270.816 154.137 270.998C154.173 271.18 154.229 271.34 154.308 271.477C154.386 271.613 154.488 271.721 154.615 271.799C154.745 271.874 154.903 271.911 155.089 271.911C155.274 271.911 155.431 271.874 155.558 271.799C155.685 271.721 155.787 271.613 155.865 271.477C155.943 271.34 155.999 271.18 156.031 270.998C156.067 270.816 156.085 270.62 156.085 270.412V270.31C156.085 270.104 156.067 269.912 156.031 269.733C155.999 269.551 155.943 269.39 155.865 269.25C155.787 269.11 155.683 269.001 155.553 268.923C155.426 268.845 155.268 268.806 155.079 268.806C154.897 268.806 154.742 268.845 154.615 268.923C154.488 269.001 154.386 269.11 154.308 269.25C154.229 269.39 154.173 269.551 154.137 269.733C154.104 269.912 154.088 270.104 154.088 270.31ZM159.908 268.845V273H158.38V267.717H159.815L159.908 268.845ZM159.708 270.173L159.327 270.183C159.327 269.785 159.376 269.429 159.474 269.113C159.571 268.798 159.71 268.529 159.889 268.308C160.071 268.083 160.287 267.912 160.538 267.795C160.792 267.678 161.072 267.619 161.378 267.619C161.625 267.619 161.852 267.655 162.057 267.727C162.262 267.798 162.438 267.914 162.584 268.073C162.734 268.229 162.848 268.438 162.926 268.698C163.004 268.955 163.043 269.273 163.043 269.65V273H161.51V269.646C161.51 269.424 161.479 269.253 161.417 269.133C161.355 269.012 161.264 268.928 161.144 268.879C161.026 268.83 160.883 268.806 160.714 268.806C160.535 268.806 160.382 268.841 160.255 268.913C160.128 268.981 160.024 269.077 159.942 269.201C159.861 269.325 159.801 269.47 159.762 269.636C159.726 269.802 159.708 269.981 159.708 270.173Z" fill="#E3E4E5"/>
<defs>
<linearGradient id="paint0_linear_510_1242" x1="155.366" y1="330.375" x2="156.228" y2="331.574" gradientUnits="userSpaceOnUse">
<stop stop-color="#B9BABC"/>
<stop offset="0.332298" stop-color="#6F7072"/>
<stop offset="0.505068" stop-color="#1F2022"/>
<stop offset="0.691743" stop-color="#6F7072"/>
<stop offset="1" stop-color="#B9BABC"/>
</linearGradient>
<linearGradient id="paint1_linear_510_1242" x1="155.543" y1="329.925" x2="156.641" y2="331.732" gradientUnits="userSpaceOnUse">
<stop stop-color="#1D1E20"/>
<stop offset="1" stop-color="#CBCCCE"/>
</linearGradient>
<linearGradient id="paint2_linear_510_1242" x1="147.012" y1="328.833" x2="147.157" y2="330.24" gradientUnits="userSpaceOnUse">
<stop stop-color="#B9BABC"/>
<stop offset="0.332298" stop-color="#6F7072"/>
<stop offset="0.505068" stop-color="#1F2022"/>
<stop offset="0.691743" stop-color="#6F7072"/>
<stop offset="1" stop-color="#B9BABC"/>
</linearGradient>
<linearGradient id="paint3_linear_510_1242" x1="147.373" y1="328.543" x2="147.425" y2="330.568" gradientUnits="userSpaceOnUse">
<stop stop-color="#1D1E20"/>
<stop offset="1" stop-color="#CBCCCE"/>
</linearGradient>
<linearGradient id="paint4_linear_510_1242" x1="143.261" y1="324.512" x2="159.187" y2="330.603" gradientUnits="userSpaceOnUse">
<stop stop-opacity="0"/>
<stop offset="0.094718"/>
<stop offset="0.397666"/>
<stop offset="0.724935"/>
<stop offset="1" stop-opacity="0"/>
</linearGradient>
<linearGradient id="paint5_linear_510_1242" x1="122.564" y1="332.339" x2="144.539" y2="317.771" gradientUnits="userSpaceOnUse">
<stop stop-color="#CACACD"/>
<stop offset="1" stop-color="#D4D4D4"/>
</linearGradient>
<linearGradient id="paint6_linear_510_1242" x1="122.564" y1="332.338" x2="144.539" y2="317.771" gradientUnits="userSpaceOnUse">
<stop stop-color="#CACACD"/>
<stop offset="1" stop-color="#D4D4D4"/>
</linearGradient>
<linearGradient id="paint7_linear_510_1242" x1="122.564" y1="332.338" x2="144.539" y2="317.771" gradientUnits="userSpaceOnUse">
<stop stop-color="#CACACD"/>
<stop offset="1" stop-color="#D4D4D4"/>
</linearGradient>
<linearGradient id="paint8_linear_510_1242" x1="122.564" y1="332.339" x2="144.539" y2="317.771" gradientUnits="userSpaceOnUse">
<stop stop-color="#CACACD"/>
<stop offset="1" stop-color="#D4D4D4"/>
</linearGradient>
<linearGradient id="paint9_linear_510_1242" x1="122.564" y1="332.339" x2="144.539" y2="317.771" gradientUnits="userSpaceOnUse">
<stop stop-color="#CACACD"/>
<stop offset="1" stop-color="#D4D4D4"/>
</linearGradient>
<linearGradient id="paint10_linear_510_1242" x1="122.564" y1="332.339" x2="144.539" y2="317.771" gradientUnits="userSpaceOnUse">
<stop stop-color="#CACACD"/>
<stop offset="1" stop-color="#D4D4D4"/>
</linearGradient>
<linearGradient id="paint11_linear_510_1242" x1="132.115" y1="307.165" x2="131.693" y2="312.105" gradientUnits="userSpaceOnUse">
<stop stop-color="#CDCDCF"/>
<stop offset="0.583118" stop-color="#CCCCCE"/>
<stop offset="0.751085" stop-color="#929295"/>
<stop offset="0.891675" stop-color="#CCCCCE"/>
<stop offset="1" stop-color="#CDCDCF"/>
</linearGradient>
<linearGradient id="paint12_linear_510_1242" x1="133.285" y1="306.964" x2="133.064" y2="307.912" gradientUnits="userSpaceOnUse">
<stop stop-color="#B9BABC"/>
<stop offset="0.332298" stop-color="#6F7072"/>
<stop offset="0.505068" stop-color="#1F2022"/>
<stop offset="0.691743" stop-color="#6F7072"/>
<stop offset="1" stop-color="#B9BABC"/>
</linearGradient>
<linearGradient id="paint13_linear_510_1242" x1="133.522" y1="306.842" x2="133.047" y2="308.169" gradientUnits="userSpaceOnUse">
<stop stop-color="#1D1E20"/>
<stop offset="1" stop-color="#CBCCCE"/>
</linearGradient>
<linearGradient id="paint14_linear_510_1242" x1="132.734" y1="308.288" x2="132.513" y2="309.236" gradientUnits="userSpaceOnUse">
<stop stop-color="#B9BABC"/>
<stop offset="0.332298" stop-color="#6F7072"/>
<stop offset="0.505068" stop-color="#1F2022"/>
<stop offset="0.691743" stop-color="#6F7072"/>
<stop offset="1" stop-color="#B9BABC"/>
</linearGradient>
<linearGradient id="paint15_linear_510_1242" x1="132.972" y1="308.166" x2="132.497" y2="309.493" gradientUnits="userSpaceOnUse">
<stop stop-color="#1D1E20"/>
<stop offset="1" stop-color="#CBCCCE"/>
</linearGradient>
<linearGradient id="paint16_linear_510_1242" x1="145.389" y1="327.819" x2="151.036" y2="323.622" gradientUnits="userSpaceOnUse">
<stop stop-color="#CDCDCF"/>
<stop offset="0.583118" stop-color="#CCCCCE"/>
<stop offset="0.751085" stop-color="#929295"/>
<stop offset="0.891675" stop-color="#CCCCCE"/>
<stop offset="1" stop-color="#CDCDCF"/>
</linearGradient>
<linearGradient id="paint17_linear_510_1242" x1="147.126" y1="325.387" x2="147.401" y2="326.293" gradientUnits="userSpaceOnUse">
<stop stop-color="#B9BABC"/>
<stop offset="0.332298" stop-color="#6F7072"/>
<stop offset="0.505068" stop-color="#1F2022"/>
<stop offset="0.691743" stop-color="#6F7072"/>
<stop offset="1" stop-color="#B9BABC"/>
</linearGradient>
<linearGradient id="paint18_linear_510_1242" x1="147.334" y1="324.915" x2="147.864" y2="326.462" gradientUnits="userSpaceOnUse">
<stop stop-color="#1D1E20"/>
<stop offset="1" stop-color="#CBCCCE"/>
</linearGradient>
<linearGradient id="paint19_linear_510_1242" x1="148.925" y1="324.548" x2="147.909" y2="324.646" gradientUnits="userSpaceOnUse">
<stop stop-color="#B9BABC"/>
<stop offset="0.332298" stop-color="#6F7072"/>
<stop offset="0.505068" stop-color="#1F2022"/>
<stop offset="0.691743" stop-color="#6F7072"/>
<stop offset="1" stop-color="#B9BABC"/>
</linearGradient>
<linearGradient id="paint20_linear_510_1242" x1="149.132" y1="324.81" x2="147.671" y2="324.838" gradientUnits="userSpaceOnUse">
<stop stop-color="#1D1E20"/>
<stop offset="1" stop-color="#CBCCCE"/>
</linearGradient>
</defs>
</svg>
