<svg width="288" height="432" viewBox="0 0 288 432" fill="none" xmlns="http://www.w3.org/2000/svg">
<path d="M256.96 42.22V48.22H31.05V42.22H256.96Z" fill="#333333"/>
<path d="M25.17 57.09C24.3744 57.09 23.6113 56.7739 23.0487 56.2113C22.4861 55.6487 22.17 54.8856 22.17 54.09V36.34C22.17 35.5444 22.4861 34.7813 23.0487 34.2187C23.6113 33.6561 24.3744 33.34 25.17 33.34C25.9657 33.34 26.7288 33.6561 27.2914 34.2187C27.854 34.7813 28.17 35.5444 28.17 36.34V54.09C28.17 54.8856 27.854 55.6487 27.2914 56.2113C26.7288 56.7739 25.9657 57.09 25.17 57.09Z" fill="#333333"/>
<path d="M262.83 57.09C262.034 57.09 261.271 56.7739 260.709 56.2113C260.146 55.6487 259.83 54.8856 259.83 54.09V36.34C259.83 35.5444 260.146 34.7813 260.709 34.2187C261.271 33.6561 262.034 33.34 262.83 33.34C263.626 33.34 264.389 33.6561 264.951 34.2187C265.514 34.7813 265.83 35.5444 265.83 36.34V54.09C265.83 54.8856 265.514 55.6487 264.951 56.2113C264.389 56.7739 263.626 57.09 262.83 57.09Z" fill="#333333"/>
<path opacity="0.2" d="M50.34 66.67V397C50.341 397.262 50.404 397.52 50.5239 397.753C50.6438 397.986 50.8172 398.187 51.0298 398.341C51.2425 398.494 51.4884 398.594 51.7474 398.634C52.0064 398.674 52.2711 398.652 52.52 398.57L153.52 364.82C153.846 364.719 154.194 364.719 154.52 364.82L255.52 398.57C255.769 398.652 256.034 398.674 256.293 398.634C256.552 398.594 256.797 398.494 257.01 398.341C257.223 398.187 257.396 397.986 257.516 397.753C257.636 397.52 257.699 397.262 257.7 397V66.67C257.703 66.4474 257.66 66.2265 257.576 66.0206C257.491 65.8148 257.365 65.6282 257.206 65.4722C257.048 65.3161 256.859 65.1939 256.651 65.1127C256.444 65.0316 256.223 64.9932 256 65H52C51.7808 64.9987 51.5635 65.041 51.3608 65.1246C51.1581 65.2082 50.9742 65.3313 50.8196 65.4868C50.6651 65.6422 50.5431 65.8269 50.4607 66.0301C50.3783 66.2333 50.3373 66.4508 50.34 66.67Z" fill="#231F20"/>
<path d="M42 58.6V384.6C41.9992 384.859 42.0601 385.115 42.1778 385.346C42.2955 385.576 42.4666 385.776 42.6768 385.927C42.887 386.079 43.1303 386.178 43.3865 386.217C43.6427 386.256 43.9044 386.233 44.15 386.15L143.78 352.84C144.106 352.738 144.454 352.738 144.78 352.84L244.41 386.15C244.656 386.233 244.917 386.256 245.174 386.217C245.43 386.178 245.673 386.079 245.883 385.927C246.093 385.776 246.264 385.576 246.382 385.346C246.5 385.115 246.561 384.859 246.56 384.6V58.6C246.55 58.1805 246.38 57.7809 246.084 57.4832C245.788 57.1856 245.389 57.0127 244.97 57H43.63C43.2036 57.0025 42.795 57.1709 42.4907 57.4696C42.1864 57.7683 42.0104 58.1737 42 58.6Z" fill="#4D1919"/>
<path d="M244.66 389.21C244.164 389.213 243.671 389.136 243.2 388.98L144 355.81L44.7999 389C44.103 389.231 43.3613 389.293 42.6356 389.182C41.9099 389.07 41.221 388.788 40.6255 388.359C40.0301 387.929 39.545 387.365 39.2103 386.711C38.8755 386.058 38.7006 385.334 38.7 384.6V58.6C38.7105 57.3781 39.2026 56.2096 40.0695 55.3484C40.9364 54.4871 42.108 54.0026 43.33 54H244.67C245.899 54.0026 247.076 54.4927 247.944 55.3626C248.812 56.2324 249.3 57.4111 249.3 58.64V384.64C249.3 385.375 249.125 386.099 248.789 386.753C248.453 387.407 247.967 387.971 247.37 388.4C246.575 388.949 245.626 389.233 244.66 389.21ZM144 349.74C144.5 349.74 144.996 349.821 145.47 349.98L243.3 382.68V60H44.7V382.68L142.53 350C143.002 349.833 143.499 349.746 144 349.74Z" fill="#4D1919"/>
<path d="M238.05 376.68L147.13 346.28C145.097 345.61 142.903 345.61 140.87 346.28L50 376.68V66.5H238.1L238.05 376.68ZM53.45 70V371.82L139.76 343C142.513 342.09 145.487 342.09 148.24 343L234.55 371.86V70H53.45Z" fill="#E3E4E5"/>
<path d="M222.815 153.45C222.708 153.46 222.601 153.46 222.495 153.45C202.355 149.78 173.585 147.68 143.565 147.68C114.005 147.68 85.5646 149.68 65.4646 153.3C65.0072 153.381 64.5363 153.277 64.1557 153.01C63.7751 152.744 63.5158 152.337 63.435 151.88C63.3541 151.422 63.4582 150.952 63.7244 150.571C63.9907 150.19 64.3972 149.931 64.8546 149.85C85.1246 146.25 113.855 144.18 143.565 144.18C173.785 144.18 202.785 146.3 223.125 150.01C223.552 150.09 223.935 150.327 224.197 150.673C224.46 151.02 224.584 151.452 224.545 151.886C224.507 152.319 224.308 152.722 223.988 153.017C223.668 153.312 223.25 153.477 222.815 153.48V153.45Z" fill="#E3E4E5"/>
<path d="M85.2313 136.943C83.8418 137.616 82.0276 137.952 79.7885 137.952C76.868 137.952 74.5714 137.094 72.8988 135.377C71.2261 133.66 70.3898 131.372 70.3898 128.514C70.3898 125.469 71.3279 123 73.2041 121.106C75.0891 119.212 77.5317 118.265 80.5319 118.265C82.3904 118.265 83.9569 118.5 85.2313 118.969V123.097C83.9569 122.336 82.5055 121.956 80.8771 121.956C79.0893 121.956 77.6468 122.518 76.5494 123.642C75.452 124.766 74.9033 126.288 74.9033 128.208C74.9033 130.049 75.421 131.518 76.4565 132.616C77.4919 133.704 78.8858 134.248 80.6381 134.248C82.3108 134.248 83.8418 133.841 85.2313 133.027V136.943Z" fill="#E3E4E5"/>
<path d="M105.024 137.62H100.723V129.868H92.8379V137.62H88.55V118.584H92.8379V126.177H100.723V118.584H105.024V137.62Z" fill="#E3E4E5"/>
<path d="M126.118 137.62H121.446L120.092 133.386H113.321L111.98 137.62H107.334L114.264 118.584H119.348L126.118 137.62ZM119.109 130.093L117.065 123.695C116.914 123.217 116.808 122.646 116.746 121.982H116.64C116.596 122.54 116.485 123.093 116.308 123.642L114.237 130.093H119.109Z" fill="#E3E4E5"/>
<path d="M150.186 137.62H145.951V126.23C145.951 125 146.004 123.642 146.111 122.155H146.004C145.783 123.323 145.584 124.164 145.407 124.677L140.947 137.62H137.442L132.902 124.81C132.778 124.465 132.579 123.58 132.305 122.155H132.185C132.3 124.031 132.358 125.677 132.358 127.093V137.62H128.495V118.584H134.774L138.663 129.868C138.973 130.77 139.199 131.678 139.34 132.589H139.42C139.659 131.536 139.911 130.62 140.177 129.841L144.066 118.584H150.186L150.186 137.62Z" fill="#E3E4E5"/>
<path d="M158.802 131.062V137.62H154.514V118.584H161.231C166.028 118.584 168.426 120.606 168.426 124.651C168.426 126.562 167.736 128.111 166.355 129.297C164.983 130.474 163.147 131.062 160.846 131.062H158.802ZM158.802 121.876V127.81H160.488C162.771 127.81 163.913 126.81 163.913 124.81C163.913 122.854 162.771 121.876 160.488 121.876H158.802Z" fill="#E3E4E5"/>
<path d="M175.502 137.62H171.214V118.584H175.502V137.62Z" fill="#E3E4E5"/>
<path d="M187.874 137.952C185.148 137.952 182.927 137.067 181.21 135.297C179.493 133.518 178.635 131.204 178.635 128.354C178.635 125.345 179.506 122.912 181.25 121.053C182.993 119.195 185.303 118.265 188.179 118.265C190.896 118.265 193.091 119.155 194.764 120.934C196.445 122.712 197.286 125.058 197.286 127.969C197.286 130.961 196.414 133.372 194.671 135.204C192.936 137.036 190.671 137.952 187.874 137.952ZM188.06 121.956C186.555 121.956 185.361 122.522 184.476 123.655C183.591 124.779 183.148 126.27 183.148 128.129C183.148 130.014 183.591 131.505 184.476 132.602C185.361 133.7 186.52 134.248 187.954 134.248C189.432 134.248 190.604 133.717 191.471 132.655C192.339 131.585 192.772 130.102 192.772 128.208C192.772 126.235 192.352 124.699 191.511 123.602C190.671 122.504 189.52 121.956 188.06 121.956Z" fill="#E3E4E5"/>
<path d="M217.57 137.62H213.243L205.397 125.66C204.937 124.96 204.618 124.434 204.441 124.08H204.388C204.459 124.752 204.494 125.779 204.494 127.16V137.62H200.445V118.584H205.065L212.619 130.173C212.964 130.695 213.282 131.213 213.574 131.726H213.628C213.557 131.284 213.521 130.412 213.521 129.111V118.584H217.57V137.62Z" fill="#E3E4E5"/>
<path d="M130.828 313.998C132.04 315.595 134.416 314.838 134.414 318.669C134.412 321.95 133.307 325.106 133.879 328.051C134.762 332.602 139.331 332.214 142.644 332.249L144.29 322.907L144.331 312.29L135.1 310.903L131.549 313.476L130.828 313.998Z" fill="black"/>
<path d="M166.14 326.383C166.038 328.014 166.023 329.279 165.558 330.311L165.034 331.475C164.778 331.906 164.67 332.274 164.743 332.61C164.984 333.709 163.745 334.127 162.488 334.152C160.391 334.195 158.575 333.438 157.032 332.406L166.14 326.383Z" fill="white" stroke="black" stroke-width="0.230447"/>
<path d="M158.138 332.73C159.297 333.346 161.89 334.436 163.78 333.645C164.209 333.465 163.993 333.353 163.908 333.384C162.536 333.219 162.323 333.107 161.63 331.795C160.578 331.96 158.579 331.929 158.106 332.549C158 332.652 158.115 332.651 158.138 332.73Z" fill="black"/>
<path d="M162.108 331.981C163.007 333.929 163.966 332.562 164.413 331.22" stroke="black" stroke-width="0.230447" stroke-linecap="round" stroke-linejoin="round"/>
<path d="M136.605 313.101L136.473 310.709L146.935 316.228L141.451 329.565C141.626 328.556 141.266 326.843 141.691 325.804C142.783 323.131 143.462 320.875 143.135 319.171C142.257 314.591 139.039 313.805 136.605 313.101Z" fill="#4D4D4D" stroke="black" stroke-width="0.230447"/>
<path d="M131.164 314.307C129.237 313.846 129.028 310.752 131.746 306.683C139.283 295.402 150.042 296.735 155.025 298.07C164.13 300.51 170.727 309.9 168.119 321.174C167.351 324.494 165.878 328.18 163.463 331.737C163.241 332.064 162.998 332.446 161.834 332.086C160.254 331.598 159.008 331.52 158.051 332.173C152.403 336.029 148.381 336.102 144.869 334.647C141.006 333.045 141.098 329.854 141.698 327.023C142.204 324.632 143.802 322.313 143.531 319.632C142.981 314.209 138.856 313.479 136.14 312.852C133.709 312.291 130.952 312.887 131.164 314.307Z" fill="#E3E4E5"/>
<path d="M151.848 324.752L153.275 326.886C154.452 326.943 155.323 326.541 155.808 325.878C156.382 325.092 156.437 323.981 156.133 323.425C155.496 322.261 153.838 321.771 152.703 322.917C152.314 323.31 152.088 323.961 151.848 324.752Z" fill="black" stroke="black" stroke-width="0.230447"/>
<path d="M155.853 331.781C156.367 331.781 156.783 331.387 156.783 330.901C156.783 330.415 156.367 330.021 155.853 330.021C155.34 330.021 154.924 330.415 154.924 330.901C154.924 331.387 155.34 331.781 155.853 331.781Z" fill="url(#paint0_linear_510_1072)" stroke="url(#paint1_linear_510_1072)" stroke-width="0.0911904" stroke-linecap="round" stroke-linejoin="round"/>
<path d="M150.421 329.059C151.32 331.007 156.682 329.723 157.129 328.38" stroke="black" stroke-width="0.230447" stroke-linecap="round" stroke-linejoin="round"/>
<path d="M146.747 330.234C147.174 330.478 147.707 330.349 147.939 329.945C148.17 329.541 148.012 329.015 147.585 328.77C147.158 328.526 146.625 328.655 146.393 329.059C146.162 329.463 146.32 329.989 146.747 330.234Z" fill="url(#paint2_linear_510_1072)" stroke="url(#paint3_linear_510_1072)" stroke-width="0.087355" stroke-linecap="round" stroke-linejoin="round"/>
<path d="M143.426 324.78C138.807 334.676 150.915 336.71 158.899 330.932C155.779 332.399 153.459 333.425 151.131 333.633C147.636 333.945 144.997 333.168 143.731 331.559C142.456 329.942 142.567 327.484 143.426 324.78Z" fill="url(#paint4_linear_510_1072)"/>
<path d="M137.066 319.752C137.557 319.721 138.314 319.842 138.703 320.688C138.857 321.021 138.873 321.496 138.776 322.084C138.285 325.059 140.144 326.794 142.273 328.586L142.15 331.878C139.332 332.124 136.709 331.827 135.322 330.392C133.725 328.739 133.83 325.473 134.519 322.276C134.886 320.998 135.636 319.863 137.066 319.752Z" fill="#4D4D4D"/>
<path d="M133.858 315.047C135.221 316.276 135.322 318.194 135.031 319.862C134.946 320.347 134.591 320.07 134.619 319.903C134.92 318.139 134.691 316.713 133.529 315.253C133.199 314.839 133.601 314.815 133.858 315.047Z" fill="white"/>
<path d="M133.982 307.259C134.16 306.808 130.678 308.496 130.945 308.004C131.177 307.577 131.443 307.136 131.746 306.683C139.283 295.402 150.042 296.735 155.025 298.07C147.336 298.261 139.628 298.367 133.982 307.259Z" fill="#4D4D4D"/>
<path d="M131.164 314.307C129.237 313.846 129.028 310.752 131.746 306.683C139.283 295.402 150.042 296.735 155.025 298.07C164.13 300.51 170.727 309.9 168.119 321.174C167.351 324.494 165.878 328.18 163.463 331.737C163.241 332.064 162.998 332.446 161.834 332.086C160.254 331.598 159.008 331.52 158.051 332.173C152.403 336.029 148.381 336.102 144.869 334.647C141.006 333.045 141.098 329.854 141.698 327.023C142.204 324.632 143.802 322.313 143.531 319.632C142.981 314.209 138.856 313.479 136.14 312.852C133.709 312.291 130.952 312.887 131.164 314.307Z" stroke="black" stroke-width="0.230447"/>
<path d="M135.456 306.945C135.834 307.101 136.58 306.749 136.212 307.935L134.947 311.295C134.36 312.852 135.772 313.207 136.984 313.594L134.685 313.609L133.754 311.848L134.728 308.007L135.456 306.945Z" fill="#F2F2F2" stroke="black" stroke-width="0.230447"/>
<path d="M130.742 306.494L132.153 307.178L130.96 311.921C129.426 312.37 127.558 311.895 128.458 310.306C129.177 309.035 129.908 307.765 130.742 306.494Z" fill="#D0D0D1" stroke="black" stroke-width="0.230447"/>
<path d="M131.564 307.071L135.36 306.982C135.834 306.97 135.949 307.039 135.813 307.434L134.537 311.138C134.059 312.525 134.532 313.373 135.73 313.689L131.592 313.526C131.211 313.596 131.117 314.049 131.164 314.278C128.718 313.3 129.847 309.31 131.564 307.071Z" fill="white" stroke="black" stroke-width="0.230447"/>
<path d="M133.667 306.747L134.581 307.314C134.894 307.509 135.343 307.729 135.102 308.333L133.894 311.65L132.736 309.57L133.667 306.747Z" fill="#CCCCCE" stroke="black" stroke-width="0.230447" stroke-linecap="round" stroke-linejoin="round"/>
<path d="M133.671 306.558C133.931 306.962 135.097 307.019 134.64 308.231L133.756 310.442L133.961 311.345C133.894 311.784 133.745 312.108 133.468 312.247L132.921 312.32L131.971 311.403L132.08 309.133L133.671 306.558Z" fill="#CCCCCE" stroke="black" stroke-width="0.230447" stroke-linecap="round" stroke-linejoin="round"/>
<path d="M151.79 327.864C152.364 328.209 152.986 327.744 152.88 327.246L146.317 316.938C144.957 314.511 143.239 313.125 141.276 312.452C138.86 311.588 136.378 311.184 133.91 310.683C132.898 310.635 132.839 311.706 133.704 311.938C135.632 312.334 137.529 312.543 139.506 313.234C141.675 313.873 143.631 314.832 144.712 317.103L151.79 327.864Z" fill="#CDCDCF" stroke="black" stroke-width="0.230447"/>
<path d="M134.458 318.545C130.669 322.451 126.241 321.722 122.976 321.186C122.275 321.064 121.838 321.2 121.577 321.763C120.071 325 119.596 328.772 119.27 332.721C119.246 333.016 119.361 333.375 119.708 333.452C121.533 333.485 120.649 333.303 120.834 332.186C120.777 330.092 121.02 326.074 122.729 322.627C122.883 322.315 123.227 322.145 124.087 322.38C127.423 323.36 129.851 323.031 131.598 322.145C133.028 321.42 133.61 321.078 134.346 320.552L134.458 318.545Z" fill="url(#paint5_linear_510_1072)" stroke="black" stroke-width="0.230447" stroke-linecap="round" stroke-linejoin="round"/>
<path d="M123.926 327.812C123.015 327.635 122.152 327.469 121.176 327.186C120.571 327.01 120.256 325.308 121.822 325.539C126.408 326.214 129.25 325.952 133.793 325.082L133.763 326.329C128.459 327.344 126.69 327.219 123.072 326.305L121.95 326.108C122.97 326.318 123.458 326.49 124.479 326.619L123.926 327.812Z" fill="url(#paint6_linear_510_1072)" stroke="black" stroke-width="0.230447" stroke-linecap="round" stroke-linejoin="round"/>
<path d="M125.551 323.038L122.801 322.442C122.228 322.18 122.016 321.278 122.991 321.176L126.177 321.729L125.551 323.038Z" fill="url(#paint7_linear_510_1072)" stroke="black" stroke-width="0.230447" stroke-linecap="round" stroke-linejoin="round"/>
<path d="M132.44 315.095L127.79 326.33C126.173 330.238 124.488 331.117 121.042 331.968C119.421 332.136 119.383 332.94 119.624 333.304C119.942 333.783 121.631 334.361 123.284 334.499L123.408 333.223C122.753 333.031 121.979 333.074 121.564 332.963C121.295 332.891 121.289 332.8 121.673 332.813C121.903 332.821 122.151 332.891 122.477 332.879C123.556 332.838 124.317 332.369 125.239 331.721C127.04 330.456 127.852 329.461 129.478 325.59L133.592 315.794C133.332 315.14 132.89 315.103 132.44 315.095Z" fill="url(#paint8_linear_510_1072)" stroke="black" stroke-width="0.230447" stroke-linecap="round" stroke-linejoin="round"/>
<path d="M143.738 313.833C144.104 314.1 144.459 314.426 144.798 314.831L138.035 329.495L136.43 329.598L143.738 313.833Z" fill="url(#paint9_linear_510_1072)" stroke="black" stroke-width="0.230447" stroke-linecap="round" stroke-linejoin="round"/>
<path d="M147.417 318.923C147.756 318.996 148.263 319.584 148.23 320.014C146.911 321.236 146.168 321.879 144.727 322.994C143.633 323.842 142.36 324.332 141.061 324.435C137.57 324.712 134.165 324.262 130.818 323.838L126.817 323.14C126.827 323.077 126.791 322.925 126.744 322.994C125.944 324.244 125.684 325.513 125.435 326.835L134.484 328.203C135.115 328.298 138.82 328.495 141.439 328.028L150.781 326.365L151.536 327.519C147.495 328.216 143.544 328.996 139.082 329.483C137.109 329.699 134.738 329.581 133.67 329.396L125.289 327.941C125.154 327.918 125.062 327.918 125.027 328.028C124.415 330.017 124.36 331.866 124.358 333.703C124.472 333.72 124.406 333.518 124.518 333.541C129.398 334.567 135.26 332.825 136.379 329.642L137.948 329.575C135.315 334.976 129.02 335.399 124.184 334.663C123.698 334.799 123.342 334.678 123.02 334.488C122.899 329.723 123.966 325.521 125.93 321.743C126.042 321.527 126.954 321.294 126.992 322.049C133.631 323.154 136.344 323.07 140.1 323.285C141.936 323.391 143.611 322.439 145.309 320.87L147.417 318.923Z" fill="url(#paint10_linear_510_1072)" stroke="black" stroke-width="0.230447" stroke-linecap="round" stroke-linejoin="round"/>
<path d="M131.628 310.381L129.302 310.262C128.439 310.505 128.428 311.479 129.389 311.485L131.606 311.414L131.628 310.381Z" fill="#D0D0D1" stroke="black" stroke-width="0.230447"/>
<path d="M132.676 306.767C133.279 306.303 133.805 306.208 134.151 306.973L132.741 310.173C132.442 310.85 131.986 311.486 133.339 312.281C132.683 312.432 132.176 312.517 131.622 312.37C131.52 312.343 131.413 312.306 131.356 312.199C130.952 311.447 130.845 310.683 131.31 309.689L132.676 306.767Z" fill="url(#paint11_linear_510_1072)" stroke="black" stroke-width="0.230447" stroke-linecap="round" stroke-linejoin="round"/>
<path d="M132.769 307.809C132.881 308.038 133.145 308.047 133.36 307.83C133.576 307.613 133.659 307.251 133.547 307.023C133.436 306.794 133.171 306.784 132.956 307.001C132.741 307.219 132.657 307.58 132.769 307.809Z" fill="url(#paint12_linear_510_1072)" stroke="url(#paint13_linear_510_1072)" stroke-width="0.0509192" stroke-linecap="round" stroke-linejoin="round"/>
<path d="M132.219 309.133C132.33 309.362 132.595 309.371 132.81 309.154C133.025 308.937 133.109 308.575 132.997 308.347C132.886 308.118 132.621 308.108 132.406 308.325C132.191 308.543 132.107 308.904 132.219 309.133Z" fill="url(#paint14_linear_510_1072)" stroke="url(#paint15_linear_510_1072)" stroke-width="0.0509192" stroke-linecap="round" stroke-linejoin="round"/>
<path d="M149.784 322.166L150.998 323.926C151.352 324.439 150.894 324.615 150.627 324.79L147.479 326.858C147.031 327.152 146.73 327.086 146.492 326.837L145.545 325.85L145.627 324.471L148.158 322.928L149.784 322.166Z" fill="url(#paint16_linear_510_1072)" stroke="black" stroke-width="0.230447" stroke-linecap="round" stroke-linejoin="round"/>
<path d="M145.525 325.685C144.98 325.023 144.898 324.38 145.545 323.936L147.973 322.269L148.487 322.907C147.116 323.76 145.647 324.593 145.525 325.685Z" fill="#CBCBCE" stroke="black" stroke-width="0.230447" stroke-linecap="round" stroke-linejoin="round"/>
<path d="M148.261 322.681C149.087 322.685 149.367 322.238 149.434 321.796C149.663 322.052 150.182 322.248 149.496 322.743C147.137 324.035 145.268 325.371 145.813 326.158C145.436 325.731 145.105 325.291 145.751 324.594L148.261 322.681Z" fill="#CECED0" stroke="black" stroke-width="0.230447" stroke-linecap="round" stroke-linejoin="round"/>
<path d="M146.848 326.228C147.179 326.418 147.594 326.318 147.774 326.004C147.954 325.69 147.831 325.281 147.499 325.091C147.168 324.901 146.753 325.001 146.573 325.315C146.393 325.629 146.516 326.038 146.848 326.228Z" fill="url(#paint17_linear_510_1072)" stroke="url(#paint18_linear_510_1072)" stroke-width="0.0678814" stroke-linecap="round" stroke-linejoin="round"/>
<path d="M147.916 324.351C147.737 324.657 147.828 325.043 148.119 325.212C148.409 325.381 148.789 325.269 148.967 324.962C149.146 324.655 149.055 324.27 148.765 324.101C148.474 323.932 148.094 324.044 147.916 324.351Z" fill="url(#paint19_linear_510_1072)" stroke="url(#paint20_linear_510_1072)" stroke-width="0.063006" stroke-linecap="round" stroke-linejoin="round"/>
<path d="M150.38 306.097L151.174 307.02L151.341 307.091L151.759 307.778L151.868 307.692L152.276 308.297L152.234 308.444L152.437 308.326L152.788 309.073L152.991 308.956L153.294 309.688L153.471 309.603L153.529 309.64L153.743 310.205L153.697 310.43L153.942 310.346L154.157 310.971L154.11 311.136L154.308 311.037L154.47 311.486L154.393 311.762L154.575 311.658L154.701 312.176L154.665 312.364L154.847 312.261L154.937 312.967L155.099 312.997L155.153 313.472L155.096 313.614L155.226 313.694L155.264 314.284L155.431 314.296L155.252 313.663L155.273 313.589L155.434 313.619L155.255 312.926L155.286 312.815L155.401 312.891L155.338 312.632L155.4 312.411L155.326 312.07L155.414 311.758L155.482 311.699L155.465 311.215L155.49 310.943L155.511 310.87L155.652 310.913L155.661 310.637L155.67 310.301L155.763 310.03L155.878 310.105L155.935 310.083L155.944 309.867L155.954 309.591L155.989 309.342L156.187 309.363L156.181 309.202L156.377 308.444L156.393 308.389L156.612 308.577L156.808 307.939L157.038 308.09L157.26 307.42L157.354 307.329L157.438 307.574L157.479 307.607L157.583 307.18L157.681 307.131L157.821 306.755L157.899 306.719L157.983 306.905L158.03 306.859L158.211 306.337L158.403 306.077L158.471 306.137L158.486 306.141L158.6 305.857L158.87 305.502L158.99 305.379L159.052 305.219L159.125 305.141L159.207 304.967L159.29 304.853L159.399 304.707L159.529 304.608L159.566 304.659L159.551 304.894L159.484 305.252L159.344 305.568L159.163 305.911L159.049 306.195L158.945 306.502L158.785 307.071L158.9 307.027L158.916 307.151L158.745 307.817L158.673 308.074L158.928 307.953L158.897 308.303L158.825 308.619L158.748 308.895L158.675 308.972L158.691 309.037L158.863 308.97L158.946 309.036L158.925 309.229L158.765 309.798L158.692 309.936L158.677 309.991L158.854 310.025L158.906 309.962L158.943 310.072L158.86 310.366L158.699 310.636L158.497 310.932L158.643 311.017L158.742 310.968L158.664 311.303L158.503 311.513L158.373 311.612L158.452 311.696L158.343 311.962L158.198 312.176L158.089 312.322L158.141 312.378L158.078 312.479L158.001 312.574L158.068 312.635L157.933 312.813L157.809 312.954L157.731 313.11L157.487 313.314L157.429 313.336L157.737 313.451L157.866 313.052L158.032 312.824L158.157 312.982L158.349 312.662L158.588 312.357L158.745 312.585L158.88 312.347L159.062 312.124L159.337 311.81L159.504 312.001L159.743 311.695L159.987 311.491L160.165 311.646L160.487 311.286L160.799 311.083L160.851 311.259L161.21 310.891L161.537 310.692L161.611 310.855L161.658 310.869L161.688 310.699L162.25 310.393L162.355 310.565L162.407 310.442L162.932 310.145L162.995 310.224L163.567 309.941L164.083 309.741L164.369 309.689L164.567 309.71L163.99 310.071L163.423 310.515L163.278 310.669L163.262 310.844L163.168 310.815L162.815 311.225L162.815 311.285L162.873 311.382L162.769 311.51L162.275 311.936L162.447 312.049L161.938 312.471L162.032 312.559L161.98 312.683L161.278 313.185L161.409 313.265L161.425 313.33L160.676 313.817L160.79 313.832L159.937 314.327L159.948 314.41L160.12 314.463L159.428 314.749L159.428 314.809L159.574 314.834L158.882 315.059L158.814 315.059L158.783 315.109L158.872 315.156L158.866 315.294L159.215 315.142L159.486 315.146L159.445 315.293L159.83 315.133L160.059 315.163L160.018 315.37L160.46 315.307L160.814 315.257L160.752 315.477L161.153 315.441L161.325 315.494L161.283 315.641L161.804 315.602L161.752 315.785L161.872 315.783L162.013 315.766L162.351 315.89L162.326 315.982L163.55 316.34L163.498 316.463L162.608 316.428L162.582 316.52L162.264 316.442L162.233 316.552L162.019 316.466L161.968 316.53L161.816 316.464L161.785 316.574L161.52 316.492L161.473 316.597L161.296 316.563L161.26 316.631L161.108 316.565L161.015 316.775L160.713 316.642L160.447 316.62L160.37 316.836L159.744 316.703L159.708 316.891L159.13 316.773L159.099 316.883L159.177 316.907L159.078 316.897L158.588 316.766L158.536 316.889L158.854 316.967L158.813 317.114L159.235 317.304L159.24 317.406L159.428 317.523L159.475 317.598L159.47 317.736L159.924 318.175L159.929 318.276L159.293 318.001L159.252 318.088L158.955 317.876L158.835 317.939L158.741 317.91L158.491 317.773L158.413 317.809L158.225 317.751L158.09 317.689L158.017 317.707L157.897 317.59L157.694 317.468L157.647 317.573L157.391 317.394L157.245 317.31L157.163 317.543L156.844 317.166L156.75 317.077L156.588 316.987L156.578 317.024L156.797 317.211L157.126 317.672L157.09 317.8L156.746 317.634L156.35 317.353L155.974 316.997L155.66 316.662L155.598 316.463L155.53 316.342L155.509 316.355L155.353 316.547L154.973 316.749L154.484 316.977L154.437 316.963L154.411 316.875L153.818 317.111L153.792 317.023L153.437 317.014L153.39 316.94L153.479 316.807L153.51 316.697L153.447 316.678L153.478 316.568L153.358 316.511L153.4 316.364L153.066 316.341L153.092 316.189L152.633 316.068L152.539 315.979L152.206 315.956L152.123 315.95L152.169 315.785L151.883 315.716L151.711 315.724L151.711 315.604L150.824 315.311L151.262 315.147L151.662 315.111L151.709 315.006L152.095 315.144L152.136 314.938L152.647 315.115L152.673 315.023L152.454 314.956L152.485 314.846L151.927 314.654L151.942 314.479L151.953 314.442L151.63 314.323L151.635 314.244L151.421 314.159L151.437 314.044L151.389 313.969L151.4 313.933L150.951 313.655L150.811 313.611L150.8 313.468L150.847 313.363L150.461 313.164L150.377 313.099L150.205 313.046L150.241 312.857L149.934 312.623L149.751 312.427L149.61 312.324L149.657 312.218L148.77 311.566L148.738 311.496L149.489 311.668L149.812 311.787L149.869 311.885L149.906 311.756L150.317 311.923L150.401 312.049L150.468 311.93L150.76 312.04L150.985 312.328L151.073 312.136L151.198 312.175L151.496 312.446L151.6 312.558L151.704 312.37L152.085 312.707L152.179 312.796L152.205 312.704L152.413 312.868L152.56 313.073L152.674 313.148L152.757 313.034L152.914 313.082L152.971 313.18L153.013 313.153L152.506 312.658L152.662 312.526L152.151 311.93L152.223 311.852L152.056 311.362L151.795 311.082L151.742 310.966L151.825 310.852L151.694 310.532L151.71 310.417L151.438 310.114L151.578 309.978L151.165 309.152L151.279 309.048L150.949 308.169L151.053 308.101L150.87 307.486L150.874 307.348L150.375 306.098L150.38 306.097Z" fill="#4D4D4D"/>
<path d="M157.942 319.113C162.114 318.205 164.769 314.131 163.873 310.013C162.977 305.896 158.869 303.293 154.698 304.201C150.526 305.108 147.871 309.182 148.767 313.3C149.663 317.418 153.771 320.021 157.942 319.113Z" stroke="#333333" stroke-width="1.92003"/>
<path d="M149.984 306.168L162.055 317.904L149.984 306.168Z" fill="#800000"/>
<path d="M149.984 306.168L162.055 317.904" stroke="#333333" stroke-width="1.92003"/>
<path d="M192 206H228H192Z" fill="#E3E4E5"/>
<path d="M192 206H228" stroke="#E3E4E5" stroke-width="2.56673" stroke-miterlimit="10" stroke-linecap="round"/>
<path d="M139.544 259.444H138.184L137.512 257.543H134.575L133.929 259.444H132.575L135.372 251.976H136.768L139.544 259.444ZM137.184 256.533L136.148 253.554C136.116 253.457 136.084 253.3 136.049 253.085H136.028C135.997 253.283 135.962 253.439 135.924 253.554L134.898 256.533H137.184Z" fill="#E3E4E5"/>
<path d="M141.663 258.674H141.643V259.444H140.434V251.549H141.643V255.049H141.663C142.077 254.34 142.681 253.986 143.476 253.986C144.149 253.986 144.675 254.226 145.054 254.705C145.436 255.181 145.627 255.819 145.627 256.622C145.627 257.514 145.413 258.229 144.986 258.767C144.559 259.302 143.976 259.569 143.236 259.569C142.542 259.569 142.018 259.271 141.663 258.674ZM141.632 256.554V257.215C141.632 257.604 141.755 257.934 142.002 258.205C142.252 258.476 142.568 258.611 142.95 258.611C143.398 258.611 143.748 258.437 144.002 258.09C144.259 257.74 144.387 257.252 144.387 256.627C144.387 256.102 144.268 255.693 144.028 255.398C143.792 255.099 143.471 254.95 143.064 254.95C142.634 254.95 142.287 255.102 142.023 255.408C141.762 255.714 141.632 256.095 141.632 256.554Z" fill="#E3E4E5"/>
<path d="M151.377 257.106H147.742C147.755 257.599 147.906 257.979 148.195 258.247C148.486 258.514 148.886 258.648 149.393 258.648C149.962 258.648 150.485 258.477 150.96 258.137V259.111C150.474 259.417 149.832 259.569 149.033 259.569C148.248 259.569 147.632 259.328 147.184 258.845C146.74 258.359 146.518 257.677 146.518 256.799C146.518 255.969 146.762 255.293 147.252 254.773C147.745 254.248 148.356 253.986 149.085 253.986C149.814 253.986 150.379 254.22 150.778 254.689C151.177 255.158 151.377 255.809 151.377 256.642V257.106ZM150.21 256.252C150.207 255.818 150.105 255.481 149.903 255.241C149.702 254.998 149.424 254.877 149.07 254.877C148.722 254.877 148.427 255.003 148.184 255.257C147.945 255.51 147.797 255.842 147.742 256.252H150.21Z" fill="#E3E4E5"/>
<path d="M124.098 268.638V267.362C124.213 267.466 124.348 267.56 124.504 267.643C124.664 267.726 124.833 267.797 125.01 267.856C125.187 267.912 125.364 267.955 125.541 267.987C125.718 268.018 125.881 268.034 126.031 268.034C126.551 268.034 126.939 267.947 127.192 267.773C127.449 267.6 127.577 267.348 127.577 267.018C127.577 266.841 127.534 266.688 127.447 266.56C127.364 266.428 127.246 266.308 127.093 266.2C126.94 266.093 126.76 265.99 126.551 265.893C126.347 265.792 126.126 265.688 125.89 265.58C125.636 265.445 125.4 265.308 125.182 265.169C124.963 265.03 124.772 264.877 124.609 264.711C124.449 264.54 124.322 264.35 124.228 264.138C124.138 263.926 124.093 263.678 124.093 263.393C124.093 263.042 124.171 262.738 124.327 262.481C124.487 262.221 124.695 262.007 124.952 261.841C125.213 261.671 125.508 261.546 125.838 261.466C126.168 261.382 126.504 261.341 126.848 261.341C127.629 261.341 128.199 261.429 128.557 261.606V262.83C128.133 262.525 127.588 262.372 126.921 262.372C126.737 262.372 126.553 262.389 126.369 262.424C126.189 262.459 126.025 262.516 125.879 262.596C125.737 262.676 125.621 262.778 125.531 262.903C125.44 263.028 125.395 263.179 125.395 263.356C125.395 263.523 125.43 263.667 125.499 263.789C125.569 263.91 125.669 264.021 125.801 264.122C125.937 264.223 126.1 264.322 126.291 264.419C126.485 264.513 126.709 264.615 126.963 264.726C127.223 264.862 127.468 265.004 127.697 265.153C127.93 265.303 128.133 265.468 128.307 265.648C128.484 265.829 128.623 266.03 128.723 266.252C128.827 266.471 128.879 266.721 128.879 267.002C128.879 267.381 128.803 267.7 128.65 267.961C128.498 268.221 128.291 268.433 128.031 268.596C127.774 268.759 127.477 268.877 127.14 268.95C126.803 269.023 126.447 269.06 126.072 269.06C125.947 269.06 125.793 269.049 125.609 269.028C125.428 269.011 125.242 268.983 125.051 268.945C124.86 268.91 124.68 268.867 124.51 268.815C124.34 268.763 124.202 268.704 124.098 268.638Z" fill="#E3E4E5"/>
<path d="M132.619 268.877C132.383 268.995 132.072 269.054 131.687 269.054C130.652 269.054 130.135 268.558 130.135 267.565V264.549H129.244V263.601H130.135V262.367L131.343 262.023V263.601H132.619V264.549H131.343V267.216C131.343 267.532 131.4 267.758 131.515 267.893C131.629 268.028 131.82 268.096 132.088 268.096C132.293 268.096 132.47 268.037 132.619 267.919V268.877Z" fill="#E3E4E5"/>
<path d="M137.755 268.935H136.583V268.101H136.562C136.194 268.74 135.654 269.06 134.942 269.06C134.418 269.06 134.006 268.917 133.708 268.633C133.413 268.348 133.265 267.971 133.265 267.502C133.265 266.495 133.845 265.909 135.005 265.742L136.588 265.518C136.588 264.758 136.227 264.377 135.505 264.377C134.869 264.377 134.296 264.596 133.786 265.034V263.976C134.348 263.643 134.998 263.476 135.734 263.476C137.081 263.476 137.755 264.14 137.755 265.466L137.755 268.935ZM136.588 266.315L135.468 266.471C135.121 266.516 134.859 266.601 134.682 266.726C134.508 266.848 134.421 267.063 134.421 267.372C134.421 267.598 134.501 267.784 134.661 267.929C134.824 268.072 135.041 268.143 135.312 268.143C135.68 268.143 135.984 268.015 136.223 267.758C136.466 267.497 136.588 267.171 136.588 266.778V266.315Z" fill="#E3E4E5"/>
<path d="M143.88 268.935H142.671V268.091H142.65C142.3 268.737 141.755 269.06 141.015 269.06C139.755 269.06 139.124 268.303 139.124 266.789V263.601H140.333V266.664C140.333 267.622 140.703 268.101 141.442 268.101C141.8 268.101 142.093 267.969 142.322 267.706C142.555 267.442 142.671 267.096 142.671 266.669V263.601H143.88L143.88 268.935Z" fill="#E3E4E5"/>
<path d="M146.682 268.164H146.661V268.935H145.453V261.039H146.661V264.539H146.682C147.095 263.83 147.699 263.476 148.494 263.476C149.168 263.476 149.694 263.716 150.072 264.195C150.454 264.671 150.645 265.31 150.645 266.112C150.645 267.004 150.432 267.719 150.005 268.258C149.578 268.792 148.994 269.06 148.255 269.06C147.56 269.06 147.036 268.761 146.682 268.164ZM146.65 266.044V266.705C146.65 267.094 146.774 267.424 147.02 267.695C147.27 267.966 147.586 268.101 147.968 268.101C148.416 268.101 148.767 267.928 149.02 267.581C149.277 267.23 149.406 266.742 149.406 266.117C149.406 265.593 149.286 265.183 149.046 264.888C148.81 264.589 148.489 264.44 148.083 264.44C147.652 264.44 147.305 264.593 147.041 264.898C146.781 265.204 146.65 265.586 146.65 266.044Z" fill="#E3E4E5"/>
<path d="M156.395 266.596H152.76C152.774 267.089 152.925 267.469 153.213 267.737C153.505 268.004 153.904 268.138 154.411 268.138C154.98 268.138 155.503 267.968 155.978 267.627V268.601C155.492 268.907 154.85 269.06 154.051 269.06C153.267 269.06 152.65 268.818 152.202 268.336C151.758 267.85 151.536 267.167 151.536 266.289C151.536 265.459 151.781 264.784 152.27 264.263C152.763 263.738 153.374 263.476 154.103 263.476C154.833 263.476 155.397 263.711 155.796 264.179C156.196 264.648 156.395 265.299 156.395 266.133V266.596ZM155.228 265.742C155.225 265.308 155.123 264.971 154.921 264.732C154.72 264.488 154.442 264.367 154.088 264.367C153.741 264.367 153.445 264.494 153.202 264.747C152.963 265.001 152.815 265.332 152.76 265.742H155.228Z" fill="#E3E4E5"/>
<path d="M160.64 264.752C160.494 264.638 160.284 264.58 160.01 264.58C159.652 264.58 159.354 264.742 159.114 265.065C158.874 265.388 158.755 265.827 158.755 266.383V268.935H157.546V263.601H158.755V264.7H158.775C158.893 264.325 159.074 264.034 159.317 263.825C159.564 263.613 159.838 263.508 160.14 263.508C160.359 263.508 160.525 263.541 160.64 263.607L160.64 264.752Z" fill="#E3E4E5"/>
<path d="M131.266 173.26L126.932 184.781C125.891 187.552 124.321 188.938 122.224 188.938C121.425 188.938 120.769 188.847 120.255 188.667V186.042C120.693 186.299 121.168 186.427 121.682 186.427C122.529 186.427 123.12 186.028 123.453 185.229L124.016 183.906L119.682 173.26H123.328L125.318 179.75C125.443 180.153 125.54 180.629 125.609 181.177H125.651C125.713 180.774 125.828 180.306 125.995 179.771L128.005 173.26H131.266Z" fill="#E3E4E5"/>
<path d="M137.463 184.187C135.686 184.187 134.286 183.691 133.266 182.698C132.252 181.698 131.745 180.344 131.745 178.635C131.745 176.872 132.273 175.493 133.328 174.5C134.384 173.5 135.811 173 137.609 173C139.38 173 140.769 173.5 141.776 174.5C142.783 175.493 143.286 176.809 143.286 178.448C143.286 180.219 142.766 181.618 141.724 182.646C140.689 183.674 139.269 184.187 137.463 184.187ZM137.547 175.521C136.769 175.521 136.165 175.788 135.734 176.323C135.304 176.858 135.088 177.615 135.088 178.594C135.088 180.642 135.915 181.667 137.568 181.667C139.144 181.667 139.932 180.615 139.932 178.51C139.932 176.517 139.137 175.521 137.547 175.521Z" fill="#E3E4E5"/>
<path d="M155.557 183.927H152.276V182.302H152.224C151.411 183.559 150.325 184.188 148.963 184.188C146.491 184.188 145.255 182.691 145.255 179.698V173.26H148.536V179.406C148.536 180.913 149.134 181.667 150.328 181.667C150.918 181.667 151.391 181.462 151.745 181.052C152.099 180.635 152.276 180.073 152.276 179.365V173.26H155.557L155.557 183.927Z" fill="#E3E4E5"/>
<path d="M165.286 176.229C164.89 176.014 164.429 175.906 163.901 175.906C163.186 175.906 162.627 176.17 162.224 176.698C161.821 177.219 161.62 177.931 161.62 178.833V183.927H158.328V173.26H161.62V175.24H161.661C162.182 173.795 163.12 173.073 164.474 173.073C164.821 173.073 165.092 173.115 165.286 173.198L165.286 176.229Z" fill="#E3E4E5"/>
<path d="M111.495 210.522C110.752 210.952 109.679 211.168 108.276 211.168C106.637 211.168 105.311 210.671 104.297 209.678C103.283 208.685 102.776 207.404 102.776 205.834C102.776 204.022 103.318 202.595 104.401 201.553C105.491 200.505 106.946 199.98 108.766 199.98C110.023 199.98 110.932 200.147 111.495 200.48V203.272C110.807 202.758 110.04 202.501 109.193 202.501C108.248 202.501 107.498 202.779 106.943 203.334C106.394 203.883 106.12 204.643 106.12 205.616C106.12 206.56 106.384 207.303 106.911 207.845C107.439 208.38 108.165 208.647 109.088 208.647C109.908 208.647 110.71 208.39 111.495 207.876V210.522Z" fill="#E3E4E5"/>
<path d="M120.609 203.209C120.213 202.994 119.752 202.887 119.224 202.887C118.509 202.887 117.95 203.15 117.547 203.678C117.144 204.199 116.943 204.911 116.943 205.814V210.907H113.651V200.241H116.943V202.22H116.984C117.505 200.775 118.443 200.053 119.797 200.053C120.144 200.053 120.415 200.095 120.609 200.178L120.609 203.209Z" fill="#E3E4E5"/>
<path d="M127.14 211.168C125.363 211.168 123.963 210.671 122.943 209.678C121.929 208.678 121.422 207.324 121.422 205.616C121.422 203.852 121.95 202.473 123.005 201.48C124.061 200.48 125.488 199.98 127.286 199.98C129.057 199.98 130.446 200.48 131.453 201.48C132.46 202.473 132.963 203.789 132.963 205.428C132.963 207.199 132.443 208.598 131.401 209.626C130.366 210.654 128.946 211.168 127.14 211.168ZM127.224 202.501C126.446 202.501 125.842 202.768 125.411 203.303C124.981 203.838 124.765 204.595 124.765 205.574C124.765 207.623 125.592 208.647 127.245 208.647C128.821 208.647 129.609 207.595 129.609 205.491C129.609 203.498 128.814 202.501 127.224 202.501Z" fill="#E3E4E5"/>
<path d="M140.182 211.168C138.404 211.168 137.005 210.671 135.984 209.678C134.97 208.678 134.464 207.324 134.464 205.616C134.464 203.852 134.991 202.473 136.047 201.48C137.102 200.48 138.529 199.98 140.328 199.98C142.099 199.98 143.488 200.48 144.495 201.48C145.502 202.473 146.005 203.789 146.005 205.428C146.005 207.199 145.484 208.598 144.443 209.626C143.408 210.654 141.988 211.168 140.182 211.168ZM140.266 202.501C139.488 202.501 138.884 202.768 138.453 203.303C138.022 203.838 137.807 204.595 137.807 205.574C137.807 207.623 138.634 208.647 140.286 208.647C141.863 208.647 142.651 207.595 142.651 205.491C142.651 203.498 141.856 202.501 140.266 202.501Z" fill="#E3E4E5"/>
<path d="M158.828 210.907H154.88L151.474 205.616H151.432V210.907H148.141V195.116H151.432V205.168H151.474L154.651 200.241H158.557L154.734 205.251L158.828 210.907Z" fill="#E3E4E5"/>
<path d="M169.349 206.511H162.391C162.502 208.06 163.477 208.834 165.318 208.834C166.491 208.834 167.522 208.557 168.411 208.001V210.376C167.425 210.904 166.144 211.168 164.568 211.168C162.845 211.168 161.509 210.692 160.557 209.741C159.606 208.782 159.13 207.449 159.13 205.741C159.13 203.97 159.644 202.567 160.672 201.532C161.7 200.498 162.963 199.98 164.463 199.98C166.019 199.98 167.22 200.442 168.068 201.366C168.922 202.289 169.349 203.543 169.349 205.126V206.511ZM166.297 204.491C166.297 202.963 165.679 202.199 164.443 202.199C163.915 202.199 163.457 202.418 163.068 202.855C162.686 203.293 162.453 203.838 162.37 204.491H166.297Z" fill="#E3E4E5"/>
<path d="M181.745 210.907H178.453V209.439H178.411C177.661 210.591 176.561 211.168 175.109 211.168C173.776 211.168 172.703 210.699 171.891 209.762C171.078 208.817 170.672 207.501 170.672 205.814C170.672 204.05 171.12 202.637 172.016 201.574C172.911 200.512 174.085 199.98 175.536 199.98C176.911 199.98 177.87 200.473 178.411 201.459H178.453V195.116H181.745V210.907ZM178.516 205.72V204.918C178.516 204.223 178.314 203.647 177.911 203.189C177.509 202.73 176.984 202.501 176.338 202.501C175.609 202.501 175.04 202.789 174.63 203.366C174.22 203.935 174.016 204.72 174.016 205.72C174.016 206.657 174.213 207.38 174.609 207.887C175.005 208.393 175.554 208.647 176.255 208.647C176.922 208.647 177.463 208.38 177.88 207.845C178.304 207.31 178.516 206.602 178.516 205.72Z" fill="#E3E4E5"/>
<path d="M106.719 237.502C105.976 237.933 104.903 238.148 103.5 238.148C101.861 238.148 100.535 237.652 99.5208 236.659C98.5069 235.666 98 234.384 98 232.815C98 231.002 98.5417 229.575 99.625 228.534C100.715 227.485 102.17 226.961 103.99 226.961C105.247 226.961 106.156 227.127 106.719 227.461V230.252C106.031 229.738 105.264 229.482 104.417 229.482C103.472 229.482 102.722 229.759 102.167 230.315C101.618 230.863 101.344 231.624 101.344 232.596C101.344 233.541 101.608 234.284 102.135 234.825C102.663 235.36 103.389 235.627 104.312 235.627C105.132 235.627 105.934 235.37 106.719 234.857V237.502Z" fill="#E3E4E5"/>
<path d="M113.958 238.148C112.181 238.148 110.781 237.652 109.76 236.659C108.747 235.659 108.24 234.304 108.24 232.596C108.24 230.832 108.767 229.454 109.823 228.461C110.879 227.461 112.306 226.961 114.104 226.961C115.875 226.961 117.264 227.461 118.271 228.461C119.278 229.454 119.781 230.77 119.781 232.409C119.781 234.179 119.26 235.579 118.219 236.607C117.184 237.634 115.764 238.148 113.958 238.148ZM114.042 229.482C113.264 229.482 112.66 229.749 112.229 230.284C111.799 230.818 111.583 231.575 111.583 232.554C111.583 234.603 112.41 235.627 114.062 235.627C115.639 235.627 116.427 234.575 116.427 232.471C116.427 230.478 115.632 229.482 114.042 229.482Z" fill="#E3E4E5"/>
<path d="M138.854 237.888H135.573V231.804C135.573 230.256 135.003 229.482 133.865 229.482C133.323 229.482 132.882 229.714 132.542 230.179C132.201 230.645 132.031 231.225 132.031 231.919V237.888H128.74V231.742C128.74 230.235 128.181 229.482 127.062 229.482C126.5 229.482 126.049 229.704 125.708 230.148C125.375 230.593 125.208 231.197 125.208 231.961V237.888H121.917V227.221H125.208V228.888H125.25C125.59 228.318 126.066 227.857 126.677 227.502C127.295 227.141 127.969 226.961 128.698 226.961C130.205 226.961 131.236 227.624 131.792 228.95C132.604 227.624 133.799 226.961 135.375 226.961C137.694 226.961 138.854 228.391 138.854 231.252L138.854 237.888Z" fill="#E3E4E5"/>
<path d="M158.396 237.888H155.114V231.804C155.114 230.256 154.545 229.482 153.406 229.482C152.864 229.482 152.424 229.714 152.083 230.179C151.743 230.645 151.573 231.225 151.573 231.919V237.888H148.281V231.742C148.281 230.235 147.722 229.482 146.604 229.482C146.042 229.482 145.59 229.704 145.25 230.148C144.917 230.593 144.75 231.197 144.75 231.961V237.888H141.458V227.221H144.75V228.888H144.792C145.132 228.318 145.608 227.857 146.219 227.502C146.837 227.141 147.51 226.961 148.24 226.961C149.746 226.961 150.778 227.624 151.333 228.95C152.146 227.624 153.34 226.961 154.917 226.961C157.236 226.961 158.396 228.391 158.396 231.252L158.396 237.888Z" fill="#E3E4E5"/>
<path d="M162.667 225.534C162.111 225.534 161.656 225.37 161.302 225.044C160.948 224.711 160.771 224.304 160.771 223.825C160.771 223.332 160.948 222.929 161.302 222.617C161.656 222.304 162.111 222.148 162.667 222.148C163.229 222.148 163.684 222.304 164.031 222.617C164.385 222.929 164.562 223.332 164.562 223.825C164.562 224.325 164.385 224.735 164.031 225.054C163.684 225.374 163.229 225.534 162.667 225.534ZM164.292 237.888H161V227.221H164.292V237.888Z" fill="#E3E4E5"/>
<path d="M166.365 237.607V234.94C166.906 235.266 167.444 235.509 167.979 235.669C168.521 235.829 169.031 235.909 169.51 235.909C170.094 235.909 170.552 235.829 170.885 235.669C171.226 235.509 171.396 235.266 171.396 234.94C171.396 234.732 171.319 234.558 171.167 234.419C171.014 234.28 170.816 234.159 170.573 234.054C170.337 233.95 170.076 233.857 169.792 233.773C169.507 233.69 169.233 233.596 168.969 233.492C168.545 233.332 168.17 233.162 167.844 232.982C167.524 232.794 167.253 232.579 167.031 232.336C166.816 232.093 166.649 231.811 166.531 231.492C166.42 231.172 166.365 230.794 166.365 230.357C166.365 229.759 166.493 229.245 166.75 228.815C167.014 228.384 167.361 228.034 167.792 227.763C168.229 227.485 168.726 227.284 169.281 227.159C169.844 227.027 170.427 226.961 171.031 226.961C171.503 226.961 171.983 226.999 172.469 227.075C172.955 227.145 173.434 227.249 173.906 227.388V229.929C173.489 229.686 173.042 229.506 172.562 229.388C172.09 229.263 171.625 229.2 171.167 229.2C170.951 229.2 170.746 229.221 170.552 229.263C170.364 229.298 170.198 229.353 170.052 229.429C169.906 229.499 169.792 229.593 169.708 229.711C169.625 229.822 169.583 229.95 169.583 230.096C169.583 230.291 169.646 230.457 169.771 230.596C169.896 230.735 170.059 230.857 170.26 230.961C170.462 231.058 170.684 231.148 170.927 231.232C171.177 231.308 171.424 231.388 171.667 231.471C172.104 231.624 172.5 231.791 172.854 231.971C173.208 232.152 173.51 232.363 173.76 232.607C174.017 232.85 174.212 233.134 174.344 233.461C174.483 233.787 174.552 234.176 174.552 234.627C174.552 235.259 174.413 235.801 174.135 236.252C173.864 236.697 173.5 237.061 173.042 237.346C172.59 237.624 172.066 237.825 171.469 237.95C170.878 238.082 170.264 238.148 169.625 238.148C168.451 238.148 167.364 237.968 166.365 237.607Z" fill="#E3E4E5"/>
<path d="M186.687 237.888H183.406V231.825C183.406 230.263 182.837 229.482 181.698 229.482C181.115 229.482 180.642 229.7 180.281 230.138C179.92 230.575 179.74 231.131 179.74 231.805V237.888H176.448V222.096H179.74V228.805H179.781C180.587 227.575 181.681 226.961 183.062 226.961C185.479 226.961 186.687 228.419 186.687 231.336L186.687 237.888Z" fill="#E3E4E5"/>
<path d="M60 205H96H60Z" fill="#E3E4E5"/>
<path d="M60 205H96" stroke="#E3E4E5" stroke-width="2.56673" stroke-miterlimit="10" stroke-linecap="round"/>
<path d="M123.896 100V98.564C124.371 97.4517 125.334 96.2397 126.784 94.9282L127.722 94.0898C128.929 92.9997 129.532 91.9178 129.532 90.8442C129.532 90.158 129.324 89.6185 128.909 89.2256C128.5 88.8327 127.932 88.6362 127.208 88.6362C126.361 88.6362 125.359 88.9655 124.203 89.624V88.1797C125.293 87.665 126.377 87.4077 127.457 87.4077C128.608 87.4077 129.529 87.7176 130.221 88.3374C130.918 88.9572 131.267 89.779 131.267 90.8027C131.267 91.5387 131.09 92.1917 130.735 92.7617C130.387 93.3317 129.734 94.0234 128.776 94.8369L128.146 95.3765C126.834 96.4888 126.076 97.5513 125.871 98.564H131.208V100H123.896ZM138.621 100.307C137.332 100.307 136.291 99.7178 135.5 98.5391C134.714 97.3548 134.321 95.7943 134.321 93.8574C134.321 91.9206 134.714 90.3628 135.5 89.1841C136.291 87.9998 137.332 87.4077 138.621 87.4077C139.916 87.4077 140.956 87.9971 141.742 89.1758C142.528 90.3545 142.921 91.915 142.921 93.8574C142.921 95.7943 142.528 97.3548 141.742 98.5391C140.956 99.7178 139.916 100.307 138.621 100.307ZM138.621 99.0786C140.331 99.0786 141.186 97.3382 141.186 93.8574C141.186 90.3766 140.331 88.6362 138.621 88.6362C136.917 88.6362 136.064 90.3766 136.064 93.8574C136.064 97.3382 136.917 99.0786 138.621 99.0786ZM145.411 100V98.564C145.887 97.4517 146.85 96.2397 148.3 94.9282L149.238 94.0898C150.444 92.9997 151.047 91.9178 151.047 90.8442C151.047 90.158 150.84 89.6185 150.425 89.2256C150.015 88.8327 149.448 88.6362 148.723 88.6362C147.876 88.6362 146.875 88.9655 145.718 89.624V88.1797C146.808 87.665 147.893 87.4077 148.972 87.4077C150.123 87.4077 151.045 87.7176 151.736 88.3374C152.434 88.9572 152.782 89.779 152.782 90.8027C152.782 91.5387 152.605 92.1917 152.251 92.7617C151.902 93.3317 151.249 94.0234 150.292 94.8369L149.661 95.3765C148.35 96.4888 147.591 97.5513 147.387 98.564H152.724V100H145.411ZM156.484 99.9087V98.3813C157.652 98.8462 158.571 99.0786 159.24 99.0786C160.032 99.0786 160.671 98.8517 161.158 98.3979C161.65 97.9442 161.896 97.3521 161.896 96.6216C161.896 94.895 160.687 94.0317 158.269 94.0317H157.622V92.9277L158.194 92.9194C160.463 92.9194 161.598 92.1198 161.598 90.5205C161.598 89.2643 160.845 88.6362 159.34 88.6362C158.532 88.6362 157.635 88.8659 156.65 89.3252V87.8975C157.619 87.571 158.551 87.4077 159.448 87.4077C160.671 87.4077 161.609 87.6512 162.262 88.1382C162.915 88.6252 163.241 89.3307 163.241 90.2549C163.241 91.6992 162.386 92.7285 160.676 93.3428C162.657 93.8021 163.648 94.8867 163.648 96.5967C163.648 97.7533 163.266 98.6608 162.502 99.3193C161.739 99.9779 160.69 100.307 159.356 100.307C158.598 100.307 157.641 100.174 156.484 99.9087Z" fill="#E3E4E5"/>
<defs>
<linearGradient id="paint0_linear_510_1072" x1="155.367" y1="330.375" x2="156.228" y2="331.574" gradientUnits="userSpaceOnUse">
<stop stop-color="#B9BABC"/>
<stop offset="0.332298" stop-color="#6F7072"/>
<stop offset="0.505068" stop-color="#1F2022"/>
<stop offset="0.691743" stop-color="#6F7072"/>
<stop offset="1" stop-color="#B9BABC"/>
</linearGradient>
<linearGradient id="paint1_linear_510_1072" x1="155.543" y1="329.925" x2="156.642" y2="331.732" gradientUnits="userSpaceOnUse">
<stop stop-color="#1D1E20"/>
<stop offset="1" stop-color="#CBCCCE"/>
</linearGradient>
<linearGradient id="paint2_linear_510_1072" x1="147.012" y1="328.833" x2="147.157" y2="330.24" gradientUnits="userSpaceOnUse">
<stop stop-color="#B9BABC"/>
<stop offset="0.332298" stop-color="#6F7072"/>
<stop offset="0.505068" stop-color="#1F2022"/>
<stop offset="0.691743" stop-color="#6F7072"/>
<stop offset="1" stop-color="#B9BABC"/>
</linearGradient>
<linearGradient id="paint3_linear_510_1072" x1="147.373" y1="328.543" x2="147.425" y2="330.568" gradientUnits="userSpaceOnUse">
<stop stop-color="#1D1E20"/>
<stop offset="1" stop-color="#CBCCCE"/>
</linearGradient>
<linearGradient id="paint4_linear_510_1072" x1="143.261" y1="324.512" x2="159.187" y2="330.602" gradientUnits="userSpaceOnUse">
<stop stop-opacity="0"/>
<stop offset="0.094718"/>
<stop offset="0.397666"/>
<stop offset="0.724935"/>
<stop offset="1" stop-opacity="0"/>
</linearGradient>
<linearGradient id="paint5_linear_510_1072" x1="122.564" y1="332.338" x2="144.539" y2="317.771" gradientUnits="userSpaceOnUse">
<stop stop-color="#CACACD"/>
<stop offset="1" stop-color="#D4D4D4"/>
</linearGradient>
<linearGradient id="paint6_linear_510_1072" x1="122.564" y1="332.338" x2="144.539" y2="317.771" gradientUnits="userSpaceOnUse">
<stop stop-color="#CACACD"/>
<stop offset="1" stop-color="#D4D4D4"/>
</linearGradient>
<linearGradient id="paint7_linear_510_1072" x1="122.564" y1="332.338" x2="144.539" y2="317.771" gradientUnits="userSpaceOnUse">
<stop stop-color="#CACACD"/>
<stop offset="1" stop-color="#D4D4D4"/>
</linearGradient>
<linearGradient id="paint8_linear_510_1072" x1="122.564" y1="332.339" x2="144.539" y2="317.771" gradientUnits="userSpaceOnUse">
<stop stop-color="#CACACD"/>
<stop offset="1" stop-color="#D4D4D4"/>
</linearGradient>
<linearGradient id="paint9_linear_510_1072" x1="122.564" y1="332.339" x2="144.539" y2="317.771" gradientUnits="userSpaceOnUse">
<stop stop-color="#CACACD"/>
<stop offset="1" stop-color="#D4D4D4"/>
</linearGradient>
<linearGradient id="paint10_linear_510_1072" x1="122.564" y1="332.338" x2="144.539" y2="317.771" gradientUnits="userSpaceOnUse">
<stop stop-color="#CACACD"/>
<stop offset="1" stop-color="#D4D4D4"/>
</linearGradient>
<linearGradient id="paint11_linear_510_1072" x1="132.115" y1="307.165" x2="131.693" y2="312.105" gradientUnits="userSpaceOnUse">
<stop stop-color="#CDCDCF"/>
<stop offset="0.583118" stop-color="#CCCCCE"/>
<stop offset="0.751085" stop-color="#929295"/>
<stop offset="0.891675" stop-color="#CCCCCE"/>
<stop offset="1" stop-color="#CDCDCF"/>
</linearGradient>
<linearGradient id="paint12_linear_510_1072" x1="133.285" y1="306.964" x2="133.064" y2="307.912" gradientUnits="userSpaceOnUse">
<stop stop-color="#B9BABC"/>
<stop offset="0.332298" stop-color="#6F7072"/>
<stop offset="0.505068" stop-color="#1F2022"/>
<stop offset="0.691743" stop-color="#6F7072"/>
<stop offset="1" stop-color="#B9BABC"/>
</linearGradient>
<linearGradient id="paint13_linear_510_1072" x1="133.522" y1="306.842" x2="133.047" y2="308.169" gradientUnits="userSpaceOnUse">
<stop stop-color="#1D1E20"/>
<stop offset="1" stop-color="#CBCCCE"/>
</linearGradient>
<linearGradient id="paint14_linear_510_1072" x1="132.734" y1="308.288" x2="132.513" y2="309.236" gradientUnits="userSpaceOnUse">
<stop stop-color="#B9BABC"/>
<stop offset="0.332298" stop-color="#6F7072"/>
<stop offset="0.505068" stop-color="#1F2022"/>
<stop offset="0.691743" stop-color="#6F7072"/>
<stop offset="1" stop-color="#B9BABC"/>
</linearGradient>
<linearGradient id="paint15_linear_510_1072" x1="132.972" y1="308.166" x2="132.497" y2="309.493" gradientUnits="userSpaceOnUse">
<stop stop-color="#1D1E20"/>
<stop offset="1" stop-color="#CBCCCE"/>
</linearGradient>
<linearGradient id="paint16_linear_510_1072" x1="145.389" y1="327.819" x2="151.036" y2="323.622" gradientUnits="userSpaceOnUse">
<stop stop-color="#CDCDCF"/>
<stop offset="0.583118" stop-color="#CCCCCE"/>
<stop offset="0.751085" stop-color="#929295"/>
<stop offset="0.891675" stop-color="#CCCCCE"/>
<stop offset="1" stop-color="#CDCDCF"/>
</linearGradient>
<linearGradient id="paint17_linear_510_1072" x1="147.126" y1="325.387" x2="147.401" y2="326.293" gradientUnits="userSpaceOnUse">
<stop stop-color="#B9BABC"/>
<stop offset="0.332298" stop-color="#6F7072"/>
<stop offset="0.505068" stop-color="#1F2022"/>
<stop offset="0.691743" stop-color="#6F7072"/>
<stop offset="1" stop-color="#B9BABC"/>
</linearGradient>
<linearGradient id="paint18_linear_510_1072" x1="147.334" y1="324.915" x2="147.864" y2="326.462" gradientUnits="userSpaceOnUse">
<stop stop-color="#1D1E20"/>
<stop offset="1" stop-color="#CBCCCE"/>
</linearGradient>
<linearGradient id="paint19_linear_510_1072" x1="148.925" y1="324.548" x2="147.909" y2="324.646" gradientUnits="userSpaceOnUse">
<stop stop-color="#B9BABC"/>
<stop offset="0.332298" stop-color="#6F7072"/>
<stop offset="0.505068" stop-color="#1F2022"/>
<stop offset="0.691743" stop-color="#6F7072"/>
<stop offset="1" stop-color="#B9BABC"/>
</linearGradient>
<linearGradient id="paint20_linear_510_1072" x1="149.132" y1="324.81" x2="147.671" y2="324.838" gradientUnits="userSpaceOnUse">
<stop stop-color="#1D1E20"/>
<stop offset="1" stop-color="#CBCCCE"/>
</linearGradient>
</defs>
</svg>
